<?xml version="1.0" encoding="utf-8"?>
<!-- Generator: Adobe Illustrator 19.1.1, SVG Export Plug-In . SVG Version: 6.00 Build 0)  -->
<svg version="1.1" id="Layer_1" xmlns="http://www.w3.org/2000/svg" xmlns:xlink="http://www.w3.org/1999/xlink" x="0px" y="0px"
	 viewBox="0 0 306.1 70.9" style="enable-background:new 0 0 306.1 70.9;" xml:space="preserve">
<style type="text/css">
	.st0{fill:#AAAAAA;}
	.st1{fill:#0BAD86;}
</style>
<g>
	<g>
		<path class="st0" d="M98.2,3.8H80v8.9l10.5,0h8.8c15.3,0,23,7.4,23,22.2c0,7.4-2.1,13.1-6.2,17.2c-4.1,4.1-9.8,6.1-17.2,6.1h-8.4
			l-10.5,0v8.9h17.5c10.9,0,19.6-3,26-8.9c6.5-5.9,9.7-13.8,9.7-23.5C133.2,14.1,121.6,3.8,98.2,3.8z"/>
		<path class="st0" d="M171.8,3.8H160l-23.7,63.2h11.5l16.9-49.9c0.3-1,0.6-2.3,0.9-4h0.2c0.3,1.8,0.6,3.1,0.8,4l17.2,49.9h11.5
			L171.8,3.8z"/>
		<path class="st0" d="M201.1,64.5V53.7c1,0.9,2.1,1.7,3.5,2.4c1.3,0.7,2.8,1.3,4.3,1.8c1.5,0.5,3,0.9,4.5,1.1
			c1.5,0.3,2.9,0.4,4.1,0.4c4.4,0,7.7-0.7,9.9-2.2c2.2-1.5,3.2-3.6,3.2-6.4c0-1.5-0.4-2.8-1.1-3.9c-0.7-1.1-1.7-2.1-3-3
			c-1.3-0.9-2.8-1.8-4.6-2.6c-1.8-0.8-3.6-1.7-5.6-2.6c-2.1-1.1-4.1-2.3-6-3.5c-1.9-1.2-3.5-2.5-4.8-3.9c-1.4-1.4-2.4-3-3.2-4.8
			c-0.8-1.8-1.2-3.9-1.2-6.3c0-3,0.7-5.5,2-7.7c1.3-2.2,3.1-4,5.3-5.4c2.2-1.4,4.7-2.5,7.5-3.2c2.8-0.7,5.6-1,8.6-1
			c6.6,0,11.4,0.8,14.5,2.2v10.4c-3.6-2.6-8.2-3.9-13.8-3.9c-1.6,0-3.1,0.1-4.7,0.4c-1.5,0.3-2.9,0.8-4.1,1.5
			c-1.2,0.7-2.2,1.5-3,2.6c-0.8,1.1-1.1,2.3-1.1,3.8c0,1.4,0.3,2.6,0.9,3.7c0.6,1,1.4,2,2.6,2.8c1.1,0.9,2.5,1.7,4.1,2.5
			c1.6,0.8,3.5,1.7,5.7,2.6c2.2,1.1,4.3,2.4,6.2,3.6c2,1.3,3.7,2.7,5.2,4.2c1.5,1.5,2.7,3.2,3.5,5.1c0.9,1.9,1.3,4,1.3,6.4
			c0,3.2-0.6,5.9-1.9,8.1c-1.3,2.2-3,4-5.2,5.4c-2.2,1.4-4.7,2.4-7.6,3s-5.9,0.9-9,0.9c-1.1,0-2.4-0.1-3.9-0.2
			c-1.5-0.2-3.1-0.4-4.7-0.7c-1.6-0.3-3.1-0.7-4.6-1.1C203.1,65.6,202,65.1,201.1,64.5z"/>
		<path class="st0" d="M304,67.1h-10.5V39.6h-29.8v27.4h-10.5V3.8h10.5v26.6h29.8V3.8H304V67.1z"/>
	</g>
	<g>
		<polygon class="st1" points="2.2,66.6 15.4,66.6 21.6,57 14.5,47 		"/>
		<polygon class="st1" points="13.8,18.9 21,7.9 17.8,4 3.3,4 		"/>
		<polygon class="st1" points="39.6,34.2 62.4,4 45.4,4 24.6,34.2 47.9,66.6 65.2,66.6 		"/>
		<path class="st1" d="M22.3,31l2.3,3.2L22.3,31z"/>
	</g>
</g>
</svg>
