<?xml version="1.0" standalone="no"?>
<!DOCTYPE svg PUBLIC "-//W3C//DTD SVG 1.1//EN" "http://www.w3.org/Graphics/SVG/1.1/DTD/svg11.dtd" >
<svg xmlns="http://www.w3.org/2000/svg" xmlns:xlink="http://www.w3.org/1999/xlink" version="1.1">
<metadata>
Created by FontForge 20150102 at Fri Feb 13 14:22:41 2015
 By uniteet7
Font Design Owned by UEFACopyright: Design copyright (c) 2014 by The Entente (AS&#38;EH) / Colophon Foundry.
</metadata>
<defs>
<font id="europanuovaregularweb" horiz-adv-x="610" >
  <font-face 
    font-family="europanuovaregularweb"
    font-weight="400"
    font-stretch="normal"
    units-per-em="1024"
    panose-1="2 0 0 0 0 0 0 0 0 0"
    ascent="819"
    descent="-205"
    x-height="526"
    cap-height="717"
    bbox="-36 -281 1336 995"
    underline-thickness="51"
    underline-position="-51"
    unicode-range="U+000D-FB02"
  />
<missing-glyph horiz-adv-x="248" 
 />
    <glyph glyph-name="fi" unicode="fi" horiz-adv-x="579" 
d="M410 449h-201v-449h-96v449h-76v77h76v46q0 81 41.5 121t108.5 40q17 0 29.5 -1.5t23.5 -3.5v-86q-8 4 -20.5 6.5t-25.5 2.5q-25 0 -43 -15.5t-18 -50.5v-59h297v-526h-96v449zM406 717h104v-105h-104v105z" />
    <glyph glyph-name="fl" unicode="fl" horiz-adv-x="579" 
d="M409 545q0 56 -28.5 81t-71.5 25t-71.5 -25t-28.5 -81v-19h101v-77h-101v-449h-96v449h-76v77h76v29q0 40 14.5 73.5t41 56.5t62.5 35.5t78 12.5t78 -12.5t62 -37t41 -58t15 -75.5v-550h-96v545z" />
    <glyph glyph-name=".notdef" horiz-adv-x="248" 
 />
    <glyph glyph-name=".null" horiz-adv-x="0" 
 />
    <glyph glyph-name="nonmarkingreturn" unicode="&#xd;" horiz-adv-x="248" 
 />
    <glyph glyph-name="NULL" horiz-adv-x="0" 
 />
    <glyph glyph-name="NULL" horiz-adv-x="0" 
 />
    <glyph glyph-name="space" unicode=" " horiz-adv-x="248" 
 />
    <glyph glyph-name="exclam" unicode="!" horiz-adv-x="245" 
d="M70 717h100v-111l-16 -416h-68l-16 416v111zM66 111h108v-111h-108v111z" />
    <glyph glyph-name="quotedbl" unicode="&#x22;" horiz-adv-x="358" 
d="M205 717h94v-49l-14 -170h-66l-14 170v49zM59 717h95v-49l-15 -170h-65l-15 170v49z" />
    <glyph glyph-name="numbersign" unicode="#" horiz-adv-x="691" 
d="M197 526l33 191h98l-34 -191h162l33 191h98l-34 -191h118l-17 -92h-117l-27 -151h117l-17 -93h-116l-33 -190h-97l32 190h-162l-32 -190h-98l33 190h-117l17 93h117l26 151h-115l16 92h116zM251 283h162l26 151h-161z" />
    <glyph glyph-name="dollar" unicode="$" horiz-adv-x="686" 
d="M309 -13q-50 5 -91.5 25.5t-72.5 52t-50 73.5t-25 91l95 20q6 -32 17 -60.5t28 -51.5t41.5 -39t57.5 -22v251q-49 7 -89.5 25t-68.5 44t-44 60t-16 75q0 44 18 80t47.5 61.5t69.5 40.5t83 19v97h68v-98q100 -10 152.5 -67t65.5 -141l-95 -18q-12 55 -42 91t-81 45v-234
q113 -14 173.5 -66t60.5 -134q0 -43 -15.5 -82t-46 -69t-74 -49t-98.5 -22v-98h-68v100zM508 199q0 45 -28 74.5t-103 43.5v-244q60 7 95.5 39t35.5 87zM194 536q0 -41 26 -72t89 -45v224q-47 -6 -81 -33t-34 -74z" />
    <glyph glyph-name="percent" unicode="%" horiz-adv-x="959" 
d="M227 319q-83 0 -132.5 55t-49.5 152t49.5 152t132.5 55t132.5 -54.5t49.5 -152.5q0 -97 -49.5 -152t-132.5 -55zM227 664q-49 0 -76.5 -36.5t-27.5 -101.5t27.5 -101t76.5 -36t77 36.5t28 100.5q0 65 -28 101.5t-77 36.5zM680 717h94l-494 -717h-95zM733 -16
q-83 0 -132.5 54.5t-49.5 151.5t49.5 152t132.5 55t132 -54.5t49 -152.5q0 -97 -49 -151.5t-132 -54.5zM733 328q-49 0 -76.5 -36.5t-27.5 -101.5t27.5 -101t76.5 -36t77 36.5t28 100.5q0 65 -28 101.5t-77 36.5z" />
    <glyph glyph-name="ampersand" unicode="&#x26;" horiz-adv-x="704" 
d="M61 199q0 67 38.5 120.5t121.5 96.5q-25 33 -42.5 72t-17.5 82q0 32 12 61t34.5 52t55 36.5t72.5 13.5t72 -11.5t54.5 -32t35 -49t12.5 -60.5q0 -34 -12 -62t-32.5 -51.5t-47.5 -41.5t-58 -34l138 -166q12 33 19 71.5t8 81.5h87q0 -66 -13.5 -123t-38.5 -104l125 -151
h-120l-60 73q-41 -43 -93.5 -66t-113.5 -23q-53 0 -96.5 14.5t-74.5 42.5t-48 68t-17 90zM302 72q43 0 80 18t65 50l-174 212q-55 -28 -84 -61.5t-29 -85.5q0 -27 9.5 -51t28 -42.5t44.5 -29t60 -10.5zM253 574q0 -27 10 -52.5t44 -66.5q35 15 57 29.5t33.5 29t15.5 30
t4 30.5q0 42 -25.5 61.5t-58.5 19.5q-39 0 -59.5 -25t-20.5 -56z" />
    <glyph glyph-name="quotesingle" unicode="'" horiz-adv-x="212" 
d="M59 717h95v-49l-15 -170h-65l-15 170v49z" />
    <glyph glyph-name="parenleft" unicode="(" horiz-adv-x="323" 
d="M268 790q-43 -105 -65.5 -209.5t-22.5 -222.5t22.5 -221.5t65.5 -209.5h-86q-23 42 -42 90t-34 101t-23.5 113t-8.5 127q0 135 31.5 241t76.5 191h86z" />
    <glyph glyph-name="parenright" unicode=")" horiz-adv-x="323" 
d="M141 790q23 -42 42.5 -90t34 -101t23.5 -113t9 -128t-9 -127.5t-23.5 -112.5t-34 -101t-42.5 -90h-86q43 105 65.5 209.5t22.5 221.5q0 118 -22.5 222t-65.5 210h86z" />
    <glyph glyph-name="asterisk" unicode="*" horiz-adv-x="393" 
d="M197 535l-55 -108l-64 47l84 84l-118 19l26 75l105 -54l-18 119h80l-20 -119l107 54l25 -75l-119 -19l85 -84l-64 -47z" />
    <glyph glyph-name="plus" unicode="+" horiz-adv-x="569" 
d="M45 352h199v199h82v-199h198v-82h-198v-198h-82v198h-199v82z" />
    <glyph glyph-name="comma" unicode="," horiz-adv-x="237" 
d="M59 117h117v-117q0 -68 -33 -95.5t-84 -27.5v62q30 0 42.5 14.5t13.5 46.5h-56v117z" />
    <glyph glyph-name="hyphen" unicode="-" horiz-adv-x="385" 
d="M45 336h295v-82h-295v82z" />
    <glyph glyph-name="period" unicode="." horiz-adv-x="237" 
d="M59 117h117v-117h-117v117z" />
    <glyph glyph-name="slash" unicode="/" horiz-adv-x="538" 
d="M412 717h100l-389 -717h-100z" />
    <glyph glyph-name="zero" unicode="0" horiz-adv-x="651" 
d="M598 358q0 -90 -19.5 -160t-55 -117.5t-86 -72t-111.5 -24.5t-112 24.5t-86.5 72t-55 117.5t-19.5 160t19.5 160.5t55 118t86 72t112.5 24.5q61 0 111.5 -24.5t86 -72t55 -118t19.5 -160.5zM496 358q0 144 -44 216.5t-126 72.5t-126 -72t-44 -217q0 -144 44 -216t126 -72
t126 72t44 216z" />
    <glyph glyph-name="one" unicode="1" horiz-adv-x="561" 
d="M86 84h145v522l-145 -112v110l145 113h99v-633h145v-84h-389v84z" />
    <glyph glyph-name="two" unicode="2" horiz-adv-x="606" 
d="M70 26q0 56 16.5 103t49 86.5t79 74t106.5 64.5q35 18 57.5 36t36.5 37t19.5 41t5.5 50q0 57 -39 94t-105 37q-28 0 -53 -8.5t-44 -25t-29.5 -39t-10.5 -50.5q0 -9 1.5 -18t3.5 -20l-89 -33q-12 34 -13 67q0 42 16.5 80.5t47 67.5t73.5 46t97 17q58 0 103.5 -16t76.5 -44
t47 -66.5t16 -82.5q0 -38 -9 -70.5t-29.5 -62t-54 -57t-84.5 -53.5q-89 -48 -133.5 -93t-47.5 -104h372v-84h-483v26z" />
    <glyph glyph-name="three" unicode="3" horiz-adv-x="629" 
d="M146 230q4 -35 16.5 -64.5t33.5 -51.5t50.5 -34t68.5 -12q32 0 59.5 9.5t48.5 29.5t33 48.5t12 67.5q0 37 -12 65.5t-32.5 48.5t-49 31t-62.5 11q-20 0 -40.5 -5t-29.5 -10l-52 68l218 201h-322v84h438v-84l-179 -168q43 -2 83 -18t70.5 -46t49 -73.5t18.5 -100.5
q0 -51 -17 -95.5t-49.5 -77t-79.5 -51.5t-107 -19q-59 0 -104.5 18t-78 49t-51.5 71.5t-26 84.5z" />
    <glyph glyph-name="four" unicode="4" horiz-adv-x="629" 
d="M49 238l326 479h105v-479h105v-84h-105v-154h-98v154h-333v84zM382 238v333l-227 -333h227z" />
    <glyph glyph-name="five" unicode="5" horiz-adv-x="649" 
d="M132 717h400v-84h-323l-35 -204q29 26 69 42.5t91 16.5q55 0 99 -18.5t75 -52.5t47 -80t16 -100t-18 -101t-52 -80.5t-81 -52.5t-104 -19q-60 0 -104.5 17.5t-76 47.5t-49.5 68t-26 79l94 23q5 -32 17 -59.5t32 -48t48.5 -32t64.5 -11.5q75 0 116 46t41 123t-41 123.5
t-116 46.5q-32 0 -57.5 -8.5t-45.5 -21.5t-35.5 -29.5t-27.5 -33.5l-74 33z" />
    <glyph glyph-name="six" unicode="6" horiz-adv-x="635" 
d="M55 321q0 104 24 181.5t64.5 128.5t93 76.5t108.5 25.5q83 0 139.5 -41.5t75.5 -122.5l-82 -24q-16 55 -51.5 79.5t-85.5 24.5q-36 0 -67.5 -17.5t-57.5 -51.5t-42.5 -84t-21.5 -114q13 22 33 40t45 32t54 21.5t60 7.5q48 0 91 -16t75.5 -48t51 -78.5t18.5 -108.5
q0 -54 -19 -99.5t-53.5 -79t-82 -51.5t-103.5 -18q-55 0 -104 20.5t-85.5 62.5t-57 105t-20.5 149zM326 397q-33 0 -61 -11.5t-49 -33t-33.5 -52.5t-12.5 -69t12.5 -68t33.5 -51.5t49 -32.5t61 -11q32 0 60.5 11t49.5 32.5t33 52.5t12 68q0 38 -12 69t-33 52.5t-49.5 32.5
t-60.5 11z" />
    <glyph glyph-name="seven" unicode="7" horiz-adv-x="523" 
d="M236 0h-98l230 633h-325v84h429v-68z" />
    <glyph glyph-name="eight" unicode="8" horiz-adv-x="624" 
d="M564 204q0 -55 -19.5 -96t-53.5 -69t-80 -41.5t-99 -13.5q-52 0 -98 13.5t-80.5 41.5t-54 68.5t-19.5 96.5q0 35 10.5 65t28 53.5t40 40.5t45.5 27q-17 9 -34 23.5t-30.5 34t-21.5 42.5t-8 50q0 47 17.5 82.5t47.5 60.5t70.5 37.5t86.5 12.5t86.5 -12.5t71 -37.5
t48 -60.5t17.5 -82.5q0 -27 -8.5 -50t-21.5 -42.5t-30 -34t-35 -23.5q24 -10 46.5 -27t40 -40.5t27.5 -53.5t10 -65zM462 206q0 61 -39.5 98.5t-110.5 37.5t-110 -37.5t-39 -98.5t39.5 -98.5t109.5 -37.5q71 0 110.5 37.5t39.5 98.5zM438 540q0 52 -34 81.5t-92 29.5
q-57 0 -91.5 -29.5t-34.5 -81.5t34.5 -82t91.5 -30t91.5 30t34.5 82z" />
    <glyph glyph-name="nine" unicode="9" horiz-adv-x="635" 
d="M581 396q0 -104 -23 -181.5t-62.5 -128.5t-92.5 -76.5t-112 -25.5q-83 0 -139 41.5t-76 121.5l82 25q16 -53 51.5 -78.5t85.5 -25.5q41 0 74.5 18t58 53t38.5 84.5t18 112.5q-29 -46 -76 -74.5t-114 -28.5q-45 0 -88 16.5t-76.5 48.5t-53.5 78.5t-20 107.5q0 54 19 100
t53.5 79t81.5 51.5t104 18.5q58 0 107 -20.5t84.5 -62.5t55.5 -105t20 -149zM310 319q32 0 60.5 12t49.5 33.5t33.5 52t12.5 68.5t-12.5 68.5t-33.5 52t-49.5 32.5t-60.5 11q-33 0 -61 -11t-49 -32.5t-33 -52.5t-12 -69t12 -68.5t33 -52t49 -33t61 -11.5z" />
    <glyph glyph-name="colon" unicode=":" horiz-adv-x="235" 
d="M59 467h117v-117h-117v117zM59 117h117v-117h-117v117z" />
    <glyph glyph-name="semicolon" unicode=";" horiz-adv-x="235" 
d="M59 467h117v-117h-117v117zM59 117h117v-117q0 -68 -33 -95.5t-84 -27.5v62q30 0 42.5 14.5t13.5 46.5h-56v117z" />
    <glyph glyph-name="less" unicode="&#x3c;" horiz-adv-x="531" 
d="M53 377l421 209v-88l-328 -162l328 -162v-88l-421 209v82z" />
    <glyph glyph-name="equal" unicode="=" horiz-adv-x="569" 
d="M45 455h479v-82h-479v82zM45 260h479v-82h-479v82z" />
    <glyph glyph-name="greater" unicode="&#x3e;" horiz-adv-x="531" 
d="M478 295l-421 -209v88l328 162l-328 162v88l421 -209v-82z" />
    <glyph glyph-name="question" unicode="?" horiz-adv-x="545" 
d="M219 111h109v-111h-109v111zM226 190v49q0 28 3 51.5t13.5 45.5t29.5 42t50 41q52 34 68.5 65.5t16.5 67.5q0 45 -35.5 71t-91.5 26q-28 0 -51.5 -8.5t-41 -25t-27.5 -39t-10 -50.5q0 -9 1.5 -19.5t3.5 -18.5l-89 -33q-12 34 -13 67q0 42 15.5 80.5t44 67.5t70.5 46
t97 17q50 0 91 -12.5t70 -35.5t45.5 -55.5t16.5 -72.5q0 -69 -33 -112.5t-92 -80.5q-33 -20 -44 -55t-11 -86v-33h-97z" />
    <glyph glyph-name="at" unicode="@" horiz-adv-x="827" 
d="M618 550l-49 -299q-1 -7 -1 -9v-5q0 -14 7 -19t21 -5q50 0 84.5 46t34.5 136q0 66 -23.5 116.5t-63 85t-91.5 52t-108 17.5q-55 0 -109 -21t-96.5 -60.5t-68.5 -96t-26 -127.5q0 -77 24.5 -134t65.5 -96t94 -58.5t110 -19.5q32 0 58 3.5t49.5 10.5t46.5 16.5t48 21.5
l31 -62q-60 -30 -116.5 -44.5t-124.5 -14.5q-80 0 -146.5 28t-115 77.5t-75.5 117t-27 146.5q0 93 33.5 164t87 119t121 72.5t136.5 24.5q86 0 152 -28.5t111.5 -75t68.5 -105.5t23 -121q0 -59 -16.5 -106.5t-44.5 -81.5t-63 -52t-72 -18q-42 0 -60.5 20t-18.5 58
q-17 -34 -55.5 -56t-81.5 -22q-40 0 -72 14.5t-53.5 39t-33 57.5t-11.5 71q0 52 15 95t44 74.5t69.5 49t91.5 17.5q42 0 74 -19t44 -49l20 55h58zM418 496q-31 0 -56.5 -13t-44 -35.5t-28 -52.5t-9.5 -65q0 -49 25.5 -83t71.5 -34q33 0 59.5 15.5t45.5 39.5t29 54t10 61
q0 52 -28.5 82.5t-74.5 30.5z" />
    <glyph glyph-name="A" unicode="A" horiz-adv-x="706" 
d="M299 717h109l288 -717h-106l-65 166h-344l-64 -166h-107zM215 254h277l-139 354z" />
    <glyph glyph-name="B" unicode="B" horiz-adv-x="679" 
d="M84 717h299q41 0 80 -12t69.5 -35t49 -57t18.5 -78q0 -62 -26.5 -99t-64.5 -60q52 -20 86 -63.5t34 -107.5q0 -48 -19.5 -86t-52.5 -64.5t-75.5 -40.5t-88.5 -14h-309v717zM186 88h207q56 0 94.5 29t38.5 88q0 58 -38 87.5t-95 29.5h-207v-234zM186 410h194q25 0 45.5 7
t37 21t26 34.5t9.5 46.5q0 27 -10.5 47.5t-27.5 34t-39 21t-46 7.5h-189v-219z" />
    <glyph glyph-name="C" unicode="C" horiz-adv-x="724" 
d="M690 221q-27 -109 -102 -173t-195 -64q-75 0 -136.5 26t-106.5 75t-70 118t-25 155t25.5 155.5t71.5 118.5t107.5 75t133.5 26q57 0 106.5 -15t87.5 -43.5t63.5 -70t35.5 -94.5l-99 -18q-19 74 -69.5 113.5t-124.5 39.5q-51 0 -93.5 -19t-73 -55t-47.5 -90t-17 -123
q0 -70 17 -123t47.5 -89t73 -55t93.5 -19q84 0 134 46.5t69 124.5z" />
    <glyph glyph-name="D" unicode="D" horiz-adv-x="706" 
d="M84 717h218q75 0 138.5 -23.5t110.5 -69.5t73.5 -113t26.5 -153t-26.5 -152.5t-73.5 -112.5t-110.5 -69.5t-138.5 -23.5h-218v717zM186 629v-541h116q54 0 99 16.5t77 49.5t49.5 84t17.5 120t-17.5 120t-49.5 84.5t-77 50t-99 16.5h-116z" />
    <glyph glyph-name="E" unicode="E" horiz-adv-x="602" 
d="M84 717h453v-88h-351v-223h324v-89h-324v-229h359v-88h-461v717z" />
    <glyph glyph-name="F" unicode="F" horiz-adv-x="603" 
d="M84 717h472v-88h-370v-223h343v-89h-343v-317h-102v717z" />
    <glyph glyph-name="G" unicode="G" horiz-adv-x="774" 
d="M381 365h331v-219q-51 -75 -125 -118.5t-180 -43.5q-75 0 -139 26t-111 75t-74.5 118t-27.5 155t29 155.5t77.5 118.5t112 75t134.5 26q61 0 111.5 -16t88 -45t62 -69.5t36.5 -89.5l-98 -26q-17 76 -70 117t-130 41q-48 0 -93 -19t-78.5 -55t-54 -90t-20.5 -123
q0 -70 19 -123t52.5 -89t79 -55t99.5 -19q41 0 72 9.5t55 24t42 32.5t32 34v104h-232v89z" />
    <glyph glyph-name="H" unicode="H" horiz-adv-x="700" 
d="M84 717h102v-311h328v311h102v-717h-102v317h-328v-317h-102v717z" />
    <glyph glyph-name="I" unicode="I" horiz-adv-x="270" 
d="M84 717h102v-717h-102v717z" />
    <glyph glyph-name="J" unicode="J" horiz-adv-x="575" 
d="M403 717h103v-478q0 -58 -16 -106t-45.5 -81t-71.5 -50.5t-93 -17.5q-44 0 -82 12.5t-67.5 37t-48.5 61t-25 83.5l95 20q10 -68 43 -97t85 -29q33 0 56 13t38 35t22 52t7 64v481z" />
    <glyph glyph-name="K" unicode="K" horiz-adv-x="609" 
d="M84 717h102v-310l263 310h123l-289 -339l316 -378h-130l-283 337v-337h-102v717z" />
    <glyph glyph-name="L" unicode="L" horiz-adv-x="595" 
d="M84 717h102v-629h359v-88h-461v717z" />
    <glyph glyph-name="M" unicode="M" horiz-adv-x="874" 
d="M84 717h115l238 -624l239 624h115v-717h-103v514l-196 -514h-109l-197 514v-514h-102v717z" />
    <glyph glyph-name="N" unicode="N" horiz-adv-x="731" 
d="M84 717h115l346 -562v562h102v-717h-115l-346 562v-562h-102v717z" />
    <glyph glyph-name="O" unicode="O" horiz-adv-x="782" 
d="M727 358q0 -86 -24.5 -155t-69 -118t-106 -75t-136.5 -26t-136 26t-106 75t-69.5 118t-24.5 155t24.5 155.5t69.5 118.5t106 75t136 26t136.5 -26t106 -75t69 -118.5t24.5 -155.5zM621 358q0 69 -17 123t-47.5 90t-72.5 55t-93 19t-93 -19t-72 -55t-47 -90t-17 -123
q0 -70 17 -123t47 -89t72 -55t93 -19t93 19t72.5 55t47.5 89t17 123z" />
    <glyph glyph-name="P" unicode="P" horiz-adv-x="635" 
d="M84 717h251q56 0 103 -15.5t81 -44t52.5 -70.5t18.5 -95t-18.5 -95.5t-52.5 -71t-81 -44t-103 -15.5h-149v-266h-102v717zM186 354h147q68 0 111 33.5t43 104.5t-43 104t-111 33h-147v-275z" />
    <glyph glyph-name="Q" unicode="Q" horiz-adv-x="782" 
d="M727 358q0 -77 -19.5 -139.5t-55.5 -110.5l70 -70l-63 -63l-69 70q-41 -30 -90.5 -45.5t-108.5 -15.5q-75 0 -136 26t-106 75t-69.5 118t-24.5 155t24.5 155.5t69.5 118.5t106 75t136 26t136.5 -26t106 -75t69 -118.5t24.5 -155.5zM472 289l108 -109q19 35 30 79t11 99
q0 69 -17 123t-47.5 90t-72.5 55t-93 19t-93 -19t-72 -55t-47 -90t-17 -123q0 -70 17 -123t47 -89t72 -55t93 -19q78 0 131 41l-112 113z" />
    <glyph glyph-name="R" unicode="R" horiz-adv-x="671" 
d="M337 279h-151v-279h-102v717h256q53 0 98.5 -15t79.5 -43t53 -69t19 -92q0 -76 -39.5 -127.5t-104.5 -74.5l166 -296h-119zM186 367h156q62 0 103.5 32t41.5 99t-41.5 99t-103.5 32h-156v-262z" />
    <glyph glyph-name="S" unicode="S" horiz-adv-x="688" 
d="M508 193q0 28 -8 49t-28 37t-54.5 27t-87.5 18q-55 7 -99.5 24.5t-75.5 44.5t-47.5 61.5t-16.5 76.5q0 47 20 84.5t54.5 64t79.5 40t95 13.5q61 0 105.5 -16t75.5 -44.5t49 -67t25 -82.5l-95 -18q-14 69 -56 104.5t-104 35.5q-30 0 -56.5 -7t-46.5 -21t-31.5 -34.5
t-11.5 -46.5q0 -50 39 -84t135 -44q53 -6 97.5 -21t76.5 -40t50 -60.5t18 -80.5q0 -46 -17.5 -87t-50.5 -71t-80.5 -47t-107.5 -17q-61 0 -111 18t-86.5 51t-59 78t-28.5 98l95 20q6 -36 19.5 -68.5t36 -56.5t55.5 -38t79 -14q70 0 112 33.5t42 87.5z" />
    <glyph glyph-name="T" unicode="T" horiz-adv-x="614" 
d="M31 717h553v-88h-226v-629h-102v629h-225v88z" />
    <glyph glyph-name="U" unicode="U" horiz-adv-x="698" 
d="M74 717h102v-466q0 -39 11.5 -72.5t33.5 -57t54 -36.5t74 -13t74.5 13t54.5 36.5t33 57t11 72.5v466h103v-453q0 -74 -22 -126.5t-60 -87t-88.5 -50.5t-105.5 -16t-105 16t-88 50t-60 87t-22 127v453z" />
    <glyph glyph-name="V" unicode="V" horiz-adv-x="694" 
d="M15 717h110l222 -602l222 602h110l-278 -717h-108z" />
    <glyph glyph-name="W" unicode="W" horiz-adv-x="1001" 
d="M12 717h103l170 -596l157 596h117l158 -596l170 596h102l-212 -717h-114l-162 610l-162 -610h-115z" />
    <glyph glyph-name="X" unicode="X" horiz-adv-x="634" 
d="M317 465l155 252h114l-212 -338l238 -379h-114l-181 289l-180 -289h-114l238 379l-212 338h114z" />
    <glyph glyph-name="Y" unicode="Y" horiz-adv-x="618" 
d="M258 266l-250 451h112l189 -346l190 346h111l-250 -451v-266h-102v266z" />
    <glyph glyph-name="Z" unicode="Z" horiz-adv-x="611" 
d="M61 717h491v-76l-387 -553h398v-88h-514v76l387 553h-375v88z" />
    <glyph glyph-name="bracketleft" unicode="[" horiz-adv-x="300" 
d="M79 717h174v-76h-90v-729h90v-76h-174v881z" />
    <glyph glyph-name="backslash" unicode="\" horiz-adv-x="538" 
d="M516 0h-100l-389 717h100z" />
    <glyph glyph-name="bracketright" unicode="]" horiz-adv-x="300" 
d="M221 -164h-174v76h90v729h-90v76h174v-881z" />
    <glyph glyph-name="asciicircum" unicode="^" horiz-adv-x="520" 
d="M301 717l199 -279h-100l-140 199l-140 -199h-100l199 279h82z" />
    <glyph glyph-name="underscore" unicode="_" horiz-adv-x="506" 
d="M16 -16h474v-82h-474v82z" />
    <glyph glyph-name="grave" unicode="`" horiz-adv-x="322" 
d="M185 584l-122 133h120l76 -133h-74z" />
    <glyph glyph-name="a" unicode="a" horiz-adv-x="647" 
d="M573 526v-526h-86l-10 77q-11 -16 -27 -33t-38 -30.5t-50 -21.5t-63 -8q-51 0 -96 20t-79 56t-53.5 88t-19.5 115t20.5 115t55 88.5t80 56.5t94.5 20q60 0 107.5 -24t68.5 -67l12 74h84zM316 459q-37 0 -68 -15t-53.5 -41t-35 -62t-12.5 -78t12.5 -77.5t35 -62t54 -41
t67.5 -14.5q37 0 68.5 14.5t54 41t34.5 62t12 77.5t-12 78t-34.5 62t-54 41t-68.5 15z" />
    <glyph glyph-name="b" unicode="b" horiz-adv-x="638" 
d="M334 -16q-30 0 -55 7.5t-45.5 20t-36.5 27.5t-27 30l-16 -69h-80v717h96v-266q30 41 75.5 66.5t100.5 25.5q49 0 93 -20t77.5 -56.5t52.5 -88t19 -115.5q0 -63 -20.5 -115t-55.5 -88t-81 -56t-97 -20zM327 459q-37 0 -68 -15t-52.5 -41t-33 -62t-11.5 -78t11.5 -77.5
t33 -62t52.5 -41t68 -14.5t67.5 14.5t52 41t33.5 62t12 77.5t-12 78t-33.5 62t-52 41t-67.5 15z" />
    <glyph glyph-name="c" unicode="c" horiz-adv-x="601" 
d="M548 144q-33 -80 -89.5 -120t-142.5 -40q-54 0 -102 19t-84 55t-57.5 88t-21.5 117q0 66 21.5 117.5t57.5 87.5t84 55.5t102 19.5q85 0 148 -43.5t84 -134.5l-89 -20q-14 50 -51 82t-92 32q-37 0 -68 -14t-53.5 -39.5t-35 -62t-12.5 -80.5q0 -45 12.5 -81t35 -61.5
t54 -39t67.5 -13.5q56 0 91 29.5t53 80.5z" />
    <glyph glyph-name="d" unicode="d" horiz-adv-x="638" 
d="M295 -16q-51 0 -95.5 20t-77.5 56t-52 88t-19 115t20 115t54 88.5t78.5 56.5t93.5 20q58 0 105 -25.5t67 -66.5v266h96v-717h-80l-16 77q-11 -16 -26.5 -33t-37 -30.5t-48.5 -21.5t-62 -8zM312 459q-37 0 -67.5 -15t-52 -41t-33.5 -62t-12 -78t12 -77.5t33.5 -62t52 -41
t67.5 -14.5t68 14.5t52.5 41t33 62t11.5 77.5t-11.5 78t-33 62t-52.5 41t-68 15z" />
    <glyph glyph-name="e" unicode="e" horiz-adv-x="617" 
d="M147 236q4 -37 17.5 -68t35 -53t52 -34.5t67.5 -12.5q52 0 91.5 28.5t56.5 73.5l89 -31q-35 -79 -94.5 -117t-142.5 -38q-61 0 -110 21t-84.5 58.5t-54.5 89t-19 112.5t21.5 112t57.5 88t84 57.5t101 20.5q48 0 93 -17t79 -50t54.5 -82.5t20.5 -113.5v-44h-415zM315 459
q-69 0 -110.5 -41.5t-53.5 -104.5h317q-1 33 -13.5 60t-32.5 46t-47.5 29.5t-59.5 10.5z" />
    <glyph glyph-name="f" unicode="f" horiz-adv-x="342" 
d="M37 526h76v46q0 81 41.5 121t108.5 40q17 0 29.5 -1.5t23.5 -3.5v-86q-8 4 -20.5 6.5t-25.5 2.5q-25 0 -43 -15.5t-18 -50.5v-59h101v-77h-101v-449h-96v449h-76v77z" />
    <glyph glyph-name="g" unicode="g" horiz-adv-x="630" 
d="M296 543q65 0 107 -24.5t61 -54.5l13 62h80v-487q0 -58 -20 -104t-53.5 -77t-79 -48t-96.5 -17t-90 12.5t-67.5 34t-48 50.5t-31.5 64l84 29q22 -54 57 -80t96 -26q32 0 59.5 10t48 30t33 49t12.5 68v51q-27 -41 -68 -63t-97 -22q-49 0 -93 18.5t-78 54t-54 85.5t-20 113
t19.5 113.5t53.5 86t78.5 54t93.5 18.5zM308 84q75 0 118 51.5t43 135.5t-43 136t-118 52t-118 -52t-43 -136t43 -135.5t118 -51.5z" />
    <glyph glyph-name="h" unicode="h" horiz-adv-x="618" 
d="M170 446q9 16 26 34t39.5 31.5t49.5 22.5t58 9q96 0 149 -54.5t53 -159.5v-329h-96v321q0 68 -32.5 103t-94.5 35q-31 0 -58 -12.5t-48 -35.5t-33.5 -56t-12.5 -76v-279h-96v717h96v-271z" />
    <glyph glyph-name="i" unicode="i" horiz-adv-x="243" 
d="M74 526h96v-526h-96v526zM70 717h104v-105h-104v105z" />
    <glyph glyph-name="j" unicode="j" horiz-adv-x="243" 
d="M70 717h104v-105h-104v105zM170 -46q0 -83 -38.5 -122t-105.5 -39q-24 0 -39 5v84q8 -3 15.5 -5t19.5 -2q25 0 38.5 15.5t13.5 49.5v586h96v-572z" />
    <glyph glyph-name="k" unicode="k" horiz-adv-x="508" 
d="M74 717h96v-399l177 208h118l-209 -237l232 -289h-117l-201 247v-247h-96v717z" />
    <glyph glyph-name="l" unicode="l" horiz-adv-x="243" 
d="M74 717h96v-717h-96v717z" />
    <glyph glyph-name="m" unicode="m" horiz-adv-x="892" 
d="M170 452q9 15 22.5 31t32.5 29t43 22t54 9q61 0 98 -25.5t54 -72.5q27 45 69.5 71.5t97.5 26.5q39 0 71.5 -10.5t56.5 -33.5t37 -59t13 -86v-354h-96v331q0 62 -25 95t-83 33q-55 0 -87.5 -43t-32.5 -111v-305h-97v338q0 121 -100 121q-59 0 -93.5 -49.5t-34.5 -135.5
v-274h-96v526h86z" />
    <glyph glyph-name="n" unicode="n" 
d="M170 442q9 16 25.5 34.5t38.5 33t49 24t60 9.5q93 0 143.5 -52t50.5 -157v-334h-97v314q0 75 -30 110t-93 35q-31 0 -57.5 -13t-46 -37t-31.5 -58t-12 -77v-274h-96v526h86z" />
    <glyph glyph-name="o" unicode="o" horiz-adv-x="632" 
d="M316 -16q-54 0 -102 19t-84 55t-57.5 88t-21.5 117q0 66 21.5 117.5t57.5 87.5t84 55.5t102 19.5q53 0 102 -19.5t85 -55.5t57.5 -87.5t21.5 -117.5t-21.5 -117.5t-57.5 -87.5t-85 -55t-102 -19zM316 459q-37 0 -68 -14t-53.5 -39.5t-35 -62t-12.5 -80.5q0 -45 12.5 -81
t35 -61.5t54 -39t67.5 -13.5q37 0 68.5 13.5t54 39t34.5 61.5t12 81q0 44 -12 80.5t-34.5 62t-54 39.5t-68.5 14z" />
    <glyph glyph-name="p" unicode="p" horiz-adv-x="638" 
d="M343 543q51 0 95.5 -20t78 -56.5t52.5 -88t19 -115.5q0 -63 -21 -115t-55.5 -88t-79.5 -56t-93 -20q-55 0 -100 24t-69 59v-257h-96v716h80l16 -68q11 15 27.5 30t38 27t48 20t59.5 8zM327 68q37 0 67.5 14.5t52 41t33.5 62t12 77.5t-12 78t-33.5 62t-52 41t-67.5 15
t-68 -15t-52.5 -41t-33 -62t-11.5 -78t11.5 -77.5t33 -62t52.5 -41t68 -14.5z" />
    <glyph glyph-name="q" unicode="q" horiz-adv-x="638" 
d="M300 543q65 0 105.5 -26.5t63.5 -58.5l16 68h80v-716h-96v259q-27 -39 -69 -62t-100 -23q-50 0 -95 20t-79.5 56t-54.5 88t-20 115t20 115t54 88.5t79 56.5t96 20zM312 68q37 0 68 14.5t52.5 41t33 62t11.5 77.5t-11.5 78t-33 62t-52.5 41t-68 15t-67.5 -15t-52 -41
t-33.5 -62t-12 -78t12 -77.5t33.5 -62t52 -41t67.5 -14.5z" />
    <glyph glyph-name="r" unicode="r" horiz-adv-x="373" 
d="M331 450q-18 9 -41 9q-24 0 -45.5 -12.5t-38 -34.5t-26.5 -51.5t-10 -64.5v-296h-96v526h86l10 -84q15 42 49.5 71.5t85.5 29.5q11 0 22 -2t18 -6z" />
    <glyph glyph-name="s" unicode="s" horiz-adv-x="550" 
d="M397 155q0 34 -28.5 52t-102.5 26q-85 10 -134 49t-49 107q0 37 15.5 65t41.5 48t60 30.5t73 10.5q89 0 138 -44t60 -116l-86 -13q-8 45 -39 70t-76 25q-44 0 -72.5 -19t-28.5 -54q0 -14 6 -27.5t21 -24.5t40 -19t62 -12q100 -10 144.5 -48.5t44.5 -106.5
q0 -35 -14.5 -66.5t-40.5 -54.5t-62.5 -36t-80.5 -13q-49 0 -88.5 13.5t-69 39t-47 60t-23.5 76.5l86 16q11 -56 42.5 -89.5t96.5 -33.5q47 0 79 22t32 67z" />
    <glyph glyph-name="t" unicode="t" horiz-adv-x="382" 
d="M46 526h85v136h96v-136h104v-77h-104v-295q0 -42 18.5 -60t48.5 -18q26 0 43 9v-83q-26 -10 -64 -10q-62 0 -102 35t-40 116v306h-85v77z" />
    <glyph glyph-name="u" unicode="u" 
d="M440 84q-10 -18 -26 -36t-37 -32.5t-48 -23t-59 -8.5q-90 0 -143 51.5t-53 157.5v333h96v-325q0 -133 123 -133q31 0 57.5 12t46.5 35t31.5 56.5t11.5 76.5v278h97v-526h-86z" />
    <glyph glyph-name="v" unicode="v" horiz-adv-x="561" 
d="M328 0h-95l-223 526h101l170 -410l170 410h100z" />
    <glyph glyph-name="w" unicode="w" horiz-adv-x="813" 
d="M578 121l127 405h96l-176 -526h-93l-125 417l-126 -417h-93l-176 526h97l127 -405l122 405h97z" />
    <glyph glyph-name="x" unicode="x" horiz-adv-x="488" 
d="M244 362l105 164h106l-160 -245l179 -281h-107l-123 202l-122 -202h-108l179 281l-159 245h105z" />
    <glyph glyph-name="y" unicode="y" horiz-adv-x="549" 
d="M231 0l-213 526h101l159 -407l157 407h101l-250 -622q-25 -61 -61 -86t-80 -25q-24 0 -45 6t-33 15l23 85q23 -12 51 -13q20 0 38 12.5t31 45.5z" />
    <glyph glyph-name="z" unicode="z" horiz-adv-x="499" 
d="M53 526h398v-69l-298 -379h308v-78h-420v70l297 379h-285v77z" />
    <glyph glyph-name="braceleft" unicode="{" horiz-adv-x="380" 
d="M147 131q0 55 -24.5 81.5t-67.5 26.5h-16v75h16q43 0 67.5 26.5t24.5 81.5v107q0 88 37.5 138t122.5 50h29v-76h-27q-43 0 -60.5 -23.5t-17.5 -72.5v-160q0 -48 -16.5 -72t-52.5 -37q36 -12 52.5 -36t16.5 -72v-160q0 -49 17.5 -72.5t60.5 -23.5h27v-76h-29
q-85 0 -122.5 49.5t-37.5 138.5v107v0z" />
    <glyph glyph-name="bar" unicode="|" horiz-adv-x="241" 
d="M79 717h84v-881h-84v881z" />
    <glyph glyph-name="braceright" unicode="}" horiz-adv-x="380" 
d="M233 24q0 -88 -37 -138t-122 -50h-29v76h27q43 0 60.5 23.5t17.5 72.5v160q0 48 16.5 72t52.5 36q-36 12 -52.5 36.5t-16.5 72.5v160q0 49 -17.5 72.5t-60.5 23.5h-27v76h29q85 0 122 -50t37 -138v-107q0 -55 25 -81.5t68 -26.5h16v-75h-16q-43 0 -68 -26.5t-25 -81.5
v-107z" />
    <glyph glyph-name="asciitilde" unicode="~" horiz-adv-x="449" 
d="M45 287q0 56 29.5 92.5t82.5 36.5q27 0 43.5 -8t30.5 -16.5t27 -16t32 -7.5q17 0 28 14t11 34h75q0 -56 -30 -92.5t-81 -36.5q-27 0 -44.5 7.5t-31 16t-27 16.5t-31.5 8q-17 0 -27.5 -14.5t-10.5 -33.5h-76z" />
    <glyph glyph-name="uni00A0" unicode="&#xa0;" horiz-adv-x="248" 
 />
    <glyph glyph-name="exclamdown" unicode="&#xa1;" horiz-adv-x="245" 
d="M76 -190.956h100v110.993l-16 415.975h-68l-16 -415.975v-110.993zM72 415.007h108v110.993h-108v-110.993z" />
    <glyph glyph-name="cent" unicode="&#xa2;" horiz-adv-x="601" 
d="M275 -13q-47 6 -88 28t-71 57.5t-47.5 83.5t-17.5 107q0 58 17.5 106.5t47.5 83.5t71 57t88 30v115h68v-113q76 -6 131 -50.5t74 -126.5l-89 -20q-12 43 -42.5 73.5t-73.5 38.5v-387q44 7 72.5 35t44.5 73l88 -34q-30 -74 -80.5 -113.5t-124.5 -45.5v-98h-68v100z
M147 263q0 -77 35 -127t93 -64v382q-58 -14 -93 -64t-35 -127z" />
    <glyph glyph-name="sterling" unicode="&#xa3;" horiz-adv-x="603" 
d="M449 538q-17 58 -48.5 82.5t-84.5 24.5q-58 0 -93 -34t-35 -105q0 -36 3.5 -64t8.5 -53h253v-82h-240q3 -22 3 -43q0 -29 -2.5 -51t-9 -41t-18 -37.5t-28.5 -39.5q22 12 46 18t45 6q29 0 48.5 -7.5t36.5 -16.5t32.5 -16t35.5 -7q36 0 59.5 21.5t42.5 54.5l71 -44
q-25 -53 -65.5 -86.5t-100.5 -33.5q-36 0 -60 7t-43.5 16t-37.5 16.5t-43 7.5q-30 0 -55.5 -12t-64.5 -35l-62 67q17 24 32.5 46.5t26.5 46.5t17 52t6 63q0 27 -3 48h-88v82h71q-7 27 -13 58t-6 66q0 51 19 92t50 69t73 43.5t88 15.5q50 0 87.5 -11.5t65 -33.5t44.5 -53
t27 -69z" />
    <glyph glyph-name="currency" unicode="&#xa4;" horiz-adv-x="643" 
d="M322 147q-68 0 -122 32l-75 -74l-64 64l74 75q-32 51 -32 122t32 121l-74 75l64 64l75 -75q53 33 122 33t121 -33l75 75l64 -64l-74 -75q14 -25 23 -55.5t9 -65.5q0 -36 -9 -67t-23 -55l74 -75l-64 -64l-75 74q-53 -32 -121 -32zM322 504q-58 0 -95.5 -37.5t-37.5 -100.5
t37 -101t96 -38q58 0 95 37.5t37 101.5q0 63 -37 100.5t-95 37.5z" />
    <glyph glyph-name="yen" unicode="&#xa5;" horiz-adv-x="626" 
d="M104 343h118l-222 374h112l201 -353l202 353h112l-223 -374h118v-68h-157v-75h157v-68h-157v-132h-103v132h-158v68h158v75h-158v68z" />
    <glyph glyph-name="brokenbar" unicode="&#xa6;" horiz-adv-x="251" 
d="M84 367v350h84v-350h-84zM168 186v-350h-84v350h84z" />
    <glyph glyph-name="section" unicode="&#xa7;" horiz-adv-x="616" 
d="M68 279q0 43 21.5 72.5t53.5 48.5q-58 49 -58 139q0 47 19 83t49.5 61t71 37.5t83.5 12.5q52 0 93 -15t70 -40t46 -58t23 -71l-96 -19q-11 54 -44 84.5t-92 30.5q-24 0 -45.5 -5.5t-39.5 -18t-29 -32t-11 -45.5q0 -52 38 -80.5t128 -39.5q50 -6 88 -22.5t62.5 -40
t37 -52.5t12.5 -61q0 -43 -21.5 -73t-54.5 -49q58 -51 58 -138q0 -47 -18.5 -83.5t-49.5 -61t-71.5 -37.5t-83.5 -13q-52 0 -93 15t-69.5 40t-45.5 58.5t-23 70.5l95 19q11 -54 44.5 -84.5t91.5 -30.5q23 0 45.5 5.5t40.5 18t28.5 32t10.5 46.5q0 52 -38 80t-128 39
q-51 6 -88.5 22.5t-62 40t-36.5 53t-12 61.5zM322 183q39 -4 71 -15q24 11 38.5 30t14.5 46q0 37 -32.5 62.5t-118.5 36.5q-38 4 -73 14q-24 -11 -38 -29.5t-14 -44.5q0 -37 33 -63.5t119 -36.5z" />
    <glyph glyph-name="dieresis" unicode="&#xa8;" horiz-adv-x="370" 
d="M219 717h96v-99h-96v99zM55 717h97v-99h-97v99z" />
    <glyph glyph-name="copyright" unicode="&#xa9;" horiz-adv-x="296" 
d="M45 630q0 22 8 40.5t22 32.5t33 22t40 8q22 0 41 -8t33 -22t22 -33t8 -40q0 -22 -8 -41t-22 -32.5t-33 -22t-41 -8.5t-40.5 8.5t-32.5 22t-22 32.5t-8 41zM57 630q0 -38 27 -64.5t64 -26.5q38 0 65 26.5t27 64.5t-27 64.5t-65 26.5t-64.5 -26.5t-26.5 -64.5zM204 602
q-8 -17 -21.5 -28t-34.5 -11q-26 0 -43.5 18t-17.5 49q0 32 18 49t43 17q19 0 35 -10t21 -32l-11 -4q-5 17 -15 25.5t-30 8.5q-22 0 -35.5 -15t-13.5 -39t14.5 -39.5t36.5 -15.5q17 0 26 9.5t17 23.5z" />
    <glyph glyph-name="ordfeminine" unicode="&#xaa;" horiz-adv-x="451" 
d="M408.107 721.206v-368.206h-60.2012l-7 53.9014q-7.7002 -11.2002 -18.9004 -23.1006t-26.6006 -21.3506t-35.001 -15.0498q-19.6006 -5.60059 -44.1006 -5.60059q-35.7002 0 -67.2012 14q-31.501 14.001 -55.3008 39.2012q-23.8008 25.2002 -37.4512 61.6006
t-13.6504 80.502q0 44.1006 14.3506 80.501t38.501 61.9512t56.001 39.5508t66.1514 14q42 0 75.251 -16.7998q33.25 -16.8008 47.9512 -46.9014l8.39941 51.8008h58.8018zM228.204 674.306q-25.9004 0 -47.6006 -10.5q-21.7012 -10.5 -37.4512 -28.7012
q-15.75 -18.2002 -24.5 -43.4004q-8.75098 -25.2002 -8.75098 -54.6006t8.75098 -54.251q8.75 -24.8506 24.5 -43.4014q15.75 -18.5498 37.8008 -28.7002t47.251 -10.1504q25.9004 0 47.9502 10.1504q22.0508 10.1504 37.8008 28.7002q15.751 18.5508 24.1504 43.4014
q8.40039 24.8506 8.40039 54.251t-8.40039 54.6006q-8.39941 25.2002 -24.1504 43.4004q-15.75 18.2012 -37.8008 28.7012q-22.0498 10.5 -47.9502 10.5z" />
    <glyph glyph-name="guillemotleft" unicode="&#xab;" horiz-adv-x="485" 
d="M447 461l-132 -186l132 -185h-96l-132 185l132 186h96zM284 461l-132 -186l132 -185h-97l-132 185l132 186h97z" />
    <glyph glyph-name="logicalnot" unicode="&#xac;" horiz-adv-x="517" 
d="M45 414h427v-226h-96v144h-331v82z" />
    <glyph glyph-name="uni00AD" unicode="&#xad;" horiz-adv-x="385" 
d="M45 336h295v-82h-295v82z" />
    <glyph glyph-name="registered" unicode="&#xae;" horiz-adv-x="296" 
d="M45 630q0 22 8 40.5t22 32.5t33 22t40 8q22 0 41 -8t33 -22t22 -33t8 -40q0 -22 -8 -41t-22 -32.5t-33 -22t-41 -8.5t-40.5 8.5t-32.5 22t-22 32.5t-8 41zM57 630q0 -38 27 -64.5t64 -26.5q38 0 65 26.5t27 64.5t-27 64.5t-65 26.5t-64.5 -26.5t-26.5 -64.5zM156 615h-37
v-50h-13v129h46q20 0 33 -10.5t13 -29.5q0 -14 -8.5 -23.5t-21.5 -13.5l30 -52h-14zM119 628h34q11 0 21.5 6t10.5 20t-10.5 21t-21.5 7h-34v-54z" />
    <glyph glyph-name="macron" unicode="&#xaf;" horiz-adv-x="428" 
d="M94 693h240v-73h-240v73z" />
    <glyph glyph-name="degree" unicode="&#xb0;" horiz-adv-x="411" 
d="M47 573q0 33 12 62.5t33.5 51t50 34t62.5 12.5t63 -12.5t50.5 -34t34 -51t12.5 -62.5t-12.5 -61.5t-34 -50t-50.5 -33.5t-63 -12t-62.5 12t-50 33.5t-33.5 50t-12 61.5zM109 573q0 -41 26.5 -70.5t69.5 -29.5q22 0 39.5 8t31 22t20.5 32t7 38q0 22 -7 40.5t-20.5 32
t-31.5 22t-39 8.5q-22 0 -40 -8.5t-30 -22t-19 -32t-7 -40.5z" />
    <glyph glyph-name="plusminus" unicode="&#xb1;" horiz-adv-x="569" 
d="M45 454h199v199h82v-199h198v-82h-198v-198h-82v198h-199v82zM45 83h479v-82h-479v82z" />
    <glyph glyph-name="twosuperior" unicode="&#xb2;" horiz-adv-x="343" 
d="M50 371q0 34 9.5 59t26.5 45t41 36t53 34q28 16 36.5 32t8.5 39q0 18 -14.5 35t-44.5 17q-22 0 -37.5 -13.5t-15.5 -38.5q0 -5 0.5 -10t2.5 -9l-65 -19q-3 8 -4.5 18t-1.5 18q0 22 8 42t23.5 35.5t38 24.5t51.5 9q67 0 96 -31t29 -78q0 -41 -18.5 -69t-62.5 -52
q-30 -16 -53.5 -36t-25.5 -43h167v-58h-248v13z" />
    <glyph glyph-name="threesuperior" unicode="&#xb3;" horiz-adv-x="325" 
d="M96 474q4 -28 20 -47t49 -19q28 0 45 17.5t17 47.5t-16.5 47t-45.5 17q-10 0 -17.5 -2.5t-13.5 -5.5l-33 48l94 82h-146v58h221v-58l-81 -68q42 -2 72 -32t30 -86q0 -55 -33 -89t-93 -34q-32 0 -55 9t-39 24t-24.5 35.5t-11.5 44.5z" />
    <glyph glyph-name="acute" unicode="&#xb4;" horiz-adv-x="324" 
d="M65 584l75 133h120l-122 -133h-73z" />
    <glyph glyph-name="mu" unicode="&#xb5;" 
d="M74 526h96v-325q0 -133 123 -133q31 0 57.5 12t46.5 35t31.5 56.5t11.5 76.5v278h97v-526h-86l-11 84q-10 -18 -26 -36t-37 -32.5t-48 -23t-59 -8.5q-54 0 -100 21v-195h-96v716z" />
    <glyph glyph-name="paragraph" unicode="&#xb6;" horiz-adv-x="626" 
d="M459 647h-84v-837h-84v518h-22q-49 0 -89.5 13t-69.5 38t-45 61.5t-16 82.5t16 82t45 61t69.5 38t89.5 13h274v-907h-84v837z" />
    <glyph glyph-name="periodcentered" unicode="&#xb7;" horiz-adv-x="235" 
d="M59 424h117v-117h-117v117z" />
    <glyph glyph-name="cedilla" unicode="&#xb8;" horiz-adv-x="342" 
d="M106 35h66l-41 -87q11 8 25.5 12.5t26.5 4.5q36 0 58.5 -22.5t22.5 -61.5q0 -42 -28 -65t-71 -23q-30 0 -52.5 14t-32.5 35l45 35q5 -14 15.5 -22.5t24.5 -8.5t24.5 9t10.5 26t-10.5 26t-24.5 9q-11 0 -20.5 -6t-14.5 -14l-52 22z" />
    <glyph glyph-name="onesuperior" unicode="&#xb9;" horiz-adv-x="234" 
d="M39 658l77 59h65v-359h-65v279l-77 -58v79z" />
    <glyph glyph-name="ordmasculine" unicode="&#xba;" horiz-adv-x="465" 
d="M232.204 341.8q-37.8008 0 -71.4014 13.2998q-33.6006 13.3008 -58.8008 38.501q-25.2012 25.2002 -40.251 61.6016q-15.0508 36.4004 -15.0508 81.9014q0 46.2002 15.0508 82.251q15.0498 36.0508 40.251 61.251q25.2002 25.2012 58.8008 38.8506
q33.6006 13.6504 71.4014 13.6504q37.1006 0 71.4014 -13.6504q34.2998 -13.6494 59.501 -38.8506q25.2002 -25.2002 40.25 -61.251q15.0508 -36.0508 15.0508 -82.251q0 -46.2012 -15.0508 -82.252q-15.0498 -36.0508 -40.25 -61.251q-25.2012 -25.2002 -59.501 -38.501
q-34.3008 -13.2998 -71.4014 -13.2998zM232.204 674.306q-25.9004 0 -47.6006 -9.7998q-21.7012 -9.80078 -37.4512 -27.6514q-15.75 -17.8496 -24.5 -43.4004q-8.75098 -25.5508 -8.75098 -56.3506q0 -31.501 8.75098 -56.7012q8.75 -25.2002 24.5 -43.0508
t37.8008 -27.3008t47.251 -9.4502q25.9004 0 47.9502 9.4502q22.0508 9.4502 37.8008 27.3008q15.751 17.8506 24.1504 43.0508q8.40039 25.2002 8.40039 56.7012q0 30.7998 -8.40039 56.3506q-8.39941 25.5508 -24.1504 43.4004q-15.75 17.8506 -37.8008 27.6514
q-22.0498 9.7998 -47.9502 9.7998z" />
    <glyph glyph-name="guillemotright" unicode="&#xbb;" horiz-adv-x="485" 
d="M134 461l132 -186l-132 -185h-96l132 185l-132 186h96zM298 461l132 -186l-132 -185h-96l132 185l-132 186h96z" />
    <glyph glyph-name="onequarter" unicode="&#xbc;" horiz-adv-x="758" 
d="M559 717h82l-495 -717h-81zM46 658l77 59h65v-359h-65v279l-77 -58v79zM402 125l170 233h69v-233h51v-57h-51v-68h-66v68h-173v57zM575 125v135l-100 -135h100z" />
    <glyph glyph-name="onehalf" unicode="&#xbd;" horiz-adv-x="763" 
d="M46 658l77 59h65v-359h-65v279l-77 -58v79zM559 717h82l-495 -717h-82zM461 14q0 34 9.5 59t26.5 45t41 36t53 34q28 16 36.5 32t8.5 39q0 18 -14.5 35t-44.5 17q-22 0 -37.5 -13.5t-15.5 -38.5q0 -5 0.5 -10t2.5 -9l-65 -19q-3 8 -4.5 18t-1.5 18q0 22 8 42t23.5 35.5
t38 24.5t51.5 9q67 0 96 -31t29 -78q0 -41 -18.5 -69t-62.5 -52q-30 -16 -53.5 -36t-25.5 -43h167v-58h-248v13z" />
    <glyph glyph-name="threequarters" unicode="&#xbe;" horiz-adv-x="805" 
d="M112 474q4 -28 20 -47t49 -19q28 0 45 17.5t17 47.5t-16.5 47t-45.5 17q-10 0 -17.5 -2.5t-13.5 -5.5l-33 48l94 82h-146v58h221v-58l-81 -68q42 -2 72 -32t30 -86q0 -55 -33 -89t-93 -34q-32 0 -55 9t-39 24t-24.5 35.5t-11.5 44.5zM450 126l170 234h68v-234h52v-57h-52
v-68h-65v68h-173v57zM623 126v135l-101 -135h101zM616 717h82l-495 -717h-82z" />
    <glyph glyph-name="questiondown" unicode="&#xbf;" horiz-adv-x="545" 
d="M327.014 415.007h-108.994v110.993h108.994v-110.993zM320.014 336.012v-48.9971q0 -27.998 -3 -51.4971q-3 -23.498 -13.499 -45.4971t-29.498 -41.9971q-18.999 -19.999 -49.9971 -40.998q-51.9971 -33.998 -68.4961 -65.4961t-16.499 -67.4961
q0 -44.9971 35.498 -70.9951t91.4951 -25.998q27.998 0 51.4961 8.49902q23.499 8.5 40.998 24.998q17.499 16.499 27.498 38.998t9.99902 50.4971q0 8.99902 -1.5 19.499q-1.49902 10.499 -3.49902 18.498l88.9941 32.998q11.999 -33.9971 12.999 -66.9951
q0 -41.998 -15.499 -80.4951q-15.499 -38.498 -43.9971 -67.4961t-70.4961 -45.9971q-41.9971 -16.999 -96.9932 -16.999q-49.9971 0 -90.9951 12.499q-40.9971 12.499 -69.9951 35.498q-28.999 22.998 -45.498 55.4961t-16.499 72.4961q0 68.9951 32.998 112.493
q32.998 43.4971 91.9951 80.4951q32.998 19.999 43.9971 54.9961q10.999 34.998 10.999 85.9951v32.998h96.9941z" />
    <glyph glyph-name="Agrave" unicode="&#xc0;" horiz-adv-x="706" 
d="M299 717h109l288 -717h-106l-65 166h-344l-64 -166h-107zM215 254h277l-139 354zM337 774l-122 133h120l76 -133h-74z" />
    <glyph glyph-name="Aacute" unicode="&#xc1;" horiz-adv-x="706" 
d="M299 717h109l288 -717h-106l-65 166h-344l-64 -166h-107zM215 254h277l-139 354zM297 774l75 133h120l-122 -133h-73z" />
    <glyph glyph-name="Acircumflex" unicode="&#xc2;" horiz-adv-x="706" 
d="M299 717h109l288 -717h-106l-65 166h-344l-64 -166h-107zM215 254h277l-139 354zM197 774l115 133h82l116 -133h-74l-83 64l-83 -64h-73z" />
    <glyph glyph-name="Atilde" unicode="&#xc3;" horiz-adv-x="706" 
d="M299 717h109l288 -717h-106l-65 166h-344l-64 -166h-107zM215 254h277l-139 354zM206 778q0 47 25 74.5t68 27.5q23 0 36 -5.5t24 -12.5t21 -13t26 -6q32 0 31 35h64q0 -47 -25 -74.5t-68 -27.5q-23 0 -36 5.5t-24 12.5t-21 13t-26 6q-32 0 -31 -35h-64z" />
    <glyph glyph-name="Adieresis" unicode="&#xc4;" horiz-adv-x="706" 
d="M299 717h109l288 -717h-106l-65 166h-344l-64 -166h-107zM215 254h277l-139 354zM387 907h96v-99h-96v99zM223 907h97v-99h-97v99z" />
    <glyph glyph-name="Aring" unicode="&#xc5;" horiz-adv-x="706" 
d="M299 717h109l288 -717h-106l-65 166h-344l-64 -166h-107zM215 254h277l-139 354zM245 876q0 23 8.5 43t22.5 34t34 23t44 9t43.5 -9t34 -23t22.5 -34t8 -43t-8 -42.5t-22.5 -34t-34.5 -23t-43 -8.5q-24 0 -44 8.5t-34 23t-22.5 34t-8.5 42.5zM305 876q0 -20 13 -34.5
t36 -14.5t36 14.5t13 34.5t-13.5 34.5t-35.5 14.5q-23 0 -36 -14.5t-13 -34.5z" />
    <glyph glyph-name="AE" unicode="&#xc6;" horiz-adv-x="963" 
d="M445 166h-252l-77 -166h-106l340 717h548v-88h-350v-223h323v-89h-323v-229h358v-88h-461v166zM233 254h212v375h-35z" />
    <glyph glyph-name="Ccedilla" unicode="&#xc7;" horiz-adv-x="724" 
d="M328 -10q-61 10 -111.5 40t-86.5 78t-55.5 111t-19.5 139q0 86 25.5 155.5t71.5 118.5t107.5 75t133.5 26q57 0 106.5 -15t87.5 -43.5t63.5 -70t35.5 -94.5l-99 -18q-19 74 -69.5 113.5t-124.5 39.5q-51 0 -93.5 -19t-73 -55t-47.5 -90t-17 -123q0 -70 17 -123t47.5 -89
t73 -55t93.5 -19q84 0 134 46.5t69 124.5l94 -22q-27 -109 -102 -173t-195 -64h-13l-16 -36q11 8 25 12.5t27 4.5q36 0 58.5 -22.5t22.5 -61.5q0 -42 -28.5 -65t-71.5 -23q-30 0 -52 14t-33 35l45 35q5 -14 15.5 -22.5t24.5 -8.5t24.5 9t10.5 26t-10 26t-25 9q-11 0 -20 -6
t-15 -14l-52 22z" />
    <glyph glyph-name="Egrave" unicode="&#xc8;" horiz-adv-x="602" 
d="M84 717h453v-88h-351v-223h324v-89h-324v-229h359v-88h-461v717zM305 774l-122 133h120l76 -133h-74z" />
    <glyph glyph-name="Eacute" unicode="&#xc9;" horiz-adv-x="602" 
d="M84 717h453v-88h-351v-223h324v-89h-324v-229h359v-88h-461v717zM245 774l75 133h120l-122 -133h-73z" />
    <glyph glyph-name="Ecircumflex" unicode="&#xca;" horiz-adv-x="602" 
d="M84 717h453v-88h-351v-223h324v-89h-324v-229h359v-88h-461v717zM158 774l115 133h82l116 -133h-74l-83 64l-83 -64h-73z" />
    <glyph glyph-name="Edieresis" unicode="&#xcb;" horiz-adv-x="602" 
d="M84 717h453v-88h-351v-223h324v-89h-324v-229h359v-88h-461v717zM348 907h96v-99h-96v99zM184 907h97v-99h-97v99z" />
    <glyph glyph-name="Igrave" unicode="&#xcc;" horiz-adv-x="270" 
d="M84 717h102v-717h-102v717zM130 774l-122 133h120l76 -133h-74z" />
    <glyph glyph-name="Iacute" unicode="&#xcd;" horiz-adv-x="270" 
d="M84 717h102v-717h-102v717zM68 774l75 133h120l-122 -133h-73z" />
    <glyph glyph-name="Icircumflex" unicode="&#xce;" horiz-adv-x="270" 
d="M84 717h102v-717h-102v717zM-20 774l115 133h82l116 -133h-74l-83 64l-83 -64h-73z" />
    <glyph glyph-name="Idieresis" unicode="&#xcf;" horiz-adv-x="270" 
d="M84 717h102v-717h-102v717zM170 907h96v-99h-96v99zM6 907h97v-99h-97v99z" />
    <glyph glyph-name="Eth" unicode="&#xd0;" horiz-adv-x="723" 
d="M15 399h86v318h218q75 0 138.5 -23.5t110.5 -69.5t74 -113t27 -153t-27 -152.5t-74 -112.5t-110.5 -69.5t-138.5 -23.5h-218v317h-86v82zM204 629v-230h155v-82h-155v-229h115q54 0 99.5 16.5t77 49.5t49 84t17.5 120t-17.5 120t-49 84.5t-76.5 50t-100 16.5h-115z" />
    <glyph glyph-name="Ntilde" unicode="&#xd1;" horiz-adv-x="731" 
d="M84 717h115l346 -562v562h102v-717h-115l-346 562v-562h-102v717zM218 778q0 47 25 74.5t68 27.5q23 0 36 -5.5t24 -12.5t21 -13t26 -6q32 0 31 35h64q0 -47 -25 -74.5t-68 -27.5q-23 0 -36 5.5t-24 12.5t-21 13t-26 6q-32 0 -31 -35h-64z" />
    <glyph glyph-name="Ograve" unicode="&#xd2;" horiz-adv-x="782" 
d="M727 358q0 -86 -24.5 -155t-69 -118t-106 -75t-136.5 -26t-136 26t-106 75t-69.5 118t-24.5 155t24.5 155.5t69.5 118.5t106 75t136 26t136.5 -26t106 -75t69 -118.5t24.5 -155.5zM621 358q0 69 -17 123t-47.5 90t-72.5 55t-93 19t-93 -19t-72 -55t-47 -90t-17 -123
q0 -70 17 -123t47 -89t72 -55t93 -19t93 19t72.5 55t47.5 89t17 123zM366 774l-122 133h120l76 -133h-74z" />
    <glyph glyph-name="Oacute" unicode="&#xd3;" horiz-adv-x="782" 
d="M727 358q0 -86 -24.5 -155t-69 -118t-106 -75t-136.5 -26t-136 26t-106 75t-69.5 118t-24.5 155t24.5 155.5t69.5 118.5t106 75t136 26t136.5 -26t106 -75t69 -118.5t24.5 -155.5zM621 358q0 69 -17 123t-47.5 90t-72.5 55t-93 19t-93 -19t-72 -55t-47 -90t-17 -123
q0 -70 17 -123t47 -89t72 -55t93 -19t93 19t72.5 55t47.5 89t17 123zM343 774l75 133h120l-122 -133h-73z" />
    <glyph glyph-name="Ocircumflex" unicode="&#xd4;" horiz-adv-x="782" 
d="M727 358q0 -86 -24.5 -155t-69 -118t-106 -75t-136.5 -26t-136 26t-106 75t-69.5 118t-24.5 155t24.5 155.5t69.5 118.5t106 75t136 26t136.5 -26t106 -75t69 -118.5t24.5 -155.5zM621 358q0 69 -17 123t-47.5 90t-72.5 55t-93 19t-93 -19t-72 -55t-47 -90t-17 -123
q0 -70 17 -123t47 -89t72 -55t93 -19t93 19t72.5 55t47.5 89t17 123zM235 774l115 133h82l116 -133h-74l-83 64l-83 -64h-73z" />
    <glyph glyph-name="Otilde" unicode="&#xd5;" horiz-adv-x="782" 
d="M727 358q0 -86 -24.5 -155t-69 -118t-106 -75t-136.5 -26t-136 26t-106 75t-69.5 118t-24.5 155t24.5 155.5t69.5 118.5t106 75t136 26t136.5 -26t106 -75t69 -118.5t24.5 -155.5zM621 358q0 69 -17 123t-47.5 90t-72.5 55t-93 19t-93 -19t-72 -55t-47 -90t-17 -123
q0 -70 17 -123t47 -89t72 -55t93 -19t93 19t72.5 55t47.5 89t17 123zM244 778q0 47 25 74.5t68 27.5q23 0 36 -5.5t24 -12.5t21 -13t26 -6q32 0 31 35h64q0 -47 -25 -74.5t-68 -27.5q-23 0 -36 5.5t-24 12.5t-21 13t-26 6q-32 0 -31 -35h-64z" />
    <glyph glyph-name="Odieresis" unicode="&#xd6;" horiz-adv-x="782" 
d="M727 358q0 -86 -24.5 -155t-69 -118t-106 -75t-136.5 -26t-136 26t-106 75t-69.5 118t-24.5 155t24.5 155.5t69.5 118.5t106 75t136 26t136.5 -26t106 -75t69 -118.5t24.5 -155.5zM621 358q0 69 -17 123t-47.5 90t-72.5 55t-93 19t-93 -19t-72 -55t-47 -90t-17 -123
q0 -70 17 -123t47 -89t72 -55t93 -19t93 19t72.5 55t47.5 89t17 123zM425 907h96v-99h-96v99zM261 907h97v-99h-97v99z" />
    <glyph glyph-name="multiply" unicode="&#xd7;" horiz-adv-x="532" 
d="M68 171l140 140l-140 141l58 58l140 -140l141 140l58 -58l-140 -141l140 -140l-58 -58l-141 140l-140 -140z" />
    <glyph glyph-name="Oslash" unicode="&#xd8;" horiz-adv-x="782" 
d="M727 358q0 -86 -24.5 -155t-69 -118t-106 -75t-136.5 -26q-45 0 -85 9.5t-75 26.5l-49 -85l-58 34l52 89q-57 49 -89 125t-32 175q0 86 24.5 155.5t69.5 118.5t106 75t136 26q45 0 84.5 -9.5t74.5 -27.5l50 85l58 -33l-52 -90q57 -49 89 -125t32 -175zM621 358
q0 71 -17.5 124.5t-48.5 89.5l-276 -472q48 -29 112 -28q51 0 93 19t72.5 55t47.5 89t17 123zM162 358q0 -71 17 -124.5t47 -89.5l277 472q-49 29 -112 29q-51 0 -93 -19t-72 -55t-47 -90t-17 -123z" />
    <glyph glyph-name="Ugrave" unicode="&#xd9;" horiz-adv-x="698" 
d="M74 717h102v-466q0 -39 11.5 -72.5t33.5 -57t54 -36.5t74 -13t74.5 13t54.5 36.5t33 57t11 72.5v466h103v-453q0 -74 -22 -126.5t-60 -87t-88.5 -50.5t-105.5 -16t-105 16t-88 50t-60 87t-22 127v453zM327 774l-122 133h120l76 -133h-74z" />
    <glyph glyph-name="Uacute" unicode="&#xda;" horiz-adv-x="698" 
d="M74 717h102v-466q0 -39 11.5 -72.5t33.5 -57t54 -36.5t74 -13t74.5 13t54.5 36.5t33 57t11 72.5v466h103v-453q0 -74 -22 -126.5t-60 -87t-88.5 -50.5t-105.5 -16t-105 16t-88 50t-60 87t-22 127v453zM297 774l75 133h120l-122 -133h-73z" />
    <glyph glyph-name="Ucircumflex" unicode="&#xdb;" horiz-adv-x="698" 
d="M74 717h102v-466q0 -39 11.5 -72.5t33.5 -57t54 -36.5t74 -13t74.5 13t54.5 36.5t33 57t11 72.5v466h103v-453q0 -74 -22 -126.5t-60 -87t-88.5 -50.5t-105.5 -16t-105 16t-88 50t-60 87t-22 127v453zM193 774l115 133h82l116 -133h-74l-83 64l-83 -64h-73z" />
    <glyph glyph-name="Udieresis" unicode="&#xdc;" horiz-adv-x="698" 
d="M74 717h102v-466q0 -39 11.5 -72.5t33.5 -57t54 -36.5t74 -13t74.5 13t54.5 36.5t33 57t11 72.5v466h103v-453q0 -74 -22 -126.5t-60 -87t-88.5 -50.5t-105.5 -16t-105 16t-88 50t-60 87t-22 127v453zM383 907h96v-99h-96v99zM219 907h97v-99h-97v99z" />
    <glyph glyph-name="Yacute" unicode="&#xdd;" horiz-adv-x="618" 
d="M258 266l-250 451h112l189 -346l190 346h111l-250 -451v-266h-102v266zM250 774l75 133h120l-122 -133h-73z" />
    <glyph glyph-name="Thorn" unicode="&#xde;" horiz-adv-x="635" 
d="M84 717h102v-133h149q56 0 103 -15.5t81 -44t52.5 -70.5t18.5 -96q0 -53 -18.5 -95t-52.5 -70.5t-81 -44t-103 -15.5h-149v-133h-102v717zM186 221h147q68 0 111 33.5t43 103.5q0 71 -43 104.5t-111 33.5h-147v-275z" />
    <glyph glyph-name="germandbls" unicode="&#xdf;" horiz-adv-x="564" 
d="M74 530q0 46 14.5 83.5t41.5 64.5t64 41t82 14q43 0 79 -12t62 -34t40.5 -52.5t14.5 -67.5q0 -53 -31 -95t-76 -59q30 -9 57.5 -26t48.5 -41.5t33.5 -57t12.5 -71.5q0 -56 -18.5 -99.5t-50 -73.5t-74.5 -45t-92 -15q-27 0 -48 5q-11 2 -19 5v78q8 -3 19 -5q20 -5 48 -6
q23 0 47.5 8t44.5 26t33.5 46t13.5 69q0 77 -44.5 113.5t-113.5 36.5h-27v84h19q52 0 88.5 31t36.5 85q0 41 -29.5 66t-74.5 25q-52 0 -79 -34.5t-27 -90.5v-526h-96v530z" />
    <glyph glyph-name="agrave" unicode="&#xe0;" horiz-adv-x="647" 
d="M573 526v-526h-86l-10 77q-11 -16 -27 -33t-38 -30.5t-50 -21.5t-63 -8q-51 0 -96 20t-79 56t-53.5 88t-19.5 115t20.5 115t55 88.5t80 56.5t94.5 20q60 0 107.5 -24t68.5 -67l12 74h84zM316 459q-37 0 -68 -15t-53.5 -41t-35 -62t-12.5 -78t12.5 -77.5t35 -62t54 -41
t67.5 -14.5q37 0 68.5 14.5t54 41t34.5 62t12 77.5t-12 78t-34.5 62t-54 41t-68.5 15zM290 584l-122 133h120l76 -133h-74z" />
    <glyph glyph-name="aacute" unicode="&#xe1;" horiz-adv-x="647" 
d="M573 526v-526h-86l-10 77q-11 -16 -27 -33t-38 -30.5t-50 -21.5t-63 -8q-51 0 -96 20t-79 56t-53.5 88t-19.5 115t20.5 115t55 88.5t80 56.5t94.5 20q60 0 107.5 -24t68.5 -67l12 74h84zM316 459q-37 0 -68 -15t-53.5 -41t-35 -62t-12.5 -78t12.5 -77.5t35 -62t54 -41
t67.5 -14.5q37 0 68.5 14.5t54 41t34.5 62t12 77.5t-12 78t-34.5 62t-54 41t-68.5 15zM260 584l75 133h120l-122 -133h-73z" />
    <glyph glyph-name="acircumflex" unicode="&#xe2;" horiz-adv-x="647" 
d="M573 526v-526h-86l-10 77q-11 -16 -27 -33t-38 -30.5t-50 -21.5t-63 -8q-51 0 -96 20t-79 56t-53.5 88t-19.5 115t20.5 115t55 88.5t80 56.5t94.5 20q60 0 107.5 -24t68.5 -67l12 74h84zM316 459q-37 0 -68 -15t-53.5 -41t-35 -62t-12.5 -78t12.5 -77.5t35 -62t54 -41
t67.5 -14.5q37 0 68.5 14.5t54 41t34.5 62t12 77.5t-12 78t-34.5 62t-54 41t-68.5 15zM176 584l115 133h82l116 -133h-74l-83 64l-83 -64h-73z" />
    <glyph glyph-name="atilde" unicode="&#xe3;" horiz-adv-x="647" 
d="M573 526v-526h-86l-10 77q-11 -16 -27 -33t-38 -30.5t-50 -21.5t-63 -8q-51 0 -96 20t-79 56t-53.5 88t-19.5 115t20.5 115t55 88.5t80 56.5t94.5 20q60 0 107.5 -24t68.5 -67l12 74h84zM316 459q-37 0 -68 -15t-53.5 -41t-35 -62t-12.5 -78t12.5 -77.5t35 -62t54 -41
t67.5 -14.5q37 0 68.5 14.5t54 41t34.5 62t12 77.5t-12 78t-34.5 62t-54 41t-68.5 15zM178 588q0 47 25 74.5t68 27.5q23 0 36 -5.5t24 -12.5t21 -13t26 -6q32 0 31 35h64q0 -47 -25 -74.5t-68 -27.5q-23 0 -36 5.5t-24 12.5t-21 13t-26 6q-32 0 -31 -35h-64z" />
    <glyph glyph-name="adieresis" unicode="&#xe4;" horiz-adv-x="647" 
d="M573 526v-526h-86l-10 77q-11 -16 -27 -33t-38 -30.5t-50 -21.5t-63 -8q-51 0 -96 20t-79 56t-53.5 88t-19.5 115t20.5 115t55 88.5t80 56.5t94.5 20q60 0 107.5 -24t68.5 -67l12 74h84zM316 459q-37 0 -68 -15t-53.5 -41t-35 -62t-12.5 -78t12.5 -77.5t35 -62t54 -41
t67.5 -14.5q37 0 68.5 14.5t54 41t34.5 62t12 77.5t-12 78t-34.5 62t-54 41t-68.5 15zM351 717h96v-99h-96v99zM187 717h97v-99h-97v99z" />
    <glyph glyph-name="aring" unicode="&#xe5;" horiz-adv-x="647" 
d="M573 526v-526h-86l-10 77q-11 -16 -27 -33t-38 -30.5t-50 -21.5t-63 -8q-51 0 -96 20t-79 56t-53.5 88t-19.5 115t20.5 115t55 88.5t80 56.5t94.5 20q60 0 107.5 -24t68.5 -67l12 74h84zM316 459q-37 0 -68 -15t-53.5 -41t-35 -62t-12.5 -78t12.5 -77.5t35 -62t54 -41
t67.5 -14.5q37 0 68.5 14.5t54 41t34.5 62t12 77.5t-12 78t-34.5 62t-54 41t-68.5 15zM209 696q0 23 8.5 43t22.5 34t34 23t44 9t43.5 -9t34 -23t22.5 -34t8 -43t-8 -42.5t-22.5 -34t-34.5 -23t-43 -8.5q-24 0 -44 8.5t-34 23t-22.5 34t-8.5 42.5zM269 696q0 -20 13 -34.5
t36 -14.5t36 14.5t13 34.5t-13.5 34.5t-35.5 14.5q-23 0 -36 -14.5t-13 -34.5z" />
    <glyph glyph-name="ae" unicode="&#xe6;" horiz-adv-x="1058" 
d="M582 236q4 -37 17 -68t34.5 -53t52 -34.5t68.5 -12.5q52 0 91 28.5t56 73.5l89 -31q-35 -79 -94 -117t-142 -38q-57 0 -104 22t-75 61l-12 -67h-74l-12 77q-11 -16 -27 -33t-38 -30.5t-50 -21.5t-63 -8q-51 0 -96 20t-79 56t-53.5 88t-19.5 115t20.5 115t55 88.5t80 56.5
t94.5 20q60 0 107.5 -24t68.5 -67l12 74h74l12 -74q24 41 71 66t104 25q48 0 92.5 -17t78.5 -50t54.5 -82.5t20.5 -113.5v-44h-414zM316 459q-37 0 -68 -15t-53.5 -41t-35 -62t-12.5 -78t12.5 -77.5t35 -62t54 -41t67.5 -14.5q37 0 68.5 14.5t54 41.5t34.5 62.5t12 78.5
q0 41 -12 76.5t-34.5 61.5t-54 41t-68.5 15zM750 459q-69 0 -111 -41.5t-54 -104.5h317q-1 33 -13 60t-32 46t-47.5 29.5t-59.5 10.5z" />
    <glyph glyph-name="ccedilla" unicode="&#xe7;" horiz-adv-x="601" 
d="M248 -7q-42 10 -78 33t-62.5 58t-41.5 80t-15 99q0 66 21.5 117.5t57.5 87.5t84 55.5t102 19.5q85 0 148 -43.5t84 -134.5l-89 -20q-14 50 -51 82t-92 32q-37 0 -68 -14t-53.5 -39.5t-35 -62t-12.5 -80.5q0 -45 12.5 -81t35 -61.5t54 -39t67.5 -13.5q56 0 91 29.5
t53 80.5l88 -34q-33 -80 -89.5 -120t-142.5 -40h-6.5t-9.5 1l-16 -37q11 8 25.5 12.5t26.5 4.5q36 0 58.5 -22.5t22.5 -61.5q0 -42 -28.5 -65t-71.5 -23q-30 0 -52 14t-33 35l46 35q5 -14 15 -22.5t24 -8.5t24.5 9t10.5 26t-10 26t-25 9q-11 0 -20 -6t-14 -14l-53 22z" />
    <glyph glyph-name="egrave" unicode="&#xe8;" horiz-adv-x="617" 
d="M147 236q4 -37 17.5 -68t35 -53t52 -34.5t67.5 -12.5q52 0 91.5 28.5t56.5 73.5l89 -31q-35 -79 -94.5 -117t-142.5 -38q-61 0 -110 21t-84.5 58.5t-54.5 89t-19 112.5t21.5 112t57.5 88t84 57.5t101 20.5q48 0 93 -17t79 -50t54.5 -82.5t20.5 -113.5v-44h-415zM315 459
q-69 0 -110.5 -41.5t-53.5 -104.5h317q-1 33 -13.5 60t-32.5 46t-47.5 29.5t-59.5 10.5zM285 584l-122 133h120l76 -133h-74z" />
    <glyph glyph-name="eacute" unicode="&#xe9;" horiz-adv-x="617" 
d="M147 236q4 -37 17.5 -68t35 -53t52 -34.5t67.5 -12.5q52 0 91.5 28.5t56.5 73.5l89 -31q-35 -79 -94.5 -117t-142.5 -38q-61 0 -110 21t-84.5 58.5t-54.5 89t-19 112.5t21.5 112t57.5 88t84 57.5t101 20.5q48 0 93 -17t79 -50t54.5 -82.5t20.5 -113.5v-44h-415zM315 459
q-69 0 -110.5 -41.5t-53.5 -104.5h317q-1 33 -13.5 60t-32.5 46t-47.5 29.5t-59.5 10.5zM248 584l75 133h120l-122 -133h-73z" />
    <glyph glyph-name="ecircumflex" unicode="&#xea;" horiz-adv-x="617" 
d="M147 236q4 -37 17.5 -68t35 -53t52 -34.5t67.5 -12.5q52 0 91.5 28.5t56.5 73.5l89 -31q-35 -79 -94.5 -117t-142.5 -38q-61 0 -110 21t-84.5 58.5t-54.5 89t-19 112.5t21.5 112t57.5 88t84 57.5t101 20.5q48 0 93 -17t79 -50t54.5 -82.5t20.5 -113.5v-44h-415zM315 459
q-69 0 -110.5 -41.5t-53.5 -104.5h317q-1 33 -13.5 60t-32.5 46t-47.5 29.5t-59.5 10.5zM157 584l115 133h82l116 -133h-74l-83 64l-83 -64h-73z" />
    <glyph glyph-name="edieresis" unicode="&#xeb;" horiz-adv-x="617" 
d="M147 236q4 -37 17.5 -68t35 -53t52 -34.5t67.5 -12.5q52 0 91.5 28.5t56.5 73.5l89 -31q-35 -79 -94.5 -117t-142.5 -38q-61 0 -110 21t-84.5 58.5t-54.5 89t-19 112.5t21.5 112t57.5 88t84 57.5t101 20.5q48 0 93 -17t79 -50t54.5 -82.5t20.5 -113.5v-44h-415zM315 459
q-69 0 -110.5 -41.5t-53.5 -104.5h317q-1 33 -13.5 60t-32.5 46t-47.5 29.5t-59.5 10.5zM350 717h96v-99h-96v99zM186 717h97v-99h-97v99z" />
    <glyph glyph-name="igrave" unicode="&#xec;" horiz-adv-x="243" 
d="M74 526h96v-526h-96v526zM116 584l-122 133h120l76 -133h-74z" />
    <glyph glyph-name="iacute" unicode="&#xed;" horiz-adv-x="243" 
d="M74 526h96v-526h-96v526zM56 584l75 133h120l-122 -133h-73z" />
    <glyph glyph-name="icircumflex" unicode="&#xee;" horiz-adv-x="243" 
d="M74 526h96v-526h-96v526zM-33 584l115 133h82l116 -133h-74l-83 64l-83 -64h-73z" />
    <glyph glyph-name="idieresis" unicode="&#xef;" horiz-adv-x="243" 
d="M74 526h96v-526h-96v526zM157 717h96v-99h-96v99zM-7 717h97v-99h-97v99z" />
    <glyph glyph-name="eth" unicode="&#xf0;" horiz-adv-x="653" 
d="M268 630l63 21q-50 32 -114 50l27 67q47 -11 93 -31t89 -51l95 34l25 -66l-60 -21q52 -54 84 -129.5t32 -177.5q0 -77 -22 -140t-60.5 -108t-89 -69.5t-108.5 -24.5q-59 0 -109 21t-86 57.5t-56 88t-20 111.5t20.5 112t57 89.5t85 58.5t103.5 21q61 0 109.5 -28.5
t77.5 -82.5q-14 49 -41.5 91.5t-65.5 77.5l-104 -37zM318 459q-38 0 -69 -14.5t-53.5 -40t-35.5 -62t-13 -80.5t13 -80t35.5 -61.5t54 -39t68.5 -13.5q38 0 69.5 13.5t54 38.5t35 61t12.5 80t-12.5 80.5t-35 62.5t-54 40.5t-69.5 14.5z" />
    <glyph glyph-name="ntilde" unicode="&#xf1;" 
d="M170 442q9 16 25.5 34.5t38.5 33t49 24t60 9.5q93 0 143.5 -52t50.5 -157v-334h-97v314q0 75 -30 110t-93 35q-31 0 -57.5 -13t-46 -37t-31.5 -58t-12 -77v-274h-96v526h86zM168 588q0 47 25 74.5t68 27.5q23 0 36 -5.5t24 -12.5t21 -13t26 -6q32 0 31 35h64
q0 -47 -25 -74.5t-68 -27.5q-23 0 -36 5.5t-24 12.5t-21 13t-26 6q-32 0 -31 -35h-64z" />
    <glyph glyph-name="ograve" unicode="&#xf2;" horiz-adv-x="632" 
d="M316 -16q-54 0 -102 19t-84 55t-57.5 88t-21.5 117q0 66 21.5 117.5t57.5 87.5t84 55.5t102 19.5q53 0 102 -19.5t85 -55.5t57.5 -87.5t21.5 -117.5t-21.5 -117.5t-57.5 -87.5t-85 -55t-102 -19zM316 459q-37 0 -68 -14t-53.5 -39.5t-35 -62t-12.5 -80.5q0 -45 12.5 -81
t35 -61.5t54 -39t67.5 -13.5q37 0 68.5 13.5t54 39t34.5 61.5t12 81q0 44 -12 80.5t-34.5 62t-54 39.5t-68.5 14zM291 584l-122 133h120l76 -133h-74z" />
    <glyph glyph-name="oacute" unicode="&#xf3;" horiz-adv-x="632" 
d="M316 -16q-54 0 -102 19t-84 55t-57.5 88t-21.5 117q0 66 21.5 117.5t57.5 87.5t84 55.5t102 19.5q53 0 102 -19.5t85 -55.5t57.5 -87.5t21.5 -117.5t-21.5 -117.5t-57.5 -87.5t-85 -55t-102 -19zM316 459q-37 0 -68 -14t-53.5 -39.5t-35 -62t-12.5 -80.5q0 -45 12.5 -81
t35 -61.5t54 -39t67.5 -13.5q37 0 68.5 13.5t54 39t34.5 61.5t12 81q0 44 -12 80.5t-34.5 62t-54 39.5t-68.5 14zM270 584l75 133h120l-122 -133h-73z" />
    <glyph glyph-name="ocircumflex" unicode="&#xf4;" horiz-adv-x="632" 
d="M316 -16q-54 0 -102 19t-84 55t-57.5 88t-21.5 117q0 66 21.5 117.5t57.5 87.5t84 55.5t102 19.5q53 0 102 -19.5t85 -55.5t57.5 -87.5t21.5 -117.5t-21.5 -117.5t-57.5 -87.5t-85 -55t-102 -19zM316 459q-37 0 -68 -14t-53.5 -39.5t-35 -62t-12.5 -80.5q0 -45 12.5 -81
t35 -61.5t54 -39t67.5 -13.5q37 0 68.5 13.5t54 39t34.5 61.5t12 81q0 44 -12 80.5t-34.5 62t-54 39.5t-68.5 14zM160 584l115 133h82l116 -133h-74l-83 64l-83 -64h-73z" />
    <glyph glyph-name="otilde" unicode="&#xf5;" horiz-adv-x="632" 
d="M316 -16q-54 0 -102 19t-84 55t-57.5 88t-21.5 117q0 66 21.5 117.5t57.5 87.5t84 55.5t102 19.5q53 0 102 -19.5t85 -55.5t57.5 -87.5t21.5 -117.5t-21.5 -117.5t-57.5 -87.5t-85 -55t-102 -19zM316 459q-37 0 -68 -14t-53.5 -39.5t-35 -62t-12.5 -80.5q0 -45 12.5 -81
t35 -61.5t54 -39t67.5 -13.5q37 0 68.5 13.5t54 39t34.5 61.5t12 81q0 44 -12 80.5t-34.5 62t-54 39.5t-68.5 14zM170 588q0 47 25 74.5t68 27.5q23 0 36 -5.5t24 -12.5t21 -13t26 -6q32 0 31 35h64q0 -47 -25 -74.5t-68 -27.5q-23 0 -36 5.5t-24 12.5t-21 13t-26 6
q-32 0 -31 -35h-64z" />
    <glyph glyph-name="odieresis" unicode="&#xf6;" horiz-adv-x="632" 
d="M316 -16q-54 0 -102 19t-84 55t-57.5 88t-21.5 117q0 66 21.5 117.5t57.5 87.5t84 55.5t102 19.5q53 0 102 -19.5t85 -55.5t57.5 -87.5t21.5 -117.5t-21.5 -117.5t-57.5 -87.5t-85 -55t-102 -19zM316 459q-37 0 -68 -14t-53.5 -39.5t-35 -62t-12.5 -80.5q0 -45 12.5 -81
t35 -61.5t54 -39t67.5 -13.5q37 0 68.5 13.5t54 39t34.5 61.5t12 81q0 44 -12 80.5t-34.5 62t-54 39.5t-68.5 14zM350 717h96v-99h-96v99zM186 717h97v-99h-97v99z" />
    <glyph glyph-name="divide" unicode="&#xf7;" horiz-adv-x="569" 
d="M224 510h121v-121h-121v121zM224 121h121v-121h-121v121zM45 296h479v-82h-479v82z" />
    <glyph glyph-name="oslash" unicode="&#xf8;" horiz-adv-x="632" 
d="M316 -16q-58 0 -111 22l-42 -71l-59 34l43 73q-44 36 -70 91.5t-26 129.5q0 66 21.5 117.5t57.5 87.5t84 55.5t102 19.5q58 0 112 -24l42 72l58 -34l-43 -74q44 -36 70.5 -91t26.5 -129q0 -66 -21.5 -117.5t-57.5 -87.5t-85 -55t-102 -19zM316 459q-37 0 -68 -14
t-53.5 -39.5t-35 -62t-12.5 -80.5q0 -90 47 -142l190 323q-32 15 -68 15zM485 263q0 44 -12 80t-35 61l-189 -323q33 -13 67 -13q37 0 68.5 13.5t54 39t34.5 61.5t12 81z" />
    <glyph glyph-name="ugrave" unicode="&#xf9;" 
d="M440 84q-10 -18 -26 -36t-37 -32.5t-48 -23t-59 -8.5q-90 0 -143 51.5t-53 157.5v333h96v-325q0 -133 123 -133q31 0 57.5 12t46.5 35t31.5 56.5t11.5 76.5v278h97v-526h-86zM282 584l-122 133h120l76 -133h-74z" />
    <glyph glyph-name="uacute" unicode="&#xfa;" 
d="M440 84q-10 -18 -26 -36t-37 -32.5t-48 -23t-59 -8.5q-90 0 -143 51.5t-53 157.5v333h96v-325q0 -133 123 -133q31 0 57.5 12t46.5 35t31.5 56.5t11.5 76.5v278h97v-526h-86zM250 584l75 133h120l-122 -133h-73z" />
    <glyph glyph-name="ucircumflex" unicode="&#xfb;" 
d="M440 84q-10 -18 -26 -36t-37 -32.5t-48 -23t-59 -8.5q-90 0 -143 51.5t-53 157.5v333h96v-325q0 -133 123 -133q31 0 57.5 12t46.5 35t31.5 56.5t11.5 76.5v278h97v-526h-86zM150 584l115 133h82l116 -133h-74l-83 64l-83 -64h-73z" />
    <glyph glyph-name="udieresis" unicode="&#xfc;" 
d="M440 84q-10 -18 -26 -36t-37 -32.5t-48 -23t-59 -8.5q-90 0 -143 51.5t-53 157.5v333h96v-325q0 -133 123 -133q31 0 57.5 12t46.5 35t31.5 56.5t11.5 76.5v278h97v-526h-86zM337 717h96v-99h-96v99zM173 717h97v-99h-97v99z" />
    <glyph glyph-name="yacute" unicode="&#xfd;" horiz-adv-x="549" 
d="M231 0l-213 526h101l159 -407l157 407h101l-250 -622q-25 -61 -61 -86t-80 -25q-24 0 -45 6t-33 15l23 85q23 -12 51 -13q20 0 38 12.5t31 45.5zM217 584l75 133h120l-122 -133h-73z" />
    <glyph glyph-name="thorn" unicode="&#xfe;" horiz-adv-x="638" 
d="M341 543q51 0 96 -20t78.5 -56.5t53 -88t19.5 -115.5q0 -63 -21 -115t-56 -88t-80.5 -56t-93.5 -20q-55 0 -99 24t-68 59v-257h-96v907h96v-261q12 15 28.5 30.5t38 28t47.5 20.5t57 8zM325 68q37 0 67.5 14.5t52.5 41t34.5 62t12.5 77.5t-12.5 78t-34.5 62t-53 41
t-67 15q-37 0 -67.5 -15t-52 -41t-32.5 -62t-11 -78t11 -77.5t32.5 -62t52 -41t67.5 -14.5z" />
    <glyph glyph-name="ydieresis" unicode="&#xff;" horiz-adv-x="549" 
d="M231 0l-213 526h101l159 -407l157 407h101l-250 -622q-25 -61 -61 -86t-80 -25q-24 0 -45 6t-33 15l23 85q23 -12 51 -13q20 0 38 12.5t31 45.5zM312 717h96v-99h-96v99zM148 717h97v-99h-97v99z" />
    <glyph glyph-name="Amacron" unicode="&#x100;" horiz-adv-x="706" 
d="M299 717h109l288 -717h-106l-65 166h-344l-64 -166h-107zM215 254h277l-139 354zM233 883h240v-73h-240v73z" />
    <glyph glyph-name="amacron" unicode="&#x101;" horiz-adv-x="647" 
d="M573 526v-526h-86l-10 77q-11 -16 -27 -33t-38 -30.5t-50 -21.5t-63 -8q-51 0 -96 20t-79 56t-53.5 88t-19.5 115t20.5 115t55 88.5t80 56.5t94.5 20q60 0 107.5 -24t68.5 -67l12 74h84zM316 459q-37 0 -68 -15t-53.5 -41t-35 -62t-12.5 -78t12.5 -77.5t35 -62t54 -41
t67.5 -14.5q37 0 68.5 14.5t54 41t34.5 62t12 77.5t-12 78t-34.5 62t-54 41t-68.5 15zM199 693h240v-73h-240v73z" />
    <glyph glyph-name="Abreve" unicode="&#x102;" horiz-adv-x="706" 
d="M299 717h109l288 -717h-106l-65 166h-344l-64 -166h-107zM215 254h277l-139 354zM353 786q-57 0 -89.5 31t-32.5 90h74q0 -57 48 -58q48 0 48 58h74q0 -58 -32.5 -89.5t-89.5 -31.5z" />
    <glyph glyph-name="abreve" unicode="&#x103;" horiz-adv-x="647" 
d="M573 526v-526h-86l-10 77q-11 -16 -27 -33t-38 -30.5t-50 -21.5t-63 -8q-51 0 -96 20t-79 56t-53.5 88t-19.5 115t20.5 115t55 88.5t80 56.5t94.5 20q60 0 107.5 -24t68.5 -67l12 74h84zM316 459q-37 0 -68 -15t-53.5 -41t-35 -62t-12.5 -78t12.5 -77.5t35 -62t54 -41
t67.5 -14.5q37 0 68.5 14.5t54 41t34.5 62t12 77.5t-12 78t-34.5 62t-54 41t-68.5 15zM323 596q-57 0 -89.5 31t-32.5 90h74q0 -57 48 -58q48 0 48 58h74q0 -58 -32.5 -89.5t-89.5 -31.5z" />
    <glyph glyph-name="Aogonek" unicode="&#x104;" horiz-adv-x="706" 
d="M696 0q-52 -24 -52 -62q0 -15 9.5 -24t23.5 -9q5 0 10 1t10 3l6 -59q-8 -3 -19.5 -5.5t-25.5 -2.5q-35 0 -59 20.5t-24 56.5q0 29 14.5 48t35.5 33h-35l-65 166h-344l-64 -166h-107l289 717h109zM215 254h277l-139 354z" />
    <glyph glyph-name="aogonek" unicode="&#x105;" horiz-adv-x="647" 
d="M487 0l-10 77q-11 -16 -27 -33t-38 -30.5t-50 -21.5t-63 -8q-51 0 -96 20t-79 56t-53.5 88t-19.5 115t20.5 115t55 88.5t80 56.5t94.5 20q60 0 107.5 -24t68.5 -67l12 74h84v-526q-52 -24 -52 -62q0 -15 9.5 -24t23.5 -9q5 0 10 1t10 3l7 -59q-8 -3 -20 -5.5t-25 -2.5
q-35 0 -59 20.5t-24 56.5q0 29 14 48t35 33h-15zM316 459q-37 0 -68 -15t-53.5 -41t-35 -62t-12.5 -78t12.5 -77.5t35 -62t54 -41t67.5 -14.5q37 0 68.5 14.5t54 41t34.5 62t12 77.5t-12 78t-34.5 62t-54 41t-68.5 15z" />
    <glyph glyph-name="Cacute" unicode="&#x106;" horiz-adv-x="724" 
d="M690 221q-27 -109 -102 -173t-195 -64q-75 0 -136.5 26t-106.5 75t-70 118t-25 155t25.5 155.5t71.5 118.5t107.5 75t133.5 26q57 0 106.5 -15t87.5 -43.5t63.5 -70t35.5 -94.5l-99 -18q-19 74 -69.5 113.5t-124.5 39.5q-51 0 -93.5 -19t-73 -55t-47.5 -90t-17 -123
q0 -70 17 -123t47.5 -89t73 -55t93.5 -19q84 0 134 46.5t69 124.5zM336 774l75 133h120l-122 -133h-73z" />
    <glyph glyph-name="cacute" unicode="&#x107;" horiz-adv-x="601" 
d="M548 144q-33 -80 -89.5 -120t-142.5 -40q-54 0 -102 19t-84 55t-57.5 88t-21.5 117q0 66 21.5 117.5t57.5 87.5t84 55.5t102 19.5q85 0 148 -43.5t84 -134.5l-89 -20q-14 50 -51 82t-92 32q-37 0 -68 -14t-53.5 -39.5t-35 -62t-12.5 -80.5q0 -45 12.5 -81t35 -61.5
t54 -39t67.5 -13.5q56 0 91 29.5t53 80.5zM245 584l75 133h120l-122 -133h-73z" />
    <glyph glyph-name="Ccircumflex" unicode="&#x108;" horiz-adv-x="724" 
d="M690 221q-27 -109 -102 -173t-195 -64q-75 0 -136.5 26t-106.5 75t-70 118t-25 155t25.5 155.5t71.5 118.5t107.5 75t133.5 26q57 0 106.5 -15t87.5 -43.5t63.5 -70t35.5 -94.5l-99 -18q-19 74 -69.5 113.5t-124.5 39.5q-51 0 -93.5 -19t-73 -55t-47.5 -90t-17 -123
q0 -70 17 -123t47.5 -89t73 -55t93.5 -19q84 0 134 46.5t69 124.5zM236 774l115 133h82l116 -133h-74l-83 64l-83 -64h-73z" />
    <glyph glyph-name="ccircumflex" unicode="&#x109;" horiz-adv-x="601" 
d="M548 144q-33 -80 -89.5 -120t-142.5 -40q-54 0 -102 19t-84 55t-57.5 88t-21.5 117q0 66 21.5 117.5t57.5 87.5t84 55.5t102 19.5q85 0 148 -43.5t84 -134.5l-89 -20q-14 50 -51 82t-92 32q-37 0 -68 -14t-53.5 -39.5t-35 -62t-12.5 -80.5q0 -45 12.5 -81t35 -61.5
t54 -39t67.5 -13.5q56 0 91 29.5t53 80.5zM155 584l115 133h82l116 -133h-74l-83 64l-83 -64h-73z" />
    <glyph glyph-name="Cdotaccent" unicode="&#x10a;" horiz-adv-x="724" 
d="M690 221q-27 -109 -102 -173t-195 -64q-75 0 -136.5 26t-106.5 75t-70 118t-25 155t25.5 155.5t71.5 118.5t107.5 75t133.5 26q57 0 106.5 -15t87.5 -43.5t63.5 -70t35.5 -94.5l-99 -18q-19 74 -69.5 113.5t-124.5 39.5q-51 0 -93.5 -19t-73 -55t-47.5 -90t-17 -123
q0 -70 17 -123t47.5 -89t73 -55t93.5 -19q84 0 134 46.5t69 124.5zM341 907h104v-105h-104v105z" />
    <glyph glyph-name="cdotaccent" unicode="&#x10b;" horiz-adv-x="601" 
d="M548 144q-33 -80 -89.5 -120t-142.5 -40q-54 0 -102 19t-84 55t-57.5 88t-21.5 117q0 66 21.5 117.5t57.5 87.5t84 55.5t102 19.5q85 0 148 -43.5t84 -134.5l-89 -20q-14 50 -51 82t-92 32q-37 0 -68 -14t-53.5 -39.5t-35 -62t-12.5 -80.5q0 -45 12.5 -81t35 -61.5
t54 -39t67.5 -13.5q56 0 91 29.5t53 80.5zM263 717h104v-105h-104v105z" />
    <glyph glyph-name="Ccaron" unicode="&#x10c;" horiz-adv-x="724" 
d="M690 221q-27 -109 -102 -173t-195 -64q-75 0 -136.5 26t-106.5 75t-70 118t-25 155t25.5 155.5t71.5 118.5t107.5 75t133.5 26q57 0 106.5 -15t87.5 -43.5t63.5 -70t35.5 -94.5l-99 -18q-19 74 -69.5 113.5t-124.5 39.5q-51 0 -93.5 -19t-73 -55t-47.5 -90t-17 -123
q0 -70 17 -123t47.5 -89t73 -55t93.5 -19q84 0 134 46.5t69 124.5zM312 907l83 -65l83 65h74l-116 -133h-82l-115 133h73z" />
    <glyph glyph-name="ccaron" unicode="&#x10d;" horiz-adv-x="601" 
d="M548 144q-33 -80 -89.5 -120t-142.5 -40q-54 0 -102 19t-84 55t-57.5 88t-21.5 117q0 66 21.5 117.5t57.5 87.5t84 55.5t102 19.5q85 0 148 -43.5t84 -134.5l-89 -20q-14 50 -51 82t-92 32q-37 0 -68 -14t-53.5 -39.5t-35 -62t-12.5 -80.5q0 -45 12.5 -81t35 -61.5
t54 -39t67.5 -13.5q56 0 91 29.5t53 80.5zM229 717l83 -65l83 65h74l-116 -133h-82l-115 133h73z" />
    <glyph glyph-name="Dcaron" unicode="&#x10e;" horiz-adv-x="706" 
d="M84 717h218q75 0 138.5 -23.5t110.5 -69.5t73.5 -113t26.5 -153t-26.5 -152.5t-73.5 -112.5t-110.5 -69.5t-138.5 -23.5h-218v717zM186 629v-541h116q54 0 99 16.5t77 49.5t49.5 84t17.5 120t-17.5 120t-49.5 84.5t-77 50t-99 16.5h-116zM157 907l83 -65l83 65h74
l-116 -133h-82l-115 133h73z" />
    <glyph glyph-name="dcaron" unicode="&#x10f;" horiz-adv-x="735" 
d="M625 717h100v-88q0 -59 -25 -81t-75 -22v45q27 0 37 13.5t10 44.5h-47v88zM295 -16q-51 0 -95.5 20t-77.5 56t-52 88t-19 115t20 115t54 88.5t78.5 56.5t93.5 20q58 0 105 -25.5t67 -66.5v266h96v-717h-80l-16 77q-11 -16 -26.5 -33t-37 -30.5t-48.5 -21.5t-62 -8z
M312 459q-37 0 -67.5 -15t-52 -41t-33.5 -62t-12 -78t12 -77.5t33.5 -62t52 -41t67.5 -14.5t68 14.5t52.5 41t33 62t11.5 77.5t-11.5 78t-33 62t-52.5 41t-68 15z" />
    <glyph glyph-name="Dcroat" unicode="&#x110;" horiz-adv-x="723" 
d="M15 399h86v318h218q75 0 138.5 -23.5t110.5 -69.5t74 -113t27 -153t-27 -152.5t-74 -112.5t-110.5 -69.5t-138.5 -23.5h-218v317h-86v82zM204 629v-230h155v-82h-155v-229h115q54 0 99.5 16.5t77 49.5t49 84t17.5 120t-17.5 120t-49 84.5t-76.5 50t-100 16.5h-115z" />
    <glyph glyph-name="dcroat" unicode="&#x111;" horiz-adv-x="638" 
d="M330 664h139v53h96v-53h60v-72h-60v-592h-80l-15 77q-11 -16 -27 -33t-37.5 -30.5t-48.5 -21.5t-62 -8q-51 0 -95.5 20t-77.5 56t-52 88t-19 115t20 115t54 88.5t78.5 56.5t93.5 20q58 0 105 -25.5t67 -66.5v141h-139v72zM312 459q-37 0 -67.5 -15t-52 -41t-33.5 -62
t-12 -78t12 -77.5t33.5 -62t52 -41t67.5 -14.5t68 14.5t52.5 41t33 62t11.5 77.5t-11.5 78t-33 62t-52.5 41t-68 15z" />
    <glyph glyph-name="Emacron" unicode="&#x112;" horiz-adv-x="602" 
d="M84 717h453v-88h-351v-223h324v-89h-324v-229h359v-88h-461v717zM195 883h240v-73h-240v73z" />
    <glyph glyph-name="emacron" unicode="&#x113;" horiz-adv-x="617" 
d="M147 236q4 -37 17.5 -68t35 -53t52 -34.5t67.5 -12.5q52 0 91.5 28.5t56.5 73.5l89 -31q-35 -79 -94.5 -117t-142.5 -38q-61 0 -110 21t-84.5 58.5t-54.5 89t-19 112.5t21.5 112t57.5 88t84 57.5t101 20.5q48 0 93 -17t79 -50t54.5 -82.5t20.5 -113.5v-44h-415zM315 459
q-69 0 -110.5 -41.5t-53.5 -104.5h317q-1 33 -13.5 60t-32.5 46t-47.5 29.5t-59.5 10.5zM196 693h240v-73h-240v73z" />
    <glyph glyph-name="Ebreve" unicode="&#x114;" horiz-adv-x="602" 
d="M84 717h453v-88h-351v-223h324v-89h-324v-229h359v-88h-461v717zM321 786q-57 0 -89.5 31t-32.5 90h74q0 -57 48 -58q48 0 48 58h74q0 -58 -32.5 -89.5t-89.5 -31.5z" />
    <glyph glyph-name="ebreve" unicode="&#x115;" horiz-adv-x="617" 
d="M147 236q4 -37 17.5 -68t35 -53t52 -34.5t67.5 -12.5q52 0 91.5 28.5t56.5 73.5l89 -31q-35 -79 -94.5 -117t-142.5 -38q-61 0 -110 21t-84.5 58.5t-54.5 89t-19 112.5t21.5 112t57.5 88t84 57.5t101 20.5q48 0 93 -17t79 -50t54.5 -82.5t20.5 -113.5v-44h-415zM315 459
q-69 0 -110.5 -41.5t-53.5 -104.5h317q-1 33 -13.5 60t-32.5 46t-47.5 29.5t-59.5 10.5zM314 596q-57 0 -89.5 31t-32.5 90h74q0 -57 48 -58q48 0 48 58h74q0 -58 -32.5 -89.5t-89.5 -31.5z" />
    <glyph glyph-name="Edotaccent" unicode="&#x116;" horiz-adv-x="602" 
d="M84 717h453v-88h-351v-223h324v-89h-324v-229h359v-88h-461v717zM263 907h104v-105h-104v105z" />
    <glyph glyph-name="edotaccent" unicode="&#x117;" horiz-adv-x="617" 
d="M147 236q4 -37 17.5 -68t35 -53t52 -34.5t67.5 -12.5q52 0 91.5 28.5t56.5 73.5l89 -31q-35 -79 -94.5 -117t-142.5 -38q-61 0 -110 21t-84.5 58.5t-54.5 89t-19 112.5t21.5 112t57.5 88t84 57.5t101 20.5q48 0 93 -17t79 -50t54.5 -82.5t20.5 -113.5v-44h-415zM315 459
q-69 0 -110.5 -41.5t-53.5 -104.5h317q-1 33 -13.5 60t-32.5 46t-47.5 29.5t-59.5 10.5zM263 717h104v-105h-104v105z" />
    <glyph glyph-name="Eogonek" unicode="&#x118;" horiz-adv-x="602" 
d="M84 717h453v-88h-351v-223h324v-89h-324v-229h359v-88q-52 -24 -52 -62q0 -15 9 -24t23 -9q5 0 10.5 1t10.5 3l6 -59q-8 -3 -20 -5.5t-25 -2.5q-35 0 -59 20.5t-24 56.5q0 29 14.5 48t34.5 33h-389v717z" />
    <glyph glyph-name="eogonek" unicode="&#x119;" horiz-adv-x="617" 
d="M147 236q4 -37 17.5 -68t35 -53t52 -34.5t67.5 -12.5q52 0 91.5 28.5t56.5 73.5l89 -31q-24 -53 -57.5 -86.5t-81.5 -52.5q-27 -11 -39.5 -27.5t-12.5 -34.5q0 -15 9 -24t23 -9q5 0 10.5 1t10.5 3l6 -59q-8 -3 -20 -5.5t-25 -2.5q-35 0 -59 20.5t-24 56.5q0 20 7.5 36
t21.5 29h-6q-61 0 -110 21t-84.5 58.5t-54.5 89t-19 112.5t21.5 112t57.5 88t84 57.5t101 20.5q48 0 93 -17t79 -50t54.5 -82.5t20.5 -113.5v-44h-415zM315 459q-69 0 -110.5 -41.5t-53.5 -104.5h317q-1 33 -13.5 60t-32.5 46t-47.5 29.5t-59.5 10.5z" />
    <glyph glyph-name="Ecaron" unicode="&#x11a;" horiz-adv-x="602" 
d="M84 717h453v-88h-351v-223h324v-89h-324v-229h359v-88h-461v717zM234 907l83 -65l83 65h74l-116 -133h-82l-115 133h73z" />
    <glyph glyph-name="ecaron" unicode="&#x11b;" horiz-adv-x="617" 
d="M147 236q4 -37 17.5 -68t35 -53t52 -34.5t67.5 -12.5q52 0 91.5 28.5t56.5 73.5l89 -31q-35 -79 -94.5 -117t-142.5 -38q-61 0 -110 21t-84.5 58.5t-54.5 89t-19 112.5t21.5 112t57.5 88t84 57.5t101 20.5q48 0 93 -17t79 -50t54.5 -82.5t20.5 -113.5v-44h-415zM315 459
q-69 0 -110.5 -41.5t-53.5 -104.5h317q-1 33 -13.5 60t-32.5 46t-47.5 29.5t-59.5 10.5zM234 717l83 -65l83 65h74l-116 -133h-82l-115 133h73z" />
    <glyph glyph-name="Gcircumflex" unicode="&#x11c;" horiz-adv-x="774" 
d="M381 365h331v-219q-51 -75 -125 -118.5t-180 -43.5q-75 0 -139 26t-111 75t-74.5 118t-27.5 155t29 155.5t77.5 118.5t112 75t134.5 26q61 0 111.5 -16t88 -45t62 -69.5t36.5 -89.5l-98 -26q-17 76 -70 117t-130 41q-48 0 -93 -19t-78.5 -55t-54 -90t-20.5 -123
q0 -70 19 -123t52.5 -89t79 -55t99.5 -19q41 0 72 9.5t55 24t42 32.5t32 34v104h-232v89zM250 774l115 133h82l116 -133h-74l-83 64l-83 -64h-73z" />
    <glyph glyph-name="gcircumflex" unicode="&#x11d;" horiz-adv-x="630" 
d="M296 543q65 0 107 -24.5t61 -54.5l13 62h80v-487q0 -58 -20 -104t-53.5 -77t-79 -48t-96.5 -17t-90 12.5t-67.5 34t-48 50.5t-31.5 64l84 29q22 -54 57 -80t96 -26q32 0 59.5 10t48 30t33 49t12.5 68v51q-27 -41 -68 -63t-97 -22q-49 0 -93 18.5t-78 54t-54 85.5t-20 113
t19.5 113.5t53.5 86t78.5 54t93.5 18.5zM308 84q75 0 118 51.5t43 135.5t-43 136t-118 52t-118 -52t-43 -136t43 -135.5t118 -51.5zM155 584l115 133h82l116 -133h-74l-83 64l-83 -64h-73z" />
    <glyph glyph-name="Gbreve" unicode="&#x11e;" horiz-adv-x="774" 
d="M381 365h331v-219q-51 -75 -125 -118.5t-180 -43.5q-75 0 -139 26t-111 75t-74.5 118t-27.5 155t29 155.5t77.5 118.5t112 75t134.5 26q61 0 111.5 -16t88 -45t62 -69.5t36.5 -89.5l-98 -26q-17 76 -70 117t-130 41q-48 0 -93 -19t-78.5 -55t-54 -90t-20.5 -123
q0 -70 19 -123t52.5 -89t79 -55t99.5 -19q41 0 72 9.5t55 24t42 32.5t32 34v104h-232v89zM407 786q-57 0 -89.5 31t-32.5 90h74q0 -57 48 -58q48 0 48 58h74q0 -58 -32.5 -89.5t-89.5 -31.5z" />
    <glyph glyph-name="gbreve" unicode="&#x11f;" horiz-adv-x="630" 
d="M296 543q65 0 107 -24.5t61 -54.5l13 62h80v-487q0 -58 -20 -104t-53.5 -77t-79 -48t-96.5 -17t-90 12.5t-67.5 34t-48 50.5t-31.5 64l84 29q22 -54 57 -80t96 -26q32 0 59.5 10t48 30t33 49t12.5 68v51q-27 -41 -68 -63t-97 -22q-49 0 -93 18.5t-78 54t-54 85.5t-20 113
t19.5 113.5t53.5 86t78.5 54t93.5 18.5zM308 84q75 0 118 51.5t43 135.5t-43 136t-118 52t-118 -52t-43 -136t43 -135.5t118 -51.5zM299 596q-57 0 -89.5 31t-32.5 90h74q0 -57 48 -58q48 0 48 58h74q0 -58 -32.5 -89.5t-89.5 -31.5z" />
    <glyph glyph-name="Gdotaccent" unicode="&#x120;" horiz-adv-x="774" 
d="M381 365h331v-219q-51 -75 -125 -118.5t-180 -43.5q-75 0 -139 26t-111 75t-74.5 118t-27.5 155t29 155.5t77.5 118.5t112 75t134.5 26q61 0 111.5 -16t88 -45t62 -69.5t36.5 -89.5l-98 -26q-17 76 -70 117t-130 41q-48 0 -93 -19t-78.5 -55t-54 -90t-20.5 -123
q0 -70 19 -123t52.5 -89t79 -55t99.5 -19q41 0 72 9.5t55 24t42 32.5t32 34v104h-232v89zM357 907h104v-105h-104v105z" />
    <glyph glyph-name="gdotaccent" unicode="&#x121;" horiz-adv-x="630" 
d="M296 543q65 0 107 -24.5t61 -54.5l13 62h80v-487q0 -58 -20 -104t-53.5 -77t-79 -48t-96.5 -17t-90 12.5t-67.5 34t-48 50.5t-31.5 64l84 29q22 -54 57 -80t96 -26q32 0 59.5 10t48 30t33 49t12.5 68v51q-27 -41 -68 -63t-97 -22q-49 0 -93 18.5t-78 54t-54 85.5t-20 113
t19.5 113.5t53.5 86t78.5 54t93.5 18.5zM308 84q75 0 118 51.5t43 135.5t-43 136t-118 52t-118 -52t-43 -136t43 -135.5t118 -51.5zM255 717h104v-105h-104v105z" />
    <glyph glyph-name="uni0122" unicode="&#x122;" horiz-adv-x="774" 
d="M370 -63h108v-101q0 -63 -29 -90t-79 -27v56q29 0 40.5 14.5t12.5 46.5h-53v101zM381 365h331v-219q-51 -75 -125 -118.5t-180 -43.5q-75 0 -139 26t-111 75t-74.5 118t-27.5 155t29 155.5t77.5 118.5t112 75t134.5 26q61 0 111.5 -16t88 -45t62 -69.5t36.5 -89.5
l-98 -26q-17 76 -70 117t-130 41q-48 0 -93 -19t-78.5 -55t-54 -90t-20.5 -123q0 -70 19 -123t52.5 -89t79 -55t99.5 -19q41 0 72 9.5t55 24t42 32.5t32 34v104h-232v89z" />
    <glyph glyph-name="uni0123" unicode="&#x123;" horiz-adv-x="630" 
d="M350 600h-104v96q0 60 28 84.5t76 24.5v-47q-28 0 -38.5 -16t-10.5 -46h49v-96zM296 543q65 0 107 -24.5t61 -54.5l13 62h80v-487q0 -58 -20 -104t-53.5 -77t-79 -48t-96.5 -17t-90 12.5t-67.5 34t-48 50.5t-31.5 64l84 29q22 -54 57 -80t96 -26q32 0 59.5 10t48 30
t33 49t12.5 68v51q-27 -41 -68 -63t-97 -22q-49 0 -93 18.5t-78 54t-54 85.5t-20 113t19.5 113.5t53.5 86t78.5 54t93.5 18.5zM308 84q75 0 118 51.5t43 135.5t-43 136t-118 52t-118 -52t-43 -136t43 -135.5t118 -51.5z" />
    <glyph glyph-name="Hcircumflex" unicode="&#x124;" horiz-adv-x="700" 
d="M84 717h102v-311h328v311h102v-717h-102v317h-328v-317h-102v717zM194 774l115 133h82l116 -133h-74l-83 64l-83 -64h-73z" />
    <glyph glyph-name="hcircumflex" unicode="&#x125;" horiz-adv-x="618" 
d="M170 446q9 16 26 34t39.5 31.5t49.5 22.5t58 9q96 0 149 -54.5t53 -159.5v-329h-96v321q0 68 -32.5 103t-94.5 35q-31 0 -58 -12.5t-48 -35.5t-33.5 -56t-12.5 -76v-279h-96v717h96v-271zM74 774l115 133h82l116 -133h-74l-83 64l-83 -64h-73z" />
    <glyph glyph-name="Hbar" unicode="&#x126;" horiz-adv-x="700" 
d="M-2 604h86v113h102v-113h328v113h102v-113h86v-82h-86v-522h-102v317h-328v-317h-102v522h-86v82zM514 406v116h-328v-116h328z" />
    <glyph glyph-name="hbar" unicode="&#x127;" horiz-adv-x="618" 
d="M170 664h152v-72h-152v-146q9 16 26 34t39.5 31.5t49.5 22.5t58 9q96 0 149 -54.5t53 -159.5v-329h-96v321q0 68 -32.5 103t-94.5 35q-31 0 -58 -12.5t-48 -35.5t-33.5 -56t-12.5 -76v-279h-96v592h-60v72h60v53h96v-53z" />
    <glyph glyph-name="Itilde" unicode="&#x128;" horiz-adv-x="270" 
d="M84 717h102v-717h-102v717zM-11 778q0 47 25 74.5t68 27.5q23 0 36 -5.5t24 -12.5t21 -13t26 -6q32 0 31 35h64q0 -47 -25 -74.5t-68 -27.5q-23 0 -36 5.5t-24 12.5t-21 13t-26 6q-32 0 -31 -35h-64z" />
    <glyph glyph-name="itilde" unicode="&#x129;" horiz-adv-x="243" 
d="M74 526h96v-526h-96v526zM-25 588q0 47 25 74.5t68 27.5q23 0 36 -5.5t24 -12.5t21 -13t26 -6q32 0 31 35h64q0 -47 -25 -74.5t-68 -27.5q-23 0 -36 5.5t-24 12.5t-21 13t-26 6q-32 0 -31 -35h-64z" />
    <glyph glyph-name="Imacron" unicode="&#x12a;" horiz-adv-x="270" 
d="M84 717h102v-717h-102v717zM16 883h240v-73h-240v73z" />
    <glyph glyph-name="imacron" unicode="&#x12b;" horiz-adv-x="243" 
d="M74 526h96v-526h-96v526zM3 693h240v-73h-240v73z" />
    <glyph glyph-name="Ibreve" unicode="&#x12c;" horiz-adv-x="270" 
d="M84 717h102v-717h-102v717zM136 786q-57 0 -89.5 31t-32.5 90h74q0 -57 48 -58q48 0 48 58h74q0 -58 -32.5 -89.5t-89.5 -31.5z" />
    <glyph glyph-name="ibreve" unicode="&#x12d;" horiz-adv-x="221" 
d="M64 526h96v-526h-96v526zM112 596q-57 0 -89.5 31t-32.5 90h74q0 -57 48 -58q48 0 48 58h74q0 -58 -32.5 -89.5t-89.5 -31.5z" />
    <glyph glyph-name="Iogonek" unicode="&#x12e;" horiz-adv-x="270" 
d="M84 717h102v-717q-52 -24 -52 -62q0 -15 9.5 -24t23.5 -9q5 0 10 1t10 3l7 -59q-8 -3 -20 -5.5t-26 -2.5q-35 0 -58.5 20.5t-23.5 56.5q0 29 14 48t35 33h-31v717z" />
    <glyph glyph-name="iogonek" unicode="&#x12f;" horiz-adv-x="243" 
d="M74 526h96v-526q-52 -24 -52 -62q0 -15 9 -24t24 -9q5 0 10 1t10 3l6 -59q-8 -3 -20 -5.5t-25 -2.5q-35 0 -59 20.5t-24 56.5q0 29 14.5 48t34.5 33h-24v526zM70 717h104v-105h-104v105z" />
    <glyph glyph-name="Idotaccent" unicode="&#x130;" horiz-adv-x="270" 
d="M84 717h102v-717h-102v717zM83 907h104v-105h-104v105z" />
    <glyph glyph-name="dotlessi" unicode="&#x131;" horiz-adv-x="243" 
d="M74 526h96v-526h-96v526z" />
    <glyph glyph-name="IJ" unicode="&#x132;" horiz-adv-x="817" 
d="M84 717h102v-717h-102v717zM645 717h103v-478q0 -58 -16 -106t-45.5 -81t-71.5 -50.5t-93 -17.5q-44 0 -82 12.5t-67.5 37t-48.5 61t-25 83.5l95 20q10 -68 43 -97t85 -29q33 0 56 13t38 35t22 52t7 64v481z" />
    <glyph glyph-name="ij" unicode="&#x133;" horiz-adv-x="466" 
d="M74 526h96v-526h-96v526zM70 717h104v-105h-104v105zM293 717h104v-105h-104v105zM393 -46q0 -83 -38.5 -122t-105.5 -39q-24 0 -39 5v84q8 -3 15.5 -5t19.5 -2q25 0 38.5 15.5t13.5 49.5v586h96v-572z" />
    <glyph glyph-name="Jcircumflex" unicode="&#x134;" horiz-adv-x="575" 
d="M403 717h103v-478q0 -58 -16 -106t-45.5 -81t-71.5 -50.5t-93 -17.5q-44 0 -82 12.5t-67.5 37t-48.5 61t-25 83.5l95 20q10 -68 43 -97t85 -29q33 0 56 13t38 35t22 52t7 64v481zM298 774l115 133h82l116 -133h-74l-83 64l-83 -64h-73z" />
    <glyph glyph-name="jcircumflex" unicode="&#x135;" horiz-adv-x="243" 
d="M170 -46q0 -83 -38.5 -122t-105.5 -39q-24 0 -39 5v84q8 -3 15.5 -5t19.5 -2q25 0 38.5 15.5t13.5 49.5v586h96v-572zM-36 584l116 133h82l116 -133h-74l-83 64l-83 -64h-74z" />
    <glyph glyph-name="uni0136" unicode="&#x136;" horiz-adv-x="609" 
d="M272 -63h109v-101q0 -63 -29 -90t-80 -27v56q29 0 41 14.5t13 46.5h-54v101zM84 717h102v-310l263 310h123l-289 -339l316 -378h-130l-283 337v-337h-102v717z" />
    <glyph glyph-name="uni0137" unicode="&#x137;" horiz-adv-x="508" 
d="M207 -63h108v-101q0 -63 -29 -90t-79 -27v56q29 0 40.5 14.5t12.5 46.5h-53v101zM74 717h96v-399l177 208h118l-209 -237l232 -289h-117l-201 247v-247h-96v717z" />
    <glyph glyph-name="kgreenlandic" unicode="&#x138;" horiz-adv-x="508" 
d="M170 526v-208l177 208h118l-209 -237l232 -289h-117l-201 247v-247h-96v526h96z" />
    <glyph glyph-name="Lacute" unicode="&#x139;" horiz-adv-x="596" 
d="M84 717h102v-629h359v-88h-461v717zM85 774l75 133h120l-122 -133h-73z" />
    <glyph glyph-name="lacute" unicode="&#x13a;" horiz-adv-x="243" 
d="M76 774l75 133h120l-122 -133h-73zM74 717h96v-717h-96v717z" />
    <glyph glyph-name="uni013B" unicode="&#x13b;" horiz-adv-x="595" 
d="M266 -63h109v-101q0 -63 -29.5 -90t-79.5 -27v56q29 0 40.5 14.5t12.5 46.5h-53v101zM84 717h102v-629h359v-88h-461v717z" />
    <glyph glyph-name="uni013C" unicode="&#x13c;" horiz-adv-x="243" 
d="M68 -63h108v-101q0 -63 -29 -90t-79 -27v56q29 0 40.5 14.5t12.5 46.5h-53v101zM74 717h96v-717h-96v717z" />
    <glyph glyph-name="Lcaron" unicode="&#x13d;" horiz-adv-x="595" 
d="M422 717h100v-88q0 -59 -25 -81t-75 -22v45q27 0 37 13.5t10 44.5h-47v88zM84 717h102v-629h359v-88h-461v717z" />
    <glyph glyph-name="lcaron" unicode="&#x13e;" horiz-adv-x="329" 
d="M219 717h100v-88q0 -59 -25 -81t-75 -22v45q27 0 37 13.5t10 44.5h-47v88zM74 717h96v-717h-96v717z" />
    <glyph glyph-name="Ldot" unicode="&#x13f;" horiz-adv-x="595" 
d="M84 717h102v-629h359v-88h-461v717zM408 415h117v-117h-117v117z" />
    <glyph glyph-name="ldot" unicode="&#x140;" horiz-adv-x="356" 
d="M74 717h96v-717h-96v717zM241 415h117v-117h-117v117z" />
    <glyph glyph-name="Lslash" unicode="&#x141;" horiz-adv-x="616" 
d="M20 305l84 44v368h103v-315l145 77v-90l-145 -77v-224h358v-88h-461v259l-84 -44v90z" />
    <glyph glyph-name="lslash" unicode="&#x142;" horiz-adv-x="303" 
d="M104 239l-84 -44v90l84 44v388h97v-338l82 43v-90l-82 -43v-289h-97v239z" />
    <glyph glyph-name="Nacute" unicode="&#x143;" horiz-adv-x="731" 
d="M84 717h115l346 -562v562h102v-717h-115l-346 562v-562h-102v717zM308 774l75 133h120l-122 -133h-73z" />
    <glyph glyph-name="nacute" unicode="&#x144;" 
d="M170 442q9 16 25.5 34.5t38.5 33t49 24t60 9.5q93 0 143.5 -52t50.5 -157v-334h-97v314q0 75 -30 110t-93 35q-31 0 -57.5 -13t-46 -37t-31.5 -58t-12 -77v-274h-96v526h86zM246 584l75 133h120l-122 -133h-73z" />
    <glyph glyph-name="uni0145" unicode="&#x145;" horiz-adv-x="731" 
d="M311 -63h109v-101q0 -63 -29.5 -90t-79.5 -27v56q29 0 41 14.5t13 46.5h-54v101zM84 717h115l346 -562v562h102v-717h-115l-346 562v-562h-102v717z" />
    <glyph glyph-name="uni0146" unicode="&#x146;" 
d="M264 -63h109v-101q0 -63 -29.5 -90t-79.5 -27v56q29 0 40.5 14.5t12.5 46.5h-53v101zM170 442q9 16 25.5 34.5t38.5 33t49 24t60 9.5q93 0 143.5 -52t50.5 -157v-334h-97v314q0 75 -30 110t-93 35q-31 0 -57.5 -13t-46 -37t-31.5 -58t-12 -77v-274h-96v526h86z" />
    <glyph glyph-name="Ncaron" unicode="&#x147;" horiz-adv-x="731" 
d="M84 717h115l346 -562v562h102v-717h-115l-346 562v-562h-102v717zM282 907l83 -65l83 65h74l-116 -133h-82l-115 133h73z" />
    <glyph glyph-name="ncaron" unicode="&#x148;" 
d="M170 442q9 16 25.5 34.5t38.5 33t49 24t60 9.5q93 0 143.5 -52t50.5 -157v-334h-97v314q0 75 -30 110t-93 35q-31 0 -57.5 -13t-46 -37t-31.5 -58t-12 -77v-274h-96v526h86zM220 717l83 -65l83 65h74l-116 -133h-82l-115 133h73z" />
    <glyph glyph-name="napostrophe" unicode="&#x149;" horiz-adv-x="600" 
d="M5 778h100v-88q0 -59 -25 -80.5t-75 -21.5v45q27 0 37 13t10 44h-47v88zM160 442q9 16 25.5 34.5t38.5 33t49 24t60 9.5q93 0 143 -52t50 -157v-334h-96v314q0 75 -30 110t-93 35q-31 0 -57.5 -13t-46.5 -37t-31.5 -58t-11.5 -77v-274h-97v526h87z" />
    <glyph glyph-name="Eng" unicode="&#x14a;" horiz-adv-x="731" 
d="M84 717h115l346 -544v544h102v-717q0 -103 -54 -155t-172 -52v88q66 0 95 26t29 93l-359 562v-562h-102v717z" />
    <glyph glyph-name="eng" unicode="&#x14b;" 
d="M170 442q9 16 25.5 34.5t38.5 33t49 24t60 9.5q93 0 143.5 -52t50.5 -157v-380q0 -83 -39 -122t-107 -39q-24 0 -39 5v84q8 -3 16 -5t19 -2q25 0 39 15.5t14 49.5v386q0 133 -123 133q-31 0 -57.5 -13t-46 -37t-31.5 -58t-12 -77v-274h-96v526h86z" />
    <glyph glyph-name="Omacron" unicode="&#x14c;" horiz-adv-x="782" 
d="M727 358q0 -86 -24.5 -155t-69 -118t-106 -75t-136.5 -26t-136 26t-106 75t-69.5 118t-24.5 155t24.5 155.5t69.5 118.5t106 75t136 26t136.5 -26t106 -75t69 -118.5t24.5 -155.5zM621 358q0 69 -17 123t-47.5 90t-72.5 55t-93 19t-93 -19t-72 -55t-47 -90t-17 -123
q0 -70 17 -123t47 -89t72 -55t93 -19t93 19t72.5 55t47.5 89t17 123zM271 883h240v-73h-240v73z" />
    <glyph glyph-name="omacron" unicode="&#x14d;" horiz-adv-x="632" 
d="M316 -16q-54 0 -102 19t-84 55t-57.5 88t-21.5 117q0 66 21.5 117.5t57.5 87.5t84 55.5t102 19.5q53 0 102 -19.5t85 -55.5t57.5 -87.5t21.5 -117.5t-21.5 -117.5t-57.5 -87.5t-85 -55t-102 -19zM316 459q-37 0 -68 -14t-53.5 -39.5t-35 -62t-12.5 -80.5q0 -45 12.5 -81
t35 -61.5t54 -39t67.5 -13.5q37 0 68.5 13.5t54 39t34.5 61.5t12 81q0 44 -12 80.5t-34.5 62t-54 39.5t-68.5 14zM196 693h240v-73h-240v73z" />
    <glyph glyph-name="Obreve" unicode="&#x14e;" horiz-adv-x="782" 
d="M727 358q0 -86 -24.5 -155t-69 -118t-106 -75t-136.5 -26t-136 26t-106 75t-69.5 118t-24.5 155t24.5 155.5t69.5 118.5t106 75t136 26t136.5 -26t106 -75t69 -118.5t24.5 -155.5zM621 358q0 69 -17 123t-47.5 90t-72.5 55t-93 19t-93 -19t-72 -55t-47 -90t-17 -123
q0 -70 17 -123t47 -89t72 -55t93 -19t93 19t72.5 55t47.5 89t17 123zM391 786q-57 0 -89.5 31t-32.5 90h74q0 -57 48 -58q48 0 48 58h74q0 -58 -32.5 -89.5t-89.5 -31.5z" />
    <glyph glyph-name="obreve" unicode="&#x14f;" horiz-adv-x="632" 
d="M316 -16q-54 0 -102 19t-84 55t-57.5 88t-21.5 117q0 66 21.5 117.5t57.5 87.5t84 55.5t102 19.5q53 0 102 -19.5t85 -55.5t57.5 -87.5t21.5 -117.5t-21.5 -117.5t-57.5 -87.5t-85 -55t-102 -19zM316 459q-37 0 -68 -14t-53.5 -39.5t-35 -62t-12.5 -80.5q0 -45 12.5 -81
t35 -61.5t54 -39t67.5 -13.5q37 0 68.5 13.5t54 39t34.5 61.5t12 81q0 44 -12 80.5t-34.5 62t-54 39.5t-68.5 14zM316 596q-57 0 -89.5 31t-32.5 90h74q0 -57 48 -58q48 0 48 58h74q0 -58 -32.5 -89.5t-89.5 -31.5z" />
    <glyph glyph-name="Ohungarumlaut" unicode="&#x150;" horiz-adv-x="782" 
d="M727 358q0 -86 -24.5 -155t-69 -118t-106 -75t-136.5 -26t-136 26t-106 75t-69.5 118t-24.5 155t24.5 155.5t69.5 118.5t106 75t136 26t136.5 -26t106 -75t69 -118.5t24.5 -155.5zM621 358q0 69 -17 123t-47.5 90t-72.5 55t-93 19t-93 -19t-72 -55t-47 -90t-17 -123
q0 -70 17 -123t47 -89t72 -55t93 -19t93 19t72.5 55t47.5 89t17 123zM269 774l45 133h111l-91 -133h-65zM421 774l45 133h112l-91 -133h-66z" />
    <glyph glyph-name="ohungarumlaut" unicode="&#x151;" horiz-adv-x="632" 
d="M316 -16q-54 0 -102 19t-84 55t-57.5 88t-21.5 117q0 66 21.5 117.5t57.5 87.5t84 55.5t102 19.5q53 0 102 -19.5t85 -55.5t57.5 -87.5t21.5 -117.5t-21.5 -117.5t-57.5 -87.5t-85 -55t-102 -19zM316 459q-37 0 -68 -14t-53.5 -39.5t-35 -62t-12.5 -80.5q0 -45 12.5 -81
t35 -61.5t54 -39t67.5 -13.5q37 0 68.5 13.5t54 39t34.5 61.5t12 81q0 44 -12 80.5t-34.5 62t-54 39.5t-68.5 14zM198 584l45 133h111l-91 -133h-65zM350 584l45 133h112l-91 -133h-66z" />
    <glyph glyph-name="OE" unicode="&#x152;" horiz-adv-x="1142" 
d="M625 106q-34 -55 -94 -88.5t-140 -33.5q-75 0 -136 26t-106 75t-69.5 118t-24.5 155t24.5 155.5t69.5 118.5t106 75t136 26q71 0 134 -27.5t100 -90.5v102h452v-88h-350v-223h324v-89h-324v-229h358v-88h-460v106zM625 358q0 69 -17.5 123t-48.5 90t-74 55t-94 19
t-93 -19t-72 -55t-47 -90t-17 -123q0 -70 17 -123t47 -89t72 -55t93 -19t94 19t74 55t48.5 89t17.5 123z" />
    <glyph glyph-name="oe" unicode="&#x153;" horiz-adv-x="1051" 
d="M316 -16q-54 0 -102 19t-84 55t-57.5 88t-21.5 117q0 66 21.5 117.5t57.5 87.5t84 55.5t102 19.5q68 0 124.5 -30t94.5 -91q39 59 94 90t121 31q48 0 92.5 -17t78.5 -50t54.5 -82.5t20.5 -113.5v-44h-413q4 -37 16.5 -68t34.5 -53t52 -34.5t68 -12.5q52 0 91 28.5
t56 73.5l89 -31q-35 -79 -94 -117t-142 -38q-79 0 -137 35.5t-83 89.5q-37 -59 -90.5 -92t-127.5 -33zM316 459q-37 0 -68 -14t-53.5 -39.5t-35 -62t-12.5 -80.5q0 -45 12.5 -81t35 -61.5t54 -39t67.5 -13.5q37 0 68.5 13.5t54 39t34.5 61.5t12 81q0 44 -12 80.5t-34.5 62
t-54 39.5t-68.5 14zM750 459q-69 0 -110.5 -41.5t-53.5 -104.5h316q-1 33 -13 60t-32 46t-47.5 29.5t-59.5 10.5z" />
    <glyph glyph-name="Racute" unicode="&#x154;" horiz-adv-x="671" 
d="M337 279h-151v-279h-102v717h256q53 0 98.5 -15t79.5 -43t53 -69t19 -92q0 -76 -39.5 -127.5t-104.5 -74.5l166 -296h-119zM186 367h156q62 0 103.5 32t41.5 99t-41.5 99t-103.5 32h-156v-262zM230 774l75 133h120l-122 -133h-73z" />
    <glyph glyph-name="racute" unicode="&#x155;" horiz-adv-x="373" 
d="M331 450q-18 9 -41 9q-24 0 -45.5 -12.5t-38 -34.5t-26.5 -51.5t-10 -64.5v-296h-96v526h86l10 -84q15 42 49.5 71.5t85.5 29.5q11 0 22 -2t18 -6zM142 584l75 133h120l-122 -133h-73z" />
    <glyph glyph-name="uni0156" unicode="&#x156;" horiz-adv-x="671" 
d="M274 -63h109v-101q0 -63 -29 -90t-80 -27v56q29 0 41 14.5t13 46.5h-54v101zM337 279h-151v-279h-102v717h256q53 0 98.5 -15t79.5 -43t53 -69t19 -92q0 -76 -39.5 -127.5t-104.5 -74.5l166 -296h-119zM186 367h156q62 0 103.5 32t41.5 99t-41.5 99t-103.5 32h-156v-262z
" />
    <glyph glyph-name="uni0157" unicode="&#x157;" horiz-adv-x="373" 
d="M68 -63h108v-101q0 -63 -29 -90t-79 -27v56q29 0 40.5 14.5t12.5 46.5h-53v101zM331 450q-18 9 -41 9q-24 0 -45.5 -12.5t-38 -34.5t-26.5 -51.5t-10 -64.5v-296h-96v526h86l10 -84q15 42 49.5 71.5t85.5 29.5q11 0 22 -2t18 -6z" />
    <glyph glyph-name="Rcaron" unicode="&#x158;" horiz-adv-x="671" 
d="M337 279h-151v-279h-102v717h256q53 0 98.5 -15t79.5 -43t53 -69t19 -92q0 -76 -39.5 -127.5t-104.5 -74.5l166 -296h-119zM186 367h156q62 0 103.5 32t41.5 99t-41.5 99t-103.5 32h-156v-262zM204 907l83 -65l83 65h74l-116 -133h-82l-115 133h73z" />
    <glyph glyph-name="rcaron" unicode="&#x159;" horiz-adv-x="373" 
d="M331 450q-18 9 -41 9q-24 0 -45.5 -12.5t-38 -34.5t-26.5 -51.5t-10 -64.5v-296h-96v526h86l10 -84q15 42 49.5 71.5t85.5 29.5q11 0 22 -2t18 -6zM125 717l83 -65l83 65h74l-116 -133h-82l-115 133h73z" />
    <glyph glyph-name="Sacute" unicode="&#x15a;" horiz-adv-x="688" 
d="M508 193q0 28 -8 49t-28 37t-54.5 27t-87.5 18q-55 7 -99.5 24.5t-75.5 44.5t-47.5 61.5t-16.5 76.5q0 47 20 84.5t54.5 64t79.5 40t95 13.5q61 0 105.5 -16t75.5 -44.5t49 -67t25 -82.5l-95 -18q-14 69 -56 104.5t-104 35.5q-30 0 -56.5 -7t-46.5 -21t-31.5 -34.5
t-11.5 -46.5q0 -50 39 -84t135 -44q53 -6 97.5 -21t76.5 -40t50 -60.5t18 -80.5q0 -46 -17.5 -87t-50.5 -71t-80.5 -47t-107.5 -17q-61 0 -111 18t-86.5 51t-59 78t-28.5 98l95 20q6 -36 19.5 -68.5t36 -56.5t55.5 -38t79 -14q70 0 112 33.5t42 87.5zM286 774l75 133h120
l-122 -133h-73z" />
    <glyph glyph-name="sacute" unicode="&#x15b;" horiz-adv-x="550" 
d="M397 155q0 34 -28.5 52t-102.5 26q-85 10 -134 49t-49 107q0 37 15.5 65t41.5 48t60 30.5t73 10.5q89 0 138 -44t60 -116l-86 -13q-8 45 -39 70t-76 25q-44 0 -72.5 -19t-28.5 -54q0 -14 6 -27.5t21 -24.5t40 -19t62 -12q100 -10 144.5 -48.5t44.5 -106.5
q0 -35 -14.5 -66.5t-40.5 -54.5t-62.5 -36t-80.5 -13q-49 0 -88.5 13.5t-69 39t-47 60t-23.5 76.5l86 16q11 -56 42.5 -89.5t96.5 -33.5q47 0 79 22t32 67zM223 584l75 133h120l-122 -133h-73z" />
    <glyph glyph-name="Scircumflex" unicode="&#x15c;" horiz-adv-x="688" 
d="M508 193q0 28 -8 49t-28 37t-54.5 27t-87.5 18q-55 7 -99.5 24.5t-75.5 44.5t-47.5 61.5t-16.5 76.5q0 47 20 84.5t54.5 64t79.5 40t95 13.5q61 0 105.5 -16t75.5 -44.5t49 -67t25 -82.5l-95 -18q-14 69 -56 104.5t-104 35.5q-30 0 -56.5 -7t-46.5 -21t-31.5 -34.5
t-11.5 -46.5q0 -50 39 -84t135 -44q53 -6 97.5 -21t76.5 -40t50 -60.5t18 -80.5q0 -46 -17.5 -87t-50.5 -71t-80.5 -47t-107.5 -17q-61 0 -111 18t-86.5 51t-59 78t-28.5 98l95 20q6 -36 19.5 -68.5t36 -56.5t55.5 -38t79 -14q70 0 112 33.5t42 87.5zM190 774l115 133h82
l116 -133h-74l-83 64l-83 -64h-73z" />
    <glyph glyph-name="scircumflex" unicode="&#x15d;" horiz-adv-x="550" 
d="M397 155q0 34 -28.5 52t-102.5 26q-85 10 -134 49t-49 107q0 37 15.5 65t41.5 48t60 30.5t73 10.5q89 0 138 -44t60 -116l-86 -13q-8 45 -39 70t-76 25q-44 0 -72.5 -19t-28.5 -54q0 -14 6 -27.5t21 -24.5t40 -19t62 -12q100 -10 144.5 -48.5t44.5 -106.5
q0 -35 -14.5 -66.5t-40.5 -54.5t-62.5 -36t-80.5 -13q-49 0 -88.5 13.5t-69 39t-47 60t-23.5 76.5l86 16q11 -56 42.5 -89.5t96.5 -33.5q47 0 79 22t32 67zM121 584l115 133h82l116 -133h-74l-83 64l-83 -64h-73z" />
    <glyph glyph-name="Scedilla" unicode="&#x15e;" horiz-adv-x="692" 
d="M286 -10q-47 9 -85 30t-65.5 52.5t-44.5 71t-22 85.5l95 20q6 -36 19.5 -68.5t36 -56.5t55.5 -38t79 -14q70 0 112 34t42 96q0 26 -9 45.5t-29.5 35t-55 25.5t-84.5 16q-51 5 -95.5 21.5t-76 43.5t-49.5 63t-18 79q0 48 20 85.5t54.5 64t79.5 39.5t95 13
q57 0 101.5 -15.5t76.5 -43.5t51 -66.5t26 -84.5l-95 -18q-14 69 -56 104.5t-104 35.5q-30 0 -56.5 -7t-46.5 -21t-31.5 -34.5t-11.5 -46.5q0 -50 39 -83.5t135 -44.5q131 -16 188.5 -64.5t57.5 -136.5q0 -46 -18 -86.5t-52.5 -71t-83 -48t-108.5 -17.5h-14l-16 -36
q11 8 25 12.5t27 4.5q36 0 58.5 -22.5t22.5 -61.5q0 -42 -28.5 -65t-71.5 -23q-30 0 -52 14t-33 35l45 35q5 -14 15.5 -22.5t24.5 -8.5t24.5 9t10.5 26t-10 26t-25 9q-11 0 -20 -6t-14 -14l-53 22z" />
    <glyph glyph-name="scedilla" unicode="&#x15f;" horiz-adv-x="550" 
d="M223 -9q-70 16 -111.5 64.5t-50.5 117.5l86 16q11 -56 42.5 -89.5t96.5 -33.5q47 0 79 22t32 67q0 34 -28.5 52t-102.5 26q-85 10 -134 49t-49 107q0 37 15.5 65t41.5 48t60 30.5t73 10.5q89 0 138 -44t60 -116l-86 -13q-8 45 -39 70t-76 25q-44 0 -72.5 -19t-28.5 -54
q0 -14 6 -27.5t21 -24.5t40 -19t62 -12q100 -10 144.5 -48.5t44.5 -106.5q0 -35 -14.5 -66.5t-40.5 -54.5t-62.5 -36t-80.5 -13h-14l-16 -36q11 8 25.5 12.5t26.5 4.5q36 0 58.5 -22.5t22.5 -61.5q0 -42 -28 -65t-71 -23q-30 0 -52.5 14t-32.5 35l45 35q5 -14 15.5 -22.5
t24.5 -8.5t24.5 9t10.5 26t-10.5 26t-24.5 9q-11 0 -20.5 -6t-14.5 -14l-52 22z" />
    <glyph glyph-name="Scaron" unicode="&#x160;" horiz-adv-x="688" 
d="M508 193q0 28 -8 49t-28 37t-54.5 27t-87.5 18q-55 7 -99.5 24.5t-75.5 44.5t-47.5 61.5t-16.5 76.5q0 47 20 84.5t54.5 64t79.5 40t95 13.5q61 0 105.5 -16t75.5 -44.5t49 -67t25 -82.5l-95 -18q-14 69 -56 104.5t-104 35.5q-30 0 -56.5 -7t-46.5 -21t-31.5 -34.5
t-11.5 -46.5q0 -50 39 -84t135 -44q53 -6 97.5 -21t76.5 -40t50 -60.5t18 -80.5q0 -46 -17.5 -87t-50.5 -71t-80.5 -47t-107.5 -17q-61 0 -111 18t-86.5 51t-59 78t-28.5 98l95 20q6 -36 19.5 -68.5t36 -56.5t55.5 -38t79 -14q70 0 112 33.5t42 87.5zM255 907l83 -65l83 65
h74l-116 -133h-82l-115 133h73z" />
    <glyph glyph-name="scaron" unicode="&#x161;" horiz-adv-x="550" 
d="M397 155q0 34 -28.5 52t-102.5 26q-85 10 -134 49t-49 107q0 37 15.5 65t41.5 48t60 30.5t73 10.5q89 0 138 -44t60 -116l-86 -13q-8 45 -39 70t-76 25q-44 0 -72.5 -19t-28.5 -54q0 -14 6 -27.5t21 -24.5t40 -19t62 -12q100 -10 144.5 -48.5t44.5 -106.5
q0 -35 -14.5 -66.5t-40.5 -54.5t-62.5 -36t-80.5 -13q-49 0 -88.5 13.5t-69 39t-47 60t-23.5 76.5l86 16q11 -56 42.5 -89.5t96.5 -33.5q47 0 79 22t32 67zM195 717l83 -65l83 65h74l-116 -133h-82l-115 133h73z" />
    <glyph glyph-name="uni0162" unicode="&#x162;" horiz-adv-x="614" 
d="M253 -63h108v-101q0 -63 -29 -90t-79 -27v56q29 0 40.5 14.5t12.5 46.5h-53v101zM31 717h553v-88h-226v-629h-102v629h-225v88z" />
    <glyph glyph-name="uni0163" unicode="&#x163;" horiz-adv-x="382" 
d="M183 -63h109v-101q0 -63 -29.5 -90t-79.5 -27v56q29 0 41 14.5t13 46.5h-54v101zM46 526h85v136h96v-136h104v-77h-104v-295q0 -42 18.5 -60t48.5 -18q26 0 43 9v-83q-26 -10 -64 -10q-62 0 -102 35t-40 116v306h-85v77z" />
    <glyph glyph-name="Tcaron" unicode="&#x164;" horiz-adv-x="614" 
d="M31 717h553v-88h-226v-629h-102v629h-225v88zM224 907l83 -65l83 65h74l-116 -133h-82l-115 133h73z" />
    <glyph glyph-name="tcaron" unicode="&#x165;" horiz-adv-x="392" 
d="M290 778h100v-88q0 -59 -25 -80.5t-75 -21.5v45q27 0 37 13t10 44h-47v88zM46 526h85v136h96v-136h104v-77h-104v-295q0 -42 18.5 -60t48.5 -18q26 0 43 9v-83q-26 -10 -64 -10q-62 0 -102 35t-40 116v306h-85v77z" />
    <glyph glyph-name="Tbar" unicode="&#x166;" horiz-adv-x="614" 
d="M31 717h553v-88h-226v-189h158v-82h-158v-358h-102v358h-158v82h158v189h-225v88z" />
    <glyph glyph-name="tbar" unicode="&#x167;" horiz-adv-x="382" 
d="M46 526h85v136h96v-136h104v-77h-104v-122h110v-72h-110v-101q0 -42 18.5 -60t48.5 -18q26 0 43 9v-83q-26 -10 -64 -10q-62 0 -102 35t-40 116v112h-85v72h85v122h-85v77z" />
    <glyph glyph-name="Utilde" unicode="&#x168;" horiz-adv-x="698" 
d="M74 717h102v-466q0 -39 11.5 -72.5t33.5 -57t54 -36.5t74 -13t74.5 13t54.5 36.5t33 57t11 72.5v466h103v-453q0 -74 -22 -126.5t-60 -87t-88.5 -50.5t-105.5 -16t-105 16t-88 50t-60 87t-22 127v453zM203 778q0 47 25 74.5t68 27.5q23 0 36 -5.5t24 -12.5t21 -13t26 -6
q32 0 31 35h64q0 -47 -25 -74.5t-68 -27.5q-23 0 -36 5.5t-24 12.5t-21 13t-26 6q-32 0 -31 -35h-64z" />
    <glyph glyph-name="utilde" unicode="&#x169;" 
d="M440 84q-10 -18 -26 -36t-37 -32.5t-48 -23t-59 -8.5q-90 0 -143 51.5t-53 157.5v333h96v-325q0 -133 123 -133q31 0 57.5 12t46.5 35t31.5 56.5t11.5 76.5v278h97v-526h-86zM154 588q0 47 25 74.5t68 27.5q23 0 36 -5.5t24 -12.5t21 -13t26 -6q32 0 31 35h64
q0 -47 -25 -74.5t-68 -27.5q-23 0 -36 5.5t-24 12.5t-21 13t-26 6q-32 0 -31 -35h-64z" />
    <glyph glyph-name="Umacron" unicode="&#x16a;" horiz-adv-x="698" 
d="M74 717h102v-466q0 -39 11.5 -72.5t33.5 -57t54 -36.5t74 -13t74.5 13t54.5 36.5t33 57t11 72.5v466h103v-453q0 -74 -22 -126.5t-60 -87t-88.5 -50.5t-105.5 -16t-105 16t-88 50t-60 87t-22 127v453zM229 883h240v-73h-240v73z" />
    <glyph glyph-name="umacron" unicode="&#x16b;" 
d="M440 84q-10 -18 -26 -36t-37 -32.5t-48 -23t-59 -8.5q-90 0 -143 51.5t-53 157.5v333h96v-325q0 -133 123 -133q31 0 57.5 12t46.5 35t31.5 56.5t11.5 76.5v278h97v-526h-86zM187 693h240v-73h-240v73z" />
    <glyph glyph-name="Ubreve" unicode="&#x16c;" horiz-adv-x="698" 
d="M74 717h102v-466q0 -39 11.5 -72.5t33.5 -57t54 -36.5t74 -13t74.5 13t54.5 36.5t33 57t11 72.5v466h103v-453q0 -74 -22 -126.5t-60 -87t-88.5 -50.5t-105.5 -16t-105 16t-88 50t-60 87t-22 127v453zM349 786q-57 0 -89.5 31t-32.5 90h74q0 -57 48 -58q48 0 48 58h74
q0 -58 -32.5 -89.5t-89.5 -31.5z" />
    <glyph glyph-name="ubreve" unicode="&#x16d;" 
d="M440 84q-10 -18 -26 -36t-37 -32.5t-48 -23t-59 -8.5q-90 0 -143 51.5t-53 157.5v333h96v-325q0 -133 123 -133q31 0 57.5 12t46.5 35t31.5 56.5t11.5 76.5v278h97v-526h-86zM306 596q-57 0 -89.5 31t-32.5 90h74q0 -57 48 -58q48 0 48 58h74q0 -58 -32.5 -89.5
t-89.5 -31.5z" />
    <glyph glyph-name="Uring" unicode="&#x16e;" horiz-adv-x="698" 
d="M74 717h102v-466q0 -39 11.5 -72.5t33.5 -57t54 -36.5t74 -13t74.5 13t54.5 36.5t33 57t11 72.5v466h103v-453q0 -74 -22 -126.5t-60 -87t-88.5 -50.5t-105.5 -16t-105 16t-88 50t-60 87t-22 127v453zM240 886q0 23 8.5 43t22.5 34t34 23t44 9t43.5 -9t34 -23t22.5 -34
t8 -43t-8 -42.5t-22.5 -34t-34.5 -23t-43 -8.5q-24 0 -44 8.5t-34 23t-22.5 34t-8.5 42.5zM300 886q0 -20 13 -34.5t36 -14.5t36 14.5t13 34.5t-13.5 34.5t-35.5 14.5q-23 0 -36 -14.5t-13 -34.5z" />
    <glyph glyph-name="uring" unicode="&#x16f;" 
d="M440 84q-10 -18 -26 -36t-37 -32.5t-48 -23t-59 -8.5q-90 0 -143 51.5t-53 157.5v333h96v-325q0 -133 123 -133q31 0 57.5 12t46.5 35t31.5 56.5t11.5 76.5v278h97v-526h-86zM202 696q0 23 8.5 43t22.5 34t34 23t44 9t43.5 -9t34 -23t22.5 -34t8 -43t-8 -42.5t-22.5 -34
t-34.5 -23t-43 -8.5q-24 0 -44 8.5t-34 23t-22.5 34t-8.5 42.5zM262 696q0 -20 13 -34.5t36 -14.5t36 14.5t13 34.5t-13.5 34.5t-35.5 14.5q-23 0 -36 -14.5t-13 -34.5z" />
    <glyph glyph-name="Uhungarumlaut" unicode="&#x170;" horiz-adv-x="698" 
d="M74 717h102v-466q0 -39 11.5 -72.5t33.5 -57t54 -36.5t74 -13t74.5 13t54.5 36.5t33 57t11 72.5v466h103v-453q0 -74 -22 -126.5t-60 -87t-88.5 -50.5t-105.5 -16t-105 16t-88 50t-60 87t-22 127v453zM235 774l45 133h111l-91 -133h-65zM387 774l45 133h112l-91 -133h-66
z" />
    <glyph glyph-name="uhungarumlaut" unicode="&#x171;" 
d="M440 84q-10 -18 -26 -36t-37 -32.5t-48 -23t-59 -8.5q-90 0 -143 51.5t-53 157.5v333h96v-325q0 -133 123 -133q31 0 57.5 12t46.5 35t31.5 56.5t11.5 76.5v278h97v-526h-86zM182 584l45 133h111l-91 -133h-65zM334 584l45 133h112l-91 -133h-66z" />
    <glyph glyph-name="Uogonek" unicode="&#x172;" horiz-adv-x="698" 
d="M74 717h102v-466q0 -39 11.5 -72.5t33.5 -57t54 -36.5t74 -13t74.5 13t54.5 36.5t33 57t11 72.5v466h103v-453q0 -111 -48 -175t-122 -89q-27 -9 -40 -26.5t-13 -35.5q0 -15 9.5 -24t23.5 -9q5 0 10.5 1t10.5 3l6 -59q-8 -3 -20 -5.5t-25 -2.5q-35 0 -59 20.5t-24 56.5
q0 20 7.5 36t20.5 29h-13q-55 0 -105 16t-88 50t-60 87t-22 127v453z" />
    <glyph glyph-name="uogonek" unicode="&#x173;" 
d="M440 84q-10 -18 -26 -36t-37 -32.5t-48 -23t-59 -8.5q-90 0 -143 51.5t-53 157.5v333h96v-325q0 -133 123 -133q31 0 57.5 12t46.5 35t31.5 56.5t11.5 76.5v278h97v-526q-52 -24 -53 -62q0 -15 9.5 -24t23.5 -9q5 0 10 1t11 3l6 -59q-8 -3 -20 -5.5t-25 -2.5
q-35 0 -59 20.5t-24 56.5q0 29 14 48t35 33h-14z" />
    <glyph glyph-name="Wcircumflex" unicode="&#x174;" horiz-adv-x="1001" 
d="M12 717h103l170 -596l157 596h117l158 -596l170 596h102l-212 -717h-114l-162 610l-162 -610h-115zM345 774l115 133h82l116 -133h-74l-83 64l-83 -64h-73z" />
    <glyph glyph-name="wcircumflex" unicode="&#x175;" horiz-adv-x="813" 
d="M578 121l127 405h96l-176 -526h-93l-125 417l-126 -417h-93l-176 526h97l127 -405l122 405h97zM250 584l115 133h82l116 -133h-74l-83 64l-83 -64h-73z" />
    <glyph glyph-name="Ycircumflex" unicode="&#x176;" horiz-adv-x="618" 
d="M258 266l-250 451h112l189 -346l190 346h111l-250 -451v-266h-102v266zM153 774l115 133h82l116 -133h-74l-83 64l-83 -64h-73z" />
    <glyph glyph-name="ycircumflex" unicode="&#x177;" horiz-adv-x="549" 
d="M231 0l-213 526h101l159 -407l157 407h101l-250 -622q-25 -61 -61 -86t-80 -25q-24 0 -45 6t-33 15l23 85q23 -12 51 -13q20 0 38 12.5t31 45.5zM122 584l115 133h82l116 -133h-74l-83 64l-83 -64h-73z" />
    <glyph glyph-name="Ydieresis" unicode="&#x178;" horiz-adv-x="618" 
d="M258 266l-250 451h112l189 -346l190 346h111l-250 -451v-266h-102v266zM343 907h96v-99h-96v99zM179 907h97v-99h-97v99z" />
    <glyph glyph-name="Zacute" unicode="&#x179;" horiz-adv-x="611" 
d="M61 717h491v-76l-387 -553h398v-88h-514v76l387 553h-375v88zM224 774l75 133h120l-122 -133h-73z" />
    <glyph glyph-name="zacute" unicode="&#x17a;" horiz-adv-x="499" 
d="M53 526h398v-69l-298 -379h308v-78h-420v70l297 379h-285v77zM173 584l75 133h120l-122 -133h-73z" />
    <glyph glyph-name="Zdotaccent" unicode="&#x17b;" horiz-adv-x="611" 
d="M61 717h491v-76l-387 -553h398v-88h-514v76l387 553h-375v88zM252 907h104v-105h-104v105z" />
    <glyph glyph-name="zdotaccent" unicode="&#x17c;" horiz-adv-x="499" 
d="M53 526h398v-69l-298 -379h308v-78h-420v70l297 379h-285v77zM197 717h104v-105h-104v105z" />
    <glyph glyph-name="Zcaron" unicode="&#x17d;" horiz-adv-x="611" 
d="M61 717h491v-76l-387 -553h398v-88h-514v76l387 553h-375v88zM221 907l83 -65l83 65h74l-116 -133h-82l-115 133h73z" />
    <glyph glyph-name="zcaron" unicode="&#x17e;" horiz-adv-x="499" 
d="M53 526h398v-69l-298 -379h308v-78h-420v70l297 379h-285v77zM168 717l83 -65l83 65h74l-116 -133h-82l-115 133h73z" />
    <glyph glyph-name="longs" unicode="&#x17f;" horiz-adv-x="342" 
d="M113 449h-76v77h76v46q0 81 41.5 121t108.5 40q17 0 29.5 -1.5t23.5 -3.5v-86q-8 4 -20.5 6.5t-25.5 2.5q-25 0 -43 -15.5t-18 -50.5v-585h-96v449z" />
    <glyph glyph-name="uni018E" unicode="&#x18e;" horiz-adv-x="602" 
d="M518.005 0.0439453h-452.972v87.9941h350.979v222.986h-323.98v88.9951h323.98v228.986h-358.979v87.9941h460.972v-716.956z" />
    <glyph glyph-name="florin" unicode="&#x192;" horiz-adv-x="344" 
d="M39 526h76v46q0 81 41.5 121t108.5 40q17 0 29.5 -1.5t23.5 -3.5v-86q-8 4 -20.5 6.5t-25.5 2.5q-25 0 -43 -15.5t-18 -50.5v-59h101v-77h-101v-495q0 -81 -36 -121t-103 -40q-14 0 -25.5 1.5t-20.5 3.5v86q8 -4 17 -6.5t22 -2.5q24 0 37 16t13 51v507h-76v77z" />
    <glyph glyph-name="uni01DD" unicode="&#x1dd;" horiz-adv-x="617" 
d="M470.009 290.015q-4 36.9971 -17.499 67.9951q-13.499 30.999 -34.998 52.9971q-21.498 21.999 -51.9961 34.498t-67.4961 12.499q-51.9971 0 -91.4941 -28.498q-39.498 -28.498 -56.4971 -73.4951l-88.9941 30.998q34.998 78.9951 94.4941 116.992
q59.4961 37.998 142.491 37.998q60.9961 0 109.993 -20.999q48.9971 -20.998 84.4951 -58.4961t54.4961 -88.9941q18.999 -51.4971 18.999 -112.493q0 -60.9971 -21.498 -111.993q-21.499 -50.9971 -57.4971 -87.9951t-83.9951 -57.4961q-47.9971 -20.499 -100.993 -20.499
q-47.9971 0 -92.9941 16.999q-44.998 16.999 -78.9961 49.9971q-33.9971 32.998 -54.4961 82.4951t-20.499 113.493v43.9971h414.975zM302.02 67.0283q68.9951 0 110.493 41.4971q41.4971 41.498 53.4961 104.494h-316.98q1 -32.998 13.499 -59.9971
q12.5 -26.998 32.498 -45.9971q19.999 -18.999 47.4971 -29.498q27.499 -10.499 59.4971 -10.499z" />
    <glyph glyph-name="AEacute" unicode="&#x1fc;" horiz-adv-x="963" 
d="M445 166h-252l-77 -166h-106l340 717h548v-88h-350v-223h323v-89h-323v-229h358v-88h-461v166zM233 254h212v375h-35zM559 774l75 133h120l-122 -133h-73z" />
    <glyph glyph-name="aeacute" unicode="&#x1fd;" horiz-adv-x="1058" 
d="M582 236q4 -37 17 -68t34.5 -53t52 -34.5t68.5 -12.5q52 0 91 28.5t56 73.5l89 -31q-35 -79 -94 -117t-142 -38q-57 0 -104 22t-75 61l-12 -67h-74l-12 77q-11 -16 -27 -33t-38 -30.5t-50 -21.5t-63 -8q-51 0 -96 20t-79 56t-53.5 88t-19.5 115t20.5 115t55 88.5t80 56.5
t94.5 20q60 0 107.5 -24t68.5 -67l12 74h74l12 -74q24 41 71 66t104 25q48 0 92.5 -17t78.5 -50t54.5 -82.5t20.5 -113.5v-44h-414zM316 459q-37 0 -68 -15t-53.5 -41t-35 -62t-12.5 -78t12.5 -77.5t35 -62t54 -41t67.5 -14.5q37 0 68.5 14.5t54 41.5t34.5 62.5t12 78.5
q0 41 -12 76.5t-34.5 61.5t-54 41t-68.5 15zM750 459q-69 0 -111 -41.5t-54 -104.5h317q-1 33 -13 60t-32 46t-47.5 29.5t-59.5 10.5zM480 584l75 133h120l-122 -133h-73z" />
    <glyph glyph-name="circumflex" unicode="&#x2c6;" horiz-adv-x="442" 
d="M65 584l115 133h82l116 -133h-74l-83 64l-83 -64h-73z" />
    <glyph glyph-name="caron" unicode="&#x2c7;" horiz-adv-x="442" 
d="M138 717l83 -65l83 65h74l-116 -133h-82l-115 133h73z" />
    <glyph glyph-name="breve" unicode="&#x2d8;" horiz-adv-x="436" 
d="M218 596q-57 0 -89.5 31t-32.5 90h74q0 -57 48 -58q48 0 48 58h74q0 -58 -32.5 -89.5t-89.5 -31.5z" />
    <glyph glyph-name="dotaccent" unicode="&#x2d9;" horiz-adv-x="243" 
d="M70 717h104v-105h-104v105z" />
    <glyph glyph-name="ring" unicode="&#x2da;" horiz-adv-x="405" 
d="M94 696q0 23 8.5 43t22.5 34t34 23t44 9t43.5 -9t34 -23t22.5 -34t8 -43t-8 -42.5t-22.5 -34t-34.5 -23t-43 -8.5q-24 0 -44 8.5t-34 23t-22.5 34t-8.5 42.5zM154 696q0 -20 13 -34.5t36 -14.5t36 14.5t13 34.5t-13.5 34.5t-35.5 14.5q-23 0 -36 -14.5t-13 -34.5z" />
    <glyph glyph-name="ogonek" unicode="&#x2db;" horiz-adv-x="283" 
d="M211 0q-52 -24 -52 -62q0 -15 9 -24t23 -9q5 0 10.5 1t10.5 3l6 -59q-8 -3 -20 -5.5t-25 -2.5q-35 0 -59 20.5t-24 56.5q0 29 14.5 48t34.5 33h72z" />
    <glyph glyph-name="tilde" unicode="&#x2dc;" horiz-adv-x="385" 
d="M45 588q0 47 25 74.5t68 27.5q23 0 36 -5.5t24 -12.5t21 -13t26 -6q32 0 31 35h64q0 -47 -25 -74.5t-68 -27.5q-23 0 -36 5.5t-24 12.5t-21 13t-26 6q-32 0 -31 -35h-64z" />
    <glyph glyph-name="hungarumlaut" unicode="&#x2dd;" horiz-adv-x="378" 
d="M35 584l45 133h111l-91 -133h-65zM187 584l45 133h112l-91 -133h-66z" />
    <glyph glyph-name="uni0374" unicode="&#x374;" horiz-adv-x="314" 
d="M85 625l35 163h109l-76 -163h-68z" />
    <glyph glyph-name="uni0375" unicode="&#x375;" horiz-adv-x="293" 
d="M219 102l-35 -163h-109l77 163h67z" />
    <glyph glyph-name="uni037A" unicode="&#x37a;" horiz-adv-x="236" 
d="M185 -147q-22 -6 -43 -7q-39 0 -65 22t-26 72v80h80v-66q0 -16 8.5 -26.5t25.5 -10.5q5 0 10 1t10 3v-68z" />
    <glyph glyph-name="uni037E" unicode="&#x37e;" horiz-adv-x="235" 
d="M59 467h117v-117h-117v117zM59 117h117v-117q0 -68 -33 -95.5t-84 -27.5v62q30 0 42.5 14.5t13.5 46.5h-56v117z" />
    <glyph glyph-name="tonos" unicode="&#x384;" horiz-adv-x="324" 
d="M91 584l35 133h107l-80 -133h-62z" />
    <glyph glyph-name="dieresistonos" unicode="&#x385;" horiz-adv-x="452" 
d="M158 600l35 133h107l-81 -133h-61zM322 717h96v-99h-96v99zM35 717h96v-99h-96v99z" />
    <glyph glyph-name="Alphatonos" unicode="&#x386;" horiz-adv-x="706" 
d="M299 717h109l288 -717h-106l-65 166h-345l-63 -166h-107zM215 254h277l-139 354zM85 584l35 133h107l-80 -133h-62z" />
    <glyph glyph-name="anoteleia" unicode="&#x387;" horiz-adv-x="235" 
d="M59 424h117v-117h-117v117z" />
    <glyph glyph-name="Epsilontonos" unicode="&#x388;" horiz-adv-x="711" 
d="M194 717h453v-88h-351v-223h324v-89h-324v-229h359v-88h-461v717zM23 584l35 133h107l-80 -133h-62z" />
    <glyph glyph-name="Etatonos" unicode="&#x389;" horiz-adv-x="809" 
d="M194 717h102v-311h328v311h102v-717h-102v317h-328v-317h-102v717zM23 584l35 133h107l-80 -133h-62z" />
    <glyph glyph-name="Iotatonos" unicode="&#x38a;" horiz-adv-x="379" 
d="M194 717h102v-717h-102v717zM23 584l35 133h107l-80 -133h-62z" />
    <glyph glyph-name="Omicrontonos" unicode="&#x38c;" horiz-adv-x="826" 
d="M771 358q0 -86 -24.5 -155t-69 -118t-106 -75t-136.5 -26t-136 26t-106 75t-69.5 118t-24.5 155t24.5 155.5t69.5 118.5t106 75t136 26t136.5 -26t106 -75t69 -118.5t24.5 -155.5zM665 358q0 69 -17 123t-47.5 90t-72.5 55t-93 19t-93 -19t-72 -55t-47 -90t-17 -123
q0 -70 17 -123t47 -89t72 -55t93 -19t93 19t72.5 55t47.5 89t17 123zM23 584l35 133h107l-80 -133h-62z" />
    <glyph glyph-name="Upsilontonos" unicode="&#x38e;" horiz-adv-x="791" 
d="M431 266l-250 451h112l189 -346l190 346h111l-250 -451v-266h-102v266zM19 584l35 133h107l-80 -133h-62z" />
    <glyph glyph-name="Omegatonos" unicode="&#x38f;" horiz-adv-x="866" 
d="M449 645q-44 0 -85.5 -15t-73.5 -45.5t-52 -77.5t-20 -113q0 -46 13.5 -91t38 -85t55.5 -73.5t67 -56.5v-88h-252v88h132q-39 29 -69 66t-50.5 78t-31 84.5t-10.5 85.5q0 80 26.5 141.5t71.5 104t107 64t133 21.5q72 0 134 -21.5t107 -64t71 -104t26 -141.5
q0 -42 -10 -85.5t-30.5 -84.5t-51 -78t-69.5 -66h132v-88h-251v88q35 23 66.5 56.5t55.5 73.5t38 85t14 91q0 66 -20 113t-52.5 77.5t-74 45.5t-85.5 15zM23 584l35 133h107l-80 -133h-62z" />
    <glyph glyph-name="iotadieresistonos" unicode="&#x390;" horiz-adv-x="367" 
d="M222 526v-379q0 -34 16 -52.5t45 -18.5q26 0 43 9v-83q-26 -10 -63 -10q-61 0 -99 35t-38 116v383h96zM113 600l35 133h107l-81 -133h-61zM277 717h96v-99h-96v99zM-10 717h96v-99h-96v99z" />
    <glyph glyph-name="Alpha" unicode="&#x391;" horiz-adv-x="706" 
d="M299 717h109l288 -717h-106l-65 166h-345l-63 -166h-107zM215 254h277l-139 354z" />
    <glyph glyph-name="Beta" unicode="&#x392;" horiz-adv-x="679" 
d="M84 717h299q41 0 80 -12t69.5 -35t49 -57t18.5 -78q0 -62 -26.5 -99t-64.5 -60q52 -20 86 -63.5t34 -107.5q0 -48 -19.5 -86t-52.5 -64.5t-75.5 -40.5t-88.5 -14h-309v717zM186 88h207q56 0 94.5 29t38.5 88q0 58 -38 87.5t-95 29.5h-207v-234zM186 410h194q25 0 45.5 7
t37 21t26 34.5t9.5 46.5q0 27 -10.5 47.5t-27.5 34t-39 21t-46 7.5h-189v-219z" />
    <glyph glyph-name="Gamma" unicode="&#x393;" horiz-adv-x="603" 
d="M84 717h472v-88h-370v-629h-102v717z" />
    <glyph glyph-name="uni0394" unicode="&#x394;" horiz-adv-x="706" 
d="M299 717h109l288 -717h-686zM150 88h406l-203 520z" />
    <glyph glyph-name="Epsilon" unicode="&#x395;" horiz-adv-x="602" 
d="M84 717h453v-88h-351v-223h324v-89h-324v-229h359v-88h-461v717z" />
    <glyph glyph-name="Zeta" unicode="&#x396;" horiz-adv-x="611" 
d="M61 717h491v-76l-387 -553h398v-88h-514v76l387 553h-375v88z" />
    <glyph glyph-name="Eta" unicode="&#x397;" horiz-adv-x="700" 
d="M84 717h102v-311h328v311h102v-717h-102v317h-328v-317h-102v717z" />
    <glyph glyph-name="Theta" unicode="&#x398;" horiz-adv-x="700" 
d="M645 358q0 -86 -19.5 -155t-57 -118t-92 -75t-126.5 -26t-126.5 26t-92 75t-57 118t-19.5 155t19.5 155.5t57 118.5t92.5 75t126 26q72 0 126.5 -26t92 -75t57 -118.5t19.5 -155.5zM350 645q-88 0 -134 -65t-54 -181h377q-8 116 -55 181t-134 65zM350 72q87 0 133.5 65
t55.5 180h-377q8 -116 54 -180.5t134 -64.5z" />
    <glyph glyph-name="Iota" unicode="&#x399;" horiz-adv-x="270" 
d="M84 717h102v-717h-102v717z" />
    <glyph glyph-name="Kappa" unicode="&#x39a;" horiz-adv-x="609" 
d="M84 717h102v-310l263 310h123l-289 -339l316 -378h-130l-283 337v-337h-102v717z" />
    <glyph glyph-name="Lambda" unicode="&#x39b;" horiz-adv-x="684" 
d="M288 717h108l278 -717h-110l-222 602l-222 -602h-110z" />
    <glyph glyph-name="Mu" unicode="&#x39c;" horiz-adv-x="874" 
d="M84 717h115l238 -624l239 624h115v-717h-103v514l-196 -514h-109l-197 514v-514h-102v717z" />
    <glyph glyph-name="Nu" unicode="&#x39d;" horiz-adv-x="731" 
d="M84 717h115l346 -562v562h102v-717h-115l-346 562v-562h-102v717z" />
    <glyph glyph-name="Xi" unicode="&#x39e;" horiz-adv-x="600" 
d="M543 0h-486v88h486v-88zM66 717h469v-88h-469v88zM92 317v89h416v-89h-416z" />
    <glyph glyph-name="Omicron" unicode="&#x39f;" horiz-adv-x="782" 
d="M727 358q0 -86 -24.5 -155t-69 -118t-106 -75t-136.5 -26t-136 26t-106 75t-69.5 118t-24.5 155t24.5 155.5t69.5 118.5t106 75t136 26t136.5 -26t106 -75t69 -118.5t24.5 -155.5zM621 358q0 69 -17 123t-47.5 90t-72.5 55t-93 19t-93 -19t-72 -55t-47 -90t-17 -123
q0 -70 17 -123t47 -89t72 -55t93 -19t93 19t72.5 55t47.5 89t17 123z" />
    <glyph glyph-name="Pi" unicode="&#x3a0;" horiz-adv-x="700" 
d="M84 717h532v-717h-102v629h-328v-629h-102v717z" />
    <glyph glyph-name="Rho" unicode="&#x3a1;" horiz-adv-x="635" 
d="M84 717h251q56 0 103 -15.5t81 -44t52.5 -70.5t18.5 -95t-18.5 -95.5t-52.5 -71t-81 -44t-103 -15.5h-149v-266h-102v717zM186 354h147q68 0 111 33.5t43 104.5t-43 104t-111 33h-147v-275z" />
    <glyph glyph-name="Sigma" unicode="&#x3a3;" horiz-adv-x="605" 
d="M372 365l-208 -277h393v-88h-514v76l216 289l-207 276v76h491v-88h-370z" />
    <glyph glyph-name="Tau" unicode="&#x3a4;" horiz-adv-x="614" 
d="M31 717h553v-88h-226v-629h-102v629h-225v88z" />
    <glyph glyph-name="Upsilon" unicode="&#x3a5;" horiz-adv-x="618" 
d="M258 266l-250 451h112l189 -346l190 346h111l-250 -451v-266h-102v266z" />
    <glyph glyph-name="Phi" unicode="&#x3a6;" horiz-adv-x="796" 
d="M450 635h8q62 0 115.5 -18.5t93 -54t62 -87t22.5 -117.5t-22.5 -117.5t-62 -86.5t-93 -53.5t-115.5 -18.5h-8v-82h-103v82h-8q-62 0 -115.5 18.5t-93 53.5t-62 87t-22.5 117q0 66 22.5 117.5t62 87t92.5 54t116 18.5h8v82h103v-82zM450 170h16q80 0 131 48t51 140
t-51 140.5t-131 48.5h-16v-377zM347 547h-16q-80 0 -131.5 -48t-51.5 -141q0 -92 51.5 -140t131.5 -48h16v377z" />
    <glyph glyph-name="Chi" unicode="&#x3a7;" horiz-adv-x="634" 
d="M317 465l155 252h114l-212 -338l238 -379h-114l-181 289l-180 -289h-114l238 379l-212 338h114z" />
    <glyph glyph-name="Psi" unicode="&#x3a8;" horiz-adv-x="780" 
d="M339 171q-53 0 -100.5 15.5t-82.5 48t-55.5 85t-20.5 125.5v272h102v-285q0 -79 38.5 -126t118.5 -47v458h102v-458q80 0 118.5 47t38.5 126v285h102v-272q0 -74 -20.5 -126t-55.5 -84.5t-82 -48t-101 -15.5v-171h-102v171z" />
    <glyph glyph-name="uni03A9" unicode="&#x3a9;" horiz-adv-x="790" 
d="M395 645q-44 0 -85.5 -15t-73.5 -45.5t-52 -77.5t-20 -113q0 -46 13.5 -91t38 -85t55.5 -73.5t67 -56.5v-88h-252v88h132q-39 29 -69 66t-50.5 78t-31 84.5t-10.5 85.5q0 80 26.5 141.5t71.5 104t107 64t133 21.5q72 0 134 -21.5t107 -64t71 -104t26 -141.5
q0 -42 -10 -85.5t-30.5 -84.5t-51 -78t-69.5 -66h132v-88h-251v88q35 23 66.5 56.5t55.5 73.5t38 85t14 91q0 66 -20 113t-52.5 77.5t-74 45.5t-85.5 15z" />
    <glyph glyph-name="Iotadieresis" unicode="&#x3aa;" horiz-adv-x="270" 
d="M84 717h102v-717h-102v717zM170 907h96v-99h-96v99zM6 907h97v-99h-97v99z" />
    <glyph glyph-name="Upsilondieresis" unicode="&#x3ab;" horiz-adv-x="618" 
d="M258 266l-250 451h112l189 -346l190 346h111l-250 -451v-266h-102v266zM343 907h96v-99h-96v99zM179 907h97v-99h-97v99z" />
    <glyph glyph-name="alphatonos" unicode="&#x3ac;" horiz-adv-x="696" 
d="M633 526l-86 -290l20 -79q12 -48 36 -68.5t56 -20.5v-84q-39 0 -66.5 7t-46.5 21.5t-32 36t-22 50.5q-13 -30 -34.5 -51t-47 -35.5t-53 -21.5t-54.5 -7q-52 0 -97.5 20t-79 56t-52.5 88t-19 115t19 115t52 88.5t78 56.5t97 20q80 0 128 -36t69 -99l36 118h99zM303 68
q70 0 109 52t39 142q0 45 -11 81.5t-31 62t-47.5 39.5t-61.5 14t-61 -15t-46.5 -41t-30 -62t-10.5 -78t10.5 -77.5t30.5 -62t47.5 -41t62.5 -14.5zM281 584l35 133h107l-80 -133h-62z" />
    <glyph glyph-name="epsilontonos" unicode="&#x3ad;" horiz-adv-x="508" 
d="M208 584l35 133h107l-80 -133h-62zM344 378q-3 37 -28 61t-65 24q-36 0 -59.5 -19.5t-23.5 -48.5q0 -35 27 -52.5t66 -17.5h35v-78h-39q-51 0 -80.5 -24.5t-29.5 -64.5q0 -22 9 -38.5t24 -28t34 -17.5t41 -6q27 0 47 8.5t33 23.5t21 35t11 42l89 -18q-6 -36 -21 -68.5
t-39 -56t-59.5 -37t-82.5 -13.5q-40 0 -77 12t-65 35t-44.5 54.5t-16.5 70.5q0 48 25 84t71 54q-28 14 -49.5 40.5t-21.5 69.5q0 31 13.5 56.5t37.5 44t55.5 28.5t67.5 10q81 0 128.5 -40.5t53.5 -110.5z" />
    <glyph glyph-name="etatonos" unicode="&#x3ae;" 
d="M170 442q9 16 25.5 34.5t38.5 33t49 24t60 9.5q93 0 143.5 -52t50.5 -157v-524h-97v504q0 75 -30 110t-93 35q-31 0 -57.5 -13t-46 -37t-31.5 -58t-12 -77v-274h-96v526h86zM270 584l35 133h107l-80 -133h-62z" />
    <glyph glyph-name="iotatonos" unicode="&#x3af;" horiz-adv-x="309" 
d="M170 526v-379q0 -34 16 -52.5t45 -18.5q26 0 43 9v-83q-26 -10 -63 -10q-61 0 -99 35t-38 116v383h96zM76 584l35 133h107l-80 -133h-62z" />
    <glyph glyph-name="upsilondieresistonos" unicode="&#x3b0;" 
d="M305 -16q-48 0 -90 14.5t-73.5 43.5t-49.5 70.5t-18 95.5v318h96v-310q0 -68 34.5 -108t100.5 -40q67 0 101 40t34 108v310h97v-318q0 -54 -18 -95.5t-50 -70.5t-74 -43.5t-90 -14.5zM237 600l35 133h107l-81 -133h-61zM401 717h96v-99h-96v99zM114 717h96v-99h-96v99z
" />
    <glyph glyph-name="alpha" unicode="&#x3b1;" horiz-adv-x="696" 
d="M633 526l-86 -290l20 -79q12 -48 36 -68.5t56 -20.5v-84q-39 0 -66.5 7t-46.5 21.5t-32 36t-22 50.5q-13 -30 -34.5 -51t-47 -35.5t-53 -21.5t-54.5 -7q-52 0 -97.5 20t-79 56t-52.5 88t-19 115t19 115t52 88.5t78 56.5t97 20q80 0 128 -36t69 -99l36 118h99zM303 68
q70 0 109 52t39 142q0 45 -11 81.5t-31 62t-47.5 39.5t-61.5 14t-61 -15t-46.5 -41t-30 -62t-10.5 -78t10.5 -77.5t30.5 -62t47.5 -41t62.5 -14.5z" />
    <glyph glyph-name="beta" unicode="&#x3b2;" horiz-adv-x="568" 
d="M74 527q0 46 14.5 84t41.5 65t64 42t82 15q43 0 79 -12t62 -34t40.5 -52.5t14.5 -67.5q0 -53 -31 -95t-76 -59q30 -9 57.5 -26t48.5 -41.5t33.5 -57t12.5 -71.5q0 -56 -18.5 -99.5t-50 -73.5t-74.5 -45t-92 -15q-25 0 -57 6.5t-55 17.5v-198h-96v717zM170 100
q24 -17 50.5 -28t61.5 -11q27 0 51.5 8.5t44.5 26.5t32.5 46t12.5 68q0 38 -12.5 66.5t-34 47t-50.5 27.5t-63 9h-27v84h19q52 0 88.5 31t36.5 85q0 41 -29.5 66t-74.5 25q-52 0 -79 -34.5t-27 -90.5v-426z" />
    <glyph glyph-name="gamma" unicode="&#x3b3;" horiz-adv-x="552" 
d="M325 16v-206h-97v206l-218 510h103l163 -398l164 398h103z" />
    <glyph glyph-name="delta" unicode="&#x3b4;" horiz-adv-x="621" 
d="M570 252q0 -63 -20.5 -113.5t-55 -85t-81 -52t-100.5 -17.5q-53 0 -100.5 18t-83.5 51.5t-57 80t-21 104.5q0 57 21.5 104t56.5 81t80 52.5t93 18.5h17l-189 149v74h351v-74h-217l132 -106q35 -28 67 -59t55.5 -65t37.5 -74t14 -87zM310 410q-34 0 -63 -12t-51.5 -34.5
t-35.5 -54t-13 -71.5t13 -72t35.5 -53.5t51.5 -33t63 -11.5t63.5 11t51.5 32.5t35.5 53.5t13.5 72t-13.5 72t-35.5 54.5t-51.5 34.5t-63.5 12z" />
    <glyph glyph-name="epsilon" unicode="&#x3b5;" horiz-adv-x="508" 
d="M344 378q-3 37 -28 61t-65 24q-36 0 -59.5 -19.5t-23.5 -48.5q0 -35 27 -52.5t66 -17.5h35v-78h-39q-51 0 -80.5 -24.5t-29.5 -64.5q0 -22 9 -38.5t24 -28t34 -17.5t41 -6q27 0 47 8.5t33 23.5t21 35t11 42l89 -18q-6 -36 -21 -68.5t-39 -56t-59.5 -37t-82.5 -13.5
q-40 0 -77 12t-65 35t-44.5 54.5t-16.5 70.5q0 48 25 84t71 54q-28 14 -49.5 40.5t-21.5 69.5q0 31 13.5 56.5t37.5 44t55.5 28.5t67.5 10q81 0 128.5 -40.5t53.5 -110.5z" />
    <glyph glyph-name="zeta" unicode="&#x3b6;" horiz-adv-x="489" 
d="M337 -100q22 28 21 50q0 18 -11.5 33t-39.5 21q-46 9 -91 29t-81 52t-58.5 76t-22.5 102q0 43 15 89t48 95t86 98t129 98h-281v74h415v-74q-91 -58 -151.5 -109.5t-96.5 -97t-50.5 -87.5t-14.5 -83q0 -43 16 -73t44.5 -51.5t65.5 -36.5t79 -26q57 -15 82 -43.5t25 -65.5
q0 -34 -16 -63t-38 -52z" />
    <glyph glyph-name="eta" unicode="&#x3b7;" 
d="M170 442q9 16 25.5 34.5t38.5 33t49 24t60 9.5q93 0 143.5 -52t50.5 -157v-524h-97v504q0 75 -30 110t-93 35q-31 0 -57.5 -13t-46 -37t-31.5 -58t-12 -77v-274h-96v526h86z" />
    <glyph glyph-name="theta" unicode="&#x3b8;" horiz-adv-x="624" 
d="M312 -16q-60 0 -108 26.5t-82 75.5t-52.5 118t-18.5 154t18.5 154.5t52.5 118.5t82 75.5t108 26.5q59 0 108 -26.5t83 -75.5t52 -118.5t18 -154.5t-18 -154t-52 -118t-83 -75.5t-108 -26.5zM312 649q-71 0 -114 -65.5t-51 -189.5h330q-7 124 -51 189.5t-114 65.5zM312 68
q70 0 114 65.5t51 189.5h-330q7 -124 50.5 -189.5t114.5 -65.5z" />
    <glyph glyph-name="iota" unicode="&#x3b9;" horiz-adv-x="309" 
d="M170 526v-379q0 -34 16 -52.5t45 -18.5q26 0 43 9v-83q-26 -10 -63 -10q-61 0 -99 35t-38 116v383h96z" />
    <glyph glyph-name="kappa" unicode="&#x3ba;" horiz-adv-x="508" 
d="M170 526v-208l177 208h118l-209 -237l232 -289h-117l-201 247v-247h-96v526h96z" />
    <glyph glyph-name="lambda" unicode="&#x3bb;" horiz-adv-x="549" 
d="M205 585q-13 33 -30.5 45t-38.5 12q-29 0 -51 -12l-23 83q12 8 34 14t45 6q47 0 81 -23t54 -75l255 -635h-100l-158 407l-158 -407h-101l213 525z" />
    <glyph glyph-name="uni03BC" unicode="&#x3bc;" 
d="M74 526h96v-325q0 -133 123 -133q31 0 57.5 12t46.5 35t31.5 56.5t11.5 76.5v278h97v-526h-86l-11 84q-10 -18 -26 -36t-37 -32.5t-48 -23t-59 -8.5q-54 0 -100 21v-195h-96v716z" />
    <glyph glyph-name="nu" unicode="&#x3bd;" horiz-adv-x="561" 
d="M328 0h-95l-223 526h101l170 -410l170 410h100z" />
    <glyph glyph-name="xi" unicode="&#x3be;" horiz-adv-x="518" 
d="M406 543q-10 50 -38 78t-84 28q-28 0 -50 -8.5t-37 -23t-22.5 -33.5t-7.5 -39q0 -58 38 -85t96 -27h18v-82h-29q-65 0 -102.5 -32.5t-37.5 -91.5q0 -30 10 -53.5t35 -42t67 -32t107 -20.5q29 -3 49 -14t33 -25.5t18.5 -32.5t5.5 -37q0 -34 -16 -63t-38 -52l-74 45
q11 14 17 26t6 24q0 18 -12.5 35t-40.5 19q-132 11 -199 70t-67 148q0 54 30.5 100t92.5 73q-57 30 -79 72t-22 79q0 42 16.5 76.5t45.5 59.5t67.5 38t81.5 13q89 0 143.5 -40.5t70.5 -128.5z" />
    <glyph glyph-name="omicron" unicode="&#x3bf;" horiz-adv-x="624" 
d="M312 -16q-54 0 -101 19t-83 55t-56.5 88t-20.5 117q0 66 20.5 117.5t56.5 87.5t83 55.5t101 19.5q53 0 101 -19.5t83.5 -55.5t56 -87.5t20.5 -117.5t-20.5 -117.5t-56 -87.5t-83.5 -55t-101 -19zM312 459q-36 0 -66 -14t-52 -39.5t-34.5 -62t-12.5 -80.5q0 -45 12.5 -81
t34.5 -61.5t52 -39t66 -13.5t66.5 13.5t52.5 39t34 61.5t12 81q0 44 -12 80.5t-34 62t-52.5 39.5t-66.5 14z" />
    <glyph glyph-name="pi" unicode="&#x3c0;" horiz-adv-x="686" 
d="M46 526h583v-77h-104v-312q0 -26 14.5 -43.5t42.5 -17.5q26 0 43 9v-83q-9 -4 -23.5 -7t-34.5 -3q-30 0 -55 7.5t-43 25t-29 44t-11 65.5v315h-178v-449h-96v449h-109v77z" />
    <glyph glyph-name="rho" unicode="&#x3c1;" horiz-adv-x="638" 
d="M327 543q57 0 105 -20t82.5 -56.5t54 -88t19.5 -115.5q0 -63 -21 -115t-55.5 -88t-79.5 -56t-93 -20q-55 0 -100 24t-69 59v-257h-96v463q0 59 18 109t51 86t80 55.5t104 19.5zM327 68q37 0 67.5 14.5t52 41t33.5 62t12 77.5t-12 78t-33.5 62t-52 41t-67.5 15t-68 -15
t-52.5 -41t-33 -62t-11.5 -78t11.5 -77.5t33 -62t52.5 -41t68 -14.5z" />
    <glyph glyph-name="sigma1" unicode="&#x3c2;" horiz-adv-x="601" 
d="M379 -105q7 11 10.5 20.5t3.5 21.5q0 20 -17.5 33t-54.5 17q-42 4 -89.5 24.5t-87.5 55t-66.5 84t-26.5 112.5q0 66 21.5 117.5t57.5 87.5t84 55.5t102 19.5q85 0 148 -43.5t84 -134.5l-89 -20q-14 50 -51 82t-92 32q-37 0 -68 -14t-53.5 -39.5t-35 -62t-12.5 -80.5
q0 -77 57 -129.5t174 -70.5q58 -8 88 -39t30 -72q0 -26 -12 -53t-39 -54z" />
    <glyph glyph-name="sigma" unicode="&#x3c3;" horiz-adv-x="645" 
d="M316 -16q-54 0 -102 19t-84 55t-57.5 88t-21.5 117q0 66 21 117.5t58.5 87.5t88 55.5t111.5 19.5h252v-84h-114q51 -30 82.5 -79.5t31.5 -116.5q0 -66 -21.5 -117.5t-57.5 -87.5t-85 -55t-102 -19zM316 459q-37 0 -68 -14t-53.5 -39.5t-35 -62t-12.5 -80.5
q0 -45 12.5 -81t35 -61.5t54 -39t67.5 -13.5q37 0 68.5 13.5t54 39t34.5 61.5t12 81q0 44 -12 80.5t-34.5 62t-54 39.5t-68.5 14z" />
    <glyph glyph-name="tau" unicode="&#x3c4;" horiz-adv-x="466" 
d="M430 526v-77h-157v-302q0 -34 19 -52.5t49 -18.5q12 0 25 2t23 7v-83q-29 -10 -68 -10q-31 0 -57 8.5t-45 27t-30.5 47t-11.5 68.5v306h-157v77h410z" />
    <glyph glyph-name="upsilon" unicode="&#x3c5;" 
d="M305 -16q-48 0 -90 14.5t-73.5 43.5t-49.5 70.5t-18 95.5v318h96v-310q0 -68 34.5 -108t100.5 -40q67 0 101 40t34 108v310h97v-318q0 -54 -18 -95.5t-50 -70.5t-74 -43.5t-90 -14.5z" />
    <glyph glyph-name="phi" unicode="&#x3c6;" horiz-adv-x="729" 
d="M413 -190h-97v190q-52 0 -100 17.5t-84.5 51t-58.5 82.5t-22 112q0 62 22.5 111.5t61 83.5t89 51t107.5 17h67q56 0 107 -17t89.5 -51t61 -83t22.5 -112t-22 -112t-58.5 -82.5t-84.5 -51t-100 -17.5v-190zM582 263q0 86 -47.5 132.5t-121.5 46.5v-358q75 0 122 46.5
t47 132.5zM316 442q-75 0 -122 -46.5t-47 -132.5t47.5 -132.5t121.5 -46.5v358z" />
    <glyph glyph-name="chi" unicode="&#x3c7;" horiz-adv-x="573" 
d="M581 -194q-11 -6 -27.5 -9.5t-31.5 -3.5q-36 0 -62 16t-44 54l-116 239l-146 -292h-107l206 399l-96 200q-10 22 -24.5 31t-33.5 9q-22 0 -42 -12l-27 76q20 14 41.5 22t45.5 8q39 0 65.5 -16t44.5 -54l84 -173l110 226h106l-171 -328l141 -289q12 -25 41 -25q6 0 13 1
t14 4z" />
    <glyph glyph-name="psi" unicode="&#x3c8;" horiz-adv-x="749" 
d="M327 -16q-56 0 -103 14t-80 42.5t-51.5 72t-18.5 101.5v312h96v-296q0 -83 40 -122.5t117 -39.5v458h96v-458q77 0 117 39.5t40 122.5v296h96v-312q0 -58 -18.5 -101.5t-52 -72t-80 -42.5t-102.5 -14v-174h-96v174z" />
    <glyph glyph-name="omega" unicode="&#x3c9;" horiz-adv-x="821" 
d="M662 543q18 -27 36.5 -62t32.5 -75t23.5 -85t9.5 -91q0 -65 -16 -111t-42.5 -76.5t-62.5 -44.5t-77 -14q-54 0 -94.5 31.5t-60.5 76.5q-20 -45 -61 -76.5t-95 -31.5q-41 0 -77 14t-63 44.5t-42.5 77t-15.5 110.5q0 46 9.5 91t23.5 85t32.5 75t37.5 62l85 -43
q-39 -61 -65 -132.5t-26 -148.5q0 -68 26 -109.5t77 -41.5t78 37t27 111v149h97v-149q0 -74 27 -111t78 -37t77.5 42t26.5 109q0 77 -26.5 148t-64.5 133z" />
    <glyph glyph-name="iotadieresis" unicode="&#x3ca;" horiz-adv-x="309" 
d="M170 526v-379q0 -34 16 -52.5t45 -18.5q26 0 43 9v-83q-26 -10 -63 -10q-61 0 -99 35t-38 116v383h96zM157 717h96v-99h-96v99zM-7 717h97v-99h-97v99z" />
    <glyph glyph-name="upsilondieresis" unicode="&#x3cb;" 
d="M305 -16q-48 0 -90 14.5t-73.5 43.5t-49.5 70.5t-18 95.5v318h96v-310q0 -68 34.5 -108t100.5 -40q67 0 101 40t34 108v310h97v-318q0 -54 -18 -95.5t-50 -70.5t-74 -43.5t-90 -14.5zM339 717h96v-99h-96v99zM175 717h97v-99h-97v99z" />
    <glyph glyph-name="omicrontonos" unicode="&#x3cc;" horiz-adv-x="624" 
d="M312 -16q-54 0 -101 19t-83 55t-56.5 88t-20.5 117q0 66 20.5 117.5t56.5 87.5t83 55.5t101 19.5q53 0 101 -19.5t83.5 -55.5t56 -87.5t20.5 -117.5t-20.5 -117.5t-56 -87.5t-83.5 -55t-101 -19zM312 459q-36 0 -66 -14t-52 -39.5t-34.5 -62t-12.5 -80.5q0 -45 12.5 -81
t34.5 -61.5t52 -39t66 -13.5t66.5 13.5t52.5 39t34 61.5t12 81q0 44 -12 80.5t-34 62t-52.5 39.5t-66.5 14zM272 584l35 133h107l-80 -133h-62z" />
    <glyph glyph-name="upsilontonos" unicode="&#x3cd;" 
d="M305 -16q-48 0 -90 14.5t-73.5 43.5t-49.5 70.5t-18 95.5v318h96v-310q0 -68 34.5 -108t100.5 -40q67 0 101 40t34 108v310h97v-318q0 -54 -18 -95.5t-50 -70.5t-74 -43.5t-90 -14.5zM261 584l35 133h107l-80 -133h-62z" />
    <glyph glyph-name="omegatonos" unicode="&#x3ce;" horiz-adv-x="821" 
d="M662 543q18 -27 36.5 -62t32.5 -75t23.5 -85t9.5 -91q0 -65 -16 -111t-42.5 -76.5t-62.5 -44.5t-77 -14q-54 0 -94.5 31.5t-60.5 76.5q-20 -45 -61 -76.5t-95 -31.5q-41 0 -77 14t-63 44.5t-42.5 77t-15.5 110.5q0 46 9.5 91t23.5 85t32.5 75t37.5 62l85 -43
q-39 -61 -65 -132.5t-26 -148.5q0 -68 26 -109.5t77 -41.5t78 37t27 111v149h97v-149q0 -74 27 -111t78 -37t77.5 42t26.5 109q0 77 -26.5 148t-64.5 133zM369 584l35 133h107l-80 -133h-62z" />
    <glyph glyph-name="uni0400" unicode="&#x400;" horiz-adv-x="602" 
d="M84 717h453v-88h-351v-223h324v-89h-324v-229h359v-88h-461v717zM305 774l-122 133h120l76 -133h-74z" />
    <glyph glyph-name="uni0401" unicode="&#x401;" horiz-adv-x="602" 
d="M84 717h453v-88h-351v-223h324v-89h-324v-229h359v-88h-461v717zM348 907h96v-99h-96v99zM184 907h97v-99h-97v99z" />
    <glyph glyph-name="uni0402" unicode="&#x402;" horiz-adv-x="813" 
d="M31 717h553v-88h-226v-166h144q56 0 103.5 -16.5t82 -46.5t53.5 -73t19 -96q0 -52 -19 -95t-53.5 -73t-82 -46.5t-103.5 -16.5h-72v84h64q34 0 64.5 8.5t54 27t37.5 46.5t14 65q0 76 -42 112t-128 36h-136v-379h-102v629h-225v88z" />
    <glyph glyph-name="uni0403" unicode="&#x403;" horiz-adv-x="603" 
d="M84 717h472v-88h-370v-629h-102v717zM247 774l75 133h120l-122 -133h-73z" />
    <glyph glyph-name="uni0404" unicode="&#x404;" horiz-adv-x="720" 
d="M527 314h-363q11 -118 71.5 -180t149.5 -62q45 0 79.5 12.5t59 35.5t41.5 55t26 69l91 -27q-29 -112 -100 -172.5t-195 -60.5q-74 0 -135 26t-104.5 75t-68 118t-24.5 155t24.5 155.5t69.5 118.5t105.5 75t134.5 26q62 0 112.5 -16.5t88.5 -46t62 -70.5t34 -90l-95 -25
q-7 38 -26.5 68t-47 50.5t-60.5 31t-68 10.5q-94 0 -154.5 -62.5t-70.5 -180.5h363v-88z" />
    <glyph glyph-name="uni0405" unicode="&#x405;" horiz-adv-x="688" 
d="M508 193q0 28 -8 49t-28 37t-54.5 27t-87.5 18q-55 7 -99.5 24.5t-75.5 44.5t-47.5 61.5t-16.5 76.5q0 47 20 84.5t54.5 64t79.5 40t95 13.5q61 0 105.5 -16t75.5 -44.5t49 -67t25 -82.5l-95 -18q-14 69 -56 104.5t-104 35.5q-30 0 -56.5 -7t-46.5 -21t-31.5 -34.5
t-11.5 -46.5q0 -50 39 -84t135 -44q53 -6 97.5 -21t76.5 -40t50 -60.5t18 -80.5q0 -46 -17.5 -87t-50.5 -71t-80.5 -47t-107.5 -17q-61 0 -111 18t-86.5 51t-59 78t-28.5 98l95 20q6 -36 19.5 -68.5t36 -56.5t55.5 -38t79 -14q70 0 112 33.5t42 87.5z" />
    <glyph glyph-name="uni0406" unicode="&#x406;" horiz-adv-x="270" 
d="M84 717h102v-717h-102v717z" />
    <glyph glyph-name="uni0407" unicode="&#x407;" horiz-adv-x="270" 
d="M84 717h102v-717h-102v717zM170 907h96v-99h-96v99zM6 907h97v-99h-97v99z" />
    <glyph glyph-name="uni0408" unicode="&#x408;" horiz-adv-x="575" 
d="M403 717h103v-478q0 -58 -16 -106t-45.5 -81t-71.5 -50.5t-93 -17.5q-44 0 -82 12.5t-67.5 37t-48.5 61t-25 83.5l95 20q10 -68 43 -97t85 -29q33 0 56 13t38 35t22 52t7 64v481z" />
    <glyph glyph-name="uni0409" unicode="&#x409;" horiz-adv-x="1047" 
d="M761 410q46 0 88.5 -14t75 -40.5t52 -64.5t19.5 -86t-19.5 -86t-52 -64.5t-75 -40.5t-88.5 -14h-279v629h-227v-326q0 -63 -7 -121t-28 -102t-59.5 -70t-100.5 -26q-29 0 -50 9v85q19 -6 38 -6q36 0 57 18t31.5 50.5t13.5 78.5t3 103v395h432v-307h176zM585 88h176
q56 0 94.5 29t38.5 88q0 58 -38.5 87.5t-94.5 29.5h-176v-234z" />
    <glyph glyph-name="uni040A" unicode="&#x40a;" horiz-adv-x="1079" 
d="M84 717h102v-311h328v311h102v-311h177q46 0 88.5 -14t75 -40t52 -63.5t19.5 -85.5t-19.5 -85.5t-52 -63.5t-75 -40t-88.5 -14h-279v317h-328v-317h-102v717zM616 88h177q56 0 94.5 28t38.5 87q0 58 -38.5 86t-94.5 28h-177v-229z" />
    <glyph glyph-name="uni040B" unicode="&#x40b;" horiz-adv-x="772" 
d="M31 717h553v-88h-265v-246q9 16 26 33.5t40 31.5t50 22.5t58 8.5q96 0 148.5 -54t52.5 -160v-265h-96v257q0 68 -32 103t-95 35q-31 0 -58 -12t-48 -35t-33.5 -56.5t-12.5 -76.5v-215h-102v629h-186v88z" />
    <glyph glyph-name="uni040C" unicode="&#x40c;" horiz-adv-x="609" 
d="M84 717h102v-310l263 310h123l-289 -339l316 -378h-130l-283 337v-337h-102v717zM249 774l75 133h120l-122 -133h-73z" />
    <glyph glyph-name="uni040D" unicode="&#x40d;" horiz-adv-x="731" 
d="M647 0h-102v569l-346 -569h-115v717h102v-570l346 570h115v-717zM365 786q-57 0 -89.5 31t-32.5 90h74q0 -57 48 -58q48 0 48 58h74q0 -58 -32.5 -89.5t-89.5 -31.5z" />
    <glyph glyph-name="uni040E" unicode="&#x40e;" horiz-adv-x="607" 
d="M262 198l-254 519h107l199 -406l185 406h100l-326 -717h-100zM314 786q-57 0 -89.5 31t-32.5 90h74q0 -57 48 -58q48 0 48 58h74q0 -58 -32.5 -89.5t-89.5 -31.5z" />
    <glyph glyph-name="uni040F" unicode="&#x40f;" horiz-adv-x="700" 
d="M84 717h102v-629h328v629h102v-717h-215v-113h-102v113h-215v717z" />
    <glyph glyph-name="uni0410" unicode="&#x410;" horiz-adv-x="706" 
d="M299 717h109l288 -717h-106l-65 166h-344l-64 -166h-107zM215 254h277l-139 354z" />
    <glyph glyph-name="uni0411" unicode="&#x411;" horiz-adv-x="679" 
d="M186 88h207q56 0 94.5 29t38.5 88q0 58 -38 87.5t-95 29.5h-207v-234zM393 410q46 0 88.5 -14t75.5 -40.5t52.5 -64.5t19.5 -86t-19.5 -86t-52.5 -64.5t-75.5 -40.5t-88.5 -14h-309v717h483v-88h-381v-219h207z" />
    <glyph glyph-name="uni0412" unicode="&#x412;" horiz-adv-x="679" 
d="M84 717h299q41 0 80 -12t69.5 -35t49 -57t18.5 -78q0 -62 -26.5 -99t-64.5 -60q52 -20 86 -63.5t34 -107.5q0 -48 -19.5 -86t-52.5 -64.5t-75.5 -40.5t-88.5 -14h-309v717zM186 88h207q56 0 94.5 29t38.5 88q0 58 -38 87.5t-95 29.5h-207v-234zM186 410h194q25 0 45.5 7
t37 21t26 34.5t9.5 46.5q0 27 -10.5 47.5t-27.5 34t-39 21t-46 7.5h-189v-219z" />
    <glyph glyph-name="uni0413" unicode="&#x413;" horiz-adv-x="603" 
d="M84 717h472v-88h-370v-629h-102v717z" />
    <glyph glyph-name="uni0414" unicode="&#x414;" horiz-adv-x="782" 
d="M197 717h456v-629h86v-201h-102v113h-492v-113h-102v201h61q23 38 40 79t28.5 87t18 100t6.5 119v244zM299 473q0 -73 -7.5 -131.5t-19.5 -106t-27 -83.5t-29 -64h335v541h-252v-156z" />
    <glyph glyph-name="uni0415" unicode="&#x415;" horiz-adv-x="602" 
d="M84 717h453v-88h-351v-223h324v-89h-324v-229h359v-88h-461v717z" />
    <glyph glyph-name="uni0416" unicode="&#x416;" horiz-adv-x="909" 
d="M506 0h-103v344l-267 -344h-126l296 380l-272 337h125l244 -307v307h103v-307l245 307h125l-273 -337l296 -380h-126l-267 344v-344z" />
    <glyph glyph-name="uni0417" unicode="&#x417;" horiz-adv-x="625" 
d="M78 539q7 46 27 82t50 61t68 38t80 13q49 0 90.5 -12t72 -36.5t47.5 -59t17 -79.5q0 -54 -29 -96t-72 -63q58 -18 93.5 -63t35.5 -112q0 -49 -17.5 -91t-48.5 -72.5t-76 -47.5t-101 -17q-60 0 -106 19t-78.5 51t-52 74t-27.5 88l93 24q5 -34 17.5 -65t33.5 -55t50 -38
t68 -14q32 0 58.5 9t46 27t31 43t11.5 58q0 35 -13 59.5t-34.5 40.5t-50.5 23.5t-62 7.5h-20v86h18q58 0 96 31.5t38 86.5q0 46 -32.5 77.5t-94.5 31.5q-54 0 -91 -35.5t-50 -96.5z" />
    <glyph glyph-name="uni0418" unicode="&#x418;" horiz-adv-x="731" 
d="M647 0h-102v569l-346 -569h-115v717h102v-570l346 570h115v-717z" />
    <glyph glyph-name="uni0419" unicode="&#x419;" horiz-adv-x="731" 
d="M647 0h-102v569l-346 -569h-115v717h102v-570l346 570h115v-717zM365 786q-57 0 -89.5 31t-32.5 90h74q0 -57 48 -58q48 0 48 58h74q0 -58 -32.5 -89.5t-89.5 -31.5z" />
    <glyph glyph-name="uni041A" unicode="&#x41a;" horiz-adv-x="609" 
d="M84 717h102v-310l263 310h123l-289 -339l316 -378h-130l-283 337v-337h-102v717z" />
    <glyph glyph-name="uni041B" unicode="&#x41b;" horiz-adv-x="701" 
d="M153 717h464v-717h-102v629h-260v-326q0 -63 -7 -121t-28 -102t-59.5 -70t-100.5 -26q-14 0 -27.5 3t-22.5 6v87q19 -6 38 -6q36 0 57 18t31.5 50t13.5 77.5t3 102.5v395z" />
    <glyph glyph-name="uni041C" unicode="&#x41c;" horiz-adv-x="874" 
d="M84 717h115l238 -624l239 624h115v-717h-103v514l-196 -514h-109l-197 514v-514h-102v717z" />
    <glyph glyph-name="uni041D" unicode="&#x41d;" horiz-adv-x="700" 
d="M84 717h102v-311h328v311h102v-717h-102v317h-328v-317h-102v717z" />
    <glyph glyph-name="uni041E" unicode="&#x41e;" horiz-adv-x="782" 
d="M727 358q0 -86 -24.5 -155t-69 -118t-106 -75t-136.5 -26t-136 26t-106 75t-69.5 118t-24.5 155t24.5 155.5t69.5 118.5t106 75t136 26t136.5 -26t106 -75t69 -118.5t24.5 -155.5zM621 358q0 69 -17 123t-47.5 90t-72.5 55t-93 19t-93 -19t-72 -55t-47 -90t-17 -123
q0 -70 17 -123t47 -89t72 -55t93 -19t93 19t72.5 55t47.5 89t17 123z" />
    <glyph glyph-name="uni041F" unicode="&#x41f;" horiz-adv-x="700" 
d="M84 717h532v-717h-102v629h-328v-629h-102v717z" />
    <glyph glyph-name="uni0420" unicode="&#x420;" horiz-adv-x="635" 
d="M84 717h251q56 0 103 -15.5t81 -44t52.5 -70.5t18.5 -95t-18.5 -95.5t-52.5 -71t-81 -44t-103 -15.5h-149v-266h-102v717zM186 354h147q68 0 111 33.5t43 104.5t-43 104t-111 33h-147v-275z" />
    <glyph glyph-name="uni0421" unicode="&#x421;" horiz-adv-x="724" 
d="M690 221q-27 -109 -102 -173t-195 -64q-75 0 -136.5 26t-106.5 75t-70 118t-25 155t25.5 155.5t71.5 118.5t107.5 75t133.5 26q57 0 106.5 -15t87.5 -43.5t63.5 -70t35.5 -94.5l-99 -18q-19 74 -69.5 113.5t-124.5 39.5q-51 0 -93.5 -19t-73 -55t-47.5 -90t-17 -123
q0 -70 17 -123t47.5 -89t73 -55t93.5 -19q84 0 134 46.5t69 124.5z" />
    <glyph glyph-name="uni0422" unicode="&#x422;" horiz-adv-x="614" 
d="M31 717h553v-88h-226v-629h-102v629h-225v88z" />
    <glyph glyph-name="uni0423" unicode="&#x423;" horiz-adv-x="607" 
d="M262 198l-254 519h107l199 -406l185 406h100l-326 -717h-100z" />
    <glyph glyph-name="uni0424" unicode="&#x424;" horiz-adv-x="796" 
d="M450 635h8q62 0 115.5 -18.5t93 -54t62 -87t22.5 -117.5t-22.5 -117.5t-62 -86.5t-93 -53.5t-115.5 -18.5h-8v-82h-103v82h-8q-62 0 -115.5 18.5t-93 53.5t-62 87t-22.5 117q0 66 22.5 117.5t62 87t92.5 54t116 18.5h8v82h103v-82zM450 170h16q80 0 131 48t51 140
t-51 140.5t-131 48.5h-16v-377zM347 547h-16q-80 0 -131.5 -48t-51.5 -141q0 -92 51.5 -140t131.5 -48h16v377z" />
    <glyph glyph-name="uni0425" unicode="&#x425;" horiz-adv-x="634" 
d="M317 465l155 252h114l-212 -338l238 -379h-114l-181 289l-180 -289h-114l238 379l-212 338h114z" />
    <glyph glyph-name="uni0426" unicode="&#x426;" horiz-adv-x="720" 
d="M84 717h102v-629h328v629h102v-629h62v-201h-103v113h-491v717z" />
    <glyph glyph-name="uni0427" unicode="&#x427;" horiz-adv-x="641" 
d="M455 291q-23 -38 -65 -67t-103 -29q-96 0 -154.5 54t-58.5 160v308h102v-296q0 -68 32 -103t91 -35q34 0 62.5 12t49 35t32.5 56.5t12 76.5v254h102v-717h-102v291z" />
    <glyph glyph-name="uni0428" unicode="&#x428;" horiz-adv-x="872" 
d="M84 717h102v-629h199v629h102v-629h199v629h102v-717h-704v717z" />
    <glyph glyph-name="uni0429" unicode="&#x429;" horiz-adv-x="892" 
d="M84 717h102v-629h199v629h102v-629h199v629h102v-629h62v-201h-102v113h-664v717z" />
    <glyph glyph-name="uni042A" unicode="&#x42a;" horiz-adv-x="794" 
d="M31 629v88h270v-307h207q46 0 88.5 -14t75.5 -40.5t52 -64.5t19 -86t-19 -86t-52 -64.5t-75.5 -40.5t-88.5 -14h-309v629h-168zM301 88h207q56 0 94.5 29t38.5 88q0 58 -38.5 87.5t-94.5 29.5h-207v-234z" />
    <glyph glyph-name="uni042B" unicode="&#x42b;" horiz-adv-x="891" 
d="M186 88h207q56 0 94.5 29t38.5 88q0 58 -38 87.5t-95 29.5h-207v-234zM186 717v-307h207q46 0 88.5 -14t75.5 -40.5t52.5 -64.5t19.5 -86t-19.5 -86t-52.5 -64.5t-75.5 -40.5t-88.5 -14h-309v717h102zM706 717h102v-717h-102v717z" />
    <glyph glyph-name="uni042C" unicode="&#x42c;" horiz-adv-x="679" 
d="M186 88h207q56 0 94.5 29t38.5 88q0 58 -38 87.5t-95 29.5h-207v-234zM186 717v-307h207q46 0 88.5 -14t75.5 -40.5t52.5 -64.5t19.5 -86t-19.5 -86t-52.5 -64.5t-75.5 -40.5t-88.5 -14h-309v717h102z" />
    <glyph glyph-name="uni042D" unicode="&#x42d;" horiz-adv-x="731" 
d="M204 402h363q-10 118 -67.5 180.5t-151.5 62.5q-36 0 -68 -11t-59 -31.5t-47.5 -51t-33.5 -67.5l-95 26q16 51 44.5 92t67.5 70t87.5 45t103.5 16q74 0 134.5 -26t103.5 -75t66.5 -118.5t23.5 -155.5t-24.5 -155t-68 -118t-104.5 -75t-135 -26q-61 0 -111.5 17
t-87.5 48.5t-63.5 75t-40.5 96.5l99 24q8 -37 24.5 -68.5t42 -55t60 -36.5t79.5 -13q88 0 149 62.5t72 179.5h-363v88z" />
    <glyph glyph-name="uni042E" unicode="&#x42e;" horiz-adv-x="997" 
d="M942 358q0 -86 -24.5 -155t-69 -118t-106 -75t-136.5 -26q-70 0 -128.5 23t-102.5 66t-70.5 104t-33.5 137h-85v-314h-102v717h102v-315h85q6 77 33 138t71 104t103 66t128 23q75 0 136.5 -26t106 -75t69 -118.5t24.5 -155.5zM836 358q0 69 -17 123t-47.5 90t-72.5 55
t-93 19t-93 -19t-72 -55t-47 -90t-17 -123q0 -70 17 -123t47 -89t72 -55t93 -19t93 19t72.5 55t47.5 89t17 123z" />
    <glyph glyph-name="uni042F" unicode="&#x42f;" horiz-adv-x="671" 
d="M179 0h-120l165 296q-65 24 -103.5 75t-38.5 127q0 51 19 92t52.5 69t79.5 43t99 15h256v-717h-103v279h-150zM485 629h-155q-62 0 -104 -32.5t-42 -98.5q0 -67 41.5 -99t104.5 -32h155v262z" />
    <glyph glyph-name="uni0430" unicode="&#x430;" horiz-adv-x="647" 
d="M573 526v-526h-86l-10 77q-11 -16 -27 -33t-38 -30.5t-50 -21.5t-63 -8q-51 0 -96 20t-79 56t-53.5 88t-19.5 115t20.5 115t55 88.5t80 56.5t94.5 20q60 0 107.5 -24t68.5 -67l12 74h84zM316 459q-37 0 -68 -15t-53.5 -41t-35 -62t-12.5 -78t12.5 -77.5t35 -62t54 -41
t67.5 -14.5q37 0 68.5 14.5t54 41t34.5 62t12 77.5t-12 78t-34.5 62t-54 41t-68.5 15z" />
    <glyph glyph-name="uni0431" unicode="&#x431;" horiz-adv-x="653" 
d="M51 326q0 169 72.5 270t206.5 113q38 3 62.5 6.5t38.5 8t20.5 11.5t7.5 19h78q-3 -35 -16 -57.5t-36 -36.5t-57.5 -21t-82.5 -10q-90 -6 -139 -63.5t-64 -155.5q11 26 31 49.5t46 42t58 30t69 11.5q58 0 105.5 -21t81 -58.5t51.5 -89t18 -112.5q0 -60 -20 -111.5t-56 -88
t-85.5 -57.5t-108.5 -21q-58 0 -109 24.5t-89.5 69.5t-60.5 108t-22 140zM335 459q-38 0 -69.5 -14.5t-54 -40.5t-35 -62.5t-12.5 -80.5t12.5 -80t35 -61t54 -38.5t69.5 -13.5t69 13.5t53.5 39t35.5 61.5t13 80t-13 80.5t-35.5 62t-53.5 40t-69 14.5z" />
    <glyph glyph-name="uni0432" unicode="&#x432;" horiz-adv-x="518" 
d="M74 0v526h201q45 0 78.5 -11t55.5 -30t33 -43.5t11 -51.5q0 -48 -22.5 -75.5t-54.5 -45.5q39 -13 65 -45.5t26 -75.5q0 -68 -45.5 -108t-123.5 -40h-224zM170 303h111q33 0 56 18.5t23 54.5t-23.5 54.5t-55.5 18.5h-111v-146zM170 78h112q39 0 64 17t25 59t-25 58.5
t-64 16.5h-112v-151z" />
    <glyph glyph-name="uni0433" unicode="&#x433;" horiz-adv-x="468" 
d="M424 449h-254v-449h-96v526h350v-77z" />
    <glyph glyph-name="uni0434" unicode="&#x434;" horiz-adv-x="649" 
d="M541 78h73v-191h-96v113h-387v-113h-96v191h76q14 30 23.5 56.5t16 54.5t9 59.5t2.5 70.5v207h379v-448zM444 78v371h-186v-130q0 -42 -2.5 -73.5t-8 -59t-14 -54t-20.5 -54.5h231z" />
    <glyph glyph-name="uni0435" unicode="&#x435;" horiz-adv-x="617" 
d="M147 236q4 -37 17.5 -68t35 -53t52 -34.5t67.5 -12.5q52 0 91.5 28.5t56.5 73.5l89 -31q-35 -79 -94.5 -117t-142.5 -38q-61 0 -110 21t-84.5 58.5t-54.5 89t-19 112.5t21.5 112t57.5 88t84 57.5t101 20.5q48 0 93 -17t79 -50t54.5 -82.5t20.5 -113.5v-44h-415zM315 459
q-69 0 -110.5 -41.5t-53.5 -104.5h317q-1 33 -13.5 60t-32.5 46t-47.5 29.5t-59.5 10.5z" />
    <glyph glyph-name="uni0436" unicode="&#x436;" horiz-adv-x="757" 
d="M427 246v-246h-96v246l-196 -246h-115l228 289l-204 237h115l172 -207v207h96v-207l172 207h115l-204 -237l227 -289h-114z" />
    <glyph glyph-name="uni0437" unicode="&#x437;" horiz-adv-x="504" 
d="M68 392q8 66 55.5 108.5t123.5 42.5q37 0 67.5 -9.5t53 -27t35.5 -43t13 -56.5q0 -43 -20.5 -71t-48.5 -42q43 -14 69.5 -52t26.5 -84q0 -39 -14.5 -71.5t-40.5 -55.5t-60 -35t-73 -12q-48 0 -84 14t-61.5 37.5t-40.5 55.5t-20 66l89 18q3 -22 12 -41t22.5 -34t34 -23.5
t47.5 -8.5q39 0 66 23.5t27 66.5q0 40 -26.5 64.5t-75.5 24.5h-16v78h13q36 0 59 17.5t23 52.5q0 29 -21 48.5t-57 19.5q-40 0 -62.5 -23t-27.5 -62z" />
    <glyph glyph-name="uni0438" unicode="&#x438;" horiz-adv-x="593" 
d="M170 134l242 392h108v-526h-96v392l-242 -392h-108v526h96v-392z" />
    <glyph glyph-name="uni0439" unicode="&#x439;" horiz-adv-x="593" 
d="M170 134l242 392h108v-526h-96v392l-242 -392h-108v526h96v-392zM297 596q-57 0 -89.5 31t-32.5 90h74q0 -57 48 -58q48 0 48 58h74q0 -58 -32.5 -89.5t-89.5 -31.5z" />
    <glyph glyph-name="uni043A" unicode="&#x43a;" horiz-adv-x="508" 
d="M170 526v-208l177 208h118l-209 -237l232 -289h-117l-201 247v-247h-96v526h96z" />
    <glyph glyph-name="uni043B" unicode="&#x43b;" horiz-adv-x="590" 
d="M138 526h379v-526h-96v449h-187v-165q0 -83 -11.5 -139.5t-33 -90.5t-51.5 -48t-67 -14q-20 0 -40 3v85q10 -4 23 -4q22 0 37 10.5t26 35.5t16 66t5 103v235z" />
    <glyph glyph-name="uni043C" unicode="&#x43c;" horiz-adv-x="692" 
d="M74 526h104l168 -432l168 432h104v-526h-96v324l-124 -324h-104l-124 324v-324h-96v526z" />
    <glyph glyph-name="uni043D" unicode="&#x43d;" horiz-adv-x="574" 
d="M170 305h234v221h97v-526h-97v227h-234v-227h-96v526h96v-221z" />
    <glyph glyph-name="uni043E" unicode="&#x43e;" horiz-adv-x="632" 
d="M316 -16q-54 0 -102 19t-84 55t-57.5 88t-21.5 117q0 66 21.5 117.5t57.5 87.5t84 55.5t102 19.5q53 0 102 -19.5t85 -55.5t57.5 -87.5t21.5 -117.5t-21.5 -117.5t-57.5 -87.5t-85 -55t-102 -19zM316 459q-37 0 -68 -14t-53.5 -39.5t-35 -62t-12.5 -80.5q0 -45 12.5 -81
t35 -61.5t54 -39t67.5 -13.5q37 0 68.5 13.5t54 39t34.5 61.5t12 81q0 44 -12 80.5t-34.5 62t-54 39.5t-68.5 14z" />
    <glyph glyph-name="uni043F" unicode="&#x43f;" horiz-adv-x="575" 
d="M502 0h-96v449h-236v-449h-96v526h428v-526z" />
    <glyph glyph-name="uni0440" unicode="&#x440;" horiz-adv-x="638" 
d="M343 543q51 0 95.5 -20t78 -56.5t52.5 -88t19 -115.5q0 -63 -21 -115t-55.5 -88t-79.5 -56t-93 -20q-55 0 -100 24t-69 59v-257h-96v716h80l16 -68q11 15 27.5 30t38 27t48 20t59.5 8zM327 68q37 0 67.5 14.5t52 41t33.5 62t12 77.5t-12 78t-33.5 62t-52 41t-67.5 15
t-68 -15t-52.5 -41t-33 -62t-11.5 -78t11.5 -77.5t33 -62t52.5 -41t68 -14.5z" />
    <glyph glyph-name="uni0441" unicode="&#x441;" horiz-adv-x="601" 
d="M548 144q-33 -80 -89.5 -120t-142.5 -40q-54 0 -102 19t-84 55t-57.5 88t-21.5 117q0 66 21.5 117.5t57.5 87.5t84 55.5t102 19.5q85 0 148 -43.5t84 -134.5l-89 -20q-14 50 -51 82t-92 32q-37 0 -68 -14t-53.5 -39.5t-35 -62t-12.5 -80.5q0 -45 12.5 -81t35 -61.5
t54 -39t67.5 -13.5q56 0 91 29.5t53 80.5z" />
    <glyph glyph-name="uni0442" unicode="&#x442;" horiz-adv-x="438" 
d="M14 526h410v-77h-157v-449h-96v449h-157v77z" />
    <glyph glyph-name="uni0443" unicode="&#x443;" horiz-adv-x="549" 
d="M231 0l-213 526h101l159 -407l157 407h101l-250 -622q-25 -61 -61 -86t-80 -25q-24 0 -45 6t-33 15l23 85q23 -12 51 -13q20 0 38 12.5t31 45.5z" />
    <glyph glyph-name="uni0444" unicode="&#x444;" horiz-adv-x="960" 
d="M288 543q47 0 85.5 -19t58.5 -50v243h96v-243q24 30 62.5 49.5t82.5 19.5q51 0 94.5 -20t74.5 -56.5t49 -88t18 -115.5q0 -63 -18 -115t-50 -88t-76 -56t-96 -20q-49 0 -84.5 21t-56.5 52v-247h-96v247q-20 -32 -55.5 -52.5t-84.5 -20.5q-52 0 -96 20t-76.5 56t-50.5 88
t-18 115t18 115t50 88.5t75 56.5t94 20zM294 68q37 0 64.5 16t46 43.5t27 62.5t8.5 73t-8.5 73.5t-27 62.5t-46 43.5t-64.5 16.5t-64.5 -16.5t-46 -43.5t-27.5 -62.5t-9 -73.5t9 -73t27.5 -62.5t46 -43.5t64.5 -16zM667 68q37 0 64.5 16t46 43.5t27 62.5t8.5 73t-8.5 73.5
t-27 62.5t-46.5 43.5t-64 16.5q-37 0 -65 -16.5t-46 -43.5t-27 -62.5t-9 -73.5t9 -73t27 -62.5t46 -43.5t65 -16z" />
    <glyph glyph-name="uni0445" unicode="&#x445;" horiz-adv-x="488" 
d="M244 362l105 164h106l-160 -245l179 -281h-107l-123 202l-122 -202h-108l179 281l-159 245h105z" />
    <glyph glyph-name="uni0446" unicode="&#x446;" horiz-adv-x="599" 
d="M170 78h234v448h97v-448h63v-191h-96v113h-394v526h96v-448z" />
    <glyph glyph-name="uni0447" unicode="&#x447;" horiz-adv-x="599" 
d="M429 202q-27 -34 -73.5 -56.5t-94.5 -22.5q-42 0 -77.5 11t-61.5 35t-40 61.5t-14 90.5v205h96v-187q0 -60 28.5 -96t88.5 -36q45 0 80 21.5t68 62.5v235h96v-526h-96v202z" />
    <glyph glyph-name="uni0448" unicode="&#x448;" horiz-adv-x="792" 
d="M444 78h179v448h96v-526h-645v526h96v-448h178v448h96v-448z" />
    <glyph glyph-name="uni0449" unicode="&#x449;" horiz-adv-x="817" 
d="M444 78h179v448h96v-448h63v-191h-96v113h-612v526h96v-448h178v448h96v-448z" />
    <glyph glyph-name="uni044A" unicode="&#x44a;" horiz-adv-x="565" 
d="M121 449h-111v77h207v-223h128q39 0 70 -11.5t53 -32t34 -49t12 -62.5q0 -68 -45.5 -108t-123.5 -40h-224v449zM217 78h112q39 0 64 17t25 59t-25 58.5t-64 16.5h-112v-151z" />
    <glyph glyph-name="uni044B" unicode="&#x44b;" horiz-adv-x="717" 
d="M170 526v-223h128q39 0 70 -11.5t53 -32t34 -49t12 -62.5q0 -68 -45.5 -108t-123.5 -40h-224v526h96zM170 78h112q39 0 64 17t25 59t-25 58.5t-64 16.5h-112v-151zM548 526h96v-526h-96v526z" />
    <glyph glyph-name="uni044C" unicode="&#x44c;" horiz-adv-x="518" 
d="M170 526v-223h128q39 0 70 -11.5t53 -32t34 -49t12 -62.5q0 -68 -45.5 -108t-123.5 -40h-224v526h96zM170 78h112q39 0 64 17t25 59t-25 58.5t-64 16.5h-112v-151z" />
    <glyph glyph-name="uni044D" unicode="&#x44d;" horiz-adv-x="604" 
d="M196 305h258q-10 71 -51.5 112.5t-106.5 41.5q-54 0 -96 -33.5t-57 -83.5l-87 23q12 44 36 77t55.5 55.5t69.5 34t79 11.5q53 0 100 -19.5t82 -55.5t55 -87.5t20 -117.5t-20.5 -117.5t-55.5 -87.5t-82.5 -55t-100.5 -19q-93 0 -151.5 41t-89.5 120l88 34
q38 -112 153 -111q66 0 107.5 41t52.5 112h-258v84z" />
    <glyph glyph-name="uni044E" unicode="&#x44e;" horiz-adv-x="814" 
d="M504 -16q-49 0 -93.5 16t-79 47.5t-56.5 76t-28 100.5h-77v-224h-96v526h96v-224h77q6 56 28 100.5t56.5 76t79 48t93.5 16.5q53 0 100.5 -19.5t82.5 -55.5t55.5 -87.5t20.5 -117.5t-20.5 -117.5t-55.5 -87.5t-82.5 -55t-100.5 -19zM504 459q-75 0 -119 -53.5t-44 -142.5
t44 -142t119 -53t119 53t44 142t-44 142.5t-119 53.5z" />
    <glyph glyph-name="uni044F" unicode="&#x44f;" horiz-adv-x="537" 
d="M158 0h-110l120 216q-43 17 -69 54.5t-26 93.5q0 40 13.5 70t38.5 51t58 31t72 10h209v-526h-96v201h-99zM368 449h-93q-46 0 -76 -19.5t-30 -65.5t30 -65.5t76 -19.5h93v170z" />
    <glyph glyph-name="uni0450" unicode="&#x450;" horiz-adv-x="617" 
d="M147 236q4 -37 17.5 -68t35 -53t52 -34.5t67.5 -12.5q52 0 91.5 28.5t56.5 73.5l89 -31q-35 -79 -94.5 -117t-142.5 -38q-61 0 -110 21t-84.5 58.5t-54.5 89t-19 112.5t21.5 112t57.5 88t84 57.5t101 20.5q48 0 93 -17t79 -50t54.5 -82.5t20.5 -113.5v-44h-415zM315 459
q-69 0 -110.5 -41.5t-53.5 -104.5h317q-1 33 -13.5 60t-32.5 46t-47.5 29.5t-59.5 10.5zM285 584l-122 133h120l76 -133h-74z" />
    <glyph glyph-name="uni0451" unicode="&#x451;" horiz-adv-x="617" 
d="M147 236q4 -37 17.5 -68t35 -53t52 -34.5t67.5 -12.5q52 0 91.5 28.5t56.5 73.5l89 -31q-35 -79 -94.5 -117t-142.5 -38q-61 0 -110 21t-84.5 58.5t-54.5 89t-19 112.5t21.5 112t57.5 88t84 57.5t101 20.5q48 0 93 -17t79 -50t54.5 -82.5t20.5 -113.5v-44h-415zM315 459
q-69 0 -110.5 -41.5t-53.5 -104.5h317q-1 33 -13.5 60t-32.5 46t-47.5 29.5t-59.5 10.5zM350 717h96v-99h-96v99zM186 717h97v-99h-97v99z" />
    <glyph glyph-name="uni0452" unicode="&#x452;" horiz-adv-x="618" 
d="M170 664h152v-72h-152v-146q9 16 26 34t39.5 31.5t49.5 22.5t58 9q96 0 149 -54.5t53 -159.5v-375q0 -83 -38.5 -122t-106.5 -39q-24 0 -39 5v84q8 -3 16 -5t19 -2q25 0 39 15.5t14 49.5v381q0 68 -32.5 103t-94.5 35q-31 0 -58 -12.5t-48 -35.5t-33.5 -56t-12.5 -76
v-279h-96v592h-60v72h60v53h96v-53z" />
    <glyph glyph-name="uni0453" unicode="&#x453;" horiz-adv-x="468" 
d="M424 449h-254v-449h-96v526h350v-77zM176 584l75 133h120l-122 -133h-73z" />
    <glyph glyph-name="uni0454" unicode="&#x454;" horiz-adv-x="604" 
d="M409 221h-259q10 -72 52.5 -112.5t107.5 -40.5q115 0 153 111l88 -34q-31 -80 -89.5 -120.5t-151.5 -40.5q-54 0 -101 19t-82 55t-55.5 88t-20.5 117q0 66 21 117.5t57 87.5t83.5 55.5t101.5 19.5q41 0 79 -11t69.5 -32.5t53.5 -55t32 -79.5l-87 -23q-14 55 -53 86
t-94 31q-66 0 -109.5 -41.5t-54.5 -112.5h259v-84z" />
    <glyph glyph-name="uni0455" unicode="&#x455;" horiz-adv-x="550" 
d="M397 155q0 34 -28.5 52t-102.5 26q-85 10 -134 49t-49 107q0 37 15.5 65t41.5 48t60 30.5t73 10.5q89 0 138 -44t60 -116l-86 -13q-8 45 -39 70t-76 25q-44 0 -72.5 -19t-28.5 -54q0 -14 6 -27.5t21 -24.5t40 -19t62 -12q100 -10 144.5 -48.5t44.5 -106.5
q0 -35 -14.5 -66.5t-40.5 -54.5t-62.5 -36t-80.5 -13q-49 0 -88.5 13.5t-69 39t-47 60t-23.5 76.5l86 16q11 -56 42.5 -89.5t96.5 -33.5q47 0 79 22t32 67z" />
    <glyph glyph-name="uni0456" unicode="&#x456;" horiz-adv-x="243" 
d="M74 526h96v-526h-96v526zM70 717h104v-105h-104v105z" />
    <glyph glyph-name="uni0457" unicode="&#x457;" horiz-adv-x="243" 
d="M74 526h96v-526h-96v526zM157 717h96v-99h-96v99zM-7 717h97v-99h-97v99z" />
    <glyph glyph-name="uni0458" unicode="&#x458;" horiz-adv-x="243" 
d="M70 717h104v-105h-104v105zM170 -46q0 -83 -38.5 -122t-105.5 -39q-24 0 -39 5v84q8 -3 15.5 -5t19.5 -2q25 0 38.5 15.5t13.5 49.5v586h96v-572z" />
    <glyph glyph-name="uni0459" unicode="&#x459;" horiz-adv-x="824" 
d="M138 526h338v-223h128q39 0 70.5 -11.5t53.5 -32t33.5 -49t11.5 -62.5q0 -68 -45.5 -108t-123.5 -40h-224v449h-146v-165q0 -83 -11.5 -139.5t-33 -90.5t-51.5 -48t-67 -14q-20 0 -40 3v85q10 -4 23 -4q22 0 37 10.5t26 35.5t16 66t5 103v235zM476 78h112q39 0 64 17
t25 59t-25 58.5t-64 16.5h-112v-151z" />
    <glyph glyph-name="uni045A" unicode="&#x45a;" horiz-adv-x="834" 
d="M170 305h220v221h96v-221h128q78 0 123.5 -42.5t45.5 -109.5q0 -68 -45.5 -110.5t-123.5 -42.5h-224v227h-220v-227h-96v526h96v-221zM486 78h112q39 0 64 17t25 58t-25 57.5t-64 16.5h-112v-149z" />
    <glyph glyph-name="uni045B" unicode="&#x45b;" horiz-adv-x="618" 
d="M170 664h152v-72h-152v-146q9 16 26 34t39.5 31.5t49.5 22.5t58 9q96 0 149 -54.5t53 -159.5v-329h-96v321q0 68 -32.5 103t-94.5 35q-31 0 -58 -12.5t-48 -35.5t-33.5 -56t-12.5 -76v-279h-96v592h-60v72h60v53h96v-53z" />
    <glyph glyph-name="uni045C" unicode="&#x45c;" horiz-adv-x="508" 
d="M170 526v-208l177 208h118l-209 -237l232 -289h-117l-201 247v-247h-96v526h96zM198 584l75 133h120l-122 -133h-73z" />
    <glyph glyph-name="uni045D" unicode="&#x45d;" horiz-adv-x="593" 
d="M170 134l242 392h108v-526h-96v392l-242 -392h-108v526h96v-392zM297 596q-57 0 -89.5 31t-32.5 90h74q0 -57 48 -58q48 0 48 58h74q0 -58 -32.5 -89.5t-89.5 -31.5z" />
    <glyph glyph-name="uni045E" unicode="&#x45e;" horiz-adv-x="549" 
d="M231 0l-213 526h101l159 -407l157 407h101l-250 -622q-25 -61 -61 -86t-80 -25q-24 0 -45 6t-33 15l23 85q23 -12 51 -13q20 0 38 12.5t31 45.5zM280 596q-57 0 -89.5 31t-32.5 90h74q0 -57 48 -58q48 0 48 58h74q0 -58 -32.5 -89.5t-89.5 -31.5z" />
    <glyph glyph-name="uni045F" unicode="&#x45f;" horiz-adv-x="575" 
d="M170 78h236v448h96v-526h-166v-113h-96v113h-166v526h96v-448z" />
    <glyph glyph-name="uni2000" unicode="&#x2000;" horiz-adv-x="497" 
 />
    <glyph glyph-name="uni2001" unicode="&#x2001;" horiz-adv-x="995" 
 />
    <glyph glyph-name="uni2002" unicode="&#x2002;" horiz-adv-x="497" 
 />
    <glyph glyph-name="uni2003" unicode="&#x2003;" horiz-adv-x="995" 
 />
    <glyph glyph-name="uni2004" unicode="&#x2004;" horiz-adv-x="331" 
 />
    <glyph glyph-name="uni2005" unicode="&#x2005;" horiz-adv-x="248" 
 />
    <glyph glyph-name="uni2006" unicode="&#x2006;" horiz-adv-x="165" 
 />
    <glyph glyph-name="uni2007" unicode="&#x2007;" horiz-adv-x="165" 
 />
    <glyph glyph-name="uni2008" unicode="&#x2008;" horiz-adv-x="124" 
 />
    <glyph glyph-name="uni2009" unicode="&#x2009;" horiz-adv-x="199" 
 />
    <glyph glyph-name="uni200A" unicode="&#x200a;" horiz-adv-x="55" 
 />
    <glyph glyph-name="uni2010" unicode="&#x2010;" horiz-adv-x="385" 
d="M45 336h295v-82h-295v82z" />
    <glyph glyph-name="uni2011" unicode="&#x2011;" horiz-adv-x="385" 
d="M45 336h295v-82h-295v82z" />
    <glyph glyph-name="figuredash" unicode="&#x2012;" horiz-adv-x="385" 
d="M45 336h295v-82h-295v82z" />
    <glyph glyph-name="endash" unicode="&#x2013;" horiz-adv-x="589" 
d="M45 336h500v-82h-500v82z" />
    <glyph glyph-name="emdash" unicode="&#x2014;" horiz-adv-x="835" 
d="M45 336h746v-82h-746v82z" />
    <glyph glyph-name="quoteleft" unicode="&#x2018;" horiz-adv-x="208" 
d="M168 487h-113v113q0 66 31.5 91.5t81.5 25.5v-55q-30 0 -39.5 -16t-9.5 -46h49v-113z" />
    <glyph glyph-name="quoteright" unicode="&#x2019;" horiz-adv-x="208" 
d="M41 717h113v-113q0 -66 -31.5 -91.5t-81.5 -25.5v56q30 0 39.5 15.5t9.5 45.5h-49v113z" />
    <glyph glyph-name="quotesinglbase" unicode="&#x201a;" horiz-adv-x="208" 
d="M55 113h113v-113q0 -66 -31.5 -91.5t-81.5 -25.5v56q30 0 39.5 15.5t9.5 45.5h-49v113z" />
    <glyph glyph-name="quotedblleft" unicode="&#x201c;" horiz-adv-x="364" 
d="M168 487h-113v113q0 66 31.5 91.5t81.5 25.5v-55q-30 0 -39.5 -16t-9.5 -46h49v-113zM324 487h-113v113q0 66 31 91.5t82 25.5v-55q-30 0 -40 -16t-10 -46h50v-113z" />
    <glyph glyph-name="quotedblright" unicode="&#x201d;" horiz-adv-x="364" 
d="M197 717h112v-113q0 -66 -31 -91.5t-81 -25.5v56q30 0 39.5 15.5t9.5 45.5h-49v113zM41 717h113v-113q0 -66 -31.5 -91.5t-81.5 -25.5v56q30 0 39.5 15.5t9.5 45.5h-49v113z" />
    <glyph glyph-name="quotedblbase" unicode="&#x201e;" horiz-adv-x="364" 
d="M211 113h113v-113q0 -66 -31.5 -91.5t-81.5 -25.5v56q30 0 39.5 15.5t9.5 45.5h-49v113zM55 113h113v-113q0 -66 -31.5 -91.5t-81.5 -25.5v56q30 0 39.5 15.5t9.5 45.5h-49v113z" />
    <glyph glyph-name="dagger" unicode="&#x2020;" horiz-adv-x="401" 
d="M23 526h135v191h84v-191h137v-82h-137v-526h-84v526h-135v82z" />
    <glyph glyph-name="daggerdbl" unicode="&#x2021;" horiz-adv-x="401" 
d="M23 526h135v191h84v-191h137v-82h-137v-254h137v-81h-137v-191h-84v191h-135v81h135v254h-135v82z" />
    <glyph glyph-name="bullet" unicode="&#x2022;" horiz-adv-x="348" 
d="M72 358q0 43 29.5 73t72.5 30t72.5 -30t29.5 -73t-29.5 -72.5t-72.5 -29.5t-72.5 29.5t-29.5 72.5z" />
    <glyph glyph-name="ellipsis" unicode="&#x2026;" horiz-adv-x="665" 
d="M489 117h117v-117h-117v117zM274 117h117v-117h-117v117zM59 117h117v-117h-117v117z" />
    <glyph glyph-name="uni202F" unicode="&#x202f;" horiz-adv-x="199" 
 />
    <glyph glyph-name="perthousand" unicode="&#x2030;" horiz-adv-x="1381" 
d="M1155 -16q-83 0 -132.5 54.5t-49.5 151.5t49.5 152t132.5 55t132 -54.5t49 -152.5q0 -97 -49 -151.5t-132 -54.5zM1155 328q-49 0 -76.5 -36.5t-27.5 -101.5t27.5 -101t76.5 -36t77 36.5t28 100.5q0 65 -28 101.5t-77 36.5zM227 319q-83 0 -132.5 55t-49.5 152t49.5 152
t132.5 55t132.5 -54.5t49.5 -152.5q0 -97 -49.5 -152t-132.5 -55zM227 664q-49 0 -76.5 -36.5t-27.5 -101.5t27.5 -101t76.5 -36t77 36.5t28 100.5q0 65 -28 101.5t-77 36.5zM680 717h94l-494 -717h-95zM733 -16q-83 0 -132.5 54.5t-49.5 151.5t49.5 152t132.5 55t132 -54.5
t49 -152.5q0 -97 -49 -151.5t-132 -54.5zM733 328q-49 0 -76.5 -36.5t-27.5 -101.5t27.5 -101t76.5 -36t77 36.5t28 100.5q0 65 -28 101.5t-77 36.5z" />
    <glyph glyph-name="guilsinglleft" unicode="&#x2039;" horiz-adv-x="321" 
d="M284 461l-132 -186l132 -185h-97l-132 185l132 186h97z" />
    <glyph glyph-name="guilsinglright" unicode="&#x203a;" horiz-adv-x="321" 
d="M134 461l132 -186l-132 -185h-96l132 185l-132 186h96z" />
    <glyph glyph-name="fraction" unicode="&#x2044;" horiz-adv-x="615" 
d="M514 717h82l-495 -717h-82z" />
    <glyph glyph-name="uni205F" unicode="&#x205f;" horiz-adv-x="248" 
 />
    <glyph glyph-name="zerosuperior" unicode="&#x2070;" horiz-adv-x="395" 
d="M350 538q0 -90 -40.5 -139t-111.5 -49q-72 0 -112.5 48.5t-40.5 139.5q0 90 40.5 138.5t112.5 48.5t112 -48.5t40 -138.5zM285 538q0 58 -22 94t-65 36t-65 -36t-22 -94t22 -94t65 -36t65 36t22 94z" />
    <glyph glyph-name="foursuperior" unicode="&#x2074;" horiz-adv-x="348" 
d="M31 483l170 234h68v-234h52v-57h-52v-68h-65v68h-173v57zM204 483v135l-101 -135h101z" />
    <glyph glyph-name="fivesuperior" unicode="&#x2075;" horiz-adv-x="331" 
d="M73 717h205v-55h-154l-15 -83q12 11 30.5 17t36.5 6q55 0 88 -33.5t33 -92.5q0 -55 -35 -90.5t-94 -35.5q-29 0 -51 9t-38 23.5t-25.5 33.5t-13.5 40l61 13q4 -23 20 -42t47 -19q30 0 47.5 18t17.5 50t-17.5 50.5t-47.5 18.5q-27 0 -42.5 -12t-26.5 -25l-55 23z" />
    <glyph glyph-name="sixsuperior" unicode="&#x2076;" horiz-adv-x="328" 
d="M36 518q0 52 11.5 91t31 64.5t46 38.5t55.5 13q45 0 73.5 -21t38.5 -60l-58 -18q-5 18 -19 30t-37 12q-30 0 -51 -25.5t-25 -74.5q13 13 33 22.5t44 9.5q25 0 46.5 -8t37.5 -24t25.5 -39.5t9.5 -54.5q0 -57 -36.5 -90.5t-93.5 -33.5q-55 0 -93.5 41.5t-38.5 126.5z
M170 544q-27 0 -46 -20t-19 -50t19 -49t46 -19t46.5 19t19.5 49t-19.5 50t-46.5 20z" />
    <glyph glyph-name="sevensuperior" unicode="&#x2077;" horiz-adv-x="280" 
d="M131 358h-64l118 301h-160v58h228v-49z" />
    <glyph glyph-name="eightsuperior" unicode="&#x2078;" horiz-adv-x="315" 
d="M287 461q0 -28 -10.5 -49t-28.5 -34.5t-41.5 -20.5t-48.5 -7q-27 0 -50 7t-41 20.5t-28 34.5t-10 49q0 35 18 58.5t42 34.5q-17 8 -31.5 27.5t-14.5 46.5q0 24 9 41.5t25 30t37 19t44 6.5t43.5 -6.5t36.5 -19t25 -30.5t9 -41q0 -27 -14 -46.5t-32 -27.5q25 -11 43 -34.5
t18 -58.5zM221 466q0 27 -17 42.5t-46 15.5q-30 0 -47 -15.5t-17 -42.5t17 -42.5t47 -15.5t46.5 15.5t16.5 42.5zM208 625q0 24 -15 35.5t-35 11.5t-35 -12t-15 -35t14.5 -35t35.5 -12q20 0 35 12t15 35z" />
    <glyph glyph-name="ninesuperior" unicode="&#x2079;" horiz-adv-x="328" 
d="M293 557q0 -104 -39.5 -155.5t-99.5 -51.5q-49 0 -78 22t-40 58l58 20q5 -18 19.5 -30t37.5 -12q35 0 54 26.5t24 76.5q-12 -16 -32 -26t-44 -10q-25 0 -47 8.5t-39 24t-26.5 39t-9.5 54.5q0 57 36 90.5t94 33.5q60 0 96 -41t36 -127zM159 531q27 0 45.5 20t18.5 50
t-19 49.5t-45 19.5q-27 0 -46.5 -19.5t-19.5 -49.5t19.5 -50t46.5 -20z" />
    <glyph glyph-name="zeroinferior" unicode="&#x2080;" horiz-adv-x="395" 
d="M350 -10q0 -90 -40.5 -139t-111.5 -49q-72 0 -112.5 48.5t-40.5 139.5q0 90 40.5 138.5t112.5 48.5t112 -48.5t40 -138.5zM285 -10q0 58 -22 94t-65 36t-65 -36t-22 -94t22 -94t65 -36t65 36t22 94z" />
    <glyph glyph-name="oneinferior" unicode="&#x2081;" horiz-adv-x="206" 
d="M33 110l77 59h65v-359h-65v279l-77 -58v79z" />
    <glyph glyph-name="twoinferior" unicode="&#x2082;" horiz-adv-x="318" 
d="M48 -177q0 34 9.5 59t26.5 45t41 36t53 34q28 16 36.5 32t8.5 39q0 18 -14.5 35t-44.5 17q-22 0 -37.5 -13.5t-15.5 -38.5q0 -5 0.5 -10t2.5 -9l-65 -19q-3 8 -4.5 18t-1.5 18q0 22 8 42t23.5 35.5t38 24.5t51.5 9q67 0 96 -31t29 -78q0 -41 -18.5 -69t-62.5 -52
q-30 -16 -53.5 -36t-25.5 -43h167v-58h-248v13z" />
    <glyph glyph-name="threeinferior" unicode="&#x2083;" horiz-adv-x="315" 
d="M93 -74q4 -28 20 -47t49 -19q28 0 45 17.5t17 47.5t-16.5 47t-45.5 17q-10 0 -17.5 -2.5t-13.5 -5.5l-33 48l94 82h-146v58h221v-58l-81 -68q42 -2 72 -32t30 -86q0 -55 -33 -89t-93 -34q-32 0 -55 9t-39 24t-24.5 35.5t-11.5 44.5z" />
    <glyph glyph-name="fourinferior" unicode="&#x2084;" horiz-adv-x="331" 
d="M26 -65l170 234h68v-234h52v-57h-52v-68h-65v68h-173v57zM199 -65v135l-101 -135h101z" />
    <glyph glyph-name="fiveinferior" unicode="&#x2085;" horiz-adv-x="306" 
d="M61 169h205v-55h-154l-15 -83q12 11 30.5 17t36.5 6q55 0 88 -33.5t33 -92.5q0 -55 -35 -90.5t-94 -35.5q-29 0 -51 9t-38 23.5t-25.5 33.5t-13.5 40l61 13q4 -23 20 -42t47 -19q30 0 47.5 18t17.5 50t-17.5 50.5t-47.5 18.5q-27 0 -42.5 -12t-26.5 -25l-55 23z" />
    <glyph glyph-name="sixinferior" unicode="&#x2086;" horiz-adv-x="309" 
d="M27 -30q0 52 11.5 91t31 64.5t46 38.5t55.5 13q45 0 73.5 -21t38.5 -60l-58 -18q-5 18 -19 30t-37 12q-30 0 -51 -25.5t-25 -74.5q13 13 33 22.5t44 9.5q25 0 46.5 -8t37.5 -24t25.5 -39.5t9.5 -54.5q0 -57 -36.5 -90.5t-93.5 -33.5q-55 0 -93.5 41.5t-38.5 126.5z
M161 -4q-27 0 -46 -20t-19 -50t19 -49t46 -19t46.5 19t19.5 49t-19.5 50t-46.5 20z" />
    <glyph glyph-name="seveninferior" unicode="&#x2087;" horiz-adv-x="260" 
d="M120 -190h-64l118 301h-160v58h228v-49z" />
    <glyph glyph-name="eightinferior" unicode="&#x2088;" horiz-adv-x="309" 
d="M285 -87q0 -28 -10.5 -49t-28.5 -34.5t-41.5 -20.5t-48.5 -7q-27 0 -50 7t-41 20.5t-28 34.5t-10 49q0 35 18 58.5t42 34.5q-17 8 -31.5 27.5t-14.5 46.5q0 24 9 41.5t25 30t37 19t44 6.5t43.5 -6.5t36.5 -19t25 -30.5t9 -41q0 -27 -14 -46.5t-32 -27.5q25 -11 43 -34.5
t18 -58.5zM219 -82q0 27 -17 42.5t-46 15.5q-30 0 -47 -15.5t-17 -42.5t17 -42.5t47 -15.5t46.5 15.5t16.5 42.5zM206 77q0 24 -15 35.5t-35 11.5t-35 -12t-15 -35t14.5 -35t35.5 -12q20 0 35 12t15 35z" />
    <glyph glyph-name="nineinferior" unicode="&#x2089;" horiz-adv-x="318" 
d="M291 9q0 -104 -39.5 -155.5t-99.5 -51.5q-49 0 -78 22t-40 58l58 20q5 -18 19.5 -30t37.5 -12q35 0 54 26.5t24 76.5q-12 -16 -32 -26t-44 -10q-25 0 -47 8.5t-39 24t-26.5 39t-9.5 54.5q0 57 36 90.5t94 33.5q60 0 96 -41t36 -127zM157 -17q27 0 45.5 20t18.5 50
t-19 49.5t-45 19.5q-27 0 -46.5 -19.5t-19.5 -49.5t19.5 -50t46.5 -20z" />
    <glyph glyph-name="Euro" unicode="&#x20ac;" horiz-adv-x="737" 
d="M53 475h59q15 65 47 113.5t74 80.5t91.5 48t99.5 16q186 0 271 -175l-78 -47q-34 70 -85 103t-108 33q-34 0 -66 -9.5t-60 -30.5t-49.5 -54t-33.5 -78h256l-39 -82h-230q-1 -8 -1 -16.5v-18.5v-17.5t1 -16.5h269l-39 -82h-217q12 -46 33.5 -78.5t49.5 -53.5t60 -30.5
t66 -9.5q55 0 109 34t91 114l76 -42q-22 -49 -52.5 -85.5t-66 -60t-76 -35t-81.5 -11.5q-52 0 -102.5 15.5t-92 48t-72.5 80.5t-46 114h-97l39 82h46q-1 8 -1 16.5v17.5v17.5t1 17.5h-85z" />
    <glyph glyph-name="trademark" unicode="&#x2122;" horiz-adv-x="436" 
d="M218 717h23l66 -172l67 172h22v-191h-19v149l-58 -149h-24l-57 149v-149h-20v191zM41 717h146v-18h-63v-173h-20v173h-63v18z" />
    <glyph glyph-name="Omega" unicode="&#x2126;" horiz-adv-x="786" 
d="M393 645q-44 0 -85.5 -15t-73.5 -45.5t-52 -77.5t-20 -113q0 -46 13.5 -91t38 -85t55.5 -73.5t67 -56.5v-88h-252v88h132q-39 29 -69 66t-50.5 78t-31 84.5t-10.5 85.5q0 80 26.5 141.5t71.5 104t107 64t133 21.5q72 0 134 -21.5t107 -64t71 -104t26 -141.5
q0 -42 -10 -85.5t-30.5 -84.5t-51 -78t-69.5 -66h132v-88h-251v88q35 23 66.5 56.5t55.5 73.5t38 85t14 91q0 66 -20 113t-52.5 77.5t-74 45.5t-85.5 15z" />
    <glyph glyph-name="onethird" unicode="&#x2153;" horiz-adv-x="773" 
d="M519 117q4 -28 20 -47t49 -19q28 0 45 17.5t17 47.5t-16.5 47t-45.5 17q-10 0 -17.5 -2.5t-13.5 -5.5l-33 48l94 82h-146v58h221v-58l-81 -68q42 -2 72 -32t30 -86q0 -55 -33 -89t-93 -34q-32 0 -55 9t-39 24t-24.5 35.5t-11.5 44.5zM46 658l77 59h65v-359h-65v279
l-77 -58v79zM559 717h82l-495 -717h-82z" />
    <glyph glyph-name="twothirds" unicode="&#x2154;" horiz-adv-x="861" 
d="M67 371q0 34 9.5 59t26.5 45t41 36t53 34q28 16 36.5 32t8.5 39q0 18 -14.5 35t-44.5 17q-22 0 -37.5 -13.5t-15.5 -38.5q0 -5 0.5 -10t2.5 -9l-65 -19q-3 8 -4.5 18t-1.5 18q0 22 8 42t23.5 35.5t38 24.5t51.5 9q67 0 96 -31t29 -78q0 -41 -18.5 -69t-62.5 -52
q-30 -16 -53.5 -36t-25.5 -43h167v-58h-248v13zM647 717h82l-495 -717h-82zM607 117q4 -28 20 -47t49 -19q28 0 45 17.5t17 47.5t-16.5 47t-45.5 17q-10 0 -17.5 -2.5t-13.5 -5.5l-33 48l94 82h-146v58h221v-58l-81 -68q42 -2 72 -32t30 -86q0 -55 -33 -89t-93 -34
q-32 0 -55 9t-39 24t-24.5 35.5t-11.5 44.5z" />
    <glyph glyph-name="oneeighth" unicode="&#x215b;" horiz-adv-x="763" 
d="M559 717h82l-495 -717h-81zM46 658l77 59h65v-359h-65v279l-77 -58v79zM707 102q0 -28 -10.5 -48.5t-28.5 -34.5t-41.5 -20.5t-48.5 -6.5q-27 0 -50 6.5t-41 20.5t-28 35t-10 48q0 35 17.5 58.5t42.5 35.5q-17 8 -31.5 27.5t-14.5 45.5q0 24 9 42t25 30t37 19t44 7
t43.5 -7t36.5 -19t25 -30t9 -42q0 -27 -14 -46t-32 -27q25 -11 43 -35t18 -59zM641 108q0 27 -17 42.5t-46 15.5q-30 0 -47 -16t-17 -42q0 -27 17 -43t47 -16t46.5 16t16.5 43zM628 266q0 24 -15 35.5t-35 11.5t-35.5 -11.5t-15.5 -35.5q0 -23 15 -35t36 -12q20 0 35 12
t15 35z" />
    <glyph glyph-name="threeeighths" unicode="&#x215c;" horiz-adv-x="821" 
d="M764 104q0 -28 -10.5 -49t-28.5 -34.5t-41.5 -20.5t-48.5 -7q-27 0 -50 7t-41 20.5t-28 34.5t-10 49q0 35 18 58.5t42 34.5q-17 8 -31.5 27.5t-14.5 46.5q0 24 9 41.5t25 30t37 19t44 6.5t43.5 -6.5t36.5 -19t25 -30.5t9 -41q0 -27 -14 -46.5t-32 -27.5q25 -11 43 -34.5
t18 -58.5zM698 109q0 27 -17 42.5t-46 15.5q-30 0 -47 -15.5t-17 -42.5t17 -42.5t47 -15.5t46.5 15.5t16.5 42.5zM685 268q0 24 -15 35.5t-35 11.5t-35 -12t-15 -35t14.5 -35t35.5 -12q20 0 35 12t15 35zM112 474q4 -28 20 -47t49 -19q28 0 45 17.5t17 47.5t-16.5 47
t-45.5 17q-10 0 -17.5 -2.5t-13.5 -5.5l-33 48l94 82h-146v58h221v-58l-81 -68q42 -2 72 -32t30 -86q0 -55 -33 -89t-93 -34q-32 0 -55 9t-39 24t-24.5 35.5t-11.5 44.5zM616 717h82l-495 -717h-82z" />
    <glyph glyph-name="fiveeighths" unicode="&#x215d;" horiz-adv-x="828" 
d="M771 104q0 -28 -10.5 -49t-28.5 -34.5t-41.5 -20.5t-48.5 -7q-27 0 -50 7t-41 20.5t-28 34.5t-10 49q0 35 18 58.5t42 34.5q-17 8 -31.5 27.5t-14.5 46.5q0 24 9 41.5t25 30t37 19t44 6.5t43.5 -6.5t36.5 -19t25 -30.5t9 -41q0 -27 -14 -46.5t-32 -27.5q25 -11 43 -34.5
t18 -58.5zM705 109q0 27 -17 42.5t-46 15.5q-30 0 -47 -15.5t-17 -42.5t17 -42.5t47 -15.5t46.5 15.5t16.5 42.5zM692 268q0 24 -15 35.5t-35 11.5t-35 -12t-15 -35t14.5 -35t35.5 -12q20 0 35 12t15 35zM87 717h205v-55h-154l-15 -83q12 11 30.5 17t36.5 6q55 0 88 -33.5
t33 -92.5q0 -55 -35 -90.5t-94 -35.5q-29 0 -51 9t-38 23.5t-25.5 33.5t-13.5 40l61 13q4 -23 20 -42t47 -19q30 0 47.5 18t17.5 50t-17.5 50.5t-47.5 18.5q-27 0 -42.5 -12t-26.5 -25l-55 23zM624 717h82l-495 -717h-82z" />
    <glyph glyph-name="seveneighths" unicode="&#x215e;" horiz-adv-x="754" 
d="M698 104q0 -28 -10.5 -49t-28.5 -34.5t-41.5 -20.5t-48.5 -7q-27 0 -50 7t-41 20.5t-28 34.5t-10 49q0 35 18 58.5t42 34.5q-17 8 -31.5 27.5t-14.5 46.5q0 24 9 41.5t25 30t37 19t44 6.5t43.5 -6.5t36.5 -19t25 -30.5t9 -41q0 -27 -14 -46.5t-32 -27.5q25 -11 43 -34.5
t18 -58.5zM632 109q0 27 -17 42.5t-46 15.5q-30 0 -47 -15.5t-17 -42.5t17 -42.5t47 -15.5t46.5 15.5t16.5 42.5zM619 268q0 24 -15 35.5t-35 11.5t-35 -12t-15 -35t14.5 -35t35.5 -12q20 0 35 12t15 35zM161 358h-64l118 301h-160v58h228v-49zM550 717h82l-495 -717h-82z
" />
    <glyph glyph-name="partialdiff" unicode="&#x2202;" horiz-adv-x="642" 
d="M286 -16q-46 0 -88.5 16t-75 46.5t-52 73t-19.5 95.5q0 58 19 107.5t54 85t84 55.5t108 20q70 0 115.5 -30t67.5 -73q-3 67 -16.5 117t-35.5 83.5t-51.5 51t-63.5 17.5q-48 0 -85.5 -24.5t-59.5 -79.5l-79 29q27 79 88 119t144 40q55 0 101 -21.5t79.5 -67t52 -115
t18.5 -165.5q0 -80 -21 -149.5t-61 -120.5t-96 -80.5t-127 -29.5zM324 397q-38 0 -70 -14t-55 -39t-35.5 -57.5t-12.5 -69.5q0 -36 12 -63.5t33 -47t48 -29t57 -9.5q34 0 63 13t51 37t35 57t13 72q0 35 -11 63t-29.5 47.5t-43.5 29.5t-55 10z" />
    <glyph glyph-name="Delta" unicode="&#x2206;" horiz-adv-x="706" 
d="M299 717h109l288 -717h-686zM150 88h406l-203 520z" />
    <glyph glyph-name="product" unicode="&#x220f;" horiz-adv-x="659" 
d="M84 717h491v-717h-102v629h-287v-629h-102v717z" />
    <glyph glyph-name="summation" unicode="&#x2211;" horiz-adv-x="598" 
d="M367 312l-209 -328h406v-88h-526v75l216 341l-207 329v76h503v-88h-380z" />
    <glyph glyph-name="minus" unicode="&#x2212;" horiz-adv-x="569" 
d="M45 352h479v-82h-479v82z" />
    <glyph glyph-name="radical" unicode="&#x221a;" horiz-adv-x="611" 
d="M45 358h168l82 -233l210 592h96l-257 -717h-96l-101 276h-102v82z" />
    <glyph glyph-name="infinity" unicode="&#x221e;" horiz-adv-x="821" 
d="M237 521q57 0 104 -28t70 -79q23 51 69.5 79t104.5 28q42 0 77.5 -13.5t62 -39.5t41 -61.5t14.5 -78.5t-14.5 -79t-41 -61.5t-62 -39.5t-77.5 -14q-57 0 -104.5 28t-69.5 80q-23 -51 -70 -79.5t-104 -28.5q-42 0 -78 14t-62 39.5t-41 61.5t-15 79t15 78.5t41 61.5
t62 39.5t78 13.5zM582 439q-46 0 -76.5 -30.5t-50.5 -80.5q20 -50 50.5 -81t76.5 -31t77 30t31 82q0 51 -31 81t-77 30zM240 439q-46 0 -77.5 -30t-31.5 -81t31.5 -81.5t77.5 -30.5t76 31t51 81q-20 50 -50.5 80.5t-76.5 30.5z" />
    <glyph glyph-name="integral" unicode="&#x222b;" horiz-adv-x="344" 
d="M115 572q0 81 41.5 121t108.5 40q17 0 29.5 -1.5t23.5 -3.5v-86q-8 4 -20.5 6.5t-25.5 2.5q-25 0 -43 -15.5t-18 -50.5v-631q0 -81 -36 -121t-103 -40q-14 0 -25.5 1.5t-20.5 3.5v86q8 -4 17 -6.5t22 -2.5q24 0 37 16t13 51v630z" />
    <glyph glyph-name="approxequal" unicode="&#x2248;" horiz-adv-x="449" 
d="M45 202q0 56 29.5 92.5t82.5 36.5q27 0 43.5 -8t30.5 -16.5t27 -16t32 -7.5q17 0 28 14t11 34h75q0 -56 -30 -92.5t-81 -36.5q-27 0 -44.5 7.5t-31 16t-27 16.5t-31.5 8q-17 0 -27.5 -14.5t-10.5 -33.5h-76zM45 371q0 56 29.5 92.5t82.5 36.5q27 0 43.5 -8t30.5 -16.5
t27 -16t32 -7.5q17 0 28 14t11 34h75q0 -56 -30 -92.5t-81 -36.5q-27 0 -44.5 7.5t-31 16t-27 16.5t-31.5 8q-17 0 -27.5 -14.5t-10.5 -33.5h-76z" />
    <glyph glyph-name="notequal" unicode="&#x2260;" horiz-adv-x="569" 
d="M45 455h271l99 170l71 -41l-74 -129h112v-82h-159l-65 -113h224v-82h-271l-98 -170l-72 41l74 129h-112v82h159l65 113h-224v82z" />
    <glyph glyph-name="lessequal" unicode="&#x2264;" horiz-adv-x="569" 
d="M45 83h479v-82h-479v82zM75 459l421 209v-88l-328 -162l328 -162v-88l-421 209v82z" />
    <glyph glyph-name="greaterequal" unicode="&#x2265;" horiz-adv-x="569" 
d="M45 83h479v-82h-479v82zM495 377l-421 -209v88l328 162l-328 162v88l421 -209v-82z" />
    <glyph glyph-name="lozenge" unicode="&#x25ca;" horiz-adv-x="657" 
d="M43 358l231 359h109l231 -359l-231 -358h-109zM508 358l-179 275l-179 -275l179 -274z" />
    <glyph glyph-name="uni25FC" unicode="&#x25fc;" horiz-adv-x="527" 
d="M0 527h527v-527h-527v527z" />
    <glyph glyph-name="zero.tn" horiz-adv-x="616" 
d="M581 358q0 -90 -19.5 -160t-55 -117.5t-86 -72t-112.5 -24.5q-61 0 -112 24.5t-86 72t-54.5 117.5t-19.5 160t19.5 160.5t54.5 118t86 72t112 24.5t112 -24.5t86.5 -72t55 -118t19.5 -160.5zM478 358q0 144 -44 216.5t-126 72.5t-126 -72t-44 -217q0 -144 44 -216
t126 -72t126 72t44 216z" />
    <glyph glyph-name="one.tn" horiz-adv-x="616" 
d="M135 84h146v522l-146 -112v110l146 113h98v-633h145v-84h-389v84z" />
    <glyph glyph-name="two.tn" horiz-adv-x="616" 
d="M75 26q0 56 16.5 103t49 86.5t79 74t106.5 64.5q35 18 57.5 36t36.5 37t19.5 41t5.5 50q0 57 -39 94t-105 37q-28 0 -53 -8.5t-44 -25t-29.5 -39t-10.5 -50.5q0 -9 1.5 -18t3.5 -20l-89 -33q-12 34 -13 67q0 42 16.5 80.5t47 67.5t73.5 46t97 17q58 0 103.5 -16t76.5 -44
t47 -66.5t16 -82.5q0 -38 -9 -70.5t-29.5 -62t-54 -57t-84.5 -53.5q-89 -48 -133.5 -93t-47.5 -104h372v-84h-483v26z" />
    <glyph glyph-name="three.tn" horiz-adv-x="616" 
d="M136 230q4 -35 16.5 -64.5t33.5 -51.5t50.5 -34t68.5 -12q32 0 59.5 9.5t48.5 29.5t33 48.5t12 67.5q0 37 -12 65.5t-32.5 48.5t-49 31t-62.5 11q-20 0 -40.5 -5t-30.5 -10l-51 68l217 201h-321v84h438v-84l-179 -168q43 -2 83 -18t70.5 -46t49 -73.5t18.5 -100.5
q0 -51 -17 -95.5t-49.5 -77t-80 -51.5t-106.5 -19t-104.5 18t-78 49t-51.5 71.5t-26 84.5z" />
    <glyph glyph-name="four.tn" horiz-adv-x="616" 
d="M35 238l325 479h106v-479h104v-84h-104v-154h-98v154h-333v84zM368 238v333l-227 -333h227z" />
    <glyph glyph-name="five.tn" horiz-adv-x="616" 
d="M119 717h400v-84h-323l-35 -204q29 26 68.5 42.5t91.5 16.5q55 0 99 -18.5t74.5 -52.5t47 -80t16.5 -100t-18.5 -101t-52 -80.5t-81 -52.5t-103.5 -19q-60 0 -104.5 17.5t-76 47.5t-50 68t-25.5 79l93 23q5 -32 17.5 -59.5t32.5 -48t48 -32t65 -11.5q75 0 116 46t41 123
t-41 123.5t-116 46.5q-32 0 -57.5 -8.5t-46 -21.5t-36 -29.5t-27.5 -33.5l-74 33z" />
    <glyph glyph-name="six.tn" horiz-adv-x="616" 
d="M42 321q0 104 24 181.5t64.5 128.5t93 76.5t108.5 25.5q83 0 139.5 -41.5t75.5 -122.5l-82 -24q-16 55 -51.5 79.5t-85.5 24.5q-36 0 -67.5 -17.5t-57.5 -51.5t-42.5 -84t-21.5 -114q13 22 33 40t45 32t54 21.5t60 7.5q48 0 91 -16t75.5 -48t51 -78.5t18.5 -108.5
q0 -54 -19 -99.5t-53.5 -79t-82 -51.5t-103.5 -18q-55 0 -104 20.5t-85.5 62.5t-57 105t-20.5 149zM313 397q-33 0 -61 -11.5t-49 -33t-33.5 -52.5t-12.5 -69t12.5 -68t33.5 -51.5t49 -32.5t61 -11q32 0 60.5 11t49.5 32.5t33 52.5t12 68q0 38 -12 69t-33 52.5t-49.5 32.5
t-60.5 11z" />
    <glyph glyph-name="seven.tn" horiz-adv-x="616" 
d="M299 0h-97l229 633h-348v84h453v-68z" />
    <glyph glyph-name="eight.tn" horiz-adv-x="616" 
d="M560 204q0 -55 -19.5 -96t-53.5 -69t-80.5 -41.5t-98.5 -13.5t-98 13.5t-80.5 41.5t-54 68.5t-19.5 96.5q0 35 10.5 65t28 53.5t40 40.5t45.5 27q-17 9 -34 23.5t-30.5 34t-21.5 42.5t-8 50q0 47 17.5 82.5t47.5 60.5t70.5 37.5t86.5 12.5t86.5 -12.5t71 -37.5
t47.5 -60.5t17 -82.5q0 -27 -8 -50t-21.5 -42.5t-30 -34t-34.5 -23.5q24 -10 46.5 -27t40 -40.5t27.5 -53.5t10 -65zM458 206q0 61 -39.5 98.5t-110.5 37.5t-110 -37.5t-39 -98.5t39.5 -98.5t109.5 -37.5q71 0 110.5 37.5t39.5 98.5zM434 540q0 52 -34 81.5t-92 29.5
q-57 0 -91.5 -29.5t-34.5 -81.5t34.5 -82t91.5 -30t91.5 30t34.5 82z" />
    <glyph glyph-name="nine.tn" horiz-adv-x="616" 
d="M570 396q0 -104 -23 -181.5t-62.5 -128.5t-92 -76.5t-111.5 -25.5q-83 0 -139 41.5t-76 121.5l81 25q16 -53 51.5 -78.5t86.5 -25.5q41 0 74.5 18t57.5 53t38.5 84.5t18.5 112.5q-29 -46 -76 -74.5t-114 -28.5q-45 0 -88 16.5t-76.5 48.5t-53.5 78.5t-20 107.5
q0 54 19 100t53.5 79t81.5 51.5t104 18.5q58 0 107 -20.5t84 -62.5t55 -105t20 -149zM300 319q32 0 60.5 12t49.5 33.5t33.5 52t12.5 68.5t-12.5 68.5t-33.5 52t-49.5 32.5t-60.5 11q-33 0 -61 -11t-49 -32.5t-33.5 -52.5t-12.5 -69t12.5 -68.5t33.5 -52t49 -33t61 -11.5z
" />
    <glyph glyph-name="zero.slash" horiz-adv-x="651" 
d="M598 358q0 -90 -19.5 -160t-55 -117.5t-86 -72t-111.5 -24.5t-112 24.5t-86.5 72t-55 117.5t-19.5 160t19.5 160.5t55 118t86 72t112.5 24.5q61 0 111.5 -24.5t86 -72t55 -118t19.5 -160.5zM496 358q0 55 -7 99t-19 79l-230 -440q36 -27 86 -26q82 0 126 72t44 216z
M156 358q0 -111 25 -177l229 440q-36 27 -84 26q-82 0 -126 -72.5t-44 -216.5z" />
    <glyph glyph-name="zero.tn.slash" horiz-adv-x="616" 
d="M581 358q0 -90 -19.5 -160t-55 -117.5t-86 -72t-112.5 -24.5q-61 0 -112 24.5t-86 72t-54.5 117.5t-19.5 160t19.5 160.5t54.5 118t86 72t112 24.5t112 -24.5t86.5 -72t55 -118t19.5 -160.5zM478 358q0 55 -6.5 99t-18.5 79l-231 -440q36 -27 86 -26q82 0 126 72t44 216z
M138 358q0 -111 26 -177l228 440q-36 27 -84 26q-82 0 -126 -72.5t-44 -216.5z" />
    </font>
</defs>
</svg>
