<?xml version="1.0" encoding="utf-8"?>
<!-- Generator: Adobe Illustrator 19.1.1, SVG Export Plug-In . SVG Version: 6.00 Build 0)  -->
<svg version="1.1" id="Layer_1" xmlns="http://www.w3.org/2000/svg" xmlns:xlink="http://www.w3.org/1999/xlink" x="0px" y="0px"
	 viewBox="0 0 272.1 70.9" style="enable-background:new 0 0 272.1 70.9;" xml:space="preserve">
<style type="text/css">
	.st0{fill:#6D6E71;}
	.st1{clip-path:url(#SVGID_2_);}
	.st2{fill:#067370;}
	.st3{clip-path:url(#SVGID_4_);}
	.st4{fill:#E4812C;}
	.st5{fill:#F9A539;}
	.st6{fill:#FAAE49;}
	.st7{fill:#F9A957;}
	.st8{fill:#F58C4B;}
	.st9{fill:#F48337;}
	.st10{fill:#F58936;}
	.st11{fill:#F68C28;}
	.st12{fill:#F5861F;}
	.st13{fill:#F58B1F;}
	.st14{fill:#EA6424;}
	.st15{fill:#D84926;}
	.st16{fill:#EEA83C;}
	.st17{fill:#F9B63B;}
	.st18{fill:#FFCC56;}
	.st19{fill:#FBB75C;}
	.st20{fill:#F89E54;}
	.st21{fill:#F58C3A;}
	.st22{fill:#EDA13F;}
	.st23{fill:#FAAE39;}
	.st24{fill:#F8BE24;}
	.st25{fill:#F9A21B;}
	.st26{fill:#F9A51A;}
	.st27{fill:#EC7D23;}
	.st28{fill:#E5A353;}
	.st29{fill:#EAC26E;}
	.st30{fill:#FBD36F;}
	.st31{fill:#FFCB73;}
	.st32{fill:#FCBA63;}
	.st33{fill:#BF7A44;}
	.st34{fill:#B36E30;}
	.st35{fill:#D78331;}
	.st36{fill:#F8BD46;}
	.st37{fill:#F8C15C;}
	.st38{fill:#F6B342;}
	.st39{fill:#EB9B45;}
	.st40{fill:#A0C186;}
	.st41{fill:#D0CC85;}
	.st42{fill:#C9CA84;}
	.st43{fill:#EFD07F;}
	.st44{fill:#E0A969;}
	.st45{fill:#A45A3A;}
	.st46{fill:#A44A32;}
	.st47{fill:#E08045;}
	.st48{fill:#E78052;}
	.st49{fill:#E69152;}
	.st50{fill:#D16C4E;}
	.st51{fill:#D67E49;}
	.st52{fill:#6BB480;}
	.st53{fill:#60B285;}
	.st54{fill:#AABC85;}
	.st55{fill:#BEB880;}
	.st56{fill:#E1AE6E;}
	.st57{fill:#E69B5E;}
	.st58{fill:#E18850;}
	.st59{fill:#F19F48;}
	.st60{fill:#E57D4F;}
	.st61{fill:#C14C48;}
	.st62{fill:#B73941;}
	.st63{fill:#9D2839;}
	.st64{fill:#0C8F85;}
	.st65{fill:#419E88;}
	.st66{fill:#75AB88;}
	.st67{fill:#A6B786;}
	.st68{fill:#C7CA85;}
	.st69{fill:#E6BC73;}
	.st70{fill:#F4C476;}
	.st71{fill:#EDA257;}
	.st72{fill:#C86C4D;}
	.st73{fill:#B15044;}
	.st74{fill:#963437;}
	.st75{fill:#8A1B33;}
	.st76{fill:#02717B;}
	.st77{fill:#067E7F;}
	.st78{fill:#69A387;}
	.st79{fill:#8CB285;}
	.st80{fill:#BDC480;}
	.st81{fill:#D6B766;}
	.st82{fill:#EDB667;}
	.st83{fill:#D58450;}
	.st84{fill:#C16448;}
	.st85{fill:#9A4741;}
	.st86{fill:#83373D;}
	.st87{fill:#7B1F2D;}
	.st88{opacity:0.48;}
	.st89{opacity:0.26;}
</style>
<g>
	<g>
		<path class="st0" d="M36.6,67.6c-5.8,0-10.9-0.8-15.2-2.5s-8-3.9-10.9-6.8C7.5,55.5,5.4,52.1,4,48.2C2.6,44.3,1.9,40,1.9,35.5
			c0-4.6,0.7-8.8,2.1-12.7c1.4-3.9,3.6-7.3,6.5-10.2c2.9-2.9,6.5-5.1,10.9-6.8s9.4-2.5,15.2-2.5c5.8,0,10.9,0.8,15.2,2.5
			c4.4,1.7,8,4,10.9,6.8c2.9,2.9,5.1,6.3,6.5,10.2c1.4,3.9,2.1,8.1,2.1,12.7c0,4.6-0.7,8.8-2.1,12.7c-1.4,3.9-3.6,7.3-6.5,10.2
			c-2.9,2.9-6.5,5.1-10.9,6.8C47.5,66.8,42.4,67.6,36.6,67.6z M36.6,58.1c6.7,0,11.6-2,14.8-6c3.2-4,4.8-9.5,4.8-16.6
			c0-7.1-1.6-12.6-4.8-16.6c-3.2-4-8.1-5.9-14.8-5.9S25,15,21.8,18.9c-3.1,4-4.7,9.5-4.7,16.6c0,7.1,1.6,12.7,4.7,16.6
			C25,56.1,29.9,58.1,36.6,58.1z"/>
	</g>
	<g>
		<path class="st0" d="M75,67.1c-3.5,0.3-5.3,0.5-8.5,0.5c-3.1,0-6.3-0.2-9.5-0.5L38.3,42.3l17.4,0.1L75,67.1z"/>
	</g>
	<g>
		<defs>
			<path id="SVGID_1_" d="M250.4,4.5h17.1l-22.8,30.2l25.6,32.3h-17.3l-23.2-32.4l-10.1,12.7l7.1,10l-6.2,9.6h-13.2l12.3-19.6
				l10.1-12.7L208.4,4.5h14.4l3.2,3.8l-7.1,11.1l10.8,15.3L250.4,4.5z"/>
		</defs>
		<clipPath id="SVGID_2_">
			<use xlink:href="#SVGID_1_"  style="overflow:visible;"/>
		</clipPath>
		<g class="st1">
			<path class="st2" d="M455.2-59.1L96.9,26.1l28.4,85.9l358.3-85.2L455.2-59.1z M222.7,34.2c-9,0-9-14,0-14
				C231.7,20.2,231.7,34.2,222.7,34.2z"/>
			<g>
				<defs>
					<polygon id="SVGID_3_" points="483.7,26.8 125.4,111.9 96.9,26.1 455.2,-59.1 					"/>
				</defs>
				<clipPath id="SVGID_4_">
					<use xlink:href="#SVGID_3_"  style="overflow:visible;"/>
				</clipPath>
				<g class="st3">
					<g>
						<polygon class="st4" points="162.9,-95.8 176.5,-133.8 211.4,-107.4 						"/>
						<polygon class="st5" points="225.1,-145.3 211.4,-107.4 176.5,-133.8 						"/>
						<polygon class="st6" points="211.4,-107.4 225.1,-145.3 260,-118.9 						"/>
						<polygon class="st7" points="273.7,-156.8 260,-118.9 225.1,-145.3 						"/>
						<polygon class="st8" points="260,-118.9 273.7,-156.8 308.6,-130.5 						"/>
						<polygon class="st9" points="322.2,-168.4 308.6,-130.5 273.7,-156.8 						"/>
						<polygon class="st10" points="308.6,-130.5 322.2,-168.4 357.2,-142 						"/>
						<polygon class="st11" points="370.8,-179.9 357.2,-142 322.2,-168.4 						"/>
						<polygon class="st12" points="357.2,-142 370.8,-179.9 405.8,-153.6 						"/>
						<polygon class="st13" points="419.4,-191.5 405.8,-153.6 370.8,-179.9 						"/>
						<polygon class="st14" points="405.8,-153.6 419.4,-191.5 454.3,-165.1 						"/>
						<polygon class="st15" points="468,-203 454.3,-165.1 419.4,-191.5 						"/>
						<polygon class="st16" points="211.4,-107.4 197.8,-69.5 162.9,-95.8 						"/>
						<polygon class="st17" points="197.8,-69.5 211.4,-107.4 246.4,-81 						"/>
						<polygon class="st18" points="260,-118.9 246.4,-81 211.4,-107.4 						"/>
						<polygon class="st19" points="246.4,-81 260,-118.9 295,-92.6 						"/>
						<polygon class="st20" points="308.6,-130.5 295,-92.6 260,-118.9 						"/>
						<polygon class="st21" points="295,-92.6 308.6,-130.5 343.5,-104.1 						"/>
						<polygon class="st22" points="357.2,-142 343.5,-104.1 308.6,-130.5 						"/>
						<polygon class="st23" points="343.5,-104.1 357.2,-142 392.1,-115.7 						"/>
						<polygon class="st24" points="405.8,-153.6 392.1,-115.7 357.2,-142 						"/>
						<polygon class="st25" points="392.1,-115.7 405.8,-153.6 440.7,-127.2 						"/>
						<polygon class="st26" points="454.3,-165.1 440.7,-127.2 405.8,-153.6 						"/>
						<polygon class="st27" points="440.7,-127.2 454.3,-165.1 489.3,-138.8 						"/>
						<polygon class="st28" points="184.1,-31.6 197.8,-69.5 232.7,-43.1 						"/>
						<polygon class="st29" points="246.4,-81 232.7,-43.1 197.8,-69.5 						"/>
						<polygon class="st30" points="232.7,-43.1 246.4,-81 281.3,-54.7 						"/>
						<polygon class="st31" points="295,-92.6 281.3,-54.7 246.4,-81 						"/>
						<polygon class="st32" points="281.3,-54.7 295,-92.6 329.9,-66.2 						"/>
						<polygon class="st33" points="343.5,-104.1 329.9,-66.2 295,-92.6 						"/>
						<polygon class="st34" points="329.9,-66.2 343.5,-104.1 378.5,-77.8 						"/>
						<polygon class="st35" points="392.1,-115.7 378.5,-77.8 343.5,-104.1 						"/>
						<polygon class="st36" points="378.5,-77.8 392.1,-115.7 427,-89.3 						"/>
						<polygon class="st37" points="440.7,-127.2 427,-89.3 392.1,-115.7 						"/>
						<polygon class="st38" points="427,-89.3 440.7,-127.2 475.6,-100.9 						"/>
						<polygon class="st39" points="489.3,-138.8 475.6,-100.9 440.7,-127.2 						"/>
						<polygon class="st40" points="232.7,-43.1 219.1,-5.2 184.1,-31.6 						"/>
						<polygon class="st41" points="219.1,-5.2 232.7,-43.1 267.7,-16.8 						"/>
						<polygon class="st42" points="281.3,-54.7 267.7,-16.8 232.7,-43.1 						"/>
						<polygon class="st43" points="267.7,-16.8 281.3,-54.7 316.2,-28.3 						"/>
						<polygon class="st44" points="329.9,-66.2 316.2,-28.3 281.3,-54.7 						"/>
						<polygon class="st45" points="316.2,-28.3 329.9,-66.2 364.8,-39.9 						"/>
						<polygon class="st46" points="378.5,-77.8 364.8,-39.9 329.9,-66.2 						"/>
						<polygon class="st47" points="364.8,-39.9 378.5,-77.8 413.4,-51.4 						"/>
						<polygon class="st48" points="427,-89.3 413.4,-51.4 378.5,-77.8 						"/>
						<polygon class="st49" points="413.4,-51.4 427,-89.3 462,-63 						"/>
						<polygon class="st50" points="475.6,-100.9 462,-63 427,-89.3 						"/>
						<polygon class="st51" points="462,-63 475.6,-100.9 510.6,-74.5 						"/>
						<path class="st52" d="M222.7,20.2c4.4,0,6.7,3.3,6.8,6.8l24.6-5.8L219.1-5.2l-13.6,37.9l11-2.6
							C214.8,25.9,216.9,20.2,222.7,20.2z"/>
						<polygon class="st53" points="267.7,-16.8 254,21.1 219.1,-5.2 						"/>
						<polygon class="st54" points="254,21.1 267.7,-16.8 302.6,9.6 						"/>
						<polygon class="st55" points="316.2,-28.3 302.6,9.6 267.7,-16.8 						"/>
						<polygon class="st56" points="302.6,9.6 316.2,-28.3 351.2,-2 						"/>
						<polygon class="st57" points="364.8,-39.9 351.2,-2 316.2,-28.3 						"/>
						<polygon class="st58" points="351.2,-2 364.8,-39.9 399.8,-13.5 						"/>
						<polygon class="st59" points="413.4,-51.4 399.8,-13.5 364.8,-39.9 						"/>
						<polygon class="st60" points="399.8,-13.5 413.4,-51.4 448.3,-25.1 						"/>
						<polygon class="st61" points="462,-63 448.3,-25.1 413.4,-51.4 						"/>
						<polygon class="st62" points="448.3,-25.1 462,-63 496.9,-36.6 						"/>
						<polygon class="st63" points="510.6,-74.5 496.9,-36.6 462,-63 						"/>
						<path class="st64" d="M229.4,27c0.1,3.6-2.1,7.2-6.8,7.2c-3.3,0-5.3-1.8-6.2-4.2l-11,2.6L240.4,59L254,21.1L229.4,27z"/>
						<polygon class="st65" points="240.4,59 254,21.1 289,47.5 						"/>
						<polygon class="st66" points="302.6,9.6 289,47.5 254,21.1 						"/>
						<polygon class="st67" points="289,47.5 302.6,9.6 337.5,35.9 						"/>
						<polygon class="st68" points="351.2,-2 337.5,35.9 302.6,9.6 						"/>
						<polygon class="st69" points="337.5,35.9 351.2,-2 386.1,24.4 						"/>
						<polygon class="st70" points="399.8,-13.5 386.1,24.4 351.2,-2 						"/>
						<polygon class="st71" points="386.1,24.4 399.8,-13.5 434.7,12.9 						"/>
						<polygon class="st72" points="448.3,-25.1 434.7,12.9 399.8,-13.5 						"/>
						<polygon class="st73" points="434.7,12.9 448.3,-25.1 483.3,1.3 						"/>
						<polygon class="st74" points="496.9,-36.6 483.3,1.3 448.3,-25.1 						"/>
						<polygon class="st75" points="483.3,1.3 496.9,-36.6 531.9,-10.2 						"/>
						<polygon class="st76" points="226.7,96.9 240.4,59 275.3,85.4 						"/>
						<polygon class="st77" points="289,47.5 275.3,85.4 240.4,59 						"/>
						<polygon class="st78" points="275.3,85.4 289,47.5 323.9,73.9 						"/>
						<polygon class="st79" points="337.5,35.9 323.9,73.9 289,47.5 						"/>
						<polygon class="st80" points="323.9,73.9 337.5,35.9 372.5,62.3 						"/>
						<polygon class="st81" points="386.1,24.4 372.5,62.3 337.5,35.9 						"/>
						<polygon class="st82" points="372.5,62.3 386.1,24.4 421,50.8 						"/>
						<polygon class="st83" points="434.7,12.9 421,50.8 386.1,24.4 						"/>
						<polygon class="st84" points="421,50.8 434.7,12.9 469.6,39.2 						"/>
						<polygon class="st85" points="483.3,1.3 469.6,39.2 434.7,12.9 						"/>
						<polygon class="st86" points="469.6,39.2 483.3,1.3 518.2,27.7 						"/>
						<polygon class="st87" points="531.9,-10.2 518.2,27.7 483.3,1.3 						"/>
					</g>
					<g class="st88">
						<polygon class="st4" points="184.4,-99.9 197,-141.1 233,-111.5 						"/>
						<polygon class="st5" points="245.6,-152.6 233,-111.5 197,-141.1 						"/>
						<polygon class="st6" points="233,-111.5 245.6,-152.6 281.6,-123 						"/>
						<polygon class="st7" points="294.2,-164.1 281.6,-123 245.6,-152.6 						"/>
						<polygon class="st8" points="281.6,-123 294.2,-164.1 330.2,-134.6 						"/>
						<polygon class="st9" points="342.7,-175.7 330.2,-134.6 294.2,-164.1 						"/>
						<polygon class="st10" points="330.2,-134.6 342.7,-175.7 378.7,-146.1 						"/>
						<polygon class="st11" points="391.3,-187.2 378.7,-146.1 342.7,-175.7 						"/>
						<polygon class="st12" points="378.7,-146.1 391.3,-187.2 427.3,-157.7 						"/>
						<polygon class="st13" points="439.9,-198.8 427.3,-157.7 391.3,-187.2 						"/>
						<polygon class="st14" points="427.3,-157.7 439.9,-198.8 475.9,-169.2 						"/>
						<polygon class="st15" points="488.5,-210.3 475.9,-169.2 439.9,-198.8 						"/>
						<polygon class="st16" points="233,-111.5 220.4,-70.4 184.4,-99.9 						"/>
						<polygon class="st17" points="220.4,-70.4 233,-111.5 269,-81.9 						"/>
						<polygon class="st18" points="281.6,-123 269,-81.9 233,-111.5 						"/>
						<polygon class="st19" points="269,-81.9 281.6,-123 317.6,-93.5 						"/>
						<polygon class="st20" points="330.2,-134.6 317.6,-93.5 281.6,-123 						"/>
						<polygon class="st21" points="317.6,-93.5 330.2,-134.6 366.2,-105 						"/>
						<polygon class="st22" points="378.7,-146.1 366.2,-105 330.2,-134.6 						"/>
						<polygon class="st23" points="366.2,-105 378.7,-146.1 414.7,-116.5 						"/>
						<polygon class="st24" points="427.3,-157.7 414.7,-116.5 378.7,-146.1 						"/>
						<polygon class="st25" points="414.7,-116.5 427.3,-157.7 463.3,-128.1 						"/>
						<polygon class="st26" points="475.9,-169.2 463.3,-128.1 427.3,-157.7 						"/>
						<polygon class="st27" points="463.3,-128.1 475.9,-169.2 511.9,-139.6 						"/>
						<polygon class="st28" points="207.8,-29.2 220.4,-70.4 256.4,-40.8 						"/>
						<polygon class="st29" points="269,-81.9 256.4,-40.8 220.4,-70.4 						"/>
						<polygon class="st30" points="256.4,-40.8 269,-81.9 305,-52.3 						"/>
						<polygon class="st31" points="317.6,-93.5 305,-52.3 269,-81.9 						"/>
						<polygon class="st32" points="305,-52.3 317.6,-93.5 353.6,-63.9 						"/>
						<polygon class="st33" points="366.2,-105 353.6,-63.9 317.6,-93.5 						"/>
						<polygon class="st34" points="353.6,-63.9 366.2,-105 402.2,-75.4 						"/>
						<polygon class="st35" points="414.7,-116.5 402.2,-75.4 366.2,-105 						"/>
						<polygon class="st36" points="402.2,-75.4 414.7,-116.5 450.7,-87 						"/>
						<polygon class="st37" points="463.3,-128.1 450.7,-87 414.7,-116.5 						"/>
						<polygon class="st38" points="450.7,-87 463.3,-128.1 499.3,-98.5 						"/>
						<polygon class="st39" points="511.9,-139.6 499.3,-98.5 463.3,-128.1 						"/>
						<polygon class="st40" points="256.4,-40.8 243.8,0.3 207.8,-29.2 						"/>
						<polygon class="st41" points="243.8,0.3 256.4,-40.8 292.4,-11.2 						"/>
						<polygon class="st42" points="305,-52.3 292.4,-11.2 256.4,-40.8 						"/>
						<polygon class="st43" points="292.4,-11.2 305,-52.3 341,-22.8 						"/>
						<polygon class="st44" points="353.6,-63.9 341,-22.8 305,-52.3 						"/>
						<polygon class="st45" points="341,-22.8 353.6,-63.9 389.6,-34.3 						"/>
						<polygon class="st46" points="402.2,-75.4 389.6,-34.3 353.6,-63.9 						"/>
						<polygon class="st47" points="389.6,-34.3 402.2,-75.4 438.2,-45.9 						"/>
						<polygon class="st48" points="450.7,-87 438.2,-45.9 402.2,-75.4 						"/>
						<polygon class="st49" points="438.2,-45.9 450.7,-87 486.7,-57.4 						"/>
						<polygon class="st50" points="499.3,-98.5 486.7,-57.4 450.7,-87 						"/>
						<polygon class="st51" points="486.7,-57.4 499.3,-98.5 535.3,-68.9 						"/>
						<polygon class="st52" points="231.3,41.4 243.8,0.3 279.8,29.9 						"/>
						<polygon class="st53" points="292.4,-11.2 279.8,29.9 243.8,0.3 						"/>
						<polygon class="st54" points="279.8,29.9 292.4,-11.2 328.4,18.4 						"/>
						<polygon class="st55" points="341,-22.8 328.4,18.4 292.4,-11.2 						"/>
						<polygon class="st56" points="328.4,18.4 341,-22.8 377,6.8 						"/>
						<polygon class="st57" points="389.6,-34.3 377,6.8 341,-22.8 						"/>
						<polygon class="st58" points="377,6.8 389.6,-34.3 425.6,-4.7 						"/>
						<polygon class="st59" points="438.2,-45.9 425.6,-4.7 389.6,-34.3 						"/>
						<polygon class="st60" points="425.6,-4.7 438.2,-45.9 474.2,-16.3 						"/>
						<polygon class="st61" points="486.7,-57.4 474.2,-16.3 438.2,-45.9 						"/>
						<polygon class="st62" points="474.2,-16.3 486.7,-57.4 522.7,-27.8 						"/>
						<polygon class="st63" points="535.3,-68.9 522.7,-27.8 486.7,-57.4 						"/>
						<polygon class="st64" points="279.8,29.9 267.3,71 231.3,41.4 						"/>
						<polygon class="st65" points="267.3,71 279.8,29.9 315.8,59.5 						"/>
						<polygon class="st66" points="328.4,18.4 315.8,59.5 279.8,29.9 						"/>
						<polygon class="st67" points="315.8,59.5 328.4,18.4 364.4,47.9 						"/>
						<polygon class="st68" points="377,6.8 364.4,47.9 328.4,18.4 						"/>
						<polygon class="st69" points="364.4,47.9 377,6.8 413,36.4 						"/>
						<polygon class="st70" points="425.6,-4.7 413,36.4 377,6.8 						"/>
						<polygon class="st71" points="413,36.4 425.6,-4.7 461.6,24.8 						"/>
						<polygon class="st72" points="474.2,-16.3 461.6,24.8 425.6,-4.7 						"/>
						<polygon class="st73" points="461.6,24.8 474.2,-16.3 510.2,13.3 						"/>
						<polygon class="st74" points="522.7,-27.8 510.2,13.3 474.2,-16.3 						"/>
						<polygon class="st75" points="510.2,13.3 522.7,-27.8 558.7,1.7 						"/>
						<polygon class="st76" points="254.7,112.1 267.3,71 303.3,100.6 						"/>
						<polygon class="st77" points="315.8,59.5 303.3,100.6 267.3,71 						"/>
						<polygon class="st78" points="303.3,100.6 315.8,59.5 351.8,89 						"/>
						<polygon class="st79" points="364.4,47.9 351.8,89 315.8,59.5 						"/>
						<polygon class="st80" points="351.8,89 364.4,47.9 400.4,77.5 						"/>
						<polygon class="st81" points="413,36.4 400.4,77.5 364.4,47.9 						"/>
						<polygon class="st82" points="400.4,77.5 413,36.4 449,66 						"/>
						<polygon class="st83" points="461.6,24.8 449,66 413,36.4 						"/>
						<polygon class="st84" points="449,66 461.6,24.8 497.6,54.4 						"/>
						<polygon class="st85" points="510.2,13.3 497.6,54.4 461.6,24.8 						"/>
						<polygon class="st86" points="497.6,54.4 510.2,13.3 546.2,42.9 						"/>
						<polygon class="st87" points="558.7,1.7 546.2,42.9 510.2,13.3 						"/>
					</g>
					<g class="st89">
						<polygon class="st4" points="124,-96.5 136.6,-137.6 172.6,-108 						"/>
						<polygon class="st5" points="185.1,-149.1 172.6,-108 136.6,-137.6 						"/>
						<polygon class="st6" points="172.6,-108 185.1,-149.1 221.1,-119.6 						"/>
						<polygon class="st7" points="233.7,-160.7 221.1,-119.6 185.1,-149.1 						"/>
						<polygon class="st8" points="221.1,-119.6 233.7,-160.7 269.7,-131.1 						"/>
						<polygon class="st9" points="282.3,-172.2 269.7,-131.1 233.7,-160.7 						"/>
						<polygon class="st10" points="269.7,-131.1 282.3,-172.2 318.3,-142.7 						"/>
						<polygon class="st11" points="330.9,-183.8 318.3,-142.7 282.3,-172.2 						"/>
						<polygon class="st12" points="318.3,-142.7 330.9,-183.8 366.9,-154.2 						"/>
						<polygon class="st13" points="379.5,-195.3 366.9,-154.2 330.9,-183.8 						"/>
						<polygon class="st14" points="366.9,-154.2 379.5,-195.3 415.5,-165.8 						"/>
						<polygon class="st15" points="428,-206.9 415.5,-165.8 379.5,-195.3 						"/>
						<polygon class="st16" points="172.6,-108 160,-66.9 124,-96.5 						"/>
						<polygon class="st17" points="160,-66.9 172.6,-108 208.6,-78.5 						"/>
						<polygon class="st18" points="221.1,-119.6 208.6,-78.5 172.6,-108 						"/>
						<polygon class="st19" points="208.6,-78.5 221.1,-119.6 257.1,-90 						"/>
						<polygon class="st20" points="269.7,-131.1 257.1,-90 221.1,-119.6 						"/>
						<polygon class="st21" points="257.1,-90 269.7,-131.1 305.7,-101.6 						"/>
						<polygon class="st22" points="318.3,-142.7 305.7,-101.6 269.7,-131.1 						"/>
						<polygon class="st23" points="305.7,-101.6 318.3,-142.7 354.3,-113.1 						"/>
						<polygon class="st24" points="366.9,-154.2 354.3,-113.1 318.3,-142.7 						"/>
						<polygon class="st25" points="354.3,-113.1 366.9,-154.2 402.9,-124.6 						"/>
						<polygon class="st26" points="415.5,-165.8 402.9,-124.6 366.9,-154.2 						"/>
						<polygon class="st27" points="402.9,-124.6 415.5,-165.8 451.5,-136.2 						"/>
						<polygon class="st28" points="147.4,-25.8 160,-66.9 196,-37.3 						"/>
						<polygon class="st29" points="208.6,-78.5 196,-37.3 160,-66.9 						"/>
						<polygon class="st30" points="196,-37.3 208.6,-78.5 244.6,-48.9 						"/>
						<polygon class="st31" points="257.1,-90 244.6,-48.9 208.6,-78.5 						"/>
						<polygon class="st32" points="244.6,-48.9 257.1,-90 293.1,-60.4 						"/>
						<polygon class="st33" points="305.7,-101.6 293.1,-60.4 257.1,-90 						"/>
						<polygon class="st34" points="293.1,-60.4 305.7,-101.6 341.7,-72 						"/>
						<polygon class="st35" points="354.3,-113.1 341.7,-72 305.7,-101.6 						"/>
						<polygon class="st36" points="341.7,-72 354.3,-113.1 390.3,-83.5 						"/>
						<polygon class="st37" points="402.9,-124.6 390.3,-83.5 354.3,-113.1 						"/>
						<polygon class="st38" points="390.3,-83.5 402.9,-124.6 438.9,-95.1 						"/>
						<polygon class="st39" points="451.5,-136.2 438.9,-95.1 402.9,-124.6 						"/>
						<polygon class="st40" points="196,-37.3 183.4,3.8 147.4,-25.8 						"/>
						<polygon class="st41" points="183.4,3.8 196,-37.3 232,-7.8 						"/>
						<polygon class="st42" points="244.6,-48.9 232,-7.8 196,-37.3 						"/>
						<polygon class="st43" points="232,-7.8 244.6,-48.9 280.6,-19.3 						"/>
						<polygon class="st44" points="293.1,-60.4 280.6,-19.3 244.6,-48.9 						"/>
						<polygon class="st45" points="280.6,-19.3 293.1,-60.4 329.1,-30.9 						"/>
						<polygon class="st46" points="341.7,-72 329.1,-30.9 293.1,-60.4 						"/>
						<polygon class="st47" points="329.1,-30.9 341.7,-72 377.7,-42.4 						"/>
						<polygon class="st48" points="390.3,-83.5 377.7,-42.4 341.7,-72 						"/>
						<polygon class="st49" points="377.7,-42.4 390.3,-83.5 426.3,-54 						"/>
						<polygon class="st50" points="438.9,-95.1 426.3,-54 390.3,-83.5 						"/>
						<polygon class="st51" points="426.3,-54 438.9,-95.1 474.9,-65.5 						"/>
						<path class="st52" d="M217.3,31.6L183.4,3.8l-12.6,41.1l48.4-11.5C218.4,32.9,217.8,32.3,217.3,31.6z"/>
						<path class="st53" d="M222.7,20.2c0.2,0,0.5,0,0.7,0l8.6-28L183.4,3.8l33.9,27.8C214.4,27.5,216.2,20.2,222.7,20.2z"/>
						<path class="st54" d="M228.3,31.2l39.6-9.4L232-7.8l-8.6,28C229.1,20.8,230.8,27.3,228.3,31.2z"/>
						<polygon class="st55" points="280.6,-19.3 268,21.8 232,-7.8 						"/>
						<polygon class="st56" points="268,21.8 280.6,-19.3 316.6,10.3 						"/>
						<polygon class="st57" points="329.1,-30.9 316.6,10.3 280.6,-19.3 						"/>
						<polygon class="st58" points="316.6,10.3 329.1,-30.9 365.1,-1.3 						"/>
						<polygon class="st59" points="377.7,-42.4 365.1,-1.3 329.1,-30.9 						"/>
						<polygon class="st60" points="365.1,-1.3 377.7,-42.4 413.7,-12.8 						"/>
						<polygon class="st61" points="426.3,-54 413.7,-12.8 377.7,-42.4 						"/>
						<polygon class="st62" points="413.7,-12.8 426.3,-54 462.3,-24.4 						"/>
						<polygon class="st63" points="474.9,-65.5 462.3,-24.4 426.3,-54 						"/>
						<path class="st64" d="M219.3,33.4l-48.4,11.5l36,29.6l12.6-41C219.3,33.4,219.3,33.4,219.3,33.4z"/>
						<path class="st65" d="M219.7,33.6c-0.1-0.1-0.3-0.1-0.4-0.2l-12.6,41l48.6-11.5L219.7,33.6z"/>
						<path class="st66" d="M228.3,31.2c-1.1,1.7-3,3-5.7,3c-1.1,0-2.1-0.2-2.9-0.6l35.7,29.3L268,21.8L228.3,31.2z"/>
						<polygon class="st67" points="255.4,62.9 268,21.8 304,51.4 						"/>
						<polygon class="st68" points="316.6,10.3 304,51.4 268,21.8 						"/>
						<polygon class="st69" points="304,51.4 316.6,10.3 352.6,39.8 						"/>
						<polygon class="st70" points="365.1,-1.3 352.6,39.8 316.6,10.3 						"/>
						<polygon class="st71" points="352.6,39.8 365.1,-1.3 401.1,28.3 						"/>
						<polygon class="st72" points="413.7,-12.8 401.1,28.3 365.1,-1.3 						"/>
						<polygon class="st73" points="401.1,28.3 413.7,-12.8 449.7,16.7 						"/>
						<polygon class="st74" points="462.3,-24.4 449.7,16.7 413.7,-12.8 						"/>
						<polygon class="st75" points="449.7,16.7 462.3,-24.4 498.3,5.2 						"/>
						<polygon class="st76" points="194.2,115.6 206.8,74.5 242.8,104 						"/>
						<polygon class="st77" points="255.4,62.9 242.8,104 206.8,74.5 						"/>
						<polygon class="st78" points="242.8,104 255.4,62.9 291.4,92.5 						"/>
						<polygon class="st79" points="304,51.4 291.4,92.5 255.4,62.9 						"/>
						<polygon class="st80" points="291.4,92.5 304,51.4 340,80.9 						"/>
						<polygon class="st81" points="352.6,39.8 340,80.9 304,51.4 						"/>
						<polygon class="st82" points="340,80.9 352.6,39.8 388.6,69.4 						"/>
						<polygon class="st83" points="401.1,28.3 388.6,69.4 352.6,39.8 						"/>
						<polygon class="st84" points="388.6,69.4 401.1,28.3 437.1,57.9 						"/>
						<polygon class="st85" points="449.7,16.7 437.1,57.9 401.1,28.3 						"/>
						<polygon class="st86" points="437.1,57.9 449.7,16.7 485.7,46.3 						"/>
						<polygon class="st87" points="498.3,5.2 485.7,46.3 449.7,16.7 						"/>
					</g>
				</g>
			</g>
		</g>
	</g>
	<g>
		<path class="st0" d="M77.5,6c2.5-0.3,5-0.5,7.5-0.5s5,0.2,7.6,0.5v60.7c-2.6,0.3-5.1,0.5-7.5,0.5c-2.5,0-5-0.2-7.6-0.5V6z"/>
		<path class="st0" d="M99.2,6c2.1-0.3,4.1-0.5,6-0.5c2,0,4.2,0.2,6.3,0.5L140,44.7V6c2.5-0.3,4.8-0.5,7.1-0.5
			c2.1,0,4.2,0.2,6.1,0.5v60.7c-2.2,0.3-4.2,0.5-5.9,0.5c-1.9,0-4-0.2-6.2-0.5l-28.6-38.6v38.6c-2.2,0.3-4.4,0.5-6.7,0.5
			s-4.4-0.2-6.5-0.5V6z"/>
		<path class="st0" d="M195.5,56.2h-20.7v-16h21.3c0.4-1.7,0.6-3.5,0.6-5.3c0-1.7-0.2-3.4-0.6-5.2h-21.3V16.5h21.3L188.5,6h-28.7
			v60.7h28.8L195.5,56.2z"/>
	</g>
</g>
</svg>
