<?xml version="1.0" encoding="utf-8"?>
<!-- Generator: Adobe Illustrator 19.1.1, SVG Export Plug-In . SVG Version: 6.00 Build 0)  -->
<svg version="1.1" id="Layer_1" xmlns="http://www.w3.org/2000/svg" xmlns:xlink="http://www.w3.org/1999/xlink" x="0px" y="0px"
	 viewBox="0 0 100 100" style="enable-background:new 0 0 100 100;" xml:space="preserve">
<style type="text/css">
	.st0{fill:none;stroke:#FFFFFF;stroke-miterlimit:10;}
	.st1{fill:#D1D3D4;}
	.st2{fill:#E6E7E8;}
	.st3{fill:#BCBEC0;}
	.st4{fill:url(#SVGID_1_);}
	.st5{fill:url(#SVGID_2_);}
	.st6{fill:url(#SVGID_3_);}
	.st7{fill:#373A49;}
	.st8{fill:url(#SVGID_4_);}
	.st9{fill:url(#SVGID_5_);}
	.st10{fill:url(#SVGID_6_);}
	.st11{fill:url(#SVGID_7_);}
	.st12{fill:#4C5163;}
	.st13{fill:url(#SVGID_8_);}
	.st14{fill:#CCCCCC;}
	.st15{fill:url(#SVGID_9_);}
	.st16{fill:url(#SVGID_10_);}
	.st17{fill:url(#SVGID_11_);}
	.st18{fill:url(#SVGID_12_);}
	.st19{fill:url(#SVGID_13_);}
	.st20{fill:url(#SVGID_14_);}
	.st21{fill:#F1F2F2;}
	.st22{fill:#0E303F;}
	.st23{fill:#FFFFFF;}
	.st24{fill:#636363;}
	.st25{fill:#01C5C5;}
	.st26{fill:#B8DE70;}
	.st27{fill:#F29232;}
	.st28{fill:#F1F1F1;}
	.st29{fill:#64BFEA;}
	.st30{fill:#FE537A;}
	.st31{clip-path:url(#SVGID_16_);fill:#ADADAD;}
	.st32{fill:#535353;}
	.st33{fill:#404040;}
	.st34{fill:#848484;}
</style>
<polyline class="st0" points="91.9,67.8 75.9,28.7 52.3,41.1 81.8,71.2 "/>
<polyline class="st0" points="8.2,24.3 47.1,40.7 55.2,15.4 13,14.8 "/>
<g>
	<path class="st1" d="M86.4,37.8l0.9-5.3l-5.8-3c0-0.6-0.1-1.2-0.1-1.8l5.1-4l-1.9-5.1l-6.6,0.4c-0.3-0.5-0.7-1-1.1-1.4l2.4-6
		l-4.2-3.4l-5.5,3.6c-0.6-0.3-1.1-0.4-1.7-0.6l-0.9-6l-5.3-0.9l-2.8,5.5c-0.6,0-1.3,0.1-1.9,0.2l-3.8-4.8L48,7.1l0.3,6.3
		c-0.5,0.4-1,0.7-1.5,1.1l-5.7-2.3l-3.4,4.2l3.4,5.3c-0.3,0.6-0.6,1.1-0.8,1.7l-6.5,0.9L33,29.6l6,3c0,0.6,0.1,1.2,0.2,1.8l-5.1,4
		l1.9,5.1l6.6-0.4c0.3,0.5,0.7,1,1.1,1.4l-2.4,6l4.2,3.4l5.5-3.6c0.5,0.3,1,0.5,1.6,0.8l0.9,6.7l5.3,0.9l3.1-6.3
		c0.6,0,1.1-0.1,1.6-0.2l4.1,5.3l5.1-1.9l-0.4-6.9c0.5-0.3,0.9-0.6,1.3-1l6.2,2.6l3.4-4.2l-3.8-5.8c0.2-0.5,0.4-1.1,0.6-1.6
		L86.4,37.8z"/>
	<circle class="st2" cx="60.3" cy="31" r="16.5"/>
	<path class="st3" d="M75.4,33.5c-1.4,8.3-9.2,14-17.6,12.6c-8.3-1.4-14-9.2-12.6-17.6c1.4-8.3,9.2-14,17.6-12.6
		C71.1,17.3,76.8,25.2,75.4,33.5z"/>
	
		<linearGradient id="SVGID_1_" gradientUnits="userSpaceOnUse" x1="59.4762" y1="34.6063" x2="59.4762" y2="62.5588" gradientTransform="matrix(0.9868 0.1619 -0.1619 0.9868 7.8874 -16.8894)">
		<stop  offset="0" style="stop-color:#F6F7F9"/>
		<stop  offset="0.5276" style="stop-color:#DEE4E7"/>
		<stop  offset="0.6712" style="stop-color:#DAE1E4"/>
		<stop  offset="0.8089" style="stop-color:#CFD7DA"/>
		<stop  offset="0.9437" style="stop-color:#BBC6CB"/>
		<stop  offset="1" style="stop-color:#B1BDC2"/>
	</linearGradient>
	<circle class="st4" cx="60.3" cy="31.1" r="13.3"/>
	<g>
		<linearGradient id="SVGID_2_" gradientUnits="userSpaceOnUse" x1="67.1909" y1="43.7534" x2="53.0387" y2="19.2411">
			<stop  offset="0" style="stop-color:#363847"/>
			<stop  offset="0.5135" style="stop-color:#44485B"/>
			<stop  offset="1" style="stop-color:#4F536A"/>
		</linearGradient>
		<path class="st5" d="M60.1,17.3c-7.8,0-14.2,6.3-14.2,14.1c0,7.8,6.3,14.2,14.2,14.2c7.8,0,14.1-6.3,14.1-14.2
			C74.3,23.7,67.9,17.3,60.1,17.3z M60.1,44c-6.9,0-12.5-5.6-12.5-12.5c0-6.9,5.6-12.5,12.5-12.5c6.9,0,12.5,5.6,12.5,12.5
			C72.6,38.4,67,44,60.1,44z"/>
		<linearGradient id="SVGID_3_" gradientUnits="userSpaceOnUse" x1="48.3996" y1="31.4974" x2="86.8952" y2="31.4974">
			<stop  offset="0" style="stop-color:#F6F7F9"/>
			<stop  offset="0.4845" style="stop-color:#F4F5F8"/>
			<stop  offset="0.6591" style="stop-color:#EDF0F2"/>
			<stop  offset="0.7835" style="stop-color:#E2E6E9"/>
			<stop  offset="0.884" style="stop-color:#D1D8DB"/>
			<stop  offset="0.9692" style="stop-color:#BBC5CA"/>
			<stop  offset="1" style="stop-color:#B1BDC2"/>
		</linearGradient>
		<circle class="st6" cx="60.1" cy="31.5" r="13"/>
		<circle class="st7" cx="60.1" cy="31.5" r="0.6"/>
		<linearGradient id="SVGID_4_" gradientUnits="userSpaceOnUse" x1="60.4443" y1="22.1628" x2="59.7852" y2="21.0211">
			<stop  offset="0" style="stop-color:#363847"/>
			<stop  offset="0.5135" style="stop-color:#44485B"/>
			<stop  offset="1" style="stop-color:#4F536A"/>
		</linearGradient>
		<circle class="st8" cx="60.1" cy="21.6" r="0.7"/>
		<linearGradient id="SVGID_5_" gradientUnits="userSpaceOnUse" x1="50.5385" y1="32.068" x2="49.8797" y2="30.9269">
			<stop  offset="0" style="stop-color:#363847"/>
			<stop  offset="0.5135" style="stop-color:#44485B"/>
			<stop  offset="1" style="stop-color:#4F536A"/>
		</linearGradient>
		<circle class="st9" cx="50.2" cy="31.5" r="0.7"/>
		<linearGradient id="SVGID_6_" gradientUnits="userSpaceOnUse" x1="60.4443" y1="41.9734" x2="59.7855" y2="40.8324">
			<stop  offset="0" style="stop-color:#363847"/>
			<stop  offset="0.5135" style="stop-color:#44485B"/>
			<stop  offset="1" style="stop-color:#4F536A"/>
		</linearGradient>
		<circle class="st10" cx="60.1" cy="41.4" r="0.7"/>
		<linearGradient id="SVGID_7_" gradientUnits="userSpaceOnUse" x1="70.3497" y1="32.0678" x2="69.6909" y2="30.9268">
			<stop  offset="0" style="stop-color:#363847"/>
			<stop  offset="0.5135" style="stop-color:#44485B"/>
			<stop  offset="1" style="stop-color:#4F536A"/>
		</linearGradient>
		<circle class="st11" cx="70" cy="31.5" r="0.7"/>
		<path class="st7" d="M60.2,31.1C60.2,31.1,60.2,31.1,60.2,31.1C60.2,31.1,60.2,31.1,60.2,31.1L60.2,31.1L60.2,31.1
			c-0.2-0.1-0.5,0.1-0.5,0.3c-0.1,0.2,0.1,0.5,0.3,0.5v0l0,0c0,0,0,0,0,0l0.2,0c0,0,0,0,0,0l4.6,0.4L60.2,31.1z"/>
		<path class="st12" d="M60.5,32.2C60.5,32.2,60.5,32.2,60.5,32.2L60.5,32.2L60.5,32.2L60.5,32.2c0.4-0.2,0.5-0.6,0.3-1
			c-0.2-0.3-0.6-0.5-1-0.3l0,0l0,0c0,0,0,0,0,0l-0.2,0.2c0,0,0,0,0,0l-6,5L60.5,32.2z"/>
		<circle class="st7" cx="57.6" cy="21.9" r="0.2"/>
		<circle class="st7" cx="55.2" cy="22.9" r="0.2"/>
		<circle class="st7" cx="53.1" cy="24.5" r="0.2"/>
		<circle class="st7" cx="51.5" cy="26.5" r="0.2"/>
		<circle class="st7" cx="50.5" cy="28.9" r="0.2"/>
		<circle class="st7" cx="50.5" cy="34.1" r="0.2"/>
		<circle class="st7" cx="51.5" cy="36.5" r="0.2"/>
		<circle class="st7" cx="53.1" cy="38.5" r="0.2"/>
		<circle class="st7" cx="55.2" cy="40.1" r="0.2"/>
		<circle class="st7" cx="57.6" cy="41.1" r="0.2"/>
		<circle class="st7" cx="62.7" cy="41.1" r="0.2"/>
		<circle class="st7" cx="65.1" cy="40.1" r="0.2"/>
		<circle class="st7" cx="67.1" cy="38.5" r="0.2"/>
		<circle class="st7" cx="68.7" cy="36.5" r="0.2"/>
		<circle class="st7" cx="69.7" cy="34.1" r="0.2"/>
		<circle class="st7" cx="69.7" cy="28.9" r="0.2"/>
		<circle class="st7" cx="68.7" cy="26.5" r="0.2"/>
		<circle class="st7" cx="67.1" cy="24.5" r="0.2"/>
		<circle class="st7" cx="65.1" cy="22.9" r="0.2"/>
		<circle class="st7" cx="62.7" cy="21.9" r="0.2"/>
		<linearGradient id="SVGID_8_" gradientUnits="userSpaceOnUse" x1="60.2117" y1="31.6647" x2="60.0186" y2="31.3304">
			<stop  offset="0" style="stop-color:#DFDFDF"/>
			<stop  offset="0.2322" style="stop-color:#E3E3E3"/>
			<stop  offset="1" style="stop-color:#EDEDED"/>
		</linearGradient>
		<circle class="st13" cx="60.1" cy="31.5" r="0.2"/>
	</g>
</g>
<g>
	<path class="st14" d="M14.5,12c-4.2-0.9-8.4,1.8-9.3,6c-0.9,4.2,1.8,8.4,6,9.3c4.2,0.9,8.4-1.8,9.3-6C21.4,17,18.7,12.9,14.5,12z
		 M11.8,24.6c-2.7-0.6-4.5-3.3-3.9-6c0.6-2.7,3.3-4.5,6-3.9c2.7,0.6,4.5,3.3,3.9,6C17.3,23.4,14.6,25.2,11.8,24.6z"/>
	<path class="st1" d="M21.5,23l2.7-0.3l0.4-2.3L22.2,19c0-0.3,0-0.5,0-0.8l2.3-1.6l-0.8-2.2l-2.9,0.1c-0.1-0.2-0.3-0.4-0.4-0.6
		l1.1-2.6l-1.8-1.5l-2.4,1.5c-0.2-0.1-0.5-0.2-0.7-0.3l-0.3-2.6l-2.3-0.5l-1.3,2.3c-0.3,0-0.5,0-0.8,0l-1.6-2.1L8,8.9l0.1,2.7
		c-0.2,0.1-0.5,0.3-0.7,0.5L5,11l-1.5,1.8l1.4,2.3c-0.1,0.2-0.3,0.5-0.4,0.7l-2.8,0.3l-0.4,2.3l2.5,1.4c0,0.3,0,0.5,0.1,0.8
		l-2.2,1.6l0.8,2.2l2.9-0.1c0.1,0.2,0.3,0.4,0.4,0.6l-1.1,2.6l1.8,1.5l2.4-1.5c0.2,0.1,0.4,0.2,0.7,0.3l0.3,2.9l2.3,0.4l1.4-2.7
		c0.2,0,0.5,0,0.7-0.1l1.7,2.4l2.2-0.8l-0.1-3c0.2-0.1,0.4-0.3,0.6-0.4l2.7,1.2l1.5-1.8l-1.6-2.6C21.3,23.4,21.4,23.2,21.5,23z
		 M11.4,26.7C7.5,25.9,5,22,5.8,18.1c0.8-3.9,4.7-6.4,8.6-5.6c3.9,0.8,6.4,4.7,5.6,8.6C19.1,25,15.3,27.5,11.4,26.7z"/>
	<path class="st2" d="M14.2,13.5c-3.4-0.7-6.7,1.4-7.4,4.8C6,21.7,8.2,25,11.6,25.7c3.4,0.7,6.7-1.4,7.4-4.8
		C19.7,17.5,17.6,14.2,14.2,13.5z M12,23.6c-2.2-0.5-3.6-2.6-3.1-4.8c0.5-2.2,2.6-3.6,4.8-3.1c2.2,0.5,3.6,2.6,3.1,4.8
		C16.4,22.7,14.2,24.1,12,23.6z"/>
</g>
<g>
	<path class="st14" d="M87.6,58.8c-2.9-0.6-5.8,1.2-6.4,4.1c-0.6,2.9,1.2,5.8,4.1,6.4c2.9,0.6,5.8-1.2,6.4-4.1
		C92.4,62.3,90.5,59.4,87.6,58.8z M85.8,67.5c-1.9-0.4-3.1-2.3-2.7-4.1c0.4-1.9,2.3-3.1,4.1-2.7c1.9,0.4,3.1,2.3,2.7,4.1
		C89.5,66.7,87.6,67.9,85.8,67.5z"/>
	
		<radialGradient id="SVGID_9_" cx="38.4033" cy="79.1577" r="46.0991" gradientTransform="matrix(0.9782 0.2079 -0.2079 0.9782 62.0384 -48.9296)" gradientUnits="userSpaceOnUse">
		<stop  offset="0" style="stop-color:#F6F7F9"/>
		<stop  offset="0.5276" style="stop-color:#DEE4E7"/>
		<stop  offset="0.6712" style="stop-color:#DAE1E4"/>
		<stop  offset="0.8089" style="stop-color:#CFD7DA"/>
		<stop  offset="0.9437" style="stop-color:#BBC6CB"/>
		<stop  offset="1" style="stop-color:#B1BDC2"/>
	</radialGradient>
	<path class="st15" d="M92.4,66.4l1.9-0.2l0.3-1.6l-1.7-0.9c0-0.2,0-0.4,0-0.5l1.6-1.1l-0.5-1.5l-2,0.1c-0.1-0.2-0.2-0.3-0.3-0.4
		l0.8-1.8l-1.2-1.1l-1.7,1c-0.2-0.1-0.3-0.1-0.5-0.2l-0.2-1.8L87.2,56l-0.9,1.6c-0.2,0-0.4,0-0.6,0l-1.1-1.5l-1.5,0.5l0,1.9
		c-0.2,0.1-0.3,0.2-0.5,0.3L81,58.2L80,59.4l1,1.6c-0.1,0.2-0.2,0.3-0.3,0.5l-1.9,0.2l-0.3,1.6l1.8,0.9c0,0.2,0,0.4,0.1,0.5
		l-1.5,1.1l0.5,1.5l2-0.1c0.1,0.1,0.2,0.3,0.3,0.4l-0.8,1.8l1.2,1.1l1.7-1c0.2,0.1,0.3,0.2,0.5,0.2l0.2,2l1.6,0.3l1-1.8
		c0.2,0,0.3,0,0.5,0l1.2,1.6l1.5-0.5L90,69.3c0.1-0.1,0.3-0.2,0.4-0.3l1.8,0.8l1.1-1.2l-1.1-1.8C92.3,66.7,92.3,66.5,92.4,66.4z
		 M85.4,68.9c-2.7-0.6-4.4-3.2-3.8-5.9c0.6-2.7,3.2-4.4,5.9-3.8c2.7,0.6,4.4,3.2,3.8,5.9C90.8,67.8,88.1,69.5,85.4,68.9z"/>
	
		<radialGradient id="SVGID_10_" cx="42.5709" cy="91.3275" r="24.7359" gradientTransform="matrix(0.9782 0.2079 -0.2079 0.9782 62.0384 -48.9296)" gradientUnits="userSpaceOnUse">
		<stop  offset="0" style="stop-color:#F6F7F9"/>
		<stop  offset="0.5276" style="stop-color:#DEE4E7"/>
		<stop  offset="0.6712" style="stop-color:#DAE1E4"/>
		<stop  offset="0.8089" style="stop-color:#CFD7DA"/>
		<stop  offset="0.9437" style="stop-color:#BBC6CB"/>
		<stop  offset="1" style="stop-color:#B1BDC2"/>
	</radialGradient>
	<path class="st16" d="M87.4,59.8c-2.3-0.5-4.6,1-5.1,3.3c-0.5,2.3,1,4.6,3.3,5.1c2.3,0.5,4.6-1,5.1-3.3
		C91.2,62.6,89.7,60.3,87.4,59.8z M85.9,66.8c-1.5-0.3-2.5-1.8-2.2-3.3c0.3-1.5,1.8-2.5,3.3-2.2c1.5,0.3,2.5,1.8,2.2,3.3
		C88.9,66.1,87.4,67.1,85.9,66.8z"/>
</g>
<g>
	<path class="st14" d="M80.9,72.7c-3.5-0.2-6.6,2.5-6.8,6c-0.2,3.5,2.5,6.6,6,6.8c3.5,0.2,6.6-2.5,6.8-6
		C87.1,76,84.4,72.9,80.9,72.7z M80.2,83.3c-2.3-0.1-4-2.1-3.9-4.4c0.1-2.3,2.1-4,4.4-3.9c2.3,0.1,4,2.1,3.9,4.4
		C84.5,81.7,82.5,83.4,80.2,83.3z"/>
	
		<radialGradient id="SVGID_11_" cx="70.5437" cy="47.0018" r="55.0684" gradientTransform="matrix(0.9895 -0.1448 0.1448 0.9895 -11.2437 13.3414)" gradientUnits="userSpaceOnUse">
		<stop  offset="0" style="stop-color:#F6F7F9"/>
		<stop  offset="0.5276" style="stop-color:#DEE4E7"/>
		<stop  offset="0.6712" style="stop-color:#DAE1E4"/>
		<stop  offset="0.8089" style="stop-color:#CFD7DA"/>
		<stop  offset="0.9437" style="stop-color:#BBC6CB"/>
		<stop  offset="1" style="stop-color:#B1BDC2"/>
	</radialGradient>
	<path class="st17" d="M87.9,80.8l2.2-0.6l0.1-1.9L88,77.5c0-0.2-0.1-0.4-0.1-0.6l1.6-1.6l-0.9-1.7L86.3,74
		c-0.1-0.2-0.3-0.3-0.4-0.5l0.6-2.2l-1.6-1l-1.8,1.5c-0.2-0.1-0.4-0.1-0.6-0.2l-0.6-2.1L80,69.5l-0.8,2.1c-0.2,0-0.4,0.1-0.7,0.1
		L77,70.1L75.3,71l0.4,2.2c-0.2,0.1-0.3,0.3-0.5,0.5L73,73.1l-1,1.6l1.4,1.7c-0.1,0.2-0.2,0.4-0.2,0.6L71,77.6l-0.1,1.9l2.2,0.8
		c0,0.2,0.1,0.4,0.2,0.6l-1.6,1.6l0.9,1.7l2.3-0.4c0.1,0.2,0.3,0.3,0.4,0.5l-0.6,2.2l1.6,1l1.8-1.5c0.2,0.1,0.4,0.1,0.6,0.2l0.6,2.3
		l1.9,0.1l0.8-2.3c0.2,0,0.4-0.1,0.6-0.1l1.7,1.7l1.7-0.9l-0.4-2.4c0.1-0.1,0.3-0.3,0.4-0.4l2.3,0.7l1-1.6l-1.6-1.9
		C87.8,81.2,87.8,81,87.9,80.8z M80.1,85c-3.3-0.2-5.8-3-5.6-6.3c0.2-3.3,3-5.8,6.3-5.6c3.3,0.2,5.8,3,5.6,6.3
		C86.2,82.8,83.4,85.3,80.1,85z"/>
	
		<radialGradient id="SVGID_12_" cx="75.4955" cy="61.5469" r="29.5121" gradientTransform="matrix(0.9895 -0.1448 0.1448 0.9895 -11.2437 13.3414)" gradientUnits="userSpaceOnUse">
		<stop  offset="0" style="stop-color:#F6F7F9"/>
		<stop  offset="0.5276" style="stop-color:#DEE4E7"/>
		<stop  offset="0.6712" style="stop-color:#DAE1E4"/>
		<stop  offset="0.8089" style="stop-color:#CFD7DA"/>
		<stop  offset="0.9437" style="stop-color:#BBC6CB"/>
		<stop  offset="1" style="stop-color:#B1BDC2"/>
	</radialGradient>
	<path class="st18" d="M80.8,74c-2.8-0.2-5.3,2-5.5,4.8c-0.2,2.8,2,5.3,4.8,5.5c2.8,0.2,5.3-2,5.5-4.8C85.8,76.6,83.7,74.2,80.8,74z
		 M80.3,82.5c-1.8-0.1-3.2-1.7-3.1-3.6c0.1-1.8,1.7-3.2,3.6-3.1c1.8,0.1,3.2,1.7,3.1,3.6C83.7,81.2,82.1,82.6,80.3,82.5z"/>
</g>
<g>
	<g>
		<linearGradient id="SVGID_13_" gradientUnits="userSpaceOnUse" x1="29.0806" y1="87.8369" x2="48.7742" y2="87.8369">
			<stop  offset="0.5" style="stop-color:#58595B"/>
			<stop  offset="0.5" style="stop-color:#454547"/>
		</linearGradient>
		<path class="st19" d="M31.2,83.5c-0.7,2.9-1.4,5.8-2.1,8.6c6.6,0,13.1,0,19.7,0c-0.7-2.9-1.4-5.8-2.1-8.6
			C41.5,83.5,36.3,83.5,31.2,83.5z"/>
		<linearGradient id="SVGID_14_" gradientUnits="userSpaceOnUse" x1="26.8468" y1="92.8189" x2="51.0064" y2="92.8189">
			<stop  offset="0.5" style="stop-color:#58595B"/>
			<stop  offset="0.5" style="stop-color:#454547"/>
		</linearGradient>
		<path class="st20" d="M50,92H27.9c-0.6,0-1,0.5-1,1.2v0.4H51v-0.4C51,92.5,50.5,92,50,92z"/>
		<path class="st21" d="M5.7,80.2v4.8c0,0.9,0.7,1.7,1.7,1.7h63.2c0.9,0,1.7-0.7,1.7-1.7v-4.8H5.7z"/>
		<path class="st22" d="M72.2,80.2V39.9c0-0.9-0.7-1.7-1.7-1.7H7.3c-0.9,0-1.7,0.7-1.7,1.7v40.3H72.2z"/>
		<rect x="8.4" y="40.8" class="st23" width="61.1" height="36.6"/>
	</g>
	<rect x="8.4" y="40.4" class="st24" width="61.1" height="7.1"/>
	<g>
		<path class="st25" d="M12.2,43.9c0,0.6-0.5,1.1-1.1,1.1c-0.6,0-1.1-0.5-1.1-1.1c0-0.6,0.5-1.1,1.1-1.1
			C11.7,42.8,12.2,43.3,12.2,43.9z"/>
		<circle class="st26" cx="14.1" cy="43.9" r="1.1"/>
		<path class="st27" d="M18.2,43.9c0,0.6-0.5,1.1-1.1,1.1c-0.6,0-1.1-0.5-1.1-1.1c0-0.6,0.5-1.1,1.1-1.1
			C17.7,42.8,18.2,43.3,18.2,43.9z"/>
	</g>
	<rect x="20.4" y="42.8" class="st23" width="45.4" height="2.2"/>
	<g>
		<rect x="12.3" y="52" class="st24" width="4" height="1.5"/>
		<rect x="17" y="52" class="st24" width="7.1" height="1.5"/>
	</g>
	<g>
		<rect x="50.5" y="52" class="st24" width="8.4" height="1.5"/>
		<rect x="59.6" y="52" class="st24" width="2.7" height="1.5"/>
	</g>
	<g>
		<rect x="12.3" y="55.8" class="st24" width="1.8" height="1.5"/>
		<rect x="14.8" y="55.8" class="st24" width="9.3" height="1.5"/>
	</g>
	<g>
		<rect x="50.5" y="55.8" class="st24" width="4" height="1.6"/>
		<rect x="55.2" y="55.8" class="st24" width="7.1" height="1.6"/>
	</g>
	<g>
		<g>
			<rect x="15.2" y="58.3" class="st28" width="4.3" height="4"/>
		</g>
		<g>
			<rect x="54.6" y="58.8" class="st28" width="4.3" height="4"/>
		</g>
		<g>
			<path class="st26" d="M56.7,62.3c-0.1,0-0.3,0-0.3-0.1l-1.1-1c-0.2-0.1-0.2-0.4,0-0.6c0.1-0.2,0.4-0.2,0.5,0l0.9,0.8l1-1.9
				c0.1-0.2,0.3-0.3,0.5-0.2c0.2,0.1,0.3,0.3,0.2,0.5L57.2,62C57.1,62.1,56.9,62.2,56.7,62.3C56.7,62.3,56.7,62.3,56.7,62.3z"/>
		</g>
	</g>
	<g>
		<g>
			<g>
				<rect x="27.9" y="51.8" class="st29" width="17.4" height="4"/>
			</g>
			<g>
				<rect x="27.9" y="56.8" class="st29" width="4.3" height="4"/>
			</g>
			<g>
				<rect x="34.4" y="56.8" class="st29" width="4.3" height="4"/>
			</g>
			<g>
				<rect x="41" y="56.8" class="st29" width="4.3" height="4"/>
			</g>
			<g>
				<rect x="27.9" y="61.9" class="st29" width="17.4" height="4"/>
			</g>
		</g>
		<g>
			<rect x="27.9" y="67" class="st30" width="17.4" height="4.5"/>
			<g>
				<rect x="32.8" y="68.7" class="st23" width="2.6" height="1"/>
				<rect x="35.9" y="68.7" class="st23" width="4.6" height="1"/>
			</g>
		</g>
	</g>
</g>
<g>
	<path class="st23" d="M80.6,71.5l-2.2,3.4c-0.3,0.4-0.8,0.5-1.3,0.3l-9.4-6.4c-0.4-0.3-0.5-0.8-0.3-1.2l2.2-3.4
		c0.3-0.4,0.8-0.5,1.3-0.3l9.4,6.4C80.7,70.5,80.8,71.1,80.6,71.5z"/>
	<g>
		<defs>
			<path id="SVGID_15_" d="M81.2,72l-2.2,3.4c-0.3,0.4-0.8,0.5-1.3,0.3l-9.4-6.4c-0.4-0.3-0.5-0.8-0.3-1.2l2.2-3.4
				c0.3-0.4,0.8-0.5,1.3-0.3l9.4,6.4C81.4,71,81.5,71.6,81.2,72z"/>
		</defs>
		<clipPath id="SVGID_16_">
			<use xlink:href="#SVGID_15_"  style="overflow:visible;"/>
		</clipPath>
		<path class="st31" d="M45.2,50.1c-4.7,7.3-2.7,17.1,4.5,22c7.2,4.9,16.9,2.9,21.6-4.4c4.7-7.3,2.7-17.1-4.5-22
			C59.6,40.8,50,42.8,45.2,50.1z M67.6,65.2c-3.4,5.2-10.3,6.6-15.5,3.1c-5.2-3.5-6.6-10.5-3.2-15.7c3.4-5.2,10.3-6.6,15.5-3.1
			C69.6,52.9,71,60,67.6,65.2z"/>
	</g>
	<polygon class="st32" points="91.5,76.1 86.8,83.4 78.6,77.8 83.3,70.6 	"/>
	<path class="st33" d="M90.9,86.1c0.5,0.3,1.1,0.2,1.4-0.3l3.6-5.5c0.3-0.5,0.2-1.1-0.3-1.4l-4.1-2.8l-4.7,7.2L90.9,86.1z"/>
	<path class="st33" d="M77.8,68.1l-3.6,5.5c-0.3,0.5-0.2,1.1,0.3,1.4l4.1,2.7l4.7-7.2l-4.1-2.7C78.8,67.5,78.1,67.7,77.8,68.1z"/>
	<polygon class="st34" points="83.4,70.7 78.7,77.9 78.6,77.8 83.3,70.6 	"/>
	<polygon class="st34" points="91.6,76.1 86.8,83.4 86.7,83.3 91.4,76 	"/>
	<path class="st32" d="M44.5,49.7c-4.7,7.3-2.7,17.1,4.5,22c7.2,4.9,16.9,2.9,21.6-4.4c4.7-7.3,2.7-17.1-4.5-22
		C58.9,40.4,49.3,42.4,44.5,49.7z M70.4,58.9c-0.3,7.1-6.2,12.6-13.3,12.4C50,71.1,44.5,65.1,44.7,58C45,50.9,51,45.3,58.1,45.6
		C65.2,45.9,70.7,51.8,70.4,58.9z"/>
	<path class="st33" d="M68.4,65.8c-3.9,6-12,7.7-18,3.6c-6-4-7.6-12.2-3.7-18.2c3.9-6,12-7.7,18-3.6C70.7,51.5,72.3,59.7,68.4,65.8z
		 M47.3,51.5c-3.7,5.8-2.1,13.6,3.5,17.4c5.7,3.8,13.4,2.3,17.1-3.5c3.7-5.8,2.1-13.6-3.5-17.4C58.7,44.2,51,45.8,47.3,51.5z"/>
</g>
</svg>
