<?xml version="1.0" encoding="utf-8"?>
<!-- Generator: Adobe Illustrator 19.1.1, SVG Export Plug-In . SVG Version: 6.00 Build 0)  -->
<svg version="1.1" id="Layer_1" xmlns="http://www.w3.org/2000/svg" xmlns:xlink="http://www.w3.org/1999/xlink" x="0px" y="0px"
	 viewBox="0 0 100 100" style="enable-background:new 0 0 100 100;" xml:space="preserve">
<style type="text/css">
	.st0{fill:#C9E25A;}
	.st1{opacity:0.4;}
	.st2{fill:#231F20;}
	.st3{fill:#FFFFFF;}
	.st4{fill:#EEEEEE;}
	.st5{opacity:0.4;fill:#231F20;}
	.st6{fill:#0060AA;}
	.st7{opacity:0.6;fill:#003055;}
	.st8{fill:#7CBBE5;}
	.st9{fill:#2F7AAD;}
</style>
<g>
	<path class="st0" d="M8.9,18.7c-0.5-0.7-0.7-1.6-0.7-2.5c0-1,0.1-2,0.5-2.8c0.9,1.3,2.4,1.2,3.4,2.4c0.5,0.6,0.7,1.4,0.8,2.1
		c0.1,0.8,0,1.6-0.2,2.4C11.2,20.6,9.8,20.1,8.9,18.7z M15.3,14.5c0.5-1.3,0.7-2.9,0-4c-0.8-1.2-2.1-1.3-2.7-2.5
		c-0.7,1.4-1,3.4-0.4,4.6C12.8,13.9,14,14.5,15.3,14.5z M14.7,51.2c-0.1,1.1,0,2.3,0.5,3.3c2.1-0.1,4-1.2,5.2-3c0.6-0.9,1-1.9,1.2-3
		c0.2-1,0.2-2.1,0-2.9c-1.6,1.4-3.7,1.2-5.5,2.7C15.3,49.1,14.9,50.1,14.7,51.2z M13,21.2c1,1,2.5,1.3,4,1c1.5-0.3,2.8-1.6,3.5-2.8
		c-1.5,0.1-2.5-1-4.1-1C14.9,18.5,13.6,19.8,13,21.2z M22.3,14.1c-1.4-0.1-2-1.2-3.4-1.4c-1.3-0.1-2.6,0.8-3.3,2
		c0.8,1,2,1.5,3.4,1.4C20.2,16,21.6,15,22.3,14.1z M80.8,19.6c0.6,0.5,1.3,0.9,2,1.1c1.5,0.3,3-0.1,4-1.1c-0.3-0.7-0.8-1.4-1.4-1.9
		c-0.6-0.5-1.3-0.8-2.1-0.8c-1.6,0-2.5,1.1-4,1.1C79.7,18.5,80.2,19.1,80.8,19.6z M81.1,11.6c-1.4,0.2-2.1,1.2-3.4,1.4
		c0.7,1,2.1,1.9,3.4,2c1.3,0.1,2.6-0.4,3.4-1.4C83.8,12.5,82.5,11.5,81.1,11.6z M86.8,59.4c-2.1-0.1-4.1,1-5.7,2.3
		c0.8-1,1.6-2.1,2.3-3.2c2.8-4.4,4.7-9.2,5.7-14.1c1.5,1,3.4,1.4,5.3,0.5c2-0.9,3.5-3.8,3.9-6.3c-1.9,1.1-3.6-0.2-5.6,0.7
		c-1.5,0.6-2.5,2-3.2,3.5c0.2-0.9,0.3-1.8,0.4-2.7c0.2-1.7,0.3-3.3,0.3-5c1.5,0.7,3.3,0.7,4.9-0.5c1.6-1.2,2.4-4,2.4-6.2
		c-1.6,1.3-3.2,0.5-4.9,1.6c-1.3,0.9-2,2.4-2.3,4c-0.1-2.2-0.3-4.2-0.6-6.2c1.5,0.4,3.1,0.1,4.4-1.1c1.3-1.3,1.7-3.9,1.3-5.8
		c-1.2,1.3-2.8,0.8-4.2,2c-1.1,1-1.5,2.5-1.6,4.1c-0.2-1.3-0.5-2.6-0.8-3.7c-1.3-4.8-3.1-8.6-4.5-11.1c-0.5-0.9-0.9-1.6-1.3-2.2
		c0,0,0,0,0.1,0c0.3-1.1,0.2-2.5-0.8-3.5c-1-1.1-2.2-0.9-3.1-1.9c-0.2,1.2,0.1,2.7,0.8,3.7c0.8,1,1.8,1.6,2.9,1.7
		c0.4,0.6,0.8,1.3,1.3,2.2c1.4,2.5,3.1,6.4,4.2,11.2c0.3,1,0.5,2.1,0.7,3.2c-0.6-1.2-1.5-2.2-2.8-2.4c-1.8-0.3-3,0.7-4.6,0.4
		c0.5,1.4,1.7,3,3.3,3.6c1.5,0.6,3,0.5,4.3-0.2c0.3,2.2,0.5,4.5,0.4,6.8c-0.1-0.8-0.4-1.5-0.8-2.2c-0.5-0.8-1.2-1.5-2.1-1.8
		c-1.9-0.6-3.4,0.3-5.1-0.3c0.3,1.6,1.4,3.5,3,4.4c1.6,0.9,3.4,1.1,5,0.4c0,1.5-0.1,3.1-0.3,4.7c-0.1,1.1-0.3,2.3-0.6,3.4
		c0-1.8-0.7-3.7-2.2-4.5c-1.9-1-3.7-0.4-5.4-1.4c0.1,1.7,0.8,3.9,2.3,5.3c1.5,1.3,3.4,1.9,5.2,1.6c-0.6,2.7-1.6,5.4-2.7,8
		c0.1-0.6,0.1-1.2,0.1-1.7c-0.1-1.1-0.6-2.1-1.4-2.9c-1.8-1.6-3.8-1.3-5.4-2.7c-0.3,1.8-0.1,4.2,1.1,6c1.2,1.7,2.9,2.8,4.9,3
		c-0.7,1.4-1.5,2.7-2.3,3.9C81.8,59,81,60,80.2,61c0.9-1.8,1-3.9-0.1-5.5c-0.7-1-1.6-1.6-2.5-2.2c-0.9-0.5-1.8-1.1-2.5-2.1
		c-0.7,1.7-1.1,4.2-0.3,6.4c0.8,2.1,2.3,3.8,4.4,4.5c-1,1.1-2,2.2-3.2,3.1c-1,0.9-2.2,1.8-3.3,2.6c1.5-1.7,2.4-3.9,1.6-5.9
		c-0.5-1.3-1.3-2.1-2.1-2.9c-0.8-0.8-1.6-1.6-2-2.8c-0.3,0.4-0.6,0.8-0.8,1.3c-0.3,0.5-0.5,1-0.6,1.6c-0.2,0.6-0.3,1.1-0.4,1.7
		c0,0.3-0.1,0.6-0.1,0.9c0,0.3,0,0.7,0,1c0.1,2.5,1.4,4.6,3.4,5.9c-1.1,0.8-2.2,1.5-3.3,2.2c-1.3,0.9-2.6,1.7-3.9,2.5
		c0.4-0.5,0.8-1,1.1-1.6c0.7-1.2,1-2.6,0.8-3.9c-0.5-2.9-2.8-4.1-3.1-6.9c-1,0.9-2,2-2.7,3.3c-0.7,1.3-1.2,2.7-1.2,4
		c0,2.6,1.1,4.9,2.9,6.4c-3,1.7-6,3.2-8.7,4.4c-1.6,0.7-3.2,1.3-4.7,1.8c-0.9-0.3-1.9-0.7-2.8-1.1c-2.7-1.2-5.7-2.6-8.7-4.4
		c1.7-1.5,2.7-3.7,2.7-6.2c0-1.3-0.5-2.8-1.2-4c-0.7-1.3-1.7-2.4-2.7-3.3c-0.3,2.8-2.6,4-3.1,6.9c-0.2,1.4,0.1,2.7,0.8,3.9
		c0.2,0.3,0.4,0.7,0.6,1c-1-0.6-2.1-1.3-3.1-2c-1.1-0.7-2.2-1.5-3.2-2.2c2-1.2,3.2-3.3,3.4-5.8c0-0.3,0-0.7,0-1c0-0.3,0-0.6-0.1-0.9
		c-0.1-0.6-0.2-1.2-0.4-1.7c-0.2-0.6-0.4-1.1-0.6-1.6c-0.2-0.5-0.5-0.9-0.8-1.3c-0.5,1.1-1.3,1.9-2,2.8c-0.8,0.8-1.6,1.6-2.1,2.9
		c-0.7,1.9,0,4.1,1.4,5.7c-1-0.8-2.1-1.5-3.1-2.4c-1.2-1-2.3-2.1-3.3-3.3c2.1-0.7,3.6-2.4,4.4-4.5c0.8-2.2,0.5-4.7-0.2-6.3
		c-0.7,0.9-1.6,1.5-2.5,2c-0.9,0.6-1.8,1.1-2.6,2.1c-1.1,1.6-1,3.7-0.1,5.5c-0.8-0.9-1.5-1.9-2.2-2.9c-2.8-4.2-4.8-8.9-5.8-13.6
		c1.8,0.3,3.6-0.3,5-1.6c1.5-1.4,2.2-3.6,2.3-5.2c-1.8,1-3.6,0.3-5.4,1.3c-1.4,0.8-2.1,2.3-2.2,3.9c-0.2-0.9-0.3-1.8-0.4-2.6
		c-0.2-1.6-0.3-3.3-0.3-4.9c1.5,0.6,3.3,0.4,4.9-0.5c1.6-0.9,2.7-2.9,3-4.4c-1.7,0.6-3.2-0.3-5.1,0.3c-1.4,0.5-2.3,1.8-2.7,3.3
		c0-2.1,0.2-4.1,0.5-6c1.3,0.8,3,0.9,4.5,0.3c1.6-0.6,2.8-2.2,3.3-3.6c-1.7,0.3-2.9-0.7-4.6-0.4c-1.4,0.3-2.5,1.5-3,2.9
		c0.2-1.3,0.5-2.6,0.8-3.7c1.2-4.8,2.9-8.6,4.2-11.1c0.5-0.9,0.9-1.6,1.3-2.2c0,0,0,0,0,0.1c1.1-0.2,2.3-0.8,2.9-1.9
		c0.6-1.2,0.3-2.3,1-3.4c-1.1,0.1-2.7,0.7-3.4,1.8c-0.7,1.1-0.8,2.4-0.5,3.4c-0.4,0.6-0.8,1.3-1.3,2.2c-1.4,2.5-3.2,6.3-4.5,11.1
		c-0.3,1-0.5,2.1-0.7,3.2c-0.1-1.3-0.6-2.6-1.5-3.5c-1.4-1.2-3-0.7-4.2-2.1c-0.4,2,0,4.6,1.3,5.8c1.2,1.2,2.8,1.5,4.2,1.1
		c-0.4,2.2-0.6,4.6-0.6,7.1c-0.1-0.8-0.3-1.7-0.7-2.5c-0.4-0.9-1-1.7-1.8-2.2c-1.7-1.1-3.4-0.3-4.9-1.6c-0.1,2.3,0.8,5.1,2.4,6.2
		c1.6,1.2,3.4,1.1,5,0.4c0,1.6,0.1,3.1,0.3,4.8c0.1,1.2,0.3,2.3,0.5,3.5c-0.7-1.7-1.8-3.4-3.5-4.1c-2.1-0.9-3.7,0.4-5.6-0.7
		c0.4,2.5,1.9,5.4,3.9,6.3c1.9,0.9,3.9,0.5,5.4-0.6c0.6,2.8,1.5,5.6,2.7,8.3c-0.4-0.5-0.9-1-1.4-1.4c-0.9-0.8-1.9-1.3-3-1.5
		c-2.4-0.4-3.8,1.3-6.1,0.6c0.5,1.3,1.4,2.7,2.4,3.7c1,1.1,2.2,1.8,3.4,2.1c2.2,0.4,4.1-0.5,5.4-2c0.7,1.4,1.4,2.8,2.3,4.1
		c0.7,1.1,1.5,2.2,2.3,3.2c-1.6-1.3-3.6-2.3-5.6-2.2c-1.3,0.1-2.2,0.6-3.2,1.2c-0.9,0.5-1.8,1.1-3.1,1c1.7,2.6,5.1,4.9,7.6,4.7
		c2.5-0.1,4.2-1.7,5.1-3.6c1,1.2,2,2.3,3.2,3.3c1.1,1,2.2,1.9,3.4,2.8c-0.9-0.4-1.8-0.8-2.7-1c-1.3-0.3-2.7-0.3-3.9,0.1
		c-1.3,0.4-2.2,1.2-3,2c-0.8,0.8-1.6,1.6-3,1.8c0.6,0.5,1.4,1.1,2.1,1.6c0.8,0.4,1.6,0.8,2.5,1.1c0.8,0.3,1.7,0.4,2.5,0.5
		c0.4,0,0.8,0,1.1,0c0.3-0.1,0.7-0.2,1-0.3c2.4-0.9,4-2.9,4.4-5.2c1.1,0.8,2.2,1.5,3.2,2.3c1.3,0.9,2.6,1.8,3.9,2.6
		c-0.6-0.2-1.3-0.3-2-0.4c-1.4-0.1-2.8,0.1-4.1,0.8c-2.6,1.4-2.8,4.1-5.4,5.3c1.3,0.8,3,1.3,4.6,1.6c1.6,0.3,3.3,0.2,4.6-0.4
		c2.5-1.1,3.9-3.2,4.2-5.6c3,1.8,6,3.4,8.8,4.6c0.3,0.2,0.7,0.3,1,0.5c-1.5,0.5-2.9,0.9-4,1.3c-2.8,0.7-4.4,1.2-4.4,1.2
		c-0.5,0.1-0.9,0.7-0.7,1.2c0.1,0.6,0.7,0.9,1.2,0.7c0,0,0,0,0,0c0,0,1.6-0.5,4.4-1.3c1.4-0.5,3.1-1,5-1.7c0.3-0.1,0.7-0.3,1-0.4
		c1,0.4,1.9,0.7,2.8,1.1c1.9,0.6,3.6,1.2,5,1.7c2.8,0.8,4.4,1.3,4.4,1.3c0.5,0.2,1.1-0.2,1.2-0.7c0.1-0.5-0.2-1.1-0.7-1.2
		c0,0,0,0,0,0c0,0-1.6-0.4-4.4-1.2c-1.4-0.4-3-0.9-4.9-1.5c-0.3-0.1-0.6-0.2-0.9-0.3c0.9-0.4,1.9-0.8,2.8-1.2
		c2.8-1.2,5.8-2.8,8.8-4.6c0.4,2.2,1.8,4.3,4.2,5.3c1.3,0.6,3,0.7,4.6,0.4c1.7-0.3,3.3-0.9,4.6-1.6c-2.6-1.2-2.8-3.9-5.4-5.3
		c-1.2-0.7-2.6-0.9-4-0.8c-0.4,0-0.7,0.1-1.1,0.2c1-0.7,2.1-1.3,3.1-2c1.1-0.8,2.1-1.5,3.2-2.3c0.5,2.2,2,4.2,4.4,5.1
		c0.3,0.1,0.6,0.2,1,0.3c0.4,0,0.7,0,1.1,0c0.8-0.1,1.7-0.2,2.5-0.5c0.8-0.3,1.7-0.7,2.5-1.1c0.8-0.5,1.5-1,2.2-1.6
		c-1.4-0.2-2.2-1-3-1.8c-0.8-0.8-1.6-1.6-3-2c-2.1-0.6-4.4-0.1-6.4,0.8c1.1-0.8,2.2-1.7,3.2-2.6c1.2-1.1,2.3-2.2,3.4-3.5
		c0.9,1.9,2.7,3.5,5.2,3.6c2.6,0.1,5.9-2.2,7.6-4.8c-1.3,0.1-2.2-0.4-3.1-0.9C89,60,88.1,59.4,86.8,59.4z M91.1,49.8
		c-1.1,0.2-2.2,0.8-3,1.6c-0.9,0.8-1.6,1.8-2.3,2.7c1.3,1.6,3.3,2.7,5.6,2.2c1.2-0.2,2.3-1.1,3.4-2.1c1-1.1,1.9-2.5,2.4-3.8
		C94.9,51.1,93.5,49.4,91.1,49.8z M87.6,20c1.4,0.2,2.9-0.3,3.8-1.6c0.9-1.3,0.9-3.6,0.3-5.3c-0.9,1.3-2.4,1.1-3.4,2.4
		C87.3,16.7,87.3,18.5,87.6,20z M87.9,11.6c0.7-1.3,0.3-3.3-0.4-4.7c-0.6,1.3-2,1.3-2.7,2.5c-0.7,1.2-0.5,2.7,0,4
		C86,13.5,87.3,12.8,87.9,11.6z"/>
	<g>
		<path class="st0" d="M81.1,11.6c-1.4,0.2-2.1,1.2-3.4,1.4c0.7,1,2.1,1.9,3.4,2c1.3,0.1,2.6-0.4,3.4-1.4
			C83.8,12.5,82.5,11.5,81.1,11.6z"/>
		<path class="st0" d="M80.8,19.6c0.6,0.5,1.3,0.9,2,1.1c1.5,0.3,3-0.1,4-1.1c-0.3-0.7-0.8-1.4-1.4-1.9c-0.6-0.5-1.3-0.8-2.1-0.8
			c-1.6,0-2.5,1.1-4,1.1C79.7,18.5,80.2,19.1,80.8,19.6z"/>
		<path class="st0" d="M51.9,83.8c1.9,0.6,3.6,1.2,5,1.7c2.8,0.8,4.4,1.3,4.4,1.3c0.5,0.2,1.1-0.2,1.2-0.7c0.1-0.5-0.2-1.1-0.7-1.2
			c0,0,0,0,0,0c0,0-1.6-0.4-4.4-1.2c-1.4-0.4-3-0.9-4.9-1.5c-0.3-0.1-0.6-0.2-0.9-0.3c0.9-0.4,1.9-0.8,2.8-1.2
			c2.8-1.2,5.8-2.8,8.8-4.6c0.4,2.2,1.8,4.3,4.2,5.3c1.3,0.6,3,0.7,4.6,0.4c1.7-0.3,3.3-0.9,4.6-1.6c-2.6-1.2-2.8-3.9-5.4-5.3
			c-1.2-0.7-2.6-0.9-4-0.8c-0.4,0-0.7,0.1-1.1,0.2c1-0.7,2.1-1.3,3.1-2c1.1-0.8,2.1-1.5,3.2-2.3c0.5,2.2,2,4.2,4.4,5.1
			c0.3,0.1,0.6,0.2,1,0.3c0.4,0,0.7,0,1.1,0c0.8-0.1,1.7-0.2,2.5-0.5c0.8-0.3,1.7-0.7,2.5-1.1c0.8-0.5,1.5-1,2.2-1.6
			c-1.4-0.2-2.2-1-3-1.8c-0.8-0.8-1.6-1.6-3-2c-2.1-0.6-4.4-0.1-6.4,0.8c1.1-0.8,2.2-1.7,3.2-2.6c1.2-1.1,2.3-2.2,3.4-3.5
			c0.9,1.9,2.7,3.5,5.2,3.6c2.6,0.1,5.9-2.2,7.6-4.8c-1.3,0.1-2.2-0.4-3.1-0.9c-0.9-0.5-1.8-1.1-3.2-1.2c-2.1-0.1-4.1,1-5.7,2.3
			c0.8-1,1.6-2.1,2.3-3.2c2.8-4.4,4.7-9.2,5.7-14.1c1.5,1,3.4,1.4,5.3,0.5c2-0.9,3.5-3.8,3.9-6.3c-1.9,1.1-3.6-0.2-5.6,0.7
			c-1.5,0.6-2.5,2-3.2,3.5c0.2-0.9,0.3-1.8,0.4-2.7c0.2-1.7,0.3-3.3,0.3-5c1.5,0.7,3.3,0.7,4.9-0.5c1.6-1.2,2.4-4,2.4-6.2
			c-1.6,1.3-3.2,0.5-4.9,1.6c-1.3,0.9-2,2.4-2.3,4c-0.1-2.2-0.3-4.2-0.6-6.2c1.5,0.4,3.1,0.1,4.4-1.1c1.3-1.3,1.7-3.9,1.3-5.8
			c-1.2,1.3-2.8,0.8-4.2,2c-1.1,1-1.5,2.5-1.6,4.1c-0.2-1.3-0.5-2.6-0.8-3.7c-1.3-4.8-3.1-8.6-4.5-11.1c-0.5-0.9-0.9-1.6-1.3-2.2
			c0,0,0,0,0.1,0c0.1-0.5,0.2-1.1,0.1-1.7l-1.5,1.3c0.4,0.2,0.8,0.3,1.2,0.4c0.4,0.6,0.8,1.3,1.3,2.2c1.4,2.5,3.1,6.4,4.2,11.2
			c0.3,1,0.5,2.1,0.7,3.2c-0.6-1.2-1.5-2.2-2.8-2.4c-1.8-0.3-3,0.7-4.6,0.4c0.5,1.4,1.7,3,3.3,3.6c1.5,0.6,3,0.5,4.3-0.2
			c0.3,2.2,0.5,4.5,0.4,6.8c-0.1-0.8-0.4-1.5-0.8-2.2c-0.5-0.8-1.2-1.5-2.1-1.8c-1.9-0.6-3.4,0.3-5.1-0.3c0.3,1.6,1.4,3.5,3,4.4
			c1.6,0.9,3.4,1.1,5,0.4c0,1.5-0.1,3.1-0.3,4.7c-0.1,1.1-0.3,2.3-0.6,3.4c0-1.8-0.7-3.7-2.2-4.5c-1.9-1-3.7-0.4-5.4-1.4
			c0.1,1.7,0.8,3.9,2.3,5.3c1.5,1.3,3.4,1.9,5.2,1.6c-0.6,2.7-1.6,5.4-2.7,8c0.1-0.6,0.1-1.2,0.1-1.7c-0.1-1.1-0.6-2.1-1.4-2.9
			c-1.8-1.6-3.8-1.3-5.4-2.7c-0.3,1.8-0.1,4.2,1.1,6c1.2,1.7,2.9,2.8,4.9,3c-0.7,1.4-1.5,2.7-2.3,3.9C81.8,59,81,60,80.2,61
			c0.9-1.8,1-3.9-0.1-5.5c-0.7-1-1.6-1.6-2.5-2.2c-0.9-0.5-1.8-1.1-2.5-2.1c-0.7,1.7-1.1,4.2-0.3,6.4c0.8,2.1,2.3,3.8,4.4,4.5
			c-1,1.1-2,2.2-3.2,3.1c-1,0.9-2.2,1.8-3.3,2.6c1.5-1.7,2.4-3.9,1.6-5.9c-0.5-1.3-1.3-2.1-2.1-2.9c-0.8-0.8-1.6-1.6-2-2.8
			c-0.3,0.4-0.6,0.8-0.8,1.3c-0.3,0.5-0.5,1-0.6,1.6c-0.2,0.6-0.3,1.1-0.4,1.7c0,0.3-0.1,0.6-0.1,0.9c0,0.3,0,0.7,0,1
			c0.1,2.5,1.4,4.6,3.4,5.9c-1.1,0.8-2.2,1.5-3.3,2.2c-1.3,0.9-2.6,1.7-3.9,2.5c0.4-0.5,0.8-1,1.1-1.6c0.7-1.2,1-2.6,0.8-3.9
			c-0.5-2.9-2.8-4.1-3.1-6.9c-1,0.9-2,2-2.7,3.3c-0.7,1.3-1.2,2.7-1.2,4c0,2.6,1.1,4.9,2.9,6.4c-3,1.7-6,3.2-8.7,4.4
			c-1.6,0.7-3.2,1.3-4.7,1.8c-0.9-0.3-1.9-0.7-2.8-1.1c-2.7-1.2-5.7-2.6-8.7-4.4c1.7-1.5,2.7-3.7,2.7-6.2c0-1.3-0.5-2.8-1.2-4
			c-0.7-1.3-1.7-2.4-2.7-3.3c-0.3,2.8-2.6,4-3.1,6.9c-0.2,1.4,0.1,2.7,0.8,3.9c0.2,0.3,0.4,0.7,0.6,1c-1-0.6-2.1-1.3-3.1-2
			c-1.1-0.7-2.2-1.5-3.2-2.2c2-1.2,3.2-3.3,3.4-5.8c0-0.3,0-0.7,0-1c0-0.3,0-0.6-0.1-0.9c-0.1-0.6-0.2-1.2-0.4-1.7
			c-0.2-0.6-0.4-1.1-0.6-1.6c-0.2-0.5-0.5-0.9-0.8-1.3c-0.5,1.1-1.3,1.9-2,2.8c-0.8,0.8-1.6,1.6-2.1,2.9c-0.7,1.9,0,4.1,1.4,5.7
			c-1-0.8-2.1-1.5-3.1-2.4c-0.9-0.8-1.8-1.7-2.6-2.6l-0.8,0.8c0.8,0.9,1.7,1.9,2.7,2.7c1.1,1,2.2,1.9,3.4,2.8
			c-0.9-0.4-1.8-0.8-2.7-1c-1.3-0.3-2.7-0.3-3.9,0.1c-1.3,0.4-2.2,1.2-3,2c-0.8,0.8-1.6,1.6-3,1.8c0.6,0.5,1.4,1.1,2.1,1.6
			c0.8,0.4,1.6,0.8,2.5,1.1c0.8,0.3,1.7,0.4,2.5,0.5c0.4,0,0.8,0,1.1,0c0.3-0.1,0.7-0.2,1-0.3c2.4-0.9,4-2.9,4.4-5.2
			c1.1,0.8,2.2,1.5,3.2,2.3c1.3,0.9,2.6,1.8,3.9,2.6c-0.6-0.2-1.3-0.3-2-0.4c-1.4-0.1-2.8,0.1-4.1,0.8c-2.6,1.4-2.8,4.1-5.4,5.3
			c1.3,0.8,3,1.3,4.6,1.6c1.6,0.3,3.3,0.2,4.6-0.4c2.5-1.1,3.9-3.2,4.2-5.6c3,1.8,6,3.4,8.8,4.6c0.3,0.2,0.7,0.3,1,0.5
			c-1.5,0.5-2.9,0.9-4,1.3c-2.8,0.7-4.4,1.2-4.4,1.2c-0.5,0.1-0.9,0.7-0.7,1.2c0.1,0.6,0.7,0.9,1.2,0.7c0,0,0,0,0,0
			c0,0,1.6-0.5,4.4-1.3c1.4-0.5,3.1-1,5-1.7c0.3-0.1,0.7-0.3,1-0.4C50.1,83.1,51,83.4,51.9,83.8z"/>
		<path class="st0" d="M91.4,18.4c0.9-1.3,0.9-3.6,0.3-5.3c-0.9,1.3-2.4,1.1-3.4,2.4c-1,1.2-1,3-0.7,4.5
			C89,20.2,90.5,19.7,91.4,18.4z"/>
		<path class="st0" d="M91.1,49.8c-1.1,0.2-2.2,0.8-3,1.6c-0.9,0.8-1.6,1.8-2.3,2.7c1.3,1.6,3.3,2.7,5.6,2.2
			c1.2-0.2,2.3-1.1,3.4-2.1c1-1.1,1.9-2.5,2.4-3.8C94.9,51.1,93.5,49.4,91.1,49.8z"/>
		<path class="st0" d="M87.5,6.9c-0.6,1.3-2,1.3-2.7,2.5c-0.7,1.2-0.5,2.7,0,4c1.3,0,2.5-0.6,3.1-1.9C88.6,10.3,88.2,8.3,87.5,6.9z"
			/>
	</g>
</g>
<g>
	<g class="st1">
		<polygon class="st2" points="32,50.6 12.4,87 25.5,87.8 42.5,56.2 		"/>
		<polygon class="st2" points="42.5,56.2 25.5,87.8 33.4,98.3 53,61.8 		"/>
	</g>
	<g class="st1">
		<polygon class="st2" points="64.7,50.6 84.2,87 71.1,87.8 54.2,56.2 		"/>
		<polygon class="st2" points="54.2,56.2 71.1,87.8 63.3,98.3 43.7,61.8 		"/>
	</g>
	<g>
		<polygon class="st3" points="33.5,49.8 13.9,86.3 27,87 44,55.4 		"/>
		<polygon class="st4" points="44,55.4 27,87 34.9,97.5 54.5,61 		"/>
	</g>
	<g>
		<polygon class="st3" points="66.2,49.8 85.7,86.3 72.6,87 55.7,55.4 		"/>
		<polygon class="st4" points="55.7,55.4 72.6,87 64.7,97.5 45.2,61 		"/>
	</g>
	<path class="st5" d="M83.7,27.9c0.6,1.9-2.6,4.7-2.3,6.6c0.3,2,4.1,3.7,4.1,5.7c-0.1,2-4,3.5-4.4,5.4c-0.4,1.9,2.6,4.9,1.9,6.7
		c-0.7,1.8-5,1.9-6,3.6c-1,1.7,0.8,5.5-0.6,7C75,64.4,71,63,69.4,64.2c-1.5,1.2-1.2,5.4-2.9,6.4c-1.7,0.9-5-1.8-6.9-1.1
		c-1.9,0.6-3,4.7-4.9,5c-2,0.3-4.2-3.4-6.1-3.4c-2-0.1-4.4,3.4-6.3,3c-1.9-0.4-2.7-4.6-4.6-5.3c-1.8-0.7-5.3,1.7-7,0.7
		c-1.7-1-1-5.2-2.5-6.5c-1.5-1.3-5.5-0.2-6.8-1.8c-1.2-1.5,0.9-5.2-0.1-7c-0.9-1.7-5.1-2.1-5.7-4c-0.6-1.9,2.6-4.7,2.3-6.6
		c-0.3-2-4.1-3.7-4.1-5.7c0.1-2,4-3.5,4.4-5.4c0.4-1.9-2.6-4.9-1.9-6.7c0.7-1.8,5-1.9,6-3.6c1-1.7-0.8-5.5,0.5-7
		c1.3-1.5,5.3-0.1,6.9-1.3c1.5-1.2,1.1-5.4,2.9-6.4c1.7-0.9,5,1.8,6.9,1.1c1.9-0.6,3-4.7,4.9-5c2-0.3,4.2,3.4,6.1,3.4
		c2,0.1,4.4-3.4,6.3-3c1.9,0.4,2.7,4.6,4.6,5.3c1.8,0.7,5.3-1.7,7-0.7c1.7,1,1,5.2,2.5,6.5c1.5,1.3,5.5,0.2,6.8,1.8
		c1.2,1.5-0.9,5.2,0.1,7C78.9,25.6,83.1,26,83.7,27.9z"/>
	<path class="st6" d="M84.2,27c0.6,1.9-2.6,4.7-2.3,6.6c0.3,2,4.1,3.7,4.1,5.7c-0.1,2-4,3.5-4.4,5.4c-0.4,1.9,2.6,4.9,1.9,6.7
		c-0.7,1.8-5,1.9-6,3.6c-1,1.7,0.8,5.5-0.6,7c-1.3,1.5-5.3,0.1-6.9,1.3c-1.5,1.2-1.2,5.4-2.9,6.4c-1.7,0.9-5-1.8-6.9-1.1
		c-1.9,0.6-3,4.7-4.9,5c-2,0.3-4.2-3.4-6.1-3.4c-2-0.1-4.4,3.4-6.3,3c-1.9-0.4-2.7-4.6-4.6-5.3c-1.8-0.7-5.3,1.7-7,0.7
		c-1.7-1-1-5.2-2.5-6.5c-1.5-1.3-5.5-0.2-6.8-1.8c-1.2-1.5,0.9-5.2-0.1-7c-0.9-1.7-5.1-2.1-5.7-4c-0.6-1.9,2.6-4.7,2.3-6.6
		c-0.3-2-4.1-3.7-4.1-5.7c0.1-2,4-3.5,4.4-5.4c0.4-1.9-2.6-4.9-1.9-6.7c0.7-1.8,5-1.9,6-3.6c1-1.7-0.8-5.5,0.5-7
		c1.3-1.5,5.3-0.1,6.9-1.3c1.5-1.2,1.1-5.4,2.9-6.4c1.7-0.9,5,1.8,6.9,1.1c1.9-0.6,3-4.7,4.9-5c2-0.3,4.2,3.4,6.1,3.4
		c2,0.1,4.4-3.4,6.3-3c1.9,0.4,2.7,4.6,4.6,5.3c1.8,0.7,5.3-1.7,7-0.7c1.7,1,1,5.2,2.5,6.5c1.5,1.3,5.5,0.2,6.8,1.8
		c1.2,1.5-0.9,5.2,0.1,7C79.3,24.7,83.6,25.1,84.2,27z"/>
	<path class="st7" d="M29.5,28.7L18.2,50.9c1.4,0.7,3.1,1.2,3.7,2.2c0.9,1.8-1.1,5.5,0.1,7c1.2,1.6,5.3,0.5,6.8,1.8
		c1.5,1.3,0.8,5.5,2.5,6.5c1.7,1,5.1-1.4,7-0.6c1.8,0.7,2.6,4.9,4.6,5.3c1.9,0.4,4.3-3.1,6.3-3c2,0.1,4.1,3.7,6.1,3.4
		c1.9-0.3,3-4.4,4.9-5c0.1,0,0.1,0,0.2,0L70,49.4L29.5,28.7z"/>
	<path class="st8" d="M57.8,61.4c-12.9,4.2-26.8-2.9-31-15.7c-4.2-12.9,2.9-26.8,15.7-31c12.9-4.2,26.8,2.9,31,15.7
		C77.7,43.3,70.6,57.2,57.8,61.4z"/>
	<g>
		<path class="st9" d="M59.8,17.6l-19.3,41c5.1,2.4,11,2.9,16.7,1.1C69.1,55.8,75.6,43,71.7,31.1C69.7,24.9,65.3,20.2,59.8,17.6z"/>
		<path class="st9" d="M43.1,16.5c-11.9,3.9-18.4,16.7-14.5,28.6c2,6.2,6.4,10.9,11.9,13.5l19.3-41C54.8,15.2,48.8,14.6,43.1,16.5z"
			/>
	</g>
	<g>
		<path class="st3" d="M35.7,31.3v1h-2.3v1.3h1.9v1h-1.9V36h2.3v1h-3.5v-5.7H35.7z"/>
		<path class="st3" d="M37.4,34L36,31.3h1.4l0.9,1.9l0.9-1.9h1.4L39.1,34l1.4,3h-1.3l-0.9-2.1L37.3,37H36L37.4,34z"/>
		<path class="st3" d="M42.7,36.1L42.7,36.1c0.6,0,0.9-0.4,0.9-1h1.2v0.1c0,1.4-0.7,2-2.1,2c-1.5,0-2.2-0.8-2.2-2.8V34
			c0-2,0.7-2.8,2.2-2.8c1.4,0,2.1,0.6,2.1,2v0.3h-1.2c0-0.8-0.2-1.2-0.8-1.2h-0.1c-0.8,0-0.9,0.6-0.9,1.8v0.3
			C41.8,35.4,41.9,36.1,42.7,36.1z"/>
		<path class="st3" d="M45.3,37v-5.7h1.2V36h2.1v1H45.3z"/>
		<path class="st3" d="M48.8,35.2v-3.9H50v3.9c0,0.6,0.2,0.9,0.9,0.9c0.7,0,0.9-0.3,0.9-0.9v-3.9h1.2v3.9c0,1.3-0.5,1.9-2.1,1.9
			C49.3,37.1,48.8,36.4,48.8,35.2z"/>
		<path class="st3" d="M53.4,32.9L53.4,32.9c0-1.1,0.7-1.8,2-1.8c1.4,0,2,0.6,2,2v0.2h-1.2c0-0.8-0.2-1.1-0.8-1.1h-0.1
			c-0.5,0-0.8,0.3-0.8,0.6v0c0,0.4,0.2,0.6,1,0.8c1.3,0.2,1.9,0.6,1.9,1.7v0.1c0,1.1-0.7,1.7-2.1,1.7c-1.4,0-2.1-0.6-2.1-2V35h1.2
			c0,0.7,0.3,1,0.8,1h0.1c0.6,0,0.8-0.3,0.8-0.7v0c0-0.4-0.2-0.6-1-0.8C54,34.4,53.4,34,53.4,32.9z"/>
		<path class="st3" d="M59.2,37H58v-5.7h1.2V37z"/>
		<path class="st3" d="M61,37l-1.4-5.8h1.3l1,4.4l1-4.4h1.3L62.6,37H61z"/>
		<path class="st3" d="M67.9,31.3v1h-2.3v1.3h1.9v1h-1.9V36h2.3v1h-3.5v-5.7H67.9z"/>
		<path class="st3" d="M36.3,43.1v-0.3c0-2,0.7-2.8,2.2-2.8c1.5,0,2.2,0.8,2.2,2.8v0.3c0,1.4-0.4,2.2-1.1,2.6l0.3,0.9H39l-0.3-0.7
			c-0.1,0-0.2,0-0.3,0C37,45.9,36.3,45.1,36.3,43.1z M39.2,44.6c0.2-0.3,0.3-0.8,0.3-1.5v-0.3c0-1.1-0.2-1.8-0.9-1.8h-0.1
			c-0.7,0-0.9,0.6-0.9,1.8v0.3c0,1.1,0.2,1.7,0.9,1.8l-0.4-1h0.9L39.2,44.6z"/>
		<path class="st3" d="M41.2,44v-3.9h1.2V44c0,0.6,0.2,0.9,0.9,0.9s0.9-0.3,0.9-0.9v-3.9h1.2V44c0,1.3-0.5,1.9-2.1,1.9
			S41.2,45.3,41.2,44z"/>
		<path class="st3" d="M48.6,40.1l1.4,5.8h-1.3l-0.3-1.2H47l-0.3,1.2h-1.3l1.4-5.8H48.6z M47.3,43.6h0.9l-0.5-2.1L47.3,43.6z"/>
		<path class="st3" d="M50.3,45.8v-5.7h1.2v4.7h2.1v1H50.3z"/>
		<path class="st3" d="M55.2,45.8H54v-5.7h1.2V45.8z"/>
		<path class="st3" d="M58.1,45.8h-1.2v-4.7h-1.3v-1h3.8v1h-1.3V45.8z"/>
		<path class="st3" d="M62.3,45.8h-1.2v-1.8l-1.6-4h1.3l0.9,2.5l0.9-2.5h1.3l-1.6,4V45.8z"/>
	</g>
</g>
</svg>
