<?xml version="1.0" encoding="utf-8"?>
<!-- Generator: Adobe Illustrator 19.1.1, SVG Export Plug-In . SVG Version: 6.00 Build 0)  -->
<svg version="1.1" id="Layer_1" xmlns="http://www.w3.org/2000/svg" xmlns:xlink="http://www.w3.org/1999/xlink" x="0px" y="0px"
	 viewBox="0 0 100 100" style="enable-background:new 0 0 100 100;" xml:space="preserve">
<style type="text/css">
	.st0{fill:none;stroke:#FFFFFF;stroke-miterlimit:10;}
	.st1{fill:none;stroke:#FFFFFF;stroke-miterlimit:10;stroke-dasharray:3.0362,3.0362;}
	.st2{fill:none;stroke:#FFFFFF;stroke-miterlimit:10;stroke-dasharray:2.9627,2.9627;}
	.st3{fill:none;stroke:#FFFFFF;stroke-miterlimit:10;stroke-dasharray:3;}
	.st4{fill:#FFFFFF;}
	.st5{fill:#E7CCB3;}
	.st6{fill:url(#SVGID_1_);}
	.st7{fill:url(#SVGID_2_);}
	.st8{fill:#F1F2F2;}
	.st9{fill:#0E303F;}
	.st10{fill:#636363;}
	.st11{fill:#01C5C5;}
	.st12{fill:#B8DE70;}
	.st13{fill:#F29232;}
	.st14{fill:#F1F1F1;}
	.st15{fill:#64BFEA;}
	.st16{fill:#FE537A;}
	.st17{fill:url(#SVGID_3_);}
	.st18{fill:#ECF0F1;}
	.st19{fill:#6D6E71;}
	.st20{fill-rule:evenodd;clip-rule:evenodd;fill:#FFFFFF;}
	.st21{fill:url(#SVGID_4_);}
	.st22{fill-rule:evenodd;clip-rule:evenodd;fill:#FFDECC;}
	.st23{fill-rule:evenodd;clip-rule:evenodd;fill:#333333;}
	.st24{fill-rule:evenodd;clip-rule:evenodd;fill:#F6C89D;}
	.st25{opacity:0.2;}
	.st26{fill:#80604A;}
	.st27{opacity:5.000000e-002;}
	.st28{opacity:0.1;fill-rule:evenodd;clip-rule:evenodd;}
	.st29{fill-rule:evenodd;clip-rule:evenodd;fill:#80604A;}
	.st30{fill-rule:evenodd;clip-rule:evenodd;fill:#C93838;}
	.st31{fill-rule:evenodd;clip-rule:evenodd;fill:#F6D1AF;}
	.st32{fill:#343434;}
	.st33{fill-rule:evenodd;clip-rule:evenodd;fill:#EDEDED;}
	.st34{fill-rule:evenodd;clip-rule:evenodd;fill:#F6C8AC;}
	.st35{fill-rule:evenodd;clip-rule:evenodd;fill:#343434;}
	.st36{fill-rule:evenodd;clip-rule:evenodd;fill:#1A1A1A;}
	.st37{fill-rule:evenodd;clip-rule:evenodd;fill:#1B1B1B;}
	.st38{fill-rule:evenodd;clip-rule:evenodd;fill:#268085;}
	.st39{fill:#605343;}
	.st40{fill-rule:evenodd;clip-rule:evenodd;fill:#605343;}
	.st41{fill-rule:evenodd;clip-rule:evenodd;fill:#BF9741;}
	.st42{fill-rule:evenodd;clip-rule:evenodd;fill:#7491A0;}
	.st43{fill-rule:evenodd;clip-rule:evenodd;fill:#F6DBC2;}
	.st44{opacity:0.2;fill-rule:evenodd;clip-rule:evenodd;}
	.st45{fill-rule:evenodd;clip-rule:evenodd;fill:#F6DCB9;}
	.st46{fill-rule:evenodd;clip-rule:evenodd;fill:#DBB18A;}
	.st47{fill-rule:evenodd;clip-rule:evenodd;fill:#F6D9C7;}
	.st48{fill:#BF9741;}
	.st49{fill-rule:evenodd;clip-rule:evenodd;fill:#806049;}
	.st50{fill-rule:evenodd;clip-rule:evenodd;fill:#F5D5C1;}
	.st51{opacity:5.000000e-002;fill-rule:evenodd;clip-rule:evenodd;}
	.st52{fill-rule:evenodd;clip-rule:evenodd;fill:#FFDBBA;}
	.st53{fill-rule:evenodd;clip-rule:evenodd;fill:#605F5B;}
	.st54{fill-rule:evenodd;clip-rule:evenodd;fill:#755A48;}
	.st55{fill:#755A48;}
	.st56{fill-rule:evenodd;clip-rule:evenodd;fill:#F6C5A0;}
	.st57{fill-rule:evenodd;clip-rule:evenodd;fill:#9FBAC4;}
	.st58{fill-rule:evenodd;clip-rule:evenodd;fill:#28A8E3;}
</style>
<g>
	<g>
		<g>
			<path class="st0" d="M72.9,25.4c0.4,0.4,0.7,0.7,1,1.1"/>
			<path class="st1" d="M75.9,28.8c10.6,13.6,9.7,33.2-2.7,45.8C59.8,88.3,37.7,88.4,24,74.9c-13-12.8-13.8-33.2-2.4-47"/>
			<path class="st0" d="M22.7,26.8c0.3-0.4,0.7-0.7,1-1.1"/>
		</g>
	</g>
	<g>
		<g>
			<path class="st0" d="M18.5,54.1c-0.1-0.5-0.1-1-0.2-1.5"/>
			<path class="st2" d="M18.3,49.7C18.5,35,29.4,22.2,44.5,20.2c15.5-2.1,29.9,8.1,33.4,23"/>
			<path class="st0" d="M78.2,44.7c0.1,0.5,0.2,1,0.2,1.5"/>
		</g>
	</g>
	<path class="st3" d="M87.3,45c2.9,21.4-12.2,41.1-33.6,44c-21.4,2.9-41.1-12.2-44-33.6"/>
	<circle class="st4" cx="24.1" cy="25.6" r="2"/>
	<polygon class="st4" points="72.4,27.1 71.2,23.7 74.8,24.4 	"/>
</g>
<path class="st5" d="M42,59.4v3.1c0,0,0-0.3,0-0.8v-1.5C42,59.7,42,59.4,42,59.4z"/>
<g>
	<g>
		<linearGradient id="SVGID_1_" gradientUnits="userSpaceOnUse" x1="75.8282" y1="60.1707" x2="85.0552" y2="60.1707">
			<stop  offset="0.5" style="stop-color:#58595B"/>
			<stop  offset="0.5" style="stop-color:#454547"/>
		</linearGradient>
		<path class="st6" d="M76.8,58.1c-0.3,1.3-0.7,2.7-1,4c3.1,0,6.2,0,9.2,0c-0.3-1.3-0.7-2.7-1-4C81.6,58.1,79.2,58.1,76.8,58.1z"/>
		<linearGradient id="SVGID_2_" gradientUnits="userSpaceOnUse" x1="74.782" y1="62.5051" x2="86.1015" y2="62.5051">
			<stop  offset="0.5" style="stop-color:#58595B"/>
			<stop  offset="0.5" style="stop-color:#454547"/>
		</linearGradient>
		<path class="st7" d="M85.6,62.1H75.3c-0.3,0-0.5,0.3-0.5,0.6v0.2h11.3v-0.2C86.1,62.4,85.9,62.1,85.6,62.1z"/>
		<path class="st8" d="M64.9,56.6v2.2c0,0.4,0.3,0.8,0.8,0.8h29.6c0.4,0,0.8-0.3,0.8-0.8v-2.2H64.9z"/>
		<path class="st9" d="M96,56.6V37.7c0-0.4-0.3-0.8-0.8-0.8H65.6c-0.4,0-0.8,0.3-0.8,0.8v18.9H96z"/>
		<rect x="66.1" y="38.2" class="st4" width="28.6" height="17.1"/>
	</g>
	<rect x="66.1" y="37.9" class="st10" width="28.6" height="3.3"/>
	<g>
		<circle class="st11" cx="67.4" cy="39.6" r="0.5"/>
		<circle class="st12" cx="68.8" cy="39.6" r="0.5"/>
		<circle class="st13" cx="70.2" cy="39.6" r="0.5"/>
	</g>
	<rect x="71.8" y="39.1" class="st4" width="21.3" height="1"/>
	<g>
		<rect x="68" y="43.4" class="st10" width="1.9" height="0.7"/>
		<rect x="70.2" y="43.4" class="st10" width="3.3" height="0.7"/>
	</g>
	<g>
		<rect x="85.9" y="43.4" class="st10" width="3.9" height="0.7"/>
		<rect x="90.1" y="43.4" class="st10" width="1.3" height="0.7"/>
	</g>
	<g>
		<rect x="68" y="45.1" class="st10" width="0.9" height="0.7"/>
		<rect x="69.1" y="45.1" class="st10" width="4.4" height="0.7"/>
	</g>
	<g>
		<rect x="85.9" y="45.1" class="st10" width="1.9" height="0.7"/>
		<rect x="88.1" y="45.1" class="st10" width="3.3" height="0.7"/>
	</g>
	<g>
		<g>
			<rect x="69.3" y="46.4" class="st14" width="2" height="1.9"/>
		</g>
		<g>
			<rect x="87.8" y="46.6" class="st14" width="2" height="1.9"/>
		</g>
		<g>
			<path class="st12" d="M88.8,48.2c-0.1,0-0.1,0-0.2-0.1l-0.5-0.5c-0.1-0.1-0.1-0.2,0-0.3c0.1-0.1,0.2-0.1,0.3,0l0.4,0.4l0.5-0.9
				c0-0.1,0.2-0.1,0.2-0.1c0.1,0,0.1,0.2,0.1,0.2l-0.5,1C88.9,48.1,88.9,48.2,88.8,48.2C88.8,48.2,88.8,48.2,88.8,48.2z"/>
		</g>
		<g>
			<path class="st12" d="M70.3,48.1c-0.1,0-0.1,0-0.2-0.1l-0.5-0.5c-0.1-0.1-0.1-0.2,0-0.3c0.1-0.1,0.2-0.1,0.3,0l0.4,0.4l0.5-0.9
				c0-0.1,0.2-0.1,0.2-0.1c0.1,0,0.1,0.2,0.1,0.2l-0.5,1C70.5,48,70.4,48,70.3,48.1C70.3,48.1,70.3,48.1,70.3,48.1z"/>
		</g>
	</g>
	<g>
		<g>
			<g>
				<rect x="75.3" y="43.3" class="st15" width="8.1" height="1.9"/>
			</g>
			<g>
				<rect x="75.3" y="45.6" class="st15" width="2" height="1.9"/>
			</g>
			<g>
				<rect x="78.3" y="45.6" class="st15" width="2" height="1.9"/>
			</g>
			<g>
				<rect x="81.4" y="45.6" class="st15" width="2" height="1.9"/>
			</g>
			<g>
				<rect x="75.3" y="48" class="st15" width="8.1" height="1.9"/>
			</g>
		</g>
		<g>
			<rect x="75.3" y="50.4" class="st16" width="8.1" height="2.1"/>
			<g>
				<rect x="77.6" y="51.2" class="st4" width="1.2" height="0.5"/>
				<rect x="79" y="51.2" class="st4" width="2.2" height="0.5"/>
			</g>
		</g>
	</g>
</g>
<g>
	<g>
		<g>
			<linearGradient id="SVGID_3_" gradientUnits="userSpaceOnUse" x1="2.2856" y1="45.2363" x2="25.7144" y2="53.7637">
				<stop  offset="0.5" style="stop-color:#58595B"/>
				<stop  offset="0.5" style="stop-color:#454547"/>
			</linearGradient>
			<path class="st17" d="M23,61.1c0,0.5-0.4,0.9-0.9,0.9H5.9C5.4,62,5,61.6,5,61.1V37.9C5,37.4,5.4,37,5.9,37h16.1
				c0.5,0,0.9,0.4,0.9,0.9V61.1z"/>
			<path class="st4" d="M14.9,38.1c0,0.2-0.1,0.3-0.3,0.3c-0.2,0-0.3-0.1-0.3-0.3c0-0.2,0.1-0.3,0.3-0.3
				C14.8,37.8,14.9,38,14.9,38.1z"/>
			<path class="st18" d="M15.4,60.8c0,0.3-0.3,0.6-0.6,0.6c-0.3,0-0.6-0.3-0.6-0.6c0-0.3,0.3-0.6,0.6-0.6
				C15.1,60.2,15.4,60.5,15.4,60.8z"/>
			<path class="st19" d="M15.1,60.8c0,0.2-0.1,0.3-0.3,0.3c-0.2,0-0.3-0.1-0.3-0.3c0-0.2,0.1-0.3,0.3-0.3
				C15,60.5,15.1,60.6,15.1,60.8z"/>
		</g>
		<g>
			<rect x="6.2" y="38.8" class="st14" width="15.8" height="20.3"/>
			<rect x="6.2" y="38.8" class="st10" width="15.8" height="2.9"/>
			<g>
				<circle class="st11" cx="7.3" cy="40.2" r="0.5"/>
				<circle class="st12" cx="8.5" cy="40.2" r="0.5"/>
				<circle class="st13" cx="9.7" cy="40.2" r="0.5"/>
			</g>
			<rect x="11.1" y="39.8" class="st4" width="8.4" height="0.9"/>
			<g>
				<rect x="13.5" y="42.7" class="st11" width="7.1" height="1.6"/>
			</g>
			<g>
				<rect x="13.5" y="44.8" class="st11" width="1.8" height="1.6"/>
			</g>
			<g>
				<rect x="9" y="51" class="st4" width="1.8" height="1.6"/>
			</g>
			<g>
				<rect x="9" y="53" class="st4" width="1.8" height="1.6"/>
			</g>
			<g>
				<rect x="16.2" y="44.8" class="st11" width="1.8" height="1.6"/>
			</g>
			<g>
				<rect x="18.8" y="44.8" class="st11" width="1.8" height="1.6"/>
			</g>
			<g>
				<rect x="13.5" y="46.8" class="st11" width="7.1" height="1.6"/>
			</g>
			<g>
				<g>
					<rect x="13.5" y="48.9" class="st11" width="7.1" height="1.6"/>
				</g>
				<g>
					<rect x="13.5" y="51" class="st11" width="7.1" height="1.6"/>
				</g>
				<g>
					<rect x="13.5" y="53.1" class="st11" width="7.1" height="1.6"/>
				</g>
			</g>
			<g>
				<rect x="7.2" y="43.2" class="st10" width="1.6" height="0.6"/>
				<rect x="9.1" y="43.2" class="st10" width="2.9" height="0.6"/>
			</g>
			<g>
				<rect x="7.2" y="45.3" class="st10" width="3.4" height="0.6"/>
				<rect x="10.9" y="45.3" class="st10" width="1.1" height="0.6"/>
			</g>
			<g>
				<rect x="7.2" y="47.3" class="st10" width="0.7" height="0.6"/>
				<rect x="8.2" y="47.3" class="st10" width="3.8" height="0.6"/>
			</g>
			<g>
				<rect x="7.2" y="49.4" class="st10" width="1.6" height="0.6"/>
				<rect x="9.1" y="49.4" class="st10" width="2.9" height="0.6"/>
			</g>
			<path class="st12" d="M9.3,53.9l0.5,0.4c0,0,0.1,0,0.1,0l0.5-0.9L9.3,53.9z"/>
			<path class="st12" d="M9.3,51.9l0.5,0.4c0,0,0.1,0,0.1,0l0.5-0.9L9.3,51.9z"/>
			<rect x="10" y="56" class="st16" width="8.2" height="2.1"/>
			<g>
				<rect x="12.3" y="56.8" class="st4" width="1.2" height="0.5"/>
				<rect x="13.7" y="56.8" class="st4" width="2.2" height="0.5"/>
			</g>
		</g>
	</g>
</g>
<g>
	<g>
		<polygon class="st4" points="70.4,63.9 72.4,66 72.4,68.7 71.1,68.7 71.1,66.7 69.7,66.7 69.7,68.7 68.4,68.7 68.4,66 		"/>
		<path class="st4" d="M73.1,66.3c-0.1,0-0.2,0-0.2-0.1l-2.5-2.5l-2.5,2.5c-0.1,0.1-0.3,0.1-0.4,0c-0.1-0.1-0.1-0.3,0-0.4l2.7-2.7
			c0.1-0.1,0.3-0.1,0.4,0l2.7,2.7c0.1,0.1,0.1,0.3,0,0.4C73.3,66.2,73.2,66.3,73.1,66.3z"/>
	</g>
	<path class="st4" d="M50,65.7c-1.6,0-2.9,1.3-2.9,2.9c0,0.8,0.3,1.5,0.8,2L46,72.4c-0.1,0.1-0.1,0.2-0.1,0.3c0,0.1,0,0.2,0.1,0.3
		c0.1,0.1,0.4,0.1,0.5,0l1.8-1.8c0.5,0.3,1,0.5,1.6,0.5c1.6,0,2.9-1.3,2.9-2.9C52.9,67,51.6,65.7,50,65.7z M50,66.2
		c1.3,0,2.4,1.1,2.4,2.4c0,1.3-1.1,2.4-2.4,2.4c-1.3,0-2.4-1.1-2.4-2.4C47.5,67.3,48.6,66.2,50,66.2z"/>
	<path class="st4" d="M54.5,47.1v3.7c0,0.4,0.3,0.7,0.7,0.7h6.1c0.4,0,0.7-0.3,0.7-0.7v-3.7c0-0.4-0.3-0.7-0.7-0.7h-6.1
		C54.9,46.4,54.5,46.7,54.5,47.1z M55,50.8v-3.7l2.4,2L55,50.8C55,50.8,55,50.8,55,50.8z M61.6,50.9l-2.4-1.8l2.4-2L61.6,50.9
		C61.6,50.8,61.6,50.8,61.6,50.9z M55.4,46.8h5.8L58.5,49c-0.1,0.1-0.3,0.1-0.5,0L55.4,46.8z M61.1,51.1h-5.7l2.3-1.7l0,0
		c0.1,0.1,0.3,0.2,0.5,0.2c0.2,0,0.4-0.1,0.5-0.2l0,0L61.1,51.1z"/>
	<g>
		<path class="st4" d="M26.5,45.5c0.1,0.4,0.4,0.7,0.7,0.7c0.3,0,0.6-0.3,0.7-0.7c0,0,0.1-0.1,0.1-0.2c0-0.1,0-0.2-0.1-0.2
			c0,0,0,0,0,0c-0.1-0.3-0.3-0.6-0.7-0.6c0.1,0,0.1-0.1,0.1-0.1c-0.1,0-0.2,0-0.2,0c0,0-0.1,0-0.2,0c0,0,0.1,0,0.1,0c0,0,0,0,0,0
			c-0.1,0-0.2,0-0.3,0c0,0,0.1,0,0.1,0c-0.2,0.1-0.4,0.3-0.5,0.6c0,0,0,0,0,0c-0.1,0-0.1,0.1-0.1,0.2C26.4,45.5,26.4,45.5,26.5,45.5
			z"/>
		<path class="st4" d="M29.4,47.2c-0.1-0.1-0.3-0.1-0.4,0l-0.3,0.4L28.4,47l-0.1-0.3c0-0.1-0.1-0.1-0.1-0.2l0,0
			c-0.1-0.1-0.2-0.1-0.4-0.1h-0.2c0,0.1,0,0.2,0,0.2c0,0.3-0.1,0.5-0.2,0.7l-0.1-0.5c0,0,0,0,0,0c0,0,0,0,0,0l0.1-0.3c0,0,0,0,0,0
			h-0.5c0,0,0,0,0,0l0.1,0.3c0,0,0,0,0,0c0,0,0,0,0,0l-0.1,0.5c-0.1-0.1-0.2-0.4-0.2-0.7c0-0.1,0-0.2,0-0.2h-0.2
			c-0.1,0-0.3,0-0.4,0.1c0,0,0,0,0,0c-0.1,0-0.1,0.1-0.1,0.2L25.9,47l-0.7,1.8c-0.1,0.2,0,0.3,0.2,0.4c0.2,0.1,0.4,0,0.4-0.2
			l0.4-1.1v0.7c0,0,0,0,0,0c0,0,0,0,0,0v3.3c0,0.2,0.2,0.4,0.4,0.4c0.2,0,0.4-0.2,0.4-0.4v-2.7h0.2v2.7c0,0.2,0.2,0.4,0.4,0.4
			c0.2,0,0.4-0.2,0.4-0.4v-3.3c0,0,0,0,0,0c0,0,0,0,0,0v-0.7l0.1,0.4c0,0.1,0,0.1,0.1,0.2c0.1,0.1,0.3,0.1,0.4,0l0.2-0.2l0.5-0.6
			C29.5,47.4,29.5,47.3,29.4,47.2z"/>
	</g>
	<path class="st4" d="M32.8,63.8c0.1-0.2,0.2-0.4,0.2-0.6c0-0.6-0.5-1-1.1-1c-0.3,0-0.6,0.1-0.8,0.3c-0.3-0.8-1.1-1.3-2.1-1.3
		c-1,0-1.9,0.6-2.2,1.5c-0.1,0-0.2,0-0.3,0c-1,0-1.8,0.8-1.8,1.7c0,0.1,0,0.1,0,0.2c-0.5,0.2-0.8,0.6-0.9,1.1c0,0.4,0.2,0.7,0.5,1
		l9.2,0c0.4-0.3,0.6-0.7,0.6-1.2C34.3,64.6,33.6,63.9,32.8,63.8z"/>
	<g>
		<path class="st4" d="M37.3,74.6c0.5-0.4,0.8-0.9,0.8-1.5c0-0.6-0.3-1.1-0.8-1.5c-0.5-0.4-1.2-0.6-2-0.6c-0.8,0-1.4,0.2-2,0.6
			c-0.5,0.4-0.8,0.9-0.8,1.5c0,0.6,0.3,1,0.8,1.4c0,0,0,0.1,0,0.1c0,0.3-0.1,0.5-0.2,0.7c-0.2,0.2-0.4,0.3-0.6,0.3
			c0.2,0.2,0.3,0.4,0.5,0.4c0.3,0,0.6-0.1,0.9-0.3c0.2-0.2,0.4-0.5,0.4-0.8c0.3,0.1,0.7,0.2,1.1,0.2C36.1,75.2,36.8,75,37.3,74.6z"
			/>
		<path class="st4" d="M38.6,76.7c-0.1-0.1-0.2-0.3-0.2-0.5c0,0,0-0.1,0-0.1c0.3-0.3,0.5-0.6,0.5-1c0-0.4-0.2-0.7-0.6-1
			c-0.1-0.1-0.3-0.2-0.4-0.2c0,0,0,0,0,0c-0.1,0.3-0.3,0.5-0.6,0.7c-0.3,0.2-0.6,0.4-0.9,0.5c-0.3,0.1-0.7,0.2-1.1,0.2
			c-0.1,0-0.1,0-0.2,0c0,0.4,0.2,0.7,0.6,0.9c0.4,0.3,0.8,0.4,1.3,0.4c0.3,0,0.5,0,0.7-0.1c0,0.2,0.1,0.4,0.3,0.5
			c0.2,0.1,0.4,0.2,0.6,0.2c0.1,0,0.3-0.1,0.4-0.3C38.9,76.9,38.8,76.9,38.6,76.7z"/>
		<path class="st4" d="M40.1,74c-0.2-0.2-0.2-0.4-0.2-0.7c0,0,0-0.1,0-0.1c0.5-0.4,0.8-0.9,0.8-1.4c0-0.6-0.3-1.1-0.8-1.5
			c-0.5-0.4-1.2-0.6-2-0.6c-0.8,0-1.4,0.2-2,0.6c-0.3,0.2-0.5,0.5-0.6,0.7c0,0,0.1,0,0.1,0c0.4,0,0.8,0.1,1.1,0.2
			c0.3,0.1,0.6,0.3,0.9,0.5c0.3,0.2,0.5,0.4,0.6,0.7c0.1,0.3,0.2,0.5,0.2,0.8c0,0.2,0,0.5-0.1,0.7c0.3,0,0.6-0.1,0.8-0.2
			c0,0.3,0.2,0.6,0.4,0.8c0.3,0.2,0.5,0.3,0.9,0.3c0.2,0,0.4-0.1,0.5-0.4C40.4,74.3,40.2,74.2,40.1,74z"/>
	</g>
	<g>
		<polygon class="st4" points="60.3,77.1 60.3,74.2 58.6,75.7 58.5,75.6 58.5,77.1 		"/>
		<polygon class="st4" points="62.4,77.1 62.4,74.7 61.1,73.3 60.6,73.8 60.6,77.1 		"/>
		<polygon class="st4" points="64.5,77.1 64.5,73.9 63,75.2 62.7,75 62.7,77.1 		"/>
		<polygon class="st4" points="66.6,77.1 66.6,72.1 64.8,73.6 64.8,77.1 		"/>
		<path class="st4" d="M66.6,70.4l-3.5,3l-1.6-1.6c-0.1-0.1-0.2-0.1-0.3-0.1c-0.1,0-0.2,0-0.3,0.1l-2.3,2.3v0.8l0.2,0.1l2.5-2.4
			l1.6,1.6c0.1,0.1,0.4,0.2,0.5,0l3.3-2.9L66.6,70.4L66.6,70.4z"/>
	</g>
	<path class="st4" d="M44.7,53.5c0-0.1-0.1-0.1-0.2-0.1h-0.9c-0.2-0.6-0.5-1.2-0.9-1.4c-1.2-0.8-4.3-0.8-5.4,0
		c-0.3,0.2-0.6,0.8-0.9,1.4h-0.9c-0.1,0-0.1,0-0.2,0.1c0,0.1-0.1,0.1,0,0.2l0.1,0.7c0,0.1,0.1,0.2,0.2,0.2h0.3
		c-0.3,0.3-0.4,0.7-0.4,1.1c0,0.5,0.2,0.9,0.5,1.2c0,0,0,0,0,0v0.9c0,0.2,0.2,0.4,0.4,0.4h0.9c0.2,0,0.4-0.2,0.4-0.4v-0.4h4.8v0.4
		c0,0.2,0.2,0.4,0.4,0.4h0.9c0.2,0,0.4-0.2,0.4-0.4v-0.9c0.3-0.3,0.5-0.8,0.5-1.2c0-0.4-0.1-0.8-0.4-1.1h0.3c0.1,0,0.2-0.1,0.2-0.2
		l0.1-0.7C44.7,53.6,44.7,53.5,44.7,53.5L44.7,53.5z M37.7,52.6c0.9-0.6,3.7-0.6,4.6,0c0.2,0.1,0.4,0.6,0.6,1.2H37
		C37.3,53.2,37.5,52.7,37.7,52.6L37.7,52.6z M36.6,55.7c0-0.4,0.3-0.7,0.7-0.7c0.4,0,0.7,0.3,0.7,0.7c0,0.4-0.3,0.7-0.7,0.7
		C36.9,56.4,36.6,56.1,36.6,55.7L36.6,55.7z M42.7,56.4c-0.4,0-0.7-0.3-0.7-0.7c0-0.4,0.3-0.7,0.7-0.7c0.4,0,0.7,0.3,0.7,0.7
		C43.4,56.1,43.1,56.4,42.7,56.4L42.7,56.4z M42.7,56.4"/>
	<path class="st20" d="M64.4,61.5c0-1-0.8-1.9-1.9-1.9c-1,0-1.9,0.9-1.9,1.9c0,1,0.7,1.7,1.6,1.9v2c0,1.6-1.3,2.8-2.8,2.8
		c-1.6,0-2.8-1.3-2.8-2.8l0-2.3c0.7-0.1,1.5-0.6,2.1-1.3c0.1-0.1,0.1-0.3,0.1-0.4c0.8-1.1,1.4-2.6,1.4-3.8c0-1.8-0.8-2-2.1-2.3l0,0
		c-0.1-0.2-0.3-0.3-0.5-0.3c-0.3,0-0.5,0.2-0.5,0.5c0,0.3,0.2,0.5,0.5,0.5c0.1,0,0.2,0,0.3-0.1h0c1.3,0.3,1.6,0.4,1.6,1.7
		c0,1-0.5,2.4-1.2,3.4c-0.1,0-0.3,0.1-0.4,0.2c-0.4,0.4-1,1-1.7,1c-0.7,0-1.3-0.5-1.7-1c-0.1-0.1-0.2-0.2-0.3-0.2
		c-0.8-1-1.3-2.4-1.3-3.4c0-1.3,0.4-1.4,1.6-1.7h0c0.1,0.1,0.2,0.1,0.3,0.1c0.3,0,0.5-0.2,0.5-0.5c0-0.3-0.2-0.5-0.5-0.5
		c-0.2,0-0.4,0.1-0.5,0.3l0,0c-1.3,0.3-2.2,0.5-2.2,2.3c0,1.2,0.5,2.7,1.4,3.8c0,0.2,0,0.3,0.1,0.4c0.6,0.7,1.4,1.2,2.1,1.3v2.3
		c0,1.9,1.6,3.5,3.5,3.5c1.9,0,3.5-1.6,3.5-3.5v-2C63.7,63.3,64.4,62.5,64.4,61.5L64.4,61.5z M62.5,62.8L62.5,62.8
		c-0.7,0-1.3-0.6-1.3-1.3c0-0.7,0.5-1.3,1.3-1.3c0.7,0,1.3,0.6,1.3,1.3C63.8,62.2,63.2,62.8,62.5,62.8L62.5,62.8z"/>
	<path class="st20" d="M38.7,45.8l-0.2-0.1l-0.3-1l-0.2,1l-0.2,0.1h-0.7l-0.4,1.5h-0.4l-0.7-2.6l-0.2,1l-0.2,0.1h-1.2
		c0.8,1.6,2.9,2.7,2.9,2.7s2.1-1.1,2.9-2.7H38.7z"/>
	<path class="st20" d="M35.2,45.5l0.4-1.5H36l0.7,2.6l0.3-1l0.2-0.1h0.6l0.4-1.5h0.4l0.4,1.5H40c0.1-0.3,0.1-0.5,0.1-0.8
		c0-1-0.8-1.9-1.8-1.9c-0.5,0-1,0.2-1.3,0.6c-0.3-0.4-0.8-0.6-1.3-0.6c-1,0-1.8,0.8-1.8,1.9c0,0.3,0,0.6,0.1,0.8H35.2z"/>
	<g>
		<path class="st4" d="M49.3,37.4V37h0c0-0.1-0.2-0.2-0.3-0.2c-0.1,0-0.3,0.1-0.3,0.2h0v0.4c-3.2,0.1-5.7,2.4-6,5.4l0.2,0
			c0.2-0.7,0.8-1.2,1.5-1.2c0.7,0,1.3,0.5,1.5,1.2l0,0.1h0.2l0-0.1c0.1-0.7,0.7-1.2,1.5-1.2c0.5,0,1,0.3,1.3,0.7v6.5
			c0,0.4-0.3,0.6-0.6,0.6c-0.3,0-0.6-0.3-0.6-0.6c0-0.2-0.1-0.3-0.3-0.3c-0.2,0-0.3,0.1-0.3,0.2h0v0.1c0,0.7,0.5,1.3,1.2,1.3
			c0.7,0,1.2-0.6,1.2-1.3v-6.6c0.3-0.4,0.7-0.6,1.2-0.6c0.7,0,1.3,0.5,1.5,1.2l0,0.1h0.2l0-0.1c0.1-0.7,0.7-1.2,1.5-1.2
			c0.7,0,1.3,0.5,1.4,1.1l0.2,0C54.9,39.8,52.3,37.6,49.3,37.4L49.3,37.4z M49.3,37.4"/>
	</g>
	<path id="XMLID_320_" class="st4" d="M29.9,35.7c-1.5,0-2.8,0.7-3.6,1.8c0.8,1.1,2.1,1.8,3.6,1.8c1.5,0,2.8-0.7,3.6-1.8
		C32.7,36.4,31.4,35.7,29.9,35.7z M29.5,36.6c0.2,0,0.5,0.2,0.5,0.5c0,0.2-0.2,0.5-0.5,0.5c-0.2,0-0.5-0.2-0.5-0.5
		C29,36.8,29.2,36.6,29.5,36.6z M31.8,38.5c-0.3,0.1-0.6,0.3-0.9,0.3c-0.3,0.1-0.6,0.1-1,0.1c-0.3,0-0.7,0-1-0.1
		c-0.3-0.1-0.6-0.2-0.9-0.3c-0.4-0.2-0.8-0.5-1.2-0.9c0.3-0.4,0.7-0.7,1.2-0.9c0.2-0.1,0.5-0.2,0.7-0.3c-0.1,0.2-0.2,0.5-0.2,0.7
		c0,0.7,0.6,1.4,1.4,1.4c0.7,0,1.4-0.6,1.4-1.4c0-0.3-0.1-0.5-0.2-0.7c0.2,0.1,0.5,0.2,0.7,0.3c0.4,0.2,0.8,0.5,1.2,0.9
		C32.6,37.9,32.2,38.2,31.8,38.5z M32.4,35.2c-0.8-0.4-1.6-0.6-2.5-0.6c-0.9,0-1.7,0.2-2.5,0.6c-0.4,0.2-0.8,0.5-1.2,0.8v0.8
		c0.4-0.4,0.9-0.8,1.4-1c0.7-0.4,1.5-0.5,2.3-0.5c0.8,0,1.6,0.2,2.3,0.5c0.5,0.3,1,0.6,1.4,1V36C33.2,35.7,32.8,35.4,32.4,35.2z"/>
	<path id="XMLID_381_" class="st4" d="M41.2,66.7C41.2,66.7,41.2,66.7,41.2,66.7c-0.1,0-0.1-0.1-0.1-0.1l-0.2-4.7L40.6,64
		c0,0.1-0.1,0.1-0.1,0.1h-3.1c-0.1,0-0.1-0.1-0.1-0.1c0-0.1,0.1-0.1,0.1-0.1h3l0.4-3.5c0-0.1,0.1-0.1,0.1-0.1c0.1,0,0.1,0,0.1,0.1
		l0.2,4.9l0.3-2.2c0-0.1,0.1-0.1,0.1-0.1c0.1,0,0.1,0,0.1,0.1l0.3,1.2l0.3-2.9c0-0.1,0.1-0.1,0.1-0.1c0.1,0,0.1,0,0.1,0.1l0.4,2.8
		l0.4-1.6c0-0.1,0.1-0.1,0.1-0.1c0.1,0,0.1,0,0.1,0.1l0.1,1.5l0.2-1.9c0-0.1,0.1-0.1,0.1-0.1c0.1,0,0.1,0,0.1,0.1l0.3,1.7h2.9
		c0.1,0,0.1,0.1,0.1,0.1c0,0.1-0.1,0.1-0.1,0.1h-3c-0.1,0-0.1,0-0.1-0.1l-0.2-1.1l-0.3,2.3c0,0.1-0.1,0.1-0.1,0.1c0,0,0,0,0,0
		c-0.1,0-0.1,0-0.1-0.1l-0.2-2l-0.4,1.4c0,0.1-0.1,0.1-0.1,0.1c-0.1,0-0.1,0-0.1-0.1l-0.4-2.4l-0.3,2.6c0,0.1-0.1,0.1-0.1,0.1
		c-0.1,0-0.1,0-0.1-0.1l-0.3-1.3l-0.4,2.7C41.3,66.6,41.2,66.7,41.2,66.7z"/>
	<g id="XMLID_403_">
		<path id="XMLID_411_" class="st4" d="M59.6,39.3v2.2c0.6,0,1.1-0.2,1.5-0.6c-0.4-0.4-0.6-1-0.7-1.6H59.6z"/>
		<path id="XMLID_410_" class="st4" d="M58.7,39.3c0,0.6-0.3,1.2-0.7,1.6c0.4,0.4,0.9,0.6,1.5,0.6v-2.2H58.7z"/>
		<path id="XMLID_409_" class="st4" d="M58.5,39.2c0-0.5-0.3-1-0.6-1.4c-0.3,0.4-0.6,0.9-0.6,1.4H58.5z"/>
		<path id="XMLID_408_" class="st4" d="M60.6,39.3c0,0.6,0.2,1.1,0.6,1.5c0.4-0.4,0.6-0.9,0.6-1.5H60.6z"/>
		<path id="XMLID_407_" class="st4" d="M60.5,39.2c0-0.6,0.3-1.1,0.6-1.5c-0.4-0.4-0.9-0.6-1.5-0.6v2.1H60.5z"/>
		<path id="XMLID_406_" class="st4" d="M61.8,39.2c0-0.5-0.3-1-0.6-1.4c-0.3,0.4-0.6,0.9-0.6,1.4H61.8z"/>
		<path id="XMLID_405_" class="st4" d="M59.5,39.2V37c-0.6,0-1.1,0.2-1.5,0.6c0.4,0.4,0.6,0.9,0.6,1.5H59.5z"/>
		<path id="XMLID_404_" class="st4" d="M57.3,39.3c0,0.6,0.2,1.1,0.6,1.5c0.4-0.4,0.6-0.9,0.6-1.5H57.3z"/>
	</g>
</g>
<g>
	<linearGradient id="SVGID_4_" gradientUnits="userSpaceOnUse" x1="45.3362" y1="80.5564" x2="56.1508" y2="95.1487">
		<stop  offset="0.5" style="stop-color:#58595B"/>
		<stop  offset="0.5" style="stop-color:#454547"/>
	</linearGradient>
	<path class="st21" d="M55,95.4c0,0.3-0.3,0.6-0.6,0.6H43.6c-0.3,0-0.6-0.3-0.6-0.6V75.6c0-0.3,0.3-0.6,0.6-0.6h10.8
		c0.3,0,0.6,0.3,0.6,0.6V95.4z"/>
	<rect x="44.3" y="76.2" class="st4" width="9.4" height="17.9"/>
	<g>
		<rect x="44.4" y="76.4" class="st10" width="9.1" height="1.7"/>
		<circle class="st11" cx="45.1" cy="77.3" r="0.3"/>
		<circle class="st12" cx="45.8" cy="77.3" r="0.3"/>
		<circle class="st13" cx="46.5" cy="77.3" r="0.3"/>
		<rect x="47.3" y="77" class="st4" width="4.9" height="0.5"/>
	</g>
	<g>
		<rect x="45.4" y="79.7" class="st11" width="7.1" height="1.6"/>
	</g>
	<g>
		<rect x="45.4" y="81.8" class="st11" width="1.8" height="1.6"/>
	</g>
	<g>
		<rect x="48.1" y="81.8" class="st11" width="1.8" height="1.6"/>
	</g>
	<g>
		<rect x="50.8" y="81.8" class="st11" width="1.8" height="1.6"/>
	</g>
	<g>
		<rect x="45.4" y="83.9" class="st11" width="7.1" height="1.6"/>
	</g>
	<g>
		<g>
			<rect x="45.4" y="86" class="st11" width="7.1" height="1.6"/>
		</g>
		<g>
			<rect x="45.4" y="88.1" class="st11" width="7.1" height="1.6"/>
		</g>
		<g>
			<rect x="45.4" y="90.1" class="st11" width="7.1" height="1.6"/>
		</g>
	</g>
</g>
<g>
	<g>
		<path class="st22" d="M52,13.4c-2.9,1.3-3.7,1.9-4.1,2.2c-0.5,0.5-0.8,2.2-1.1,3.7h6.5h6.5c-0.3-1.5-0.6-3.2-1.1-3.7
			c-0.3-0.3-1.2-1-4-2.2L52,13.4z"/>
		<path class="st23" d="M52,13.4c-2.9,1.3-3.7,1.9-4.1,2.2c-0.5,0.5-0.8,2.2-1.1,3.7h6.5h6.5c-0.3-1.5-0.6-3.2-1.1-3.7
			c-0.3-0.3-1.2-1-4-2.2L52,13.4z"/>
		<path class="st24" d="M51.9,10.9v2.1v1c0.8,0.9,2,0.9,2.8,0v-1v-2.1C54.7,9.2,51.9,9.2,51.9,10.9z"/>
		
			<ellipse transform="matrix(-0.3127 -0.9498 0.9498 -0.3127 57.2325 60.8139)" class="st24" cx="50.6" cy="9.7" rx="0.8" ry="0.5"/>
		<ellipse transform="matrix(0.3129 -0.9498 0.9498 0.3129 29.193 59.7569)" class="st24" cx="55.9" cy="9.7" rx="0.8" ry="0.5"/>
		<path class="st20" d="M51.9,13.1l-0.1,0.5l0.3,2.5l1.2-1.2L51.9,13.1z"/>
		<path class="st25" d="M51.9,12.5v0.1c0,0,0.7,0.8,1.4,0.9c0.7,0,1.4-0.8,1.4-0.8v-0.2"/>
		<g>
			<path class="st24" d="M53.3,5.2c-4.3,0-2.6,5.9-2.4,6.3c0.3,0.5,1.7,1.6,2.4,1.6c0.7,0,2.1-1.1,2.4-1.6
				C55.9,11.1,57.5,5.2,53.3,5.2z"/>
			<path class="st26" d="M56.3,9.2c0.2-1.1,0.1-3.6-0.8-3.5c-0.8-0.8-3.5-0.9-4.3-0.1c-1.7,0.3-0.9,3.6-0.9,3.6
				c0.1,0.3,0.1,0.6,0.2,0.9c0.1,0,0.2,0,0.3,0c-0.1-0.2-0.2-0.5-0.3-0.6c0-0.1-0.1-0.5-0.1-0.5c0-0.6,0.5-2.3,1.2-2.5
				c0.3-0.1,1,0.6,1.5,0.6c0.5,0,1.1-0.7,1.4-0.6c0.8,0.1,1.4,1.7,1.4,2.5c0,0.1-0.1,0.7-0.3,1.1c0.1,0,0.2,0,0.4,0
				C56.2,9.8,56.3,9.5,56.3,9.2L56.3,9.2z"/>
		</g>
		<path class="st20" d="M54.7,13.1l0.1,0.5L54.4,16l-1.2-1.2L54.7,13.1z"/>
		<polyline class="st27" points="51.9,13.1 53.3,14.8 54.7,13.1 54.7,13 53.3,14.7 51.9,13 51.9,13.1 		"/>
		<rect x="53" y="16" class="st28" width="0.5" height="0"/>
		<g>
			<path class="st29" d="M53.4,10.8c-0.1,0-0.1,0.1-0.1,0.1s0-0.1-0.1-0.1c-0.2,0-1.3,0.1-1.5,0.5c0,0,1.4,0,1.5,0
				c0.1,0,0.1-0.2,0.1-0.2s0.1,0.2,0.1,0.2c0.1,0,1.5,0,1.5,0C54.6,10.9,53.6,10.8,53.4,10.8z"/>
		</g>
	</g>
	<g>
		<path class="st22" d="M40.6,13.4c-2.9,1.3-3.7,1.9-4.1,2.2c-0.5,0.5-0.8,2.2-1.1,3.7h6.5h6.5c-0.3-1.5-0.6-3.2-1.1-3.7
			c-0.3-0.3-1.2-1-4-2.2L40.6,13.4z"/>
		<path class="st30" d="M40.6,13.4c-2.9,1.3-3.7,1.9-4.1,2.2c-0.5,0.5-0.8,2.2-1.1,3.7h6.5h6.5c-0.3-1.5-0.6-3.2-1.1-3.7
			c-0.3-0.3-1.2-1-4-2.2L40.6,13.4z"/>
		<path class="st31" d="M40.5,10.9v2.1v1c0.8,0.9,2,0.9,2.8,0v-1v-2.1C43.3,9.2,40.5,9.2,40.5,10.9z"/>
		
			<ellipse transform="matrix(-0.3127 -0.9498 0.9498 -0.3127 42.3486 50.0445)" class="st31" cx="39.3" cy="9.7" rx="0.8" ry="0.5"/>
		<ellipse transform="matrix(0.3129 -0.9498 0.9498 0.3129 21.4027 48.9881)" class="st31" cx="44.6" cy="9.7" rx="0.8" ry="0.5"/>
		<path class="st25" d="M40.5,12.5v0.1c0,0,0.7,0.8,1.4,0.9c0.7,0,1.4-0.8,1.4-0.8v-0.2"/>
		<g>
			<path class="st31" d="M41.9,5.2c-4.3,0-2.6,5.9-2.4,6.3c0.3,0.5,1.7,1.6,2.4,1.6c0.7,0,2.1-1.1,2.4-1.6
				C44.6,11.1,46.2,5.2,41.9,5.2z"/>
			<path class="st32" d="M43.8,5.4c-1.4-1.1-3.7-0.5-4.3,0.5c-0.8,1.2-0.5,3-0.3,4.3c0,0,0,0,0,0c0,0,0,0,0,0c0,0,0,0,0,0.1
				c0,0,0.1,0,0.1,0c0,0,0,0,0,0c0-0.1,0-0.4,0-0.4c0-0.2-0.1-0.4-0.1-0.5c0.1-0.9,0.5-1,0.7-2.1c0-0.1,0.1-0.1,0.1-0.2
				c0.1-0.1,0.1-0.1,0.2-0.2c0,0,0.1,0,0.1-0.1c0.8-0.3,1.6,0.1,2.3,0.4C43,7.3,43,6.8,43.3,6.8c0.1,0,0.4,0.4,0.5,0.4
				c1.1-0.1,0.6,1.5,0.8,2.3c0,0.1,0,0.3-0.1,0.4c0,0,0,0.2,0,0.4c0,0,0,0,0,0c0,0,0.1,0,0.1,0c0,0,0,0,0-0.1c0-0.1,0-0.1,0-0.1
				c0-0.1,0-0.1,0-0.2C45,9,45.4,5.7,43.8,5.4z M41.7,6.5C41.6,6.5,41.6,6.5,41.7,6.5C41.6,6.5,41.7,6.5,41.7,6.5
				C41.7,6.5,41.7,6.5,41.7,6.5z"/>
		</g>
		<rect x="41.7" y="16" class="st28" width="0.5" height="0"/>
		<path class="st32" d="M42.8,5.8c0,0-1.2-0.9-2.4-0.4c-1.1,0.5-2.1,0.6-2.3,0.3c0,0-0.7,1.4,0.6,2.2s2.8,0.2,3.2-0.3
			c0.4-0.5,1.1-1.2,1.5-1.1C43.7,6.7,42.8,5.8,42.8,5.8z"/>
	</g>
	<g>
		<path class="st22" d="M34.3,19.2c-2.9,1.3-3.7,1.9-4.1,2.2c-0.5,0.5-0.8,2.2-1.1,3.7h6.5h6.5c-0.3-1.5-0.6-3.2-1.1-3.7
			c-0.3-0.3-1.2-1-4-2.2L34.3,19.2z"/>
		<path class="st33" d="M34.3,19.2c-2.9,1.3-3.7,1.9-4.1,2.2c-0.5,0.5-0.8,2.2-1.1,3.7h6.5h6.5c-0.3-1.5-0.6-3.2-1.1-3.7
			c-0.3-0.3-1.2-1-4-2.2L34.3,19.2z"/>
		<path class="st34" d="M34.2,16.7v2.1v1c0.8,0.9,2,0.9,2.8,0v-1v-2.1C37,15,34.2,15,34.2,16.7z"/>
		
			<ellipse transform="matrix(-0.3127 -0.9498 0.9498 -0.3127 28.5831 51.5558)" class="st34" cx="32.9" cy="15.4" rx="0.8" ry="0.5"/>
		<ellipse transform="matrix(0.3129 -0.9498 0.9498 0.3129 11.6015 46.9113)" class="st34" cx="38.2" cy="15.4" rx="0.8" ry="0.5"/>
		<path class="st35" d="M35.6,20.5c0,0-1.9,0.5-1.9,0.6c0,0.1,0.7,3.9,0.7,3.9H37l0.3-3.9L35.6,20.5z"/>
		<polygon class="st36" points="34.2,19.2 34.2,19.8 34.8,25 33.8,25 32.6,22.7 33.7,22 32.4,21.4 33.6,19.5 		"/>
		<polygon class="st37" points="37,19.2 37,19.8 36.4,25 37.4,25 38.6,22.7 37.5,22 38.8,21.4 37.7,19.5 		"/>
		<path class="st38" d="M35,21.2l0.3,0.5c0.2,0,0.3,0,0.5,0l0.3-0.5l-0.6-0.6L35,21.2z"/>
		<polygon class="st38" points="35.3,21.7 34.8,25 36.3,25 35.9,21.7 		"/>
		<path class="st35" d="M34.2,18.8l-0.1,0.5l0.3,2.5l1.2-1.2L34.2,18.8z"/>
		<path class="st25" d="M34.2,18.2v0.1c0,0,0.7,0.8,1.4,0.9c0.7,0,1.4-0.8,1.4-0.8v-0.2"/>
		<g>
			<path class="st34" d="M35.6,11c-4.3,0-2.6,5.9-2.4,6.3c0.3,0.5,1.7,1.6,2.4,1.6c0.7,0,2.1-1.1,2.4-1.6C38.2,16.8,39.9,11,35.6,11
				z"/>
		</g>
		<path class="st35" d="M37,18.8l0.1,0.5l-0.3,2.5l-1.2-1.2L37,18.8z"/>
		<polyline class="st27" points="34.2,18.8 35.6,20.5 37,18.8 37,18.7 35.6,20.5 34.2,18.7 34.2,18.8 		"/>
		<rect x="35.3" y="21.7" class="st28" width="0.5" height="0"/>
		<g>
			<path class="st39" d="M38.4,15.3c0,0.1,0,0.2,0,0.2s-0.4,1.3-0.7,1.7c-0.6,0.8-1.5,1.3-2,1.3c-0.6,0-1.4-0.4-2-1.2
				c-0.3-0.3-0.7-1.7-0.7-1.8c0-0.1,0-0.1,0-0.2c-0.1,0-0.1,0.6-0.1,0.6c0.1,0.7,0.2,1.1,0.5,1.5c0.4,0.6,1.6,1.5,2.4,1.5
				c0.7,0,1.9-0.9,2.4-1.5c0.3-0.4,0.3-0.9,0.5-1.6C38.4,15.7,38.4,15.3,38.4,15.3z"/>
			<g>
				<path class="st40" d="M36.9,17.1c-0.1-0.2-0.9-0.5-1-0.5c-0.1-0.1-0.2,0.1-0.2,0.1s-0.1-0.2-0.2-0.1c-0.1,0.1-0.9,0.3-1,0.5
					c-0.1,0.2-0.1,0.4-0.1,0.5c0,0.1,0,0.6,0,0.6s0.1,0,0.2-0.1c0.1-0.1,0.2-0.2,0.2-0.5c0-0.2,0.2-0.4,0.4-0.4
					c0.2,0,0.7-0.1,0.7-0.2c0,0.1,0.5,0.2,0.7,0.2c0.2,0,0.4,0.2,0.4,0.4c0,0.2,0.1,0.4,0.2,0.5c0.1,0.1,0.2,0.1,0.2,0.1
					s0-0.5,0-0.6C37.1,17.4,37,17.3,36.9,17.1z"/>
			</g>
		</g>
		<path class="st38" d="M37,16.2C37,16.2,37,16.2,37,16.2c0.8-0.1,0.9-0.4,1-0.8c0.1-0.4,0.1-0.6,0.2-0.6c0.1,0,0.1-0.1,0.1-0.2
			c0-0.1,0-0.1-0.1-0.2c-0.1,0-0.7-0.1-1.1-0.1l0,0.1c0.4,0,0.7,0,0.8,0.1c0.2,0.1,0.2,0.8,0,1.2c-0.1,0.2-0.5,0.4-0.8,0.4L37,16.2z
			 M35.7,14.5c-0.2,0-0.8-0.2-1.2-0.2c0,0-0.1,0-0.1,0l0,0.1c0.4,0,0.7,0.1,0.9,0.3c0.2,0.3-0.2,1.1-0.5,1.3
			c-0.1,0.1-0.2,0.1-0.4,0.1l0,0.1c0.6,0,0.8-0.4,0.9-0.6c0.1-0.3,0.1-0.6,0.5-0.6c0.3,0,0.3,0.4,0.4,0.6c0.1,0.1,0.3,0.6,0.9,0.6
			l0-0.1c-0.2,0-0.3,0-0.4-0.1c-0.3-0.2-0.7-0.9-0.4-1.3c0.1-0.2,0.5-0.3,0.9-0.3l0-0.1c0,0-0.1,0-0.1,0
			C36.5,14.4,36,14.5,35.7,14.5z M34.3,14.3c-0.4,0-1,0-1.1,0.1c-0.1,0-0.1,0.1-0.2,0.2c0,0.1,0,0.2,0.1,0.2c0.1,0,0.1,0.2,0.2,0.6
			c0.1,0.4,0.2,0.7,0.9,0.8c0,0,0.1,0,0.1,0l0-0.1c-0.3,0-0.7-0.1-0.8-0.4c-0.2-0.3-0.2-1,0-1.2c0.1-0.1,0.4-0.1,0.8-0.1L34.3,14.3z
			"/>
	</g>
	<g>
		<path class="st41" d="M30.2,18c0.3-0.5,2.4-0.9,3.2,0.8c0.9,1.7,0.4,2.3,0.9,2.9c0.5,0.6-0.6,5.3-3.3,5.3c-2.8,0-3.4-4.5-2.9-5.4
			C28.7,20.7,28.2,18,30.2,18z"/>
		<path class="st42" d="M32.3,26c0,0-2.4,0.1-2.4,0.1c-0.7,1.1-2.3,1.2-3.6,1.5C25,28,25,29.6,25,30.6h12.3c0-1.1,0-2.7-1.3-2.9
			C34.7,27.4,33,27.1,32.3,26z"/>
		<path class="st20" d="M32.3,26.2v0.6l-0.6,3.9h-1.3l-0.6-3.9v-0.6c0,0,0,0,0,0c0,0,2.4-0.1,2.4-0.1C32.3,26.1,32.3,26.1,32.3,26.2
			z"/>
		<path class="st43" d="M29.9,23.5v2v1c0.6,1.3,1.7,1.3,2.5,0v-1v-2C32.3,21.9,29.9,21.9,29.9,23.5z"/>
		<path class="st43" d="M34.4,22.1c-0.2-0.1-0.6,0.2-0.8,0.6c-0.2,0.4-0.1,0.9,0.1,1c0.2,0.1,0.6-0.2,0.8-0.6
			C34.7,22.7,34.6,22.2,34.4,22.1z"/>
		<path class="st43" d="M27.9,22.1c0.2-0.1,0.6,0.2,0.8,0.6c0.2,0.4,0.1,0.9-0.1,1c-0.2,0.1-0.6-0.2-0.8-0.6
			C27.6,22.7,27.6,22.2,27.9,22.1z"/>
		<path class="st44" d="M29.9,25L29.9,25c0,0.1,0.8,0.9,1.2,0.9c0.4,0,1.2-0.8,1.2-0.8V25H29.9z"/>
		<path class="st43" d="M31.1,25.6c-0.8,0-2.4-1.3-2.9-3.1c-0.5-1.8,0.4-4.4,2.9-4.4c2.4,0,3.4,2.6,2.9,4.4
			C33.5,24.4,31.9,25.6,31.1,25.6z"/>
		<path class="st41" d="M31.6,20.4c0.6,1.3,0.8,1.6,1.6,1.3c0.8-0.3,0.6,0.6,0.5,1.3c0.7-0.9,0.6-1.7,0.4-2.6
			c-0.2-0.9-1.4-2.4-2.6-2.4c-0.6-0.1-1.5,0-2.5,0.7c-1.7,1.2-1.2,4.1-0.7,4.4c-0.5-2.6,0.7-2.1,1.4-3.4C30,19.1,31,19,31.6,20.4z"
			/>
		<polygon class="st33" points="30.5,30.6 29.4,30.6 29.4,30.6 28.3,29.7 29.4,28.9 28.1,28.3 28.9,26.9 29.3,26.4 29.9,26.1 
			29.9,26.8 30.5,30.6 		"/>
		<polygon class="st33" points="32.8,28.9 33.9,29.6 32.8,30.6 32.8,30.6 31.7,30.6 31.7,30.6 32.3,26.7 32.3,26.1 33.1,26.4 
			33.4,27 34.2,28.3 		"/>
	</g>
	<g>
		<path class="st40" d="M56.2,12.2c0.1-0.5,1.3-0.9,1.8,0.8c0.5,1.7,0.2,2.3,0.5,2.9c0.3,0.6-0.4,5.3-1.8,5.3
			c-1.5,0-1.9-4.5-1.6-5.4C55.4,14.9,55.1,12.2,56.2,12.2z"/>
		<path class="st40" d="M61.3,12.2c-0.1-0.5-1.3-0.9-1.8,0.8c-0.5,1.7-0.2,2.3-0.5,2.9c-0.3,0.6,0.4,5.3,1.8,5.3
			c1.5,0,1.9-4.5,1.6-5.4C62.1,14.9,62.4,12.2,61.3,12.2z"/>
		<path class="st30" d="M60,19.2c0,0-2.4,0.1-2.4,0.1c-0.7,1.1-2.3,1.2-3.6,1.5c-1.3,0.3-1.3,1.9-1.3,2.9H65c0-1.1,0-2.7-1.3-2.9
			C62.4,20.6,60.7,20.3,60,19.2z"/>
		<path class="st30" d="M60.1,19.4v0.6l-0.6,3.9h-1.3L57.6,20v-0.6c0,0,0,0,0,0c0,0,2.4-0.1,2.4-0.1C60,19.3,60.1,19.3,60.1,19.4z"
			/>
		<path class="st45" d="M57.6,16.7v2v1c0.6,1.3,1.7,1.3,2.5,0v-1v-2C60.1,15.1,57.6,15.1,57.6,16.7z"/>
		<path class="st45" d="M62.1,15.3c-0.2-0.1-0.6,0.2-0.8,0.6c-0.2,0.4-0.1,0.9,0.1,1c0.2,0.1,0.6-0.2,0.8-0.6
			C62.4,15.9,62.3,15.4,62.1,15.3z"/>
		<path class="st45" d="M55.6,15.3c0.2-0.1,0.6,0.2,0.8,0.6c0.2,0.4,0.1,0.9-0.1,1c-0.2,0.1-0.6-0.2-0.8-0.6
			C55.3,15.9,55.4,15.4,55.6,15.3z"/>
		<path class="st44" d="M57.6,18.2L57.6,18.2c0,0.1,0.8,0.9,1.2,0.9c0.4,0,1.2-0.8,1.2-0.8v-0.1H57.6z"/>
		<path class="st45" d="M58.9,18.8c-0.8,0-2.4-1.3-2.9-3.1c-0.5-1.8,0.4-4.4,2.9-4.4c2.4,0,3.4,2.6,2.9,4.4
			C61.2,17.6,59.6,18.8,58.9,18.8z"/>
		<path class="st40" d="M61.9,13.5c-0.2-0.9-1.4-2.4-2.6-2.4c-0.2,0-0.3,0-0.6,0c-0.2,0-0.4,0-0.6,0c-1.1,0-2.3,1.4-2.6,2.4
			c-0.2,0.8-0.3,1.5,0.2,2.3c0.1,0.2,0.2,0.4,0.3,0.5c-0.1-0.6-0.1-1-0.1-1.4c0.1-0.1,0.2-0.2,0.5-0.1c0.8,0.3,1,0,1.6-1.3
			c0.2-0.4,0.3-0.8,0.6-0.8c0.3,0,0.4,0.5,0.6,0.8c0.6,1.3,0.8,1.6,1.6,1.3c0.3-0.1,0.4-0.1,0.5,0.1c0,0.3,0,0.8-0.1,1.4
			c0.1-0.1,0.2-0.2,0.3-0.5C62.2,15,62.1,14.3,61.9,13.5z"/>
		<polygon class="st33" points="58.2,23.8 57.2,23.8 57.1,23.8 56,22.9 57.1,22.1 55.8,21.5 56.7,20.1 57,19.6 57.6,19.3 57.6,20 
			58.2,23.8 		"/>
		<polygon class="st33" points="60.6,22.1 61.7,22.8 60.6,23.8 60.5,23.8 59.5,23.8 59.5,23.8 60.1,19.9 60.1,19.3 60.8,19.6 
			61.1,20.2 61.9,21.5 		"/>
	</g>
	<g>
		<path class="st22" d="M63.1,24.8c-2.9,1.3-3.7,1.9-4.1,2.2c-0.5,0.5-0.8,2.2-1.1,3.7h6.5h6.5c-0.3-1.5-0.6-3.2-1.1-3.7
			c-0.3-0.3-1.2-1-4-2.2L63.1,24.8z"/>
		<path class="st20" d="M63.1,24.8c-2.9,1.3-3.7,1.9-4.1,2.2c-0.5,0.5-0.8,2.2-1.1,3.7h6.5h6.5c-0.3-1.5-0.6-3.2-1.1-3.7
			c-0.3-0.3-1.2-1-4-2.2L63.1,24.8z"/>
		<path class="st46" d="M63,22.3v2.1v1c0.8,0.9,2,0.9,2.8,0v-1v-2.1C65.8,20.6,63,20.6,63,22.3z"/>
		<ellipse transform="matrix(-0.3127 -0.9498 0.9498 -0.3127 61.1247 86.3067)" class="st31" cx="61.8" cy="21" rx="0.8" ry="0.5"/>
		<ellipse transform="matrix(0.3129 -0.9498 0.9498 0.3129 26.0984 78.1554)" class="st31" cx="67.1" cy="21" rx="0.8" ry="0.5"/>
		<path class="st35" d="M63.8,26.8l0.3,0.5c0.2,0,0.3,0,0.5,0l0.3-0.5l-0.6-0.6L63.8,26.8z"/>
		<polygon class="st35" points="64.2,27.3 63.7,30.6 65.2,30.6 64.7,27.3 		"/>
		<path class="st33" d="M63,24.4l-0.1,0.5l0.3,2.5l1.2-1.2L63,24.4z"/>
		<path class="st25" d="M63,23.8v0.1c0,0,0.7,0.8,1.4,0.9c0.7,0,1.4-0.8,1.4-0.8v-0.2"/>
		<g>
			<path class="st46" d="M64.4,16.6c-4.3,0-2.6,5.9-2.4,6.3c0.3,0.5,1.7,1.6,2.4,1.6c0.7,0,2.1-1.1,2.4-1.6
				C67.1,22.4,68.7,16.6,64.4,16.6z"/>
			<path class="st32" d="M62.6,16.7c1.4-1.1,4.3-1,5,0c-0.3,1-0.1,3.5-0.3,4.9c0,0,0,0,0,0c0,0,0,0,0,0c0,0,0,0,0,0.1
				c0,0-0.1,0-0.1,0c0,0,0,0,0,0c0-0.1,0-0.4,0-0.4c0-0.2,0.1-0.4,0.1-0.5c-0.1-0.9-0.5-1-0.7-2.1c0-0.1-0.1-0.1-0.1-0.2
				c-0.1-0.1-0.1-0.1-0.2-0.2c0,0-0.1,0-0.1-0.1c-0.8-0.3-0.8-0.1-1.5,0.2c-0.3,0.1-1.1,0.3-1.4,0.3c-0.1,0-0.6-0.1-0.6-0.2
				c-0.6,0.9-0.6,1.5-0.8,2.3c0,0.1,0,0.3,0.1,0.4c0,0,0,0.2,0,0.4c0,0,0,0,0,0c0,0-0.1,0-0.1,0c0,0,0,0,0-0.1c0-0.1,0-0.1,0-0.1
				c0-0.1,0-0.1,0-0.2C61.4,20.4,61,17.1,62.6,16.7z M64.8,17.8C64.8,17.8,64.8,17.8,64.8,17.8C64.8,17.8,64.8,17.8,64.8,17.8
				C64.7,17.8,64.7,17.8,64.8,17.8z"/>
		</g>
		<path class="st33" d="M65.8,24.4l0.1,0.5l-0.3,2.5l-1.2-1.2L65.8,24.4z"/>
		<polyline class="st27" points="63,24.4 64.4,26.1 65.8,24.4 65.8,24.4 64.4,26.1 63,24.4 63,24.4 		"/>
		<rect x="64.2" y="27.3" class="st28" width="0.5" height="0"/>
	</g>
	<g>
		<path class="st22" d="M46.2,19.4c-2.9,1.3-3.7,1.9-4.1,2.2c-0.5,0.5-0.8,2.2-1.1,3.7h6.5H54c-0.3-1.5-0.6-3.2-1.1-3.7
			c-0.3-0.3-1.2-1-4-2.2L46.2,19.4z"/>
		<path class="st42" d="M46.2,19.4c-2.9,1.3-3.7,1.9-4.1,2.2c-0.5,0.5-0.8,2.2-1.1,3.7h6.5H54c-0.3-1.5-0.6-3.2-1.1-3.7
			c-0.3-0.3-1.2-1-4-2.2L46.2,19.4z"/>
		<path class="st47" d="M46.1,16.9v2.1v1c0.8,0.9,2,0.9,2.8,0v-1v-2.1C48.9,15.2,46.1,15.2,46.1,16.9z"/>
		
			<ellipse transform="matrix(-0.3127 -0.9498 0.9498 -0.3127 43.9543 63.2118)" class="st47" cx="44.8" cy="15.7" rx="0.8" ry="0.5"/>
		<ellipse transform="matrix(0.3129 -0.9498 0.9498 0.3129 19.5263 58.3997)" class="st47" cx="50.1" cy="15.7" rx="0.8" ry="0.5"/>
		<path class="st35" d="M46.9,21.4l0.3,0.5c0.2,0,0.3,0,0.5,0l0.3-0.5l-0.6-0.6L46.9,21.4z"/>
		<polygon class="st35" points="47.2,22 46.8,25.3 48.2,25.3 47.8,22 		"/>
		<path class="st33" d="M46.1,19.1L46,19.5l0.3,2.5l1.2-1.2L46.1,19.1z"/>
		<path class="st25" d="M46.1,18.5v0.1c0,0,0.7,0.8,1.4,0.9c0.7,0,1.4-0.8,1.4-0.8v-0.2"/>
		<g>
			<path class="st47" d="M47.5,11.2c-4.3,0-2.6,5.9-2.4,6.3c0.3,0.5,1.7,1.6,2.4,1.6c0.7,0,2.1-1.1,2.4-1.6
				C50.1,17.1,51.8,11.2,47.5,11.2z"/>
			<path class="st48" d="M49.5,11.4c-1.5-1.3-4.4,0.4-5,1.3c0.3,1,0.1,2.2,0.3,3.5c0,0,0,0,0,0c0,0,0,0,0,0c0,0,0,0,0,0.1
				c0,0,0.1,0,0.1,0c0,0,0,0,0,0c0-0.1,0-0.4,0-0.4c0-0.2,0-0.4,0-0.6c0.1-0.9,0-0.9,0.5-1.7c0-0.1,0.3-0.4,0.3-0.4
				c0.8-0.3,1,0.2,1.8,0.5c0.3,0.1,0.7,0.1,1,0.1c0.5,0,1-0.5,1-0.6c0.6,0.9,0.6,1.5,0.8,2.3c0,0.1,0,0.3-0.1,0.4c0,0,0,0.2,0,0.4
				c0,0,0,0,0,0c0,0,0.1,0,0.1,0c0,0,0,0,0-0.1c0-0.1,0-0.1,0-0.1c0-0.1,0-0.1,0-0.2C50.6,15,51,11.7,49.5,11.4z M47.3,12.5
				C47.3,12.5,47.2,12.5,47.3,12.5C47.2,12.5,47.3,12.5,47.3,12.5C47.3,12.5,47.3,12.5,47.3,12.5z"/>
			<path class="st39" d="M33.6,10.7c1.5-1.3,4.5,0.4,5.2,1.3c-0.3,1-0.1,2.2-0.3,3.5c0,0,0,0,0,0c0,0,0,0,0,0c0,0,0,0,0,0.1
				c0,0-0.1,0-0.1,0c0,0,0,0,0,0c0-0.1,0-0.4,0-0.4c0-0.2,0-0.4,0-0.6c-0.1-0.9,0-0.9-0.5-1.7c0-0.1-0.3-0.4-0.3-0.4
				c-0.8-0.3-1.1,0.2-1.8,0.5c-0.3,0.1-0.7,0.1-1,0.1c-0.5,0-1-0.5-1-0.6c-0.6,0.9-0.7,1.5-0.8,2.3c0,0.1,0,0.3,0.1,0.4
				c0,0,0,0.2,0,0.4c0,0,0,0,0,0c0,0-0.1,0-0.1,0c0,0,0,0,0-0.1c0-0.1,0-0.1,0-0.1c0-0.1,0-0.1,0-0.2C32.4,14.4,32,11.1,33.6,10.7z
				 M35.8,11.9C35.9,11.8,35.9,11.8,35.8,11.9C35.9,11.8,35.8,11.8,35.8,11.9C35.8,11.9,35.8,11.9,35.8,11.9z"/>
		</g>
		<path class="st33" d="M48.9,19.1l0.1,0.5L48.7,22l-1.2-1.2L48.9,19.1z"/>
		<polyline class="st27" points="46.1,19.1 47.5,20.8 48.9,19.1 48.9,19 47.5,20.7 46.1,19 46.1,19.1 		"/>
		<rect x="47.2" y="22" class="st28" width="0.5" height="0"/>
	</g>
	<g>
		<path class="st49" d="M55.1,20.1c0.3-0.5,2.7-1,3.7,0.9c1,1.9,0.5,2.5,1,3.2c0.5,0.7,0,2.2-0.3,2.3c-0.4,0.1-0.2,0.7,0,0.9
			c0.8,1-0.4,2.6-3.4,2.6c-3.2,0-3.9-1.9-3.1-2.5c0.3-0.2,0.4-0.6,0.1-0.9c-0.3-0.3-1-1.5-0.3-2.5C53.4,23,52.8,20.1,55.1,20.1z"/>
		<path class="st38" d="M57.3,27.8c0,0-2.4,0.1-2.4,0.1c-0.7,1.1-2.3,1.5-3.6,1.8C50.1,30,50,31.6,50,32.6h12.3c0-1.1,0-2.7-1.3-2.9
			C59.7,29.4,58,28.9,57.3,27.8z"/>
		<path class="st50" d="M55,25.5v2v1c0.6,1.3,1.7,1.3,2.5,0v-1v-2C57.4,23.9,55,23.9,55,25.5z"/>
		<path class="st50" d="M59.4,24.1c-0.2-0.1-0.6,0.2-0.8,0.6c-0.2,0.4-0.1,0.9,0.1,1c0.2,0.1,0.6-0.2,0.8-0.6
			C59.7,24.7,59.7,24.2,59.4,24.1z"/>
		<path class="st50" d="M52.9,24.1c0.2-0.1,0.6,0.2,0.8,0.6c0.2,0.4,0.1,0.9-0.1,1c-0.2,0.1-0.6-0.2-0.8-0.6
			C52.6,24.7,52.7,24.2,52.9,24.1z"/>
		<path class="st44" d="M55,27L55,27c0,0.1,0.8,0.9,1.2,0.9c0.4,0,1.2-0.8,1.2-0.8V27H55z"/>
		<path class="st50" d="M56.2,27.6c-0.8,0-2.4-1.3-2.9-3.1c-0.5-1.8,0.4-4.4,2.9-4.4c2.4,0,3.4,2.6,2.9,4.4
			C58.6,26.4,57,27.6,56.2,27.6z"/>
		<path class="st29" d="M55.6,22.4C55,23.6,54.8,24,54,23.7c-0.8-0.3-0.6,0.6-0.5,1.3c-0.7-0.9-0.6-1.7-0.4-2.6
			c0.2-0.9,1.4-2.4,2.6-2.4c0.6-0.1,1.5,0,2.5,0.7c1.7,1.2,1.2,4.1,0.7,4.4c0.5-2.6-0.7-2.1-1.4-3.4C57.2,21.1,56.3,21,55.6,22.4z"
			/>
		<rect x="56" y="29.5" class="st20" width="0.3" height="3.1"/>
		<g>
			<polygon class="st20" points="55,27.9 54.1,28.7 55.2,30.4 56.2,29.5 			"/>
			<polygon class="st20" points="57.4,27.9 58.3,28.7 57.1,30.4 56.2,29.5 			"/>
		</g>
		<path class="st38" d="M57.5,25.5C57.5,25.5,57.6,25.5,57.5,25.5c0.8-0.1,0.9-0.4,1-0.8c0.1-0.4,0.1-0.6,0.2-0.6
			c0.1,0,0.1-0.1,0.1-0.2c0-0.1,0-0.1-0.1-0.2c-0.1,0-0.7-0.1-1.2-0.1l0,0.1c0.4,0,0.7,0,0.8,0.1c0.2,0.1,0.2,0.8,0,1.2
			c-0.1,0.2-0.5,0.4-0.8,0.4L57.5,25.5z M56.2,23.9c-0.2,0-0.8-0.2-1.2-0.2c0,0-0.1,0-0.1,0l0,0.1c0.4,0,0.7,0.1,0.9,0.3
			c0.2,0.3-0.2,1.1-0.5,1.3c-0.1,0.1-0.2,0.1-0.4,0.1l0,0.1c0.6,0,0.8-0.4,0.9-0.6c0.1-0.3,0.1-0.7,0.5-0.7c0.3,0,0.3,0.4,0.4,0.6
			c0.1,0.1,0.3,0.6,0.9,0.6l0-0.1c-0.2,0-0.3,0-0.4-0.1c-0.3-0.2-0.7-1-0.4-1.3c0.1-0.2,0.5-0.3,0.9-0.3l0-0.1c0,0-0.1,0-0.1,0
			C57.1,23.7,56.6,23.8,56.2,23.9z M54.9,23.6c-0.4,0-1,0-1.1,0.1c-0.1,0-0.1,0.1-0.2,0.2c0,0.1,0,0.2,0.1,0.2
			c0.1,0,0.1,0.2,0.2,0.6c0.1,0.4,0.2,0.7,0.9,0.8c0,0,0.1,0,0.1,0l0-0.1c-0.3,0-0.7-0.1-0.8-0.4c-0.2-0.3-0.2-1,0-1.2
			c0.1-0.1,0.4-0.1,0.8-0.1L54.9,23.6z"/>
		<polygon class="st51" points="55,27.9 56.2,29.5 57.4,27.9 57.4,27.9 56.2,29.5 55,27.9 		"/>
	</g>
	<g>
		<path class="st22" d="M38.9,27.1c-2.9,1.3-3.7,1.9-4.1,2.2c-0.5,0.5-0.8,2.2-1.1,3.7h6.5h6.5c-0.3-1.5-0.6-3.2-1.1-3.7
			c-0.3-0.3-1.2-1-4-2.2L38.9,27.1z"/>
		<path class="st23" d="M38.9,27.1c-2.9,1.3-3.7,1.9-4.1,2.2c-0.5,0.5-0.8,2.2-1.1,3.7h6.5h6.5c-0.3-1.5-0.6-3.2-1.1-3.7
			c-0.3-0.3-1.2-1-4-2.2L38.9,27.1z"/>
		<path class="st52" d="M38.8,24.6v2.1v1c0.8,0.9,2,0.9,2.8,0v-1v-2.1C41.6,22.9,38.8,22.9,38.8,24.6z"/>
		
			<ellipse transform="matrix(-0.3127 -0.9498 0.9498 -0.3127 27.0799 66.2731)" class="st52" cx="37.5" cy="23.3" rx="0.8" ry="0.5"/>
		<ellipse transform="matrix(0.3129 -0.9498 0.9498 0.3129 7.2397 56.6861)" class="st52" cx="42.8" cy="23.3" rx="0.8" ry="0.5"/>
		<path class="st20" d="M40.2,28.4c0,0-1.9,0.5-1.9,0.6c0,0.1,0.7,3.9,0.7,3.9h2.6l0.3-3.9L40.2,28.4z"/>
		<polygon class="st53" points="38.8,27.1 38.8,27.7 39.4,32.9 38.3,32.9 37.2,30.6 38.3,29.9 37,29.3 38.2,27.4 		"/>
		<polygon class="st53" points="41.6,27.1 41.6,27.7 40.9,32.9 42,32.9 43.1,30.6 42,29.9 43.4,29.3 42.3,27.4 		"/>
		<path class="st30" d="M39.6,29.1l0.3,0.5c0.2,0,0.3,0,0.5,0l0.3-0.5l-0.6-0.6L39.6,29.1z"/>
		<polygon class="st30" points="39.9,29.6 39.4,32.9 40.9,32.9 40.4,29.6 		"/>
		<path class="st33" d="M38.8,26.7l-0.1,0.5l0.3,2.5l1.2-1.2L38.8,26.7z"/>
		<path class="st25" d="M38.8,26.1v0.1c0,0,0.7,0.8,1.4,0.9c0.7,0,1.4-0.8,1.4-0.8v-0.2"/>
		<g>
			<path class="st54" d="M42.4,19.1c0.6,0.1,1,0.5,1.1,1.1c0.4,1.5-0.4,4.9-3.3,4.9c-1.5,0-2.5-0.4-2.9-1.5
				c-0.4-1.2-0.5-3.1,0.3-4.2C38.7,18.1,40.9,18.1,42.4,19.1z"/>
			<path class="st52" d="M40.2,18.9c-4.3,0-2.6,5.9-2.4,6.3c0.3,0.5,1.7,1.6,2.4,1.6c0.7,0,2.1-1.1,2.4-1.6
				C42.8,24.7,44.4,18.9,40.2,18.9z"/>
			<path class="st54" d="M38.1,20.7c0.8,0.5,1.4-0.2,2,0.1c0.7,0.3,2.5-1.1,3,2c0.7-2.3-0.3-3.9-2.8-4c-2.7-0.1-3.7,2.3-3,4.6
				C37.2,22.1,37.5,21.3,38.1,20.7z"/>
			<g>
				<g>
					<path class="st55" d="M37,21c0.3,1,1.2,1.5,2.2,1.5c0.4,0,0.9-0.1,1.3-0.2c0.8-0.3,1.2-0.7,1.5-1.4c0.3-0.6-0.2-1.4-0.7-1.7
						c-0.5-0.3-1-0.3-1.6-0.2c0,0-0.9,0.3-0.9,0.3c0,0,0.5,0,0.2,0c-0.1,0-0.2,0-0.3,0c-0.3,0-0.6,0.1-0.9,0.2c-0.1,0.1-0.3,0.2,0,0
						C37.2,19.7,36.8,20.3,37,21L37,21z"/>
				</g>
			</g>
		</g>
		<path class="st30" d="M41.5,24.3C41.5,24.3,41.5,24.3,41.5,24.3c0.8-0.1,0.9-0.4,1-0.8c0.1-0.4,0.1-0.6,0.2-0.6
			c0.1,0,0.1-0.1,0.1-0.2c0-0.1,0-0.1-0.1-0.2c-0.1,0-0.7-0.1-1.1-0.1l0,0.1c0.4,0,0.7,0,0.8,0.1c0.2,0.1,0.2,0.8,0,1.2
			c-0.1,0.2-0.5,0.4-0.8,0.4L41.5,24.3z M40.2,22.7c-0.2,0-0.8-0.2-1.2-0.2c0,0-0.1,0-0.1,0l0,0.1c0.4,0,0.7,0.1,0.9,0.3
			c0.2,0.3-0.2,1.1-0.5,1.3c-0.1,0.1-0.2,0.1-0.4,0.1l0,0.1c0.6,0,0.8-0.4,0.9-0.6c0.1-0.3,0.1-0.6,0.5-0.6c0.3,0,0.3,0.4,0.4,0.6
			c0.1,0.1,0.3,0.6,0.9,0.6l0-0.1c-0.2,0-0.3,0-0.4-0.1c-0.3-0.2-0.7-0.9-0.4-1.3c0.1-0.2,0.5-0.3,0.9-0.3l0-0.1c0,0-0.1,0-0.1,0
			C41,22.5,40.5,22.7,40.2,22.7z M38.9,22.5c-0.4,0-1,0-1.1,0.1c-0.1,0-0.1,0.1-0.2,0.2c0,0.1,0,0.2,0.1,0.2c0.1,0,0.1,0.2,0.2,0.6
			c0.1,0.4,0.2,0.7,0.9,0.8c0,0,0.1,0,0.1,0l0-0.1c-0.3,0-0.7-0.1-0.8-0.4c-0.2-0.3-0.2-1,0-1.2c0.1-0.1,0.4-0.1,0.8-0.1L38.9,22.5z
			"/>
		<path class="st33" d="M41.6,26.7l0.1,0.5l-0.3,2.5l-1.2-1.2L41.6,26.7z"/>
		<polyline class="st27" points="38.8,26.7 40.2,28.4 41.6,26.7 41.6,26.7 40.2,28.4 38.8,26.7 38.8,26.7 		"/>
		<rect x="39.9" y="29.6" class="st28" width="0.5" height="0"/>
	</g>
	<g>
		<path class="st22" d="M46,28.8c-2.9,1.3-3.7,1.9-4.1,2.2c-0.5,0.5-0.8,2.2-1.1,3.7h6.5h6.5c-0.3-1.5-0.6-3.2-1.1-3.7
			c-0.3-0.3-1.2-1-4-2.2L46,28.8z"/>
		<path class="st23" d="M46,28.8c-2.9,1.3-3.7,1.9-4.1,2.2c-0.5,0.5-0.8,2.2-1.1,3.7h6.5h6.5c-0.3-1.5-0.6-3.2-1.1-3.7
			c-0.3-0.3-1.2-1-4-2.2L46,28.8z"/>
		<path class="st56" d="M45.9,26.3v2.1v1c0.8,0.9,2,0.9,2.8,0v-1v-2.1C48.7,24.6,45.9,24.6,45.9,26.3z"/>
		<ellipse transform="matrix(-0.3127 -0.9498 0.9498 -0.3127 34.816 75.2785)" class="st56" cx="44.6" cy="25" rx="0.8" ry="0.5"/>
		<ellipse transform="matrix(0.3129 -0.9498 0.9498 0.3129 10.5181 64.6251)" class="st56" cx="49.9" cy="25" rx="0.8" ry="0.5"/>
		<path class="st57" d="M47.3,30.1c0,0-1.9,0.5-1.9,0.6c0,0.1,0.7,3.9,0.7,3.9h2.6l0.3-3.9L47.3,30.1z"/>
		<polygon class="st36" points="45.9,28.8 45.9,29.4 46.5,34.7 45.5,34.7 44.3,32.3 45.4,31.6 44.1,31 45.3,29.1 		"/>
		<polygon class="st37" points="48.7,28.8 48.7,29.4 48.1,34.7 49.1,34.7 50.3,32.3 49.2,31.6 50.5,31 49.4,29.1 		"/>
		<path class="st58" d="M46.7,30.8l0.3,0.5c0.2,0,0.3,0,0.5,0l0.3-0.5l-0.6-0.6L46.7,30.8z"/>
		<polygon class="st58" points="47,31.3 46.5,34.7 48,34.7 47.6,31.3 		"/>
		<path class="st20" d="M45.9,28.4l-0.1,0.5l0.3,2.5l1.2-1.2L45.9,28.4z"/>
		<path class="st25" d="M45.9,27.8v0.1c0,0,0.7,0.8,1.4,0.9c0.7,0,1.4-0.8,1.4-0.8v-0.2"/>
		<g>
			<path class="st56" d="M47.3,20.6c-4.3,0-2.6,5.9-2.4,6.3c0.3,0.5,1.7,1.6,2.4,1.6c0.7,0,2.1-1.1,2.4-1.6
				C49.9,26.4,51.6,20.6,47.3,20.6z"/>
			<path class="st39" d="M49.2,20.7c-1.4-1.1-3.7-0.5-4.3,0.5c-0.8,1.2-0.5,3-0.3,4.3c0,0,0,0,0,0c0,0,0,0,0,0c0,0,0,0,0,0.1
				c0,0,0.1,0,0.1,0c0,0,0,0,0,0c0-0.1,0-0.4,0-0.4c0-0.2-0.1-0.4-0.1-0.5c0.1-0.9,0.5-1,0.7-2.1c0-0.1,0.1-0.1,0.1-0.2
				c0.1-0.1,0.1-0.1,0.2-0.2c0,0,0.1,0,0.1-0.1c0.8-0.3,1.6,0.1,2.3,0.4c0.3,0.1,0.6,0.2,0.9,0.2c0.1,0,0.2-0.1,0.2-0.2
				c0.4,1.1,0.6,1.5,0.8,2.3c0,0.1,0,0.3-0.1,0.4c0,0,0,0.2,0,0.4c0,0,0,0,0,0c0,0,0.1,0,0.1,0c0,0,0,0,0-0.1c0-0.1,0-0.1,0-0.1
				c0-0.1,0-0.1,0-0.2C50.3,24.4,50.7,21.1,49.2,20.7z M47,21.8C47,21.8,47,21.8,47,21.8C47,21.8,47,21.8,47,21.8
				C47,21.8,47,21.8,47,21.8z"/>
		</g>
		<path class="st20" d="M48.7,28.4l0.1,0.5l-0.3,2.5l-1.2-1.2L48.7,28.4z"/>
		<polyline class="st27" points="45.9,28.4 47.3,30.1 48.7,28.4 48.7,28.4 47.3,30.1 45.9,28.4 45.9,28.4 		"/>
		<rect x="47" y="31.3" class="st28" width="0.5" height="0"/>
	</g>
</g>
</svg>
