<?xml version="1.0" encoding="utf-8"?>
<!-- Generator: Adobe Illustrator 19.1.1, SVG Export Plug-In . SVG Version: 6.00 Build 0)  -->
<svg version="1.1" id="Layer_1" xmlns="http://www.w3.org/2000/svg" xmlns:xlink="http://www.w3.org/1999/xlink" x="0px" y="0px"
	 viewBox="-49 51 100 100" style="enable-background:new -49 51 100 100;" xml:space="preserve">
<style type="text/css">
	.st0{fill:#338EBF;}
	.st1{fill:#5EA2C7;}
	.st2{fill:#7EB5D2;}
	.st3{fill:#FEFEFE;}
	.st4{fill:#EAEAEA;}
	.st5{fill:#BFBFBF;}
	.st6{fill:#BCE0E8;}
	.st7{fill:#3A3B42;}
	.st8{fill:#2C5771;}
	.st9{fill:#FBDD57;}
	.st10{fill:#F95F1E;}
	.st11{fill:#FFFFEE;}
	.st12{fill:#ABD45F;}
	.st13{fill:#F7D924;}
	.st14{fill:#7DCCF0;}
	.st15{fill:#3178B0;}
	.st16{fill:#EDECC2;}
	.st17{fill:#C1CFD9;}
	.st18{fill:#D9E1E6;}
	.st19{fill:#B3D76C;}
	.st20{fill:#D9C1D5;}
	.st21{fill:#E1EB31;}
	.st22{fill:#F0C5DE;}
	.st23{fill:#C9E25A;}
	.st24{fill:#57A9B5;}
</style>
<g>
	<path class="st0" d="M12.6,84c8.1,0,14.7-6.6,14.7-14.7s-6.6-14.7-14.7-14.7S-2.1,61.2-2.1,69.3C-2.1,77.4,4.5,84,12.6,84z"/>
	<path class="st1" d="M12.1,80.4c6.7,0,12.1-5.4,12.1-12.1c0-6.7-5.4-12.1-12.1-12.1C5.4,56.2,0,61.6,0,68.3
		C0,75,5.4,80.4,12.1,80.4z"/>
	<path class="st2" d="M10.1,69.4c3.1,0,5.7-2.5,5.7-5.7S13.3,58,10.1,58c-3.1,0-5.7,2.5-5.7,5.7S7,69.4,10.1,69.4z"/>
	<g>
		<path class="st3" d="M12.6,54.2L12.6,54.2L12.6,54.2c4.2,0,8,1.7,10.7,4.4c2.7,2.7,4.4,6.5,4.4,10.7l0,0l0,0l0,0l0,0
			c0,4.2-1.7,8-4.4,10.7c-2.7,2.7-6.5,4.4-10.7,4.4l0,0l0,0l0,0l0,0c-4.2,0-8-1.7-10.7-4.4s-4.4-6.5-4.4-10.7l0,0l0,0l0,0l0,0
			c0-4.2,1.7-8,4.4-10.7C4.7,55.9,8.4,54.2,12.6,54.2L12.6,54.2L12.6,54.2L12.6,54.2z M12.6,55.1L12.6,55.1L12.6,55.1L12.6,55.1
			L12.6,55.1c-3.9,0-7.5,1.6-10.1,4.2c-2.6,2.6-4.2,6.1-4.2,10.1l0,0l0,0l0,0l0,0c0,3.9,1.6,7.5,4.2,10.1c2.6,2.6,6.1,4.2,10.1,4.2
			l0,0l0,0l0,0l0,0c3.9,0,7.5-1.6,10.1-4.2s4.2-6.1,4.2-10.1l0,0l0,0l0,0l0,0c0-3.9-1.6-7.5-4.2-10.1C20.1,56.7,16.5,55.1,12.6,55.1
			z"/>
		<path class="st3" d="M12.6,54.2L12.6,54.2L12.6,54.2c2.4,0,4.5,1.7,6,4.5c1.5,2.7,2.4,6.5,2.4,10.6l0,0l0,0l0,0l0,0
			c0,4.1-0.9,7.9-2.4,10.6c-1.5,2.8-3.7,4.5-6,4.5l0,0l0,0l0,0l0,0c-2.4,0-4.5-1.7-6-4.5c-1.5-2.7-2.4-6.5-2.4-10.6l0,0l0,0l0,0l0,0
			c0-4.1,0.9-7.9,2.4-10.6C8.1,55.9,10.2,54.2,12.6,54.2L12.6,54.2L12.6,54.2L12.6,54.2z M12.6,55.1L12.6,55.1L12.6,55.1L12.6,55.1
			L12.6,55.1c-2,0-3.9,1.6-5.3,4.1C5.9,61.8,5,65.4,5,69.4l0,0l0,0l0,0l0,0c0,4,0.9,7.6,2.3,10.2c1.4,2.5,3.2,4.1,5.3,4.1l0,0l0,0
			l0,0l0,0c2,0,3.9-1.6,5.3-4.1c1.4-2.6,2.3-6.2,2.3-10.2l0,0l0,0l0,0l0,0c0-4-0.9-7.6-2.3-10.2S14.6,55.1,12.6,55.1z"/>
		<rect x="12.2" y="54.8" class="st3" width="0.9" height="29.1"/>
		<rect x="-1.9" y="68.9" class="st3" width="29.1" height="0.9"/>
		<path class="st3" d="M23.6,59.6L23.6,59.6L23.6,59.6c-0.4,0.2-0.8,0.4-1.2,0.6c-0.4,0.2-0.9,0.4-1.3,0.6c-2.4,0.9-5.3,1.4-8.4,1.4
			l0,0l0,0c-2.2,0-4.2-0.2-6.1-0.7c-0.3-0.1-0.6-0.2-0.9-0.2c-1.5-0.4-2.9-1-4-1.7l0.4-0.8c1.1,0.6,2.4,1.2,3.8,1.6
			c0.3,0.1,0.6,0.2,0.9,0.2c1.8,0.4,3.8,0.7,5.9,0.7l0,0l0,0c3,0,5.8-0.5,8.1-1.3c0.4-0.2,0.9-0.3,1.3-0.5c0.4-0.2,0.8-0.4,1.2-0.6
			l0,0l0,0L23.6,59.6z"/>
		<path class="st3" d="M23.1,79.8L23.1,79.8L23.1,79.8c-0.4-0.2-0.7-0.4-1.2-0.6c-0.4-0.2-0.8-0.4-1.3-0.5c-2.3-0.8-5.1-1.3-8.1-1.3
			l0,0l0,0c-2.1,0-4.1,0.2-5.9,0.7c-0.3,0.1-0.6,0.1-0.9,0.2c-1.4,0.4-2.7,0.9-3.8,1.6l-0.4-0.8c1.2-0.7,2.5-1.2,4-1.7
			c0.3-0.1,0.6-0.2,0.9-0.2c1.9-0.4,3.9-0.7,6.1-0.7l0,0l0,0c3.1,0,6,0.5,8.4,1.4c0.5,0.2,0.9,0.4,1.3,0.6s0.8,0.4,1.2,0.6l0,0l0,0
			L23.1,79.8z"/>
	</g>
</g>
<g>
	<g>
		<g>
			<g>
				<g>
					<g>
						<polygon class="st4" points="-7.6,137.9 -6.8,131 0.7,128.7 0.7,128.6 0.9,128.7 1.1,128.6 1.1,128.7 8.7,131 9.5,137.9 
							12.3,138.6 12.3,140.9 1.1,140.9 0.7,140.9 -10.4,140.9 -10.4,138.6 						"/>
						<polygon class="st5" points="-7.4,135.6 9,134.4 8.9,132.6 -7,132.6 						"/>
						<polygon class="st5" points="12.3,139.4 12.3,140.9 -10.4,140.9 -10.4,140.6 12.3,138.6 						"/>
						<path class="st4" d="M-38.9,131c0,1.2,1,2.2,2.2,2.2h75.3c1.2,0,2.2-1,2.2-2.2V77.8c0-1.2-1-2.2-2.2-2.2h-75.3
							c-1.2,0-2.2,1-2.2,2.2V131z"/>
					</g>
					<g>
						<g>
							<path class="st6" d="M39.8,122.2V77.5c0-0.7-0.4-1.2-1-1.2h-75.4c-0.5,0-1,0.5-1,1.2v44.8H39.8z"/>
							<path class="st7" d="M-36.6,77.4h75.1c0,0,0,0,0,0.1V121h-75.1V77.4C-36.6,77.5-36.6,77.5-36.6,77.4 M-36.7,75.1
								c-1.2,0-2.2,1-2.2,2.4v45.9H41V77.5c0-1.3-1-2.4-2.2-2.4H-36.7L-36.7,75.1z"/>
						</g>
					</g>
				</g>
			</g>
		</g>
	</g>
	<g>
		<g>
			<rect x="-32.7" y="90.5" class="st8" width="15.3" height="1.1"/>
			<rect x="-32.7" y="93.3" class="st8" width="15.3" height="1.1"/>
			<rect x="-32.7" y="96.3" class="st8" width="15.3" height="1.1"/>
			<rect x="-32.7" y="99.2" class="st8" width="15.3" height="1.1"/>
			<rect x="-32.7" y="102.2" class="st8" width="15.3" height="1.1"/>
			<rect x="-32.7" y="105" class="st8" width="15.3" height="1.1"/>
			<rect x="-32.7" y="108" class="st8" width="15.3" height="1.1"/>
			<rect x="-32.7" y="110.9" class="st8" width="15.3" height="1.1"/>
			<rect x="-32.7" y="113.8" class="st8" width="15.3" height="1.1"/>
			<rect x="-32.7" y="116.7" class="st8" width="15.3" height="1.1"/>
		</g>
		<g>
			<path class="st8" d="M10.3,81.6c-3.8,0-6.9,3.1-6.9,6.9s3.1,6.9,6.9,6.9s6.9-3.1,6.9-6.9h-6.9C10.3,88.5,10.3,81.6,10.3,81.6z"/>
			<path class="st9" d="M17.7,88c0-3.8-3.1-6.9-6.9-6.9V88H17.7z"/>
		</g>
		<g>
			<rect x="-8.5" y="107.6" class="st9" width="2.8" height="10.4"/>
			<rect x="-4.6" y="102.2" class="st10" width="2.8" height="15.7"/>
			<rect x="-0.7" y="106.8" class="st8" width="2.8" height="11.1"/>
			<rect x="3.3" y="109" class="st9" width="2.8" height="8.9"/>
			<rect x="7.2" y="105.6" class="st10" width="2.8" height="12.3"/>
			<rect x="11.1" y="104.3" class="st8" width="2.8" height="13.7"/>
			<rect x="15.1" y="107.6" class="st9" width="2.8" height="10.4"/>
			<rect x="19" y="108.6" class="st10" width="2.8" height="9.3"/>
			<rect x="22.9" y="103.2" class="st8" width="2.8" height="14.7"/>
			<rect x="26.8" y="106.3" class="st9" width="2.8" height="11.6"/>
		</g>
		<path class="st10" d="M-25.2,85.1c0.1,0,0.9-0.1,0.9-0.1s0.1-0.1,0.1-0.2c0-0.1,0-0.3,0-0.3s0-0.2,0-0.3c0-0.1-0.1-0.2-0.1-0.2
			s-0.8-0.1-0.9-0.1c0,0-0.1,0-0.2-0.1c-0.1-0.2-0.1-0.4-0.3-0.6c0-0.1,0-0.1,0.1-0.2c0.1-0.1,0.6-0.6,0.6-0.6s0-0.1-0.1-0.2
			c-0.1-0.1-0.2-0.2-0.2-0.2s-0.1-0.1-0.2-0.2c-0.1-0.1-0.2-0.1-0.2-0.1s-0.6,0.4-0.7,0.4c0,0-0.1,0-0.2,0c-0.2-0.1-0.3-0.3-0.5-0.3
			c0-0.1-0.1-0.1-0.1-0.2c0-0.1,0-0.9,0-0.9s-0.1-0.1-0.2-0.1s-0.3,0-0.3,0s-0.2,0-0.3,0s-0.2,0.1-0.2,0.1s-0.2,0.7-0.3,0.8
			c0,0-0.1,0.1-0.1,0.2c-0.2,0-0.4,0.1-0.6,0.1c-0.1,0-0.1-0.1-0.2-0.1c-0.1-0.1-0.5-0.7-0.5-0.7s-0.1,0-0.2,0
			c-0.1,0.1-0.3,0.2-0.3,0.2s-0.1,0.1-0.3,0.2c-0.1,0.1-0.1,0.2-0.1,0.2s0.3,0.7,0.3,0.8c0,0,0,0.1,0,0.2c-0.2,0.2-0.3,0.3-0.4,0.5
			c-0.1,0-0.1,0-0.2,0c-0.1,0-0.9-0.2-0.9-0.2s-0.1,0-0.2,0.2c0,0.1-0.1,0.3-0.1,0.3s-0.1,0.2-0.1,0.3c0,0.1,0,0.2,0,0.2
			s0.7,0.3,0.8,0.3l0.1,0.1c0,0.2,0,0.4,0,0.6c0,0.1-0.1,0.1-0.1,0.1c-0.1,0-0.8,0.4-0.8,0.4s-0.1,0.1,0,0.2c0,0.1,0.1,0.3,0.1,0.3
			s0.1,0.2,0.1,0.3c0,0.1,0.2,0.2,0.2,0.2s0.8-0.2,0.9-0.2c0,0,0.1,0,0.2,0c0.1,0.2,0.3,0.3,0.4,0.4c0,0.1,0,0.1,0,0.2
			c0,0.1-0.3,0.8-0.3,0.8s0,0.1,0.1,0.2c0.1,0.1,0.3,0.1,0.3,0.1s0.1,0.1,0.3,0.1c0.1,0.1,0.2,0,0.2,0s0.4-0.6,0.5-0.7
			c0,0,0.1-0.1,0.2-0.1c0.1,0,0.2,0.1,0.3,0.1c0.1,0,0.2,0,0.3,0c0.1,0,0.1,0.1,0.1,0.1c0,0.1,0.3,0.8,0.3,0.8s0.1,0.1,0.2,0
			c0.1,0,0.3-0.1,0.3-0.1s0.2,0,0.3-0.1c0.1,0,0.2-0.1,0.2-0.1S-27,87.1-27,87c0,0,0-0.1,0.1-0.2c0.2-0.1,0.3-0.2,0.5-0.3
			c0.1,0,0.2,0,0.2,0c0.1,0.1,0.7,0.4,0.7,0.4s0.1,0,0.2-0.1c0.1-0.1,0.2-0.2,0.2-0.2s0.1-0.1,0.2-0.2c0.1-0.1,0.1-0.2,0.1-0.2
			s-0.5-0.5-0.6-0.6c0,0-0.1-0.1-0.1-0.2c0.1-0.2,0.2-0.3,0.2-0.6C-25.3,85.1-25.2,85.1-25.2,85.1z M-26.1,84.9
			c-0.2,1-1.1,1.7-2.1,1.5c-1-0.2-1.7-1.1-1.5-2.1c0.2-1,1.1-1.7,2.1-1.5C-26.7,83-26,83.8-26.1,84.9z"/>
	</g>
</g>
<g>
	<path class="st11" d="M29.4,101.8c11.6,0,21.1-9.5,21.1-21.1s-9.4-21.2-21.1-21.2S8.3,69,8.3,80.6S17.8,101.8,29.4,101.8z"/>
	<path class="st12" d="M47.6,75c0.6,1.8,0.9,3.7,0.9,5.6c0,10.5-8.5,19-19.1,19c-10.5,0-19.1-8.5-19.1-19c0-10.4,8.3-18.8,18.6-19
		l0.5,19.2L42,66.3L29.5,80.7v0.1l0,0l0,0L47.6,75z"/>
	<path class="st13" d="M46.2,71.5c0.6,1.1,1.1,2.3,1.5,3.5l-18.2,5.8l0,0L46.2,71.5z"/>
	<path class="st14" d="M42,66.3c1.7,1.5,3.1,3.2,4.1,5.2l-16.7,9.3v-0.1L42,66.3z"/>
	<path class="st15" d="M29.4,61.6c4.8,0,9.2,1.8,12.6,4.8L29.4,80.7L29,61.6C29.1,61.6,29.3,61.6,29.4,61.6z"/>
</g>
<g>
	<path class="st16" d="M20.9,93.7h21.5c1.4,0,2.6,1.2,2.6,2.6v31.5c0,1.4-1.2,2.6-2.6,2.6H20.9c-1.4,0-2.6-1.2-2.6-2.6V96.3
		C18.3,94.8,19.5,93.7,20.9,93.7z"/>
	<path class="st11" d="M20.9,93.7H42c1.4,0,2.6,1.1,2.6,2.5v30.6c0,1.4-1.2,2.5-2.6,2.5H20.9c-1.4,0-2.6-1.1-2.6-2.5V96.2
		C18.3,94.8,19.4,93.7,20.9,93.7z"/>
	<g>
		<rect x="20.4" y="98.3" class="st17" width="5.3" height="2.8"/>
		<rect x="37.4" y="98.3" class="st18" width="2.4" height="2.8"/>
		<rect x="40.1" y="98.3" class="st18" width="2.4" height="2.8"/>
		<g>
			<circle class="st17" cx="26.3" cy="100.8" r="0.3"/>
			<g>
				<circle class="st17" cx="27.3" cy="100.8" r="0.3"/>
				<circle class="st17" cx="28.2" cy="100.8" r="0.3"/>
				<circle class="st17" cx="29.2" cy="100.8" r="0.3"/>
				<circle class="st17" cx="30.1" cy="100.8" r="0.3"/>
				<circle class="st17" cx="31.1" cy="100.8" r="0.3"/>
				<circle class="st17" cx="32" cy="100.8" r="0.3"/>
				<circle class="st17" cx="32.9" cy="100.8" r="0.3"/>
				<circle class="st17" cx="33.9" cy="100.8" r="0.3"/>
				<circle class="st17" cx="34.8" cy="100.8" r="0.3"/>
				<circle class="st17" cx="35.8" cy="100.8" r="0.3"/>
			</g>
			<circle class="st17" cx="36.7" cy="100.8" r="0.3"/>
		</g>
	</g>
	<g>
		<g>
			<path class="st19" d="M20.4,103.1c1.8,0,3.5,0,5.3,0c0,0.9,0,1.8,0,2.8c-1.8,0-3.5,0-5.3,0C20.4,105,20.4,104.1,20.4,103.1z"/>
			<path class="st18" d="M39.8,103.1c-0.8,0-1.6,0-2.4,0c0,0.9,0,1.8,0,2.8c0.8,0,1.6,0,2.4,0C39.8,105,39.8,104.1,39.8,103.1z"/>
			<path class="st18" d="M42.6,103.1c-0.8,0-1.6,0-2.4,0c0,0.9,0,1.8,0,2.8c0.8,0,1.6,0,2.4,0C42.6,105,42.6,104.1,42.6,103.1z"/>
			<circle class="st17" cx="26.3" cy="105.6" r="0.3"/>
			<circle class="st17" cx="27.3" cy="105.6" r="0.3"/>
			<circle class="st17" cx="28.2" cy="105.6" r="0.3"/>
			<circle class="st17" cx="29.2" cy="105.6" r="0.3"/>
			<circle class="st17" cx="30.1" cy="105.6" r="0.3"/>
			<circle class="st17" cx="31.1" cy="105.6" r="0.3"/>
			<circle class="st17" cx="32" cy="105.6" r="0.3"/>
			<circle class="st17" cx="32.9" cy="105.6" r="0.3"/>
			<circle class="st17" cx="33.9" cy="105.6" r="0.3"/>
			<circle class="st17" cx="34.8" cy="105.6" r="0.3"/>
			<circle class="st17" cx="35.8" cy="105.6" r="0.3"/>
			<circle class="st17" cx="36.7" cy="105.6" r="0.3"/>
		</g>
		<g>
			<path class="st20" d="M20.4,108c1.8,0,3.5,0,5.3,0c0,0.9,0,1.8,0,2.8c-1.8,0-3.5,0-5.3,0C20.4,109.9,20.4,108.9,20.4,108z"/>
			<path class="st18" d="M39.8,108c-0.8,0-1.6,0-2.4,0c0,0.9,0,1.8,0,2.8c0.8,0,1.6,0,2.4,0C39.8,109.9,39.8,108.9,39.8,108z"/>
			<path class="st18" d="M42.6,108c-0.8,0-1.6,0-2.4,0c0,0.9,0,1.8,0,2.8c0.8,0,1.6,0,2.4,0C42.6,109.9,42.6,108.9,42.6,108z"/>
			<circle class="st17" cx="26.3" cy="110.5" r="0.3"/>
			<circle class="st17" cx="27.3" cy="110.5" r="0.3"/>
			<circle class="st17" cx="28.2" cy="110.5" r="0.3"/>
			<circle class="st17" cx="29.2" cy="110.5" r="0.3"/>
			<circle class="st17" cx="30.1" cy="110.5" r="0.3"/>
			<circle class="st17" cx="31.1" cy="110.5" r="0.3"/>
			<circle class="st17" cx="32" cy="110.5" r="0.3"/>
			<circle class="st17" cx="32.9" cy="110.5" r="0.3"/>
			<circle class="st17" cx="33.9" cy="110.5" r="0.3"/>
			<circle class="st17" cx="34.8" cy="110.5" r="0.3"/>
			<circle class="st17" cx="35.8" cy="110.5" r="0.3"/>
			<circle class="st17" cx="36.7" cy="110.5" r="0.3"/>
		</g>
		<g>
			<path class="st17" d="M20.4,112.9c1.8,0,3.5,0,5.3,0c0,0.9,0,1.8,0,2.8c-1.8,0-3.5,0-5.3,0C20.4,114.7,20.4,113.8,20.4,112.9z"/>
			<path class="st18" d="M39.8,112.9c-0.8,0-1.6,0-2.4,0c0,0.9,0,1.8,0,2.8c0.8,0,1.6,0,2.4,0C39.8,114.7,39.8,113.8,39.8,112.9z"/>
			<path class="st18" d="M42.6,112.9c-0.8,0-1.6,0-2.4,0c0,0.9,0,1.8,0,2.8c0.8,0,1.6,0,2.4,0C42.6,114.7,42.6,113.8,42.6,112.9z"/>
			<circle class="st17" cx="26.3" cy="115.4" r="0.3"/>
			<circle class="st17" cx="27.3" cy="115.4" r="0.3"/>
			<circle class="st17" cx="28.2" cy="115.4" r="0.3"/>
			<circle class="st17" cx="29.2" cy="115.4" r="0.3"/>
			<circle class="st17" cx="30.1" cy="115.4" r="0.3"/>
			<circle class="st17" cx="31.1" cy="115.4" r="0.3"/>
			<circle class="st17" cx="32" cy="115.4" r="0.3"/>
			<circle class="st17" cx="32.9" cy="115.4" r="0.3"/>
			<circle class="st17" cx="33.9" cy="115.4" r="0.3"/>
			<circle class="st17" cx="34.8" cy="115.4" r="0.3"/>
			<circle class="st17" cx="35.8" cy="115.4" r="0.3"/>
			<circle class="st17" cx="36.7" cy="115.4" r="0.3"/>
		</g>
		<g>
			<path class="st21" d="M20.4,117.8c1.8,0,3.5,0,5.3,0c0,0.9,0,1.8,0,2.8c-1.8,0-3.5,0-5.3,0C20.4,119.6,20.4,118.7,20.4,117.8z"/>
			<path class="st18" d="M39.8,117.8c-0.8,0-1.6,0-2.4,0c0,0.9,0,1.8,0,2.8c0.8,0,1.6,0,2.4,0C39.8,119.6,39.8,118.7,39.8,117.8z"/>
			<path class="st18" d="M42.6,117.8c-0.8,0-1.6,0-2.4,0c0,0.9,0,1.8,0,2.8c0.8,0,1.6,0,2.4,0C42.6,119.6,42.6,118.7,42.6,117.8z"/>
			<circle class="st17" cx="26.3" cy="120.3" r="0.3"/>
			<circle class="st17" cx="27.3" cy="120.3" r="0.3"/>
			<circle class="st17" cx="28.2" cy="120.3" r="0.3"/>
			<circle class="st17" cx="29.2" cy="120.3" r="0.3"/>
			<circle class="st17" cx="30.1" cy="120.3" r="0.3"/>
			<circle class="st17" cx="31.1" cy="120.3" r="0.3"/>
			<circle class="st17" cx="32" cy="120.3" r="0.3"/>
			<circle class="st17" cx="32.9" cy="120.3" r="0.3"/>
			<circle class="st17" cx="33.9" cy="120.3" r="0.3"/>
			<circle class="st17" cx="34.8" cy="120.3" r="0.3"/>
			<circle class="st17" cx="35.8" cy="120.3" r="0.3"/>
			<circle class="st17" cx="36.7" cy="120.3" r="0.3"/>
		</g>
	</g>
	<g>
		<rect x="20.4" y="122.6" class="st22" width="5.3" height="2.8"/>
		<rect x="37.4" y="122.6" class="st18" width="2.4" height="2.8"/>
		<rect x="40.1" y="122.6" class="st18" width="2.4" height="2.8"/>
		<g>
			<circle class="st17" cx="26.3" cy="125.1" r="0.3"/>
			<g>
				<circle class="st17" cx="27.3" cy="125.1" r="0.3"/>
				<circle class="st17" cx="28.2" cy="125.1" r="0.3"/>
				<circle class="st17" cx="29.2" cy="125.1" r="0.3"/>
				<circle class="st17" cx="30.1" cy="125.1" r="0.3"/>
				<circle class="st17" cx="31.1" cy="125.1" r="0.3"/>
				<circle class="st17" cx="32" cy="125.1" r="0.3"/>
				<circle class="st17" cx="32.9" cy="125.1" r="0.3"/>
				<circle class="st17" cx="33.9" cy="125.1" r="0.3"/>
				<circle class="st17" cx="34.8" cy="125.1" r="0.3"/>
				<circle class="st17" cx="35.8" cy="125.1" r="0.3"/>
			</g>
			<circle class="st17" cx="36.7" cy="125.1" r="0.3"/>
		</g>
	</g>
</g>
<g>
	<polygon class="st23" points="-39.6,142.6 -24.4,134.2 -23.6,133.8 -22.9,134.3 -18,137.9 -5,127 -4.1,126.2 -3.3,127 4,133.9 
		18.8,121.3 19.5,120.6 20.4,121.2 28.5,126.4 36.3,120.3 38,122.4 29.4,129.1 28.7,129.7 27.9,129.2 19.7,124 4.8,136.7 3.9,137.5 
		3,136.6 -4.2,129.8 -17.1,140.6 -17.9,141.3 -18.7,140.7 -23.8,136.9 -38.3,144.9 	"/>
	<path class="st23" d="M-39,147c1.7,0,3.2-1.4,3.2-3.2c0-1.7-1.4-3.2-3.2-3.2c-1.7,0-3.2,1.4-3.2,3.2S-40.7,147-39,147z"/>
	<circle class="st24" cx="-39" cy="143.8" r="1.7"/>
	<path class="st23" d="M-24.1,137.9c1.3,0,2.4-1.1,2.4-2.4s-1.1-2.4-2.4-2.4s-2.4,1.1-2.4,2.4C-26.4,136.8-25.4,137.9-24.1,137.9z"
		/>
	<circle class="st24" cx="-24.1" cy="135.5" r="1.2"/>
	<path class="st23" d="M-18,141.7c1.3,0,2.4-1.1,2.4-2.4c0-1.3-1.1-2.4-2.4-2.4c-1.3,0-2.4,1.1-2.4,2.4
		C-20.4,140.7-19.3,141.7-18,141.7z"/>
	<circle class="st24" cx="-18" cy="139.4" r="1.2"/>
	<path class="st23" d="M-4.2,130.5c1.3,0,2.4-1.1,2.4-2.4c0-1.3-1.1-2.4-2.4-2.4c-1.3,0-2.4,1.1-2.4,2.4
		C-6.6,129.4-5.5,130.5-4.2,130.5z"/>
	<circle class="st24" cx="-4.2" cy="128.1" r="1.2"/>
	<path class="st23" d="M3.9,137.7c1.3,0,2.4-1.1,2.4-2.4c0-1.3-1.1-2.4-2.4-2.4c-1.3,0-2.4,1.1-2.4,2.4
		C1.6,136.7,2.6,137.7,3.9,137.7z"/>
	<circle class="st24" cx="3.9" cy="135.4" r="1.2"/>
	<path class="st23" d="M19.6,125.1c1.3,0,2.4-1.1,2.4-2.4s-1.1-2.4-2.4-2.4s-2.4,1.1-2.4,2.4S18.3,125.1,19.6,125.1z"/>
	<circle class="st24" cx="19.6" cy="122.7" r="1.2"/>
	<path class="st23" d="M28.7,130.1c1.3,0,2.4-1.1,2.4-2.4s-1.1-2.4-2.4-2.4s-2.4,1.1-2.4,2.4C26.3,129.1,27.4,130.1,28.7,130.1z"/>
	<circle class="st24" cx="28.7" cy="127.8" r="1.2"/>
	<path class="st23" d="M36.7,124.8c1.7,0,3.2-1.4,3.2-3.2s-1.4-3.2-3.2-3.2s-3.2,1.4-3.2,3.2S34.9,124.8,36.7,124.8z"/>
	<circle class="st24" cx="36.7" cy="121.6" r="1.7"/>
</g>
</svg>
