<?xml version="1.0" encoding="utf-8"?>
<!-- Generator: Adobe Illustrator 19.1.1, SVG Export Plug-In . SVG Version: 6.00 Build 0)  -->
<svg version="1.1" id="Layer_1" xmlns="http://www.w3.org/2000/svg" xmlns:xlink="http://www.w3.org/1999/xlink" x="0px" y="0px"
	 viewBox="0 0 100 100" style="enable-background:new 0 0 100 100;" xml:space="preserve">
<style type="text/css">
	.st0{fill:#26527B;}
	.st1{opacity:0.5;fill:#26527B;}
	.st2{fill:#FFFFFF;}
	.st3{fill:#F7F7F7;}
	.st4{fill:#3DC5C4;}
	.st5{font-family:'Arvo-Bold';}
	.st6{font-size:9.6562px;}
	.st7{fill:#F19134;}
	.st8{font-size:5.7077px;}
	.st9{fill:#F0E08A;}
	.st10{fill:#B7DD71;}
	.st11{font-size:9.7982px;}
	.st12{fill-rule:evenodd;clip-rule:evenodd;fill:#EDECC2;}
	.st13{fill-rule:evenodd;clip-rule:evenodd;fill:#FFFFEE;}
	.st14{fill-rule:evenodd;clip-rule:evenodd;fill:#C1CFD9;}
	.st15{fill-rule:evenodd;clip-rule:evenodd;fill:#D9E1E6;}
	.st16{fill-rule:evenodd;clip-rule:evenodd;fill:#B3D76C;}
	.st17{fill-rule:evenodd;clip-rule:evenodd;fill:#D9C1D5;}
	.st18{fill-rule:evenodd;clip-rule:evenodd;fill:#E1EB31;}
	.st19{fill-rule:evenodd;clip-rule:evenodd;fill:#F0C5DE;}
	.st20{fill-rule:evenodd;clip-rule:evenodd;fill:#C9E25A;}
	.st21{fill-rule:evenodd;clip-rule:evenodd;fill:#57A9B5;}
</style>
<g>
	<g>
		<circle class="st0" cx="52.2" cy="45.6" r="41.5"/>
	</g>
	<path class="st1" d="M53.1,22.1c14.1,0,27.9,4.5,39.3,12.7C87.6,17.1,71.4,4.1,52.2,4.1c-19.8,0-36.3,13.8-40.5,32.3
		C23.4,27.2,38.1,22.1,53.1,22.1z"/>
	<g>
		<circle class="st2" cx="52.2" cy="45.6" r="37.9"/>
	</g>
	<path class="st3" d="M53.2,19.6c11.5,0,22.7,3,32.6,8.5C79.5,16,66.8,7.7,52.2,7.7c-15.3,0-28.4,9-34.4,22
		C28.3,23.2,40.6,19.6,53.2,19.6z"/>
	<text transform="matrix(1 0 0 1 47.5205 18.1675)" class="st4 st5 st6">12</text>
	<text transform="matrix(1 0 0 1 37.377 23.4541)" class="st7 st5 st8">11</text>
	<text transform="matrix(1 0 0 1 25.708 33.6157)" class="st9 st5 st8">10</text>
	<text transform="matrix(1 0 0 1 74.461 33.6157)" class="st9 st5 st8">2</text>
	<text transform="matrix(1 0 0 1 27.0049 62.543)" class="st4 st5 st8">8</text>
	<text transform="matrix(1 0 0 1 74.3867 62.543)" class="st4 st5 st8">4</text>
	<text transform="matrix(1 0 0 1 64.3877 23.4541)" class="st10 st5 st8">1</text>
	<text transform="matrix(1 0 0 1 37.9902 72.1143)" class="st7 st5 st8">7</text>
	<text transform="matrix(1 0 0 1 63.8428 72.1143)" class="st10 st5 st8">5</text>
	<text transform="matrix(1 0 0 1 49.4365 80.9795)" class="st9 st5 st11">6</text>
	<text transform="matrix(1 0 0 1 16.5986 48.4145)" class="st10 st5 st6">9</text>
	<text transform="matrix(1 0 0 1 82.4776 49.0278)" class="st7 st5 st6">3</text>
	<circle class="st7" cx="35.3" cy="16.3" r="1.7"/>
	<circle class="st9" cx="22.9" cy="28.7" r="1.7"/>
	<circle class="st4" cx="22.9" cy="62.5" r="1.7"/>
	<circle class="st7" cx="35.3" cy="74.9" r="1.7"/>
	<circle class="st10" cx="69.1" cy="74.9" r="1.7"/>
	<circle class="st4" cx="81.5" cy="62.5" r="1.7"/>
	<circle class="st9" cx="81.5" cy="28.7" r="1.7"/>
	<circle class="st10" cx="69.1" cy="16.3" r="1.7"/>
	<g>
		
			<image style="overflow:visible;opacity:0.3;" width="199" height="105" xlink:href="BFC72A.png"  transform="matrix(0.24 0 0 0.24 15.3167 34.2751)">
		</image>
		<g>
			<path class="st0" d="M52.5,44c0.9,0.1,1.5,1,1.4,1.9l0,0c-0.1,0.9-1,1.5-1.9,1.4l-26.2-3.7c-0.9-0.1-1.5-1-1.4-1.9l0,0
				c0.1-0.9,1-1.5,1.9-1.4L52.5,44z"/>
		</g>
	</g>
	<g>
		
			<image style="overflow:visible;opacity:0.3;" width="146" height="148" xlink:href="BFC729.png"  transform="matrix(0.24 0 0 0.24 41.5651 37.9217)">
		</image>
		<g>
			<path class="st0" d="M51,46.8c-0.7-0.7-0.6-1.8,0-2.4l0,0c0.7-0.7,1.8-0.6,2.4,0l13.4,13.9c0.7,0.7,0.6,1.8,0,2.4l0,0
				c-0.7,0.7-1.8,0.6-2.4,0L51,46.8z"/>
		</g>
	</g>
	<g>
		
			<image style="overflow:visible;opacity:0.3;" width="99" height="99" xlink:href="BFC726.png"  transform="matrix(0.24 0 0 0.24 40.4361 36.8502)">
		</image>
		<g>
			<circle class="st4" cx="52.2" cy="45.6" r="2.8"/>
		</g>
	</g>
	<g>
		
			<image style="overflow:visible;opacity:0.3;" width="90" height="90" xlink:href="BFC739.png"  transform="matrix(0.24 0 0 0.24 41.4232 37.8373)">
		</image>
		<g>
			<circle class="st7" cx="52.2" cy="45.6" r="1.8"/>
		</g>
	</g>
</g>
<g>
	<path class="st12" d="M64.1,40.3h29c2,0,3.6,1.6,3.6,3.5v42.5c0,1.9-1.6,3.5-3.6,3.5h-29c-2,0-3.6-1.6-3.6-3.5V43.8
		C60.5,41.9,62.1,40.3,64.1,40.3z"/>
	<path class="st13" d="M64,40.3h28.5c1.9,0,3.5,1.5,3.5,3.4v41.4c0,1.9-1.6,3.4-3.5,3.4H64c-1.9,0-3.5-1.5-3.5-3.4V43.7
		C60.5,41.8,62.1,40.3,64,40.3z"/>
	<g>
		<rect x="63.4" y="46.5" class="st14" width="7.2" height="3.7"/>
		<rect x="86.4" y="46.5" class="st15" width="3.2" height="3.7"/>
		<rect x="90.1" y="46.5" class="st15" width="3.2" height="3.7"/>
		<g>
			<circle class="st14" cx="71.4" cy="49.9" r="0.4"/>
			<g>
				<circle class="st14" cx="72.7" cy="49.9" r="0.4"/>
				<circle class="st14" cx="74" cy="49.9" r="0.4"/>
				<circle class="st14" cx="75.3" cy="49.9" r="0.4"/>
				<circle class="st14" cx="76.5" cy="49.9" r="0.4"/>
				<circle class="st14" cx="77.8" cy="49.9" r="0.4"/>
				<circle class="st14" cx="79.1" cy="49.9" r="0.4"/>
				<circle class="st14" cx="80.4" cy="49.9" r="0.4"/>
				<circle class="st14" cx="81.6" cy="49.9" r="0.4"/>
				<circle class="st14" cx="82.9" cy="49.9" r="0.4"/>
				<circle class="st14" cx="84.2" cy="49.9" r="0.4"/>
			</g>
			<circle class="st14" cx="85.4" cy="49.9" r="0.4"/>
		</g>
	</g>
	<g>
		<g>
			<path class="st16" d="M63.4,53.1c2.4,0,4.8,0,7.2,0c0,1.2,0,2.5,0,3.7c-2.4,0-4.8,0-7.2,0C63.4,55.6,63.4,54.4,63.4,53.1z"/>
			<path class="st15" d="M89.6,53.1c-1.1,0-2.2,0-3.2,0c0,1.2,0,2.5,0,3.7c1.1,0,2.2,0,3.2,0C89.6,55.6,89.6,54.4,89.6,53.1z"/>
			<path class="st15" d="M93.3,53.1c-1.1,0-2.2,0-3.2,0c0,1.2,0,2.5,0,3.7c1.1,0,2.2,0,3.2,0C93.3,55.6,93.3,54.4,93.3,53.1z"/>
			<circle class="st14" cx="71.4" cy="56.5" r="0.4"/>
			<circle class="st14" cx="72.7" cy="56.5" r="0.4"/>
			<circle class="st14" cx="74" cy="56.5" r="0.4"/>
			<circle class="st14" cx="75.3" cy="56.5" r="0.4"/>
			<circle class="st14" cx="76.5" cy="56.5" r="0.4"/>
			<circle class="st14" cx="77.8" cy="56.5" r="0.4"/>
			<circle class="st14" cx="79.1" cy="56.5" r="0.4"/>
			<circle class="st14" cx="80.4" cy="56.5" r="0.4"/>
			<circle class="st14" cx="81.6" cy="56.5" r="0.4"/>
			<circle class="st14" cx="82.9" cy="56.5" r="0.4"/>
			<circle class="st14" cx="84.2" cy="56.5" r="0.4"/>
			<circle class="st14" cx="85.4" cy="56.5" r="0.4"/>
		</g>
		<g>
			<path class="st17" d="M63.4,59.7c2.4,0,4.8,0,7.2,0c0,1.2,0,2.5,0,3.7c-2.4,0-4.8,0-7.2,0C63.4,62.2,63.4,60.9,63.4,59.7z"/>
			<path class="st15" d="M89.6,59.7c-1.1,0-2.2,0-3.2,0c0,1.2,0,2.5,0,3.7c1.1,0,2.2,0,3.2,0C89.6,62.2,89.6,60.9,89.6,59.7z"/>
			<path class="st15" d="M93.3,59.7c-1.1,0-2.2,0-3.2,0c0,1.2,0,2.5,0,3.7c1.1,0,2.2,0,3.2,0C93.3,62.2,93.3,60.9,93.3,59.7z"/>
			<circle class="st14" cx="71.4" cy="63.1" r="0.4"/>
			<circle class="st14" cx="72.7" cy="63.1" r="0.4"/>
			<circle class="st14" cx="74" cy="63.1" r="0.4"/>
			<circle class="st14" cx="75.3" cy="63.1" r="0.4"/>
			<circle class="st14" cx="76.5" cy="63.1" r="0.4"/>
			<circle class="st14" cx="77.8" cy="63.1" r="0.4"/>
			<circle class="st14" cx="79.1" cy="63.1" r="0.4"/>
			<circle class="st14" cx="80.4" cy="63.1" r="0.4"/>
			<circle class="st14" cx="81.6" cy="63.1" r="0.4"/>
			<circle class="st14" cx="82.9" cy="63.1" r="0.4"/>
			<circle class="st14" cx="84.2" cy="63.1" r="0.4"/>
			<circle class="st14" cx="85.4" cy="63.1" r="0.4"/>
		</g>
		<g>
			<path class="st14" d="M63.4,66.3c2.4,0,4.8,0,7.2,0c0,1.2,0,2.5,0,3.7c-2.4,0-4.8,0-7.2,0C63.4,68.8,63.4,67.5,63.4,66.3z"/>
			<path class="st15" d="M89.6,66.3c-1.1,0-2.2,0-3.2,0c0,1.2,0,2.5,0,3.7c1.1,0,2.2,0,3.2,0C89.6,68.8,89.6,67.5,89.6,66.3z"/>
			<path class="st15" d="M93.3,66.3c-1.1,0-2.2,0-3.2,0c0,1.2,0,2.5,0,3.7c1.1,0,2.2,0,3.2,0C93.3,68.8,93.3,67.5,93.3,66.3z"/>
			<circle class="st14" cx="71.4" cy="69.7" r="0.4"/>
			<circle class="st14" cx="72.7" cy="69.7" r="0.4"/>
			<circle class="st14" cx="74" cy="69.7" r="0.4"/>
			<circle class="st14" cx="75.3" cy="69.7" r="0.4"/>
			<circle class="st14" cx="76.5" cy="69.7" r="0.4"/>
			<circle class="st14" cx="77.8" cy="69.7" r="0.4"/>
			<circle class="st14" cx="79.1" cy="69.7" r="0.4"/>
			<circle class="st14" cx="80.4" cy="69.7" r="0.4"/>
			<circle class="st14" cx="81.6" cy="69.7" r="0.4"/>
			<circle class="st14" cx="82.9" cy="69.7" r="0.4"/>
			<circle class="st14" cx="84.2" cy="69.7" r="0.4"/>
			<circle class="st14" cx="85.4" cy="69.7" r="0.4"/>
		</g>
		<g>
			<path class="st18" d="M63.4,72.9c2.4,0,4.8,0,7.2,0c0,1.2,0,2.5,0,3.7c-2.4,0-4.8,0-7.2,0C63.4,75.3,63.4,74.1,63.4,72.9z"/>
			<path class="st15" d="M89.6,72.9c-1.1,0-2.2,0-3.2,0c0,1.2,0,2.5,0,3.7c1.1,0,2.2,0,3.2,0C89.6,75.3,89.6,74.1,89.6,72.9z"/>
			<path class="st15" d="M93.3,72.9c-1.1,0-2.2,0-3.2,0c0,1.2,0,2.5,0,3.7c1.1,0,2.2,0,3.2,0C93.3,75.3,93.3,74.1,93.3,72.9z"/>
			<circle class="st14" cx="71.4" cy="76.2" r="0.4"/>
			<circle class="st14" cx="72.7" cy="76.2" r="0.4"/>
			<circle class="st14" cx="74" cy="76.2" r="0.4"/>
			<circle class="st14" cx="75.3" cy="76.2" r="0.4"/>
			<circle class="st14" cx="76.5" cy="76.2" r="0.4"/>
			<circle class="st14" cx="77.8" cy="76.2" r="0.4"/>
			<circle class="st14" cx="79.1" cy="76.2" r="0.4"/>
			<circle class="st14" cx="80.4" cy="76.2" r="0.4"/>
			<circle class="st14" cx="81.6" cy="76.2" r="0.4"/>
			<circle class="st14" cx="82.9" cy="76.2" r="0.4"/>
			<circle class="st14" cx="84.2" cy="76.2" r="0.4"/>
			<circle class="st14" cx="85.4" cy="76.2" r="0.4"/>
		</g>
	</g>
	<g>
		<rect x="63.4" y="79.4" class="st19" width="7.2" height="3.7"/>
		<rect x="86.4" y="79.4" class="st15" width="3.2" height="3.7"/>
		<rect x="90.1" y="79.4" class="st15" width="3.2" height="3.7"/>
		<g>
			<circle class="st14" cx="71.4" cy="82.8" r="0.4"/>
			<g>
				<circle class="st14" cx="72.7" cy="82.8" r="0.4"/>
				<circle class="st14" cx="74" cy="82.8" r="0.4"/>
				<circle class="st14" cx="75.3" cy="82.8" r="0.4"/>
				<circle class="st14" cx="76.5" cy="82.8" r="0.4"/>
				<circle class="st14" cx="77.8" cy="82.8" r="0.4"/>
				<circle class="st14" cx="79.1" cy="82.8" r="0.4"/>
				<circle class="st14" cx="80.4" cy="82.8" r="0.4"/>
				<circle class="st14" cx="81.6" cy="82.8" r="0.4"/>
				<circle class="st14" cx="82.9" cy="82.8" r="0.4"/>
				<circle class="st14" cx="84.2" cy="82.8" r="0.4"/>
			</g>
			<circle class="st14" cx="85.4" cy="82.8" r="0.4"/>
		</g>
	</g>
</g>
<g>
	<polygon class="st20" points="6,80.1 23.6,70.4 24.5,69.9 25.3,70.5 30.9,74.6 45.9,62 47,61.1 48,62.1 56.4,70 73.4,55.5 
		74.3,54.7 75.3,55.3 84.7,61.4 93.7,54.4 95.7,56.8 85.8,64.5 84.9,65.2 84,64.6 74.6,58.6 57.3,73.3 56.3,74.2 55.3,73.2 
		46.9,65.3 32,77.8 31.1,78.6 30.1,77.9 24.2,73.6 7.5,82.8 	"/>
	<path class="st20" d="M6.7,85.2c2,0,3.7-1.6,3.7-3.7c0-2-1.6-3.7-3.7-3.7c-2,0-3.7,1.6-3.7,3.7C3,83.6,4.7,85.2,6.7,85.2z"/>
	<path class="st21" d="M6.7,83.4c1.1,0,1.9-0.9,1.9-1.9c0-1.1-0.9-1.9-1.9-1.9s-1.9,0.9-1.9,1.9C4.8,82.6,5.6,83.4,6.7,83.4z"/>
	<path class="st20" d="M23.9,74.7c1.5,0,2.7-1.2,2.7-2.7c0-1.5-1.2-2.7-2.7-2.7c-1.5,0-2.7,1.2-2.7,2.7
		C21.2,73.5,22.4,74.7,23.9,74.7z"/>
	<circle class="st21" cx="23.9" cy="71.9" r="1.4"/>
	<path class="st20" d="M30.9,79.1c1.5,0,2.7-1.2,2.7-2.7c0-1.5-1.2-2.7-2.7-2.7c-1.5,0-2.7,1.2-2.7,2.7
		C28.2,77.9,29.4,79.1,30.9,79.1z"/>
	<circle class="st21" cx="30.9" cy="76.4" r="1.4"/>
	<path class="st20" d="M46.9,66.1c1.5,0,2.7-1.2,2.7-2.7s-1.2-2.7-2.7-2.7c-1.5,0-2.7,1.2-2.7,2.7S45.4,66.1,46.9,66.1z"/>
	<circle class="st21" cx="46.9" cy="63.4" r="1.4"/>
	<path class="st20" d="M56.3,74.5c1.5,0,2.7-1.2,2.7-2.7c0-1.5-1.2-2.7-2.7-2.7c-1.5,0-2.7,1.2-2.7,2.7
		C53.6,73.2,54.8,74.5,56.3,74.5z"/>
	<circle class="st21" cx="56.3" cy="71.7" r="1.4"/>
	<path class="st20" d="M74.4,59.8c1.5,0,2.7-1.2,2.7-2.7c0-1.5-1.2-2.7-2.7-2.7c-1.5,0-2.7,1.2-2.7,2.7
		C71.6,58.6,72.9,59.8,74.4,59.8z"/>
	<circle class="st21" cx="74.4" cy="57.1" r="1.4"/>
	<path class="st20" d="M84.9,65.7c1.5,0,2.7-1.2,2.7-2.7c0-1.5-1.2-2.7-2.7-2.7c-1.5,0-2.7,1.2-2.7,2.7
		C82.2,64.5,83.4,65.7,84.9,65.7z"/>
	<circle class="st21" cx="84.9" cy="63" r="1.4"/>
	<path class="st20" d="M94.2,59.5c2,0,3.7-1.6,3.7-3.7c0-2-1.6-3.7-3.7-3.7s-3.7,1.6-3.7,3.7C90.5,57.9,92.2,59.5,94.2,59.5z"/>
	<path class="st21" d="M94.2,57.8c1.1,0,1.9-0.9,1.9-1.9c0-1.1-0.9-1.9-1.9-1.9c-1.1,0-1.9,0.9-1.9,1.9
		C92.3,56.9,93.1,57.8,94.2,57.8z"/>
</g>
</svg>
