<?xml version="1.0" encoding="utf-8"?>
<!-- Generator: Adobe Illustrator 19.1.1, SVG Export Plug-In . SVG Version: 6.00 Build 0)  -->
<svg version="1.1" id="Layer_1" xmlns="http://www.w3.org/2000/svg" xmlns:xlink="http://www.w3.org/1999/xlink" x="0px" y="0px"
	 viewBox="143 200 686 102" style="enable-background:new 143 200 686 102;" xml:space="preserve">
<style type="text/css">
	.st0{fill:#FFFFFF;}
	.st1{fill:#2982BA;}
</style>
<g>
	<path class="st0" d="M378,227.9c-6.5-6.4-14.6-9.6-24.2-9.6c-9.6,0-17.7,3.2-24.2,9.6c-6.5,6.4-9.8,14.3-9.8,23.9
		c0,9.5,3.3,17.5,9.8,23.9c6.5,6.4,14.6,9.6,24.2,9.6c9.6,0,17.7-3.2,24.2-9.6c3.9-3.8,6.6-8.2,8.2-13.1h-12
		c-1.1,2.1-2.4,4.1-4.2,5.9c-4.4,4.6-9.8,6.8-16.2,6.8c-6.4,0-11.8-2.3-16.2-6.8c-3.5-3.6-5.6-7.8-6.3-12.7h45.1h11.3l0,0
		c0.1-1.3,0.2-2.6,0.2-3.9C387.8,242.3,384.5,234.3,378,227.9z M353.8,228.4c6.4,0,11.8,2.3,16.2,6.8c3,3.1,4.9,6.6,5.9,10.6h-44.2
		c1-4,2.9-7.5,5.9-10.6C341.9,230.6,347.3,228.4,353.8,228.4z"/>
	<path class="st1" d="M754.7,228c-6.5-6.4-14.6-9.6-24.1-9.6c-9.6,0-17.6,3.2-24.1,9.6s-9.8,14.3-9.8,23.8c0,9.5,3.3,17.4,9.8,23.8
		s14.6,9.6,24.1,9.6c9.6,0,17.6-3.2,24.1-9.6c3.9-3.8,6.6-8.1,8.1-13H747c-0.8,1.4-1.7,2.7-2.8,3.9c-3.7,4-8.2,6.1-13.6,6.1
		s-9.9-2-13.6-6.1c-2.8-3.1-4.6-6.7-5.2-10.8h37.8h14.8l0,0c0.1-1.3,0.2-2.6,0.2-4C764.5,242.3,761.2,234.4,754.7,228z M730.6,231
		c5.4,0,9.9,2,13.6,6.1c1.7,1.9,3,3.9,3.9,6.1H713c0.9-2.2,2.2-4.3,3.9-6.1C720.6,233,725.2,231,730.6,231z"/>
	<g>
		<g>
			<path class="st0" d="M298.3,284.6h-12.2l-26-64.7h12.2l19.9,48.3l19.9-48.3h12.2L298.3,284.6z"/>
			<path class="st0" d="M443.9,240.9c0,10.7-4.7,17.4-14,20.2l16.9,23.5H433l-15.5-21.7h-14.3v21.7h-10.9v-64.7h24.1
				c9.9,0,16.9,1.7,21.2,5C441.9,228.2,443.9,233.5,443.9,240.9z M429.4,250c2.2-1.9,3.3-5,3.3-9.2s-1.1-7.1-3.4-8.7
				c-2.3-1.6-6.4-2.4-12.2-2.4h-13.9v23.1h13.6C423,252.9,427.2,252,429.4,250z"/>
			<path class="st0" d="M506.8,275.6c-6.5,6.4-14.6,9.6-24.2,9.6s-17.7-3.2-24.2-9.6s-9.8-14.3-9.8-23.9c0-9.5,3.3-17.5,9.8-23.9
				c6.5-6.4,14.6-9.6,24.2-9.6s17.7,3.2,24.2,9.6c6.5,6.4,9.8,14.3,9.8,23.9C516.7,261.3,513.4,269.2,506.8,275.6z M498.8,235.2
				c-4.4-4.6-9.8-6.8-16.2-6.8c-6.4,0-11.8,2.3-16.2,6.8c-4.4,4.6-6.6,10.1-6.6,16.6c0,6.5,2.2,12,6.6,16.6s9.8,6.8,16.2,6.8
				c6.4,0,11.8-2.3,16.2-6.8c4.4-4.6,6.6-10.1,6.6-16.6C505.4,245.3,503.3,239.7,498.8,235.2z"/>
		</g>
		<g>
			<path class="st1" d="M631.7,275.6c-6.5,6.4-14.6,9.6-24.1,9.6c-9.6,0-17.6-3.2-24.1-9.6s-9.8-14.3-9.8-23.8
				c0-9.5,3.3-17.4,9.8-23.8s14.6-9.6,24.1-9.6c9.6,0,17.6,3.2,24.1,9.6s9.8,14.3,9.8,23.8C641.5,261.3,638.2,269.2,631.7,275.6z
				 M626.8,251.9c0-5.8-1.9-10.7-5.6-14.8c-3.7-4.1-8.2-6.1-13.6-6.1c-5.4,0-9.9,2-13.6,6.1c-3.7,4.1-5.6,9-5.6,14.8
				c0,5.8,1.9,10.7,5.6,14.7s8.2,6.1,13.6,6.1c5.4,0,9.9-2,13.6-6.1S626.8,257.6,626.8,251.9z"/>
			<path class="st1" d="M669.1,261.1l16.5-41.2h15.6l-26,64.7H663l-26-64.7h15.6L669.1,261.1z"/>
			<path class="st1" d="M823,241.3c0,10.4-4.1,17.1-12.3,20.1l16.4,23.1h-17.8L795,263.9h-10v20.6h-14.4v-64.6h24.5
				c10.1,0,17.2,1.7,21.5,5.1S823,233.8,823,241.3z M805.6,249c1.8-1.6,2.7-4.1,2.7-7.6s-0.9-5.9-2.8-7.2c-1.8-1.3-5.1-1.9-9.7-1.9
				H785v19.2h10.5C800.5,251.4,803.8,250.6,805.6,249z"/>
		</g>
		<path class="st1" d="M566.9,269.1c-3.1,2.3-6.7,3.5-10.8,3.5c-5.4,0-9.9-2-13.6-6.1c-3.7-4-5.6-8.9-5.6-14.7s1.9-10.7,5.6-14.8
			s8.2-6.1,13.6-6.1c4.1,0,7.7,1.2,10.8,3.5c1.5-3.4,3.4-6.6,5.8-9.6c0.4-0.6,0.8-1.2,1.2-1.8c-5.2-3.1-11.1-4.7-17.8-4.7
			c-9.6,0-17.6,3.2-24.1,9.6c-6.5,6.4-9.8,14.3-9.8,23.8s3.3,17.4,9.8,23.8s14.6,9.6,24.1,9.6c6.7,0,12.6-1.6,17.8-4.7
			c0.1,0,0.1-0.1,0.2-0.1C571,276.9,568.6,273.2,566.9,269.1z"/>
	</g>
	<circle class="st0" cx="155.5" cy="251" r="10.6"/>
	<circle class="st1" cx="197.1" cy="209.5" r="6.4"/>
	<circle class="st1" cx="176.3" cy="230.2" r="8.5"/>
	<circle class="st0" cx="197.1" cy="292.6" r="6.4"/>
	<circle class="st0" cx="238.6" cy="251" r="10.6"/>
	<circle class="st0" cx="217.8" cy="271.8" r="8.5"/>
	<circle class="st0" cx="176.3" cy="271.8" r="8.5"/>
	<circle class="st1" cx="217.8" cy="230.2" r="8.5"/>
	<circle class="st1" cx="197.1" cy="251" r="8.5"/>
</g>
</svg>
