<?xml version="1.0" encoding="utf-8"?>
<!-- Generator: Adobe Illustrator 19.1.1, SVG Export Plug-In . SVG Version: 6.00 Build 0)  -->
<svg version="1.1" id="Layer_1" xmlns="http://www.w3.org/2000/svg" xmlns:xlink="http://www.w3.org/1999/xlink" x="0px" y="0px"
	 viewBox="0 0 686 102" style="enable-background:new 0 0 686 102;" xml:space="preserve">
<style type="text/css">
	.st0{fill:#232E67;}
	.st1{fill:#2982BA;}
</style>
<g>
	<path class="st0" d="M235,27.9c-6.5-6.4-14.6-9.6-24.2-9.6c-9.6,0-17.7,3.2-24.2,9.6c-6.5,6.4-9.8,14.3-9.8,23.9
		c0,9.5,3.3,17.5,9.8,23.9c6.5,6.4,14.6,9.6,24.2,9.6c9.6,0,17.7-3.2,24.2-9.6c3.9-3.8,6.6-8.2,8.2-13.1h-12
		c-1.1,2.1-2.4,4.1-4.2,5.9c-4.4,4.6-9.8,6.8-16.2,6.8c-6.4,0-11.8-2.3-16.2-6.8c-3.5-3.6-5.6-7.8-6.3-12.7h45.1h11.3h0
		c0.1-1.3,0.2-2.6,0.2-3.9C244.8,42.3,241.5,34.3,235,27.9z M210.8,28.4c6.4,0,11.8,2.3,16.2,6.8c3,3.1,4.9,6.6,5.9,10.6h-44.2
		c1-4,2.9-7.5,5.9-10.6C198.9,30.6,204.3,28.4,210.8,28.4z"/>
	<path class="st1" d="M611.7,28c-6.5-6.4-14.6-9.6-24.1-9.6c-9.6,0-17.6,3.2-24.1,9.6s-9.8,14.3-9.8,23.8c0,9.5,3.3,17.4,9.8,23.8
		c6.5,6.4,14.6,9.6,24.1,9.6c9.6,0,17.6-3.2,24.1-9.6c3.9-3.8,6.6-8.1,8.1-13h-15.8c-0.8,1.4-1.7,2.7-2.8,3.9
		c-3.7,4-8.2,6.1-13.6,6.1s-9.9-2-13.6-6.1c-2.8-3.1-4.6-6.7-5.2-10.8h37.8h14.8h0c0.1-1.3,0.2-2.6,0.2-4
		C621.5,42.3,618.2,34.4,611.7,28z M587.6,31c5.4,0,9.9,2,13.6,6.1c1.7,1.9,3,3.9,3.9,6.1H570c0.9-2.2,2.2-4.3,3.9-6.1
		C577.6,33,582.2,31,587.6,31z"/>
	<g>
		<g>
			<path class="st0" d="M155.3,84.6h-12.2l-26-64.7h12.2l19.9,48.3l19.9-48.3h12.2L155.3,84.6z"/>
			<path class="st0" d="M300.9,40.9c0,10.7-4.7,17.4-14,20.2l16.9,23.5H290l-15.5-21.7h-14.3v21.7h-10.9V19.9h24.1
				c9.9,0,16.9,1.7,21.2,5S300.9,33.5,300.9,40.9z M286.4,50c2.2-1.9,3.3-5,3.3-9.2s-1.1-7.1-3.4-8.7c-2.3-1.6-6.4-2.4-12.2-2.4
				h-13.9v23.1h13.6C280,52.9,284.2,52,286.4,50z"/>
			<path class="st0" d="M363.8,75.6c-6.5,6.4-14.6,9.6-24.2,9.6c-9.6,0-17.7-3.2-24.2-9.6c-6.5-6.4-9.8-14.3-9.8-23.9
				c0-9.5,3.3-17.5,9.8-23.9c6.5-6.4,14.6-9.6,24.2-9.6c9.6,0,17.7,3.2,24.2,9.6c6.5,6.4,9.8,14.3,9.8,23.9
				C373.7,61.3,370.4,69.2,363.8,75.6z M355.8,35.2c-4.4-4.6-9.8-6.8-16.2-6.8c-6.4,0-11.8,2.3-16.2,6.8c-4.4,4.6-6.6,10.1-6.6,16.6
				s2.2,12,6.6,16.6c4.4,4.6,9.8,6.8,16.2,6.8c6.4,0,11.8-2.3,16.2-6.8c4.4-4.6,6.6-10.1,6.6-16.6S360.3,39.7,355.8,35.2z"/>
		</g>
		<g>
			<path class="st1" d="M488.7,75.6c-6.5,6.4-14.6,9.6-24.1,9.6c-9.6,0-17.6-3.2-24.1-9.6c-6.5-6.4-9.8-14.3-9.8-23.8
				c0-9.5,3.3-17.4,9.8-23.8c6.5-6.4,14.6-9.6,24.1-9.6c9.6,0,17.6,3.2,24.1,9.6c6.5,6.4,9.8,14.3,9.8,23.8
				C498.5,61.3,495.2,69.2,488.7,75.6z M483.8,51.9c0-5.8-1.9-10.7-5.6-14.8C474.5,33,470,31,464.6,31c-5.4,0-9.9,2-13.6,6.1
				c-3.7,4.1-5.6,9-5.6,14.8c0,5.8,1.9,10.7,5.6,14.7c3.7,4,8.2,6.1,13.6,6.1c5.4,0,9.9-2,13.6-6.1
				C481.9,62.5,483.8,57.6,483.8,51.9z"/>
			<path class="st1" d="M526.1,61.1l16.5-41.2h15.6l-26,64.7H520l-26-64.7h15.6L526.1,61.1z"/>
			<path class="st1" d="M680,41.3c0,10.4-4.1,17.1-12.3,20.1l16.4,23.1h-17.8L652,63.9h-10v20.6h-14.4V19.9h24.5
				c10.1,0,17.2,1.7,21.5,5.1S680,33.8,680,41.3z M662.6,49c1.8-1.6,2.7-4.1,2.7-7.6c0-3.5-0.9-5.9-2.8-7.2
				c-1.8-1.3-5.1-1.9-9.7-1.9H642v19.2h10.5C657.5,51.4,660.8,50.6,662.6,49z"/>
		</g>
		<path class="st1" d="M423.9,69.1c-3.1,2.3-6.7,3.5-10.8,3.5c-5.4,0-9.9-2-13.6-6.1c-3.7-4-5.6-8.9-5.6-14.7
			c0-5.8,1.9-10.7,5.6-14.8c3.7-4.1,8.2-6.1,13.6-6.1c4.1,0,7.7,1.2,10.8,3.5c1.5-3.4,3.4-6.6,5.8-9.6c0.4-0.6,0.8-1.2,1.2-1.8
			c-5.2-3.1-11.1-4.7-17.8-4.7c-9.6,0-17.6,3.2-24.1,9.6c-6.5,6.4-9.8,14.3-9.8,23.8c0,9.5,3.3,17.4,9.8,23.8
			c6.5,6.4,14.6,9.6,24.1,9.6c6.7,0,12.6-1.6,17.8-4.7c0.1,0,0.1-0.1,0.2-0.1C428,76.9,425.6,73.2,423.9,69.1z"/>
	</g>
	<circle class="st0" cx="12.5" cy="51" r="10.6"/>
	<circle class="st1" cx="54.1" cy="9.5" r="6.4"/>
	<circle class="st1" cx="33.3" cy="30.2" r="8.5"/>
	<circle class="st0" cx="54.1" cy="92.6" r="6.4"/>
	<circle class="st0" cx="95.6" cy="51" r="10.6"/>
	<circle class="st0" cx="74.8" cy="71.8" r="8.5"/>
	<circle class="st0" cx="33.3" cy="71.8" r="8.5"/>
	<circle class="st1" cx="74.8" cy="30.2" r="8.5"/>
	<circle class="st1" cx="54.1" cy="51" r="8.5"/>
</g>
</svg>
