<?xml version="1.0" encoding="utf-8"?>
<!-- Generator: Adobe Illustrator 19.1.1, SVG Export Plug-In . SVG Version: 6.00 Build 0)  -->
<svg version="1.1" id="Layer_1" xmlns="http://www.w3.org/2000/svg" xmlns:xlink="http://www.w3.org/1999/xlink" x="0px" y="0px"
	 viewBox="0 0 300 200" style="enable-background:new 0 0 300 200;" xml:space="preserve">
<style type="text/css">
	.st0{fill:#EAEAEA;}
	.st1{fill:#BFBFBF;}
	.st2{fill:#BCE0E8;}
	.st3{fill:#3A3B42;}
	.st4{fill:#2C5771;}
	.st5{fill:#FBDD57;}
	.st6{fill:#F95F1E;}
	.st7{fill:#FFFFEE;}
	.st8{fill:#ABD45F;}
	.st9{fill:#F7D924;}
	.st10{fill:#7DCCF0;}
	.st11{fill:#3178B0;}
	.st12{fill:#C9E25A;}
	.st13{fill:#57A9B5;}
</style>
<g>
	<g>
		<g>
			<g>
				<g>
					<g>
						<polygon class="st0" points="120.3,179.5 122.1,163.9 139.1,158.7 139.1,158.4 139.5,158.7 140,158.4 140,158.7 157.2,163.9 
							159,179.5 165.3,181.1 165.3,186.3 140,186.3 139.1,186.3 113.9,186.3 113.9,181.1 						"/>
						<polygon class="st1" points="120.7,174.3 157.8,171.6 157.6,167.5 121.6,167.5 						"/>
						<polygon class="st1" points="165.3,182.9 165.3,186.3 113.9,186.3 113.9,185.6 165.3,181.1 						"/>
						<path class="st0" d="M49.4,163.9c0,2.7,2.3,5,5,5h170.5c2.7,0,5-2.3,5-5V43.4c0-2.7-2.3-5-5-5H54.4c-2.7,0-5,2.3-5,5V163.9z"
							/>
					</g>
					<g>
						<g>
							<path class="st2" d="M227.6,143.9V42.7c0-1.6-0.9-2.7-2.3-2.7H54.6c-1.1,0-2.3,1.1-2.3,2.7v101.4h175.3V143.9z"/>
							<path class="st3" d="M54.6,42.5h170.1c0,0,0,0,0,0.2v98.5H54.6V42.5C54.6,42.7,54.6,42.7,54.6,42.5 M54.4,37.3
								c-2.7,0-5,2.3-5,5.4v103.9h180.9V42.7c0-2.9-2.3-5.4-5-5.4H54.4L54.4,37.3z"/>
						</g>
					</g>
				</g>
			</g>
		</g>
	</g>
	<g>
		<g>
			<rect x="63.4" y="72.2" class="st4" width="34.6" height="2.5"/>
			<rect x="63.4" y="78.5" class="st4" width="34.6" height="2.5"/>
			<rect x="63.4" y="85.3" class="st4" width="34.6" height="2.5"/>
			<rect x="63.4" y="91.9" class="st4" width="34.6" height="2.5"/>
			<rect x="63.4" y="98.7" class="st4" width="34.6" height="2.5"/>
			<rect x="63.4" y="105" class="st4" width="34.6" height="2.5"/>
			<rect x="63.4" y="111.8" class="st4" width="34.6" height="2.5"/>
			<rect x="63.4" y="118.4" class="st4" width="34.6" height="2.5"/>
			<rect x="63.4" y="124.9" class="st4" width="34.6" height="2.5"/>
			<rect x="63.4" y="131.5" class="st4" width="34.6" height="2.5"/>
		</g>
		<g>
			<path class="st4" d="M160.8,52c-8.6,0-15.6,7-15.6,15.6s7,15.6,15.6,15.6c8.6,0,15.6-7,15.6-15.6h-15.6
				C160.8,67.6,160.8,52,160.8,52z"/>
			<path class="st5" d="M177.5,66.5c0-8.6-7-15.6-15.6-15.6v15.6H177.5z"/>
		</g>
		<g>
			<rect x="118.2" y="110.9" class="st5" width="6.3" height="23.5"/>
			<rect x="127.1" y="98.7" class="st6" width="6.3" height="35.6"/>
			<rect x="135.9" y="109.1" class="st4" width="6.3" height="25.1"/>
			<rect x="144.9" y="114.1" class="st5" width="6.3" height="20.2"/>
			<rect x="153.8" y="106.4" class="st6" width="6.3" height="27.9"/>
			<rect x="162.6" y="103.4" class="st4" width="6.3" height="31"/>
			<rect x="171.7" y="110.9" class="st5" width="6.3" height="23.5"/>
			<rect x="180.5" y="113.2" class="st6" width="6.3" height="21.1"/>
			<rect x="189.3" y="100.9" class="st4" width="6.3" height="33.3"/>
			<rect x="198.2" y="107.9" class="st5" width="6.3" height="26.3"/>
		</g>
		<path class="st6" d="M80.4,59.9c0.2,0,2-0.2,2-0.2s0.2-0.2,0.2-0.5c0-0.2,0-0.7,0-0.7s0-0.5,0-0.7c0-0.2-0.2-0.5-0.2-0.5
			s-1.8-0.2-2-0.2c0,0-0.2,0-0.5-0.2c-0.2-0.5-0.2-0.9-0.7-1.4c0-0.2,0-0.2,0.2-0.5c0.2-0.2,1.4-1.4,1.4-1.4s0-0.2-0.2-0.5
			c-0.2-0.2-0.5-0.5-0.5-0.5s-0.2-0.2-0.5-0.5c-0.2-0.2-0.5-0.2-0.5-0.2s-1.4,0.9-1.6,0.9c0,0-0.2,0-0.5,0c-0.5-0.2-0.7-0.7-1.1-0.7
			c0-0.2-0.2-0.2-0.2-0.5c0-0.2,0-2,0-2s-0.2-0.2-0.5-0.2s-0.7,0-0.7,0s-0.5,0-0.7,0S73.6,50,73.6,50s-0.5,1.6-0.7,1.8
			c0,0-0.2,0.2-0.2,0.5c-0.5,0-0.9,0.2-1.4,0.2c-0.2,0-0.2-0.2-0.5-0.2c-0.2-0.2-1.1-1.6-1.1-1.6s-0.2,0-0.5,0
			c-0.2,0.2-0.7,0.5-0.7,0.5s-0.2,0.2-0.7,0.5c-0.2,0.2-0.2,0.5-0.2,0.5s0.7,1.6,0.7,1.8c0,0,0,0.2,0,0.5c-0.5,0.5-0.7,0.7-0.9,1.1
			c-0.2,0-0.2,0-0.5,0S65,55,65,55s-0.2,0-0.5,0.5c0,0.2-0.2,0.7-0.2,0.7s-0.2,0.5-0.2,0.7c0,0.2,0,0.5,0,0.5s1.6,0.7,1.8,0.7
			l0.2,0.2c0,0.5,0,0.9,0,1.4c0,0.2-0.2,0.2-0.2,0.2c-0.2,0-1.8,0.9-1.8,0.9s-0.2,0.2,0,0.5c0,0.2,0.2,0.7,0.2,0.7s0.2,0.5,0.2,0.7
			c0,0.2,0.5,0.5,0.5,0.5s1.8-0.5,2-0.5c0,0,0.2,0,0.5,0c0.2,0.5,0.7,0.7,0.9,0.9c0,0.2,0,0.2,0,0.5s-0.7,1.8-0.7,1.8s0,0.2,0.2,0.5
			c0.2,0.2,0.7,0.2,0.7,0.2s0.2,0.2,0.7,0.2c0.2,0.2,0.5,0,0.5,0s0.9-1.4,1.1-1.6c0,0,0.2-0.2,0.5-0.2c0.2,0,0.5,0.2,0.7,0.2
			s0.5,0,0.7,0s0.2,0.2,0.2,0.2c0,0.2,0.7,1.8,0.7,1.8s0.2,0.2,0.5,0c0.2,0,0.7-0.2,0.7-0.2s0.5,0,0.7-0.2c0.2,0,0.5-0.2,0.5-0.2
			s0.5-1.8,0.5-2c0,0,0-0.2,0.2-0.5c0.5-0.2,0.7-0.5,1.1-0.7c0.2,0,0.5,0,0.5,0c0.2,0.2,1.6,0.9,1.6,0.9s0.2,0,0.5-0.2
			c0.2-0.2,0.5-0.5,0.5-0.5s0.2-0.2,0.5-0.5c0.2-0.2,0.2-0.5,0.2-0.5s-1.1-1.1-1.4-1.4c0,0-0.2-0.2-0.2-0.5c0.2-0.5,0.5-0.7,0.5-1.4
			C80.2,59.9,80.4,59.9,80.4,59.9z M78.4,59.5c-0.5,2.3-2.5,3.8-4.8,3.4s-3.8-2.5-3.4-4.8c0.5-2.3,2.5-3.8,4.8-3.4
			C77,55.2,78.6,57,78.4,59.5z"/>
	</g>
</g>
<g>
	<path class="st7" d="M204,97.8c26.3,0,47.8-21.5,47.8-47.8S230.5,2,204,2s-47.8,21.5-47.8,47.8S177.8,97.8,204,97.8z"/>
	<path class="st8" d="M245.3,37.1c1.4,4.1,2,8.4,2,12.7c0,23.8-19.2,43-43.3,43c-23.8,0-43.3-19.2-43.3-43c0-23.5,18.8-42.6,42.1-43
		l1.1,43.5l28.5-32.8L204.3,50v0.2l0,0l0,0L245.3,37.1z"/>
	<path class="st9" d="M242.1,29.1c1.4,2.5,2.5,5.2,3.4,7.9l-41.2,13.1l0,0L242.1,29.1z"/>
	<path class="st10" d="M232.6,17.4c3.8,3.4,7,7.2,9.3,11.8L204,50.2V50L232.6,17.4z"/>
	<path class="st11" d="M204,6.7c10.9,0,20.8,4.1,28.5,10.9L204,50l-0.9-43.3C203.4,6.7,203.8,6.7,204,6.7z"/>
</g>
<g>
	<polygon class="st12" points="49.5,169 88.2,147.6 90.3,146.6 92,147.9 104.5,157 137.6,129.3 139.9,127.3 141.9,129.3 
		160.5,146.8 198.1,114.8 199.9,113 202.2,114.5 222.8,127.8 242.7,112.2 247,117.6 225.1,134.6 223.3,136.2 221.3,134.9 
		200.4,121.7 162.5,154 160.2,156 157.9,153.7 139.6,136.4 106.8,163.9 104.8,165.7 102.7,164.1 89.7,154.5 52.9,174.8 	"/>
	<path class="st12" d="M51.1,180.2c4.3,0,8.1-3.6,8.1-8.1c0-4.3-3.6-8.1-8.1-8.1c-4.3,0-8.1,3.6-8.1,8.1
		C42.9,176.6,46.7,180.2,51.1,180.2z"/>
	<circle class="st13" cx="51.1" cy="172" r="4.3"/>
	<path class="st12" d="M89,157c3.3,0,6.1-2.8,6.1-6.1s-2.8-6.1-6.1-6.1s-6.1,2.8-6.1,6.1C83.1,154.2,85.7,157,89,157z"/>
	<circle class="st13" cx="89" cy="150.9" r="3.1"/>
	<path class="st12" d="M104.5,166.7c3.3,0,6.1-2.8,6.1-6.1c0-3.3-2.8-6.1-6.1-6.1c-3.3,0-6.1,2.8-6.1,6.1
		C98.4,164.1,101.2,166.7,104.5,166.7z"/>
	<circle class="st13" cx="104.5" cy="160.8" r="3.1"/>
	<path class="st12" d="M139.6,138.2c3.3,0,6.1-2.8,6.1-6.1c0-3.3-2.8-6.1-6.1-6.1s-6.1,2.8-6.1,6.1
		C133.5,135.4,136.3,138.2,139.6,138.2z"/>
	<circle class="st13" cx="139.6" cy="132.1" r="3.1"/>
	<path class="st12" d="M160.2,156.5c3.3,0,6.1-2.8,6.1-6.1c0-3.3-2.8-6.1-6.1-6.1s-6.1,2.8-6.1,6.1
		C154.4,154,156.9,156.5,160.2,156.5z"/>
	<circle class="st13" cx="160.2" cy="150.7" r="3.1"/>
	<path class="st12" d="M200.2,124.5c3.3,0,6.1-2.8,6.1-6.1c0-3.3-2.8-6.1-6.1-6.1s-6.1,2.8-6.1,6.1
		C194.1,121.7,196.9,124.5,200.2,124.5z"/>
	<circle class="st13" cx="200.2" cy="118.3" r="3.1"/>
	<path class="st12" d="M223.3,137.2c3.3,0,6.1-2.8,6.1-6.1c0-3.3-2.8-6.1-6.1-6.1c-3.3,0-6.1,2.8-6.1,6.1
		C217.2,134.6,220,137.2,223.3,137.2z"/>
	<circle class="st13" cx="223.3" cy="131.3" r="3.1"/>
	<path class="st12" d="M243.7,123.7c4.3,0,8.1-3.6,8.1-8.1s-3.6-8.1-8.1-8.1c-4.6,0-8.1,3.6-8.1,8.1S239.1,123.7,243.7,123.7z"/>
	<circle class="st13" cx="243.7" cy="115.6" r="4.3"/>
</g>
</svg>
