<?xml version="1.0" encoding="utf-8"?>
<!-- Generator: Adobe Illustrator 19.1.1, SVG Export Plug-In . SVG Version: 6.00 Build 0)  -->
<svg version="1.1" id="Layer_1" xmlns="http://www.w3.org/2000/svg" xmlns:xlink="http://www.w3.org/1999/xlink" x="0px" y="0px"
	 viewBox="0 0 300 200" style="enable-background:new 0 0 300 200;" xml:space="preserve">
<style type="text/css">
	.st0{fill:#26527B;}
	.st1{opacity:0.5;fill:#26527B;enable-background:new    ;}
	.st2{fill:#FFFFFF;}
	.st3{fill:#F7F7F7;}
	.st4{fill:#3DC5C4;}
	.st5{font-family:'Arvo-Bold';}
	.st6{font-size:19.0119px;}
	.st7{fill:#F19134;}
	.st8{font-size:11.2378px;}
	.st9{fill:#F0E08A;}
	.st10{fill:#B7DD71;}
	.st11{font-size:19.2915px;}
	.st12{fill:#EDECC2;}
	.st13{fill:#FFFFEE;}
	.st14{fill:#C1CFD9;}
	.st15{fill:#D9E1E6;}
	.st16{fill:#B3D76C;}
	.st17{fill:#D9C1D5;}
	.st18{fill:#E1EB31;}
	.st19{fill:#F0C5DE;}
	.st20{fill:#C9E25A;}
	.st21{fill:#57A9B5;}
</style>
<g>
	<g>
		<circle class="st0" cx="150.9" cy="97.3" r="81.7"/>
	</g>
	<path class="st1" d="M152.7,51c27.8,0,54.9,8.9,77.4,25c-9.5-34.8-41.3-60.4-79.1-60.4c-39,0-71.5,27.2-79.7,63.6
		C94.2,61.1,123.1,51,152.7,51z"/>
	<g>
		<circle class="st2" cx="150.9" cy="97.3" r="74.6"/>
	</g>
	<path class="st3" d="M152.9,46.1c22.6,0,44.7,5.9,64.2,16.7c-12.4-23.8-37.4-40.2-66.2-40.2C120.8,22.7,95,40.4,83.2,66
		C103.8,53.2,128.1,46.1,152.9,46.1z"/>
	<text transform="matrix(1 0 0 1 141.6819 43.28)" class="st4 st5 st6">12</text>
	<text transform="matrix(1 0 0 1 121.7105 53.6887)" class="st7 st5 st8">11</text>
	<text transform="matrix(1 0 0 1 98.7355 73.6963)" class="st9 st5 st8">10</text>
	<text transform="matrix(1 0 0 1 194.7244 73.6963)" class="st9 st5 st8">2</text>
	<text transform="matrix(1 0 0 1 101.2891 130.6503)" class="st4 st5 st8">8</text>
	<text transform="matrix(1 0 0 1 194.5786 130.6503)" class="st4 st5 st8">4</text>
	<text transform="matrix(1 0 0 1 174.8914 53.6887)" class="st10 st5 st8">1</text>
	<text transform="matrix(1 0 0 1 122.9176 149.495)" class="st7 st5 st8">7</text>
	<text transform="matrix(1 0 0 1 173.8188 149.495)" class="st10 st5 st8">5</text>
	<text transform="matrix(1 0 0 1 145.4545 166.9486)" class="st9 st5 st11">6</text>
	<text transform="matrix(1 0 0 1 80.8002 102.8326)" class="st10 st5 st6">9</text>
	<text transform="matrix(1 0 0 1 210.5086 104.0412)" class="st7 st5 st6">3</text>
	<circle class="st7" cx="117.6" cy="39.6" r="3.3"/>
	<circle class="st9" cx="93.2" cy="64" r="3.3"/>
	<circle class="st4" cx="93.2" cy="130.6" r="3.3"/>
	<circle class="st7" cx="117.6" cy="155" r="3.3"/>
	<circle class="st10" cx="184.2" cy="155" r="3.3"/>
	<circle class="st4" cx="208.6" cy="130.6" r="3.3"/>
	<circle class="st9" cx="208.6" cy="64" r="3.3"/>
	<circle class="st10" cx="184.2" cy="39.6" r="3.3"/>
	<g>
		<g>
			<path class="st0" d="M151.5,94.1c1.8,0.2,3,2,2.8,3.7l0,0c-0.2,1.8-2,3-3.7,2.8l-51.6-7.3c-1.8-0.2-3-2-2.8-3.7l0,0
				c0.2-1.8,2-3,3.7-2.8L151.5,94.1z"/>
		</g>
	</g>
	<g>
		<g>
			<path class="st0" d="M148.5,99.7c-1.4-1.4-1.2-3.5,0-4.7l0,0c1.4-1.4,3.5-1.2,4.7,0l26.4,27.4c1.4,1.4,1.2,3.5,0,4.7l0,0
				c-1.4,1.4-3.5,1.2-4.7,0L148.5,99.7z"/>
		</g>
	</g>
	<g>
		<g>
			<circle class="st4" cx="150.9" cy="97.3" r="5.5"/>
		</g>
	</g>
	<g>
		<g>
			<circle class="st7" cx="150.9" cy="97.3" r="3.5"/>
		</g>
	</g>
</g>
<g>
	<path class="st12" d="M175.2,86.9h64.3c4.4,0,8,3.5,8,7.8v94.2c0,4.2-3.5,7.8-8,7.8h-64.3c-4.4,0-8-3.5-8-7.8V94.6
		C167.2,90.4,170.8,86.9,175.2,86.9z"/>
	<path class="st13" d="M175,86.9h63.2c4.2,0,7.8,3.3,7.8,7.5v91.8c0,4.2-3.5,7.5-7.8,7.5H175c-4.2,0-7.8-3.3-7.8-7.5V94.4
		C167.2,90.2,170.8,86.9,175,86.9z"/>
	<g>
		<rect x="173.7" y="100.6" class="st14" width="16" height="8.2"/>
		<rect x="224.7" y="100.6" class="st15" width="7.1" height="8.2"/>
		<rect x="232.9" y="100.6" class="st15" width="7.1" height="8.2"/>
		<g>
			<circle class="st14" cx="191.4" cy="108.1" r="0.9"/>
			<g>
				<circle class="st14" cx="194.3" cy="108.1" r="0.9"/>
				<circle class="st14" cx="197.2" cy="108.1" r="0.9"/>
				<circle class="st14" cx="200.1" cy="108.1" r="0.9"/>
				<circle class="st14" cx="202.7" cy="108.1" r="0.9"/>
				<circle class="st14" cx="205.6" cy="108.1" r="0.9"/>
				<circle class="st14" cx="208.5" cy="108.1" r="0.9"/>
				<circle class="st14" cx="211.4" cy="108.1" r="0.9"/>
				<circle class="st14" cx="214" cy="108.1" r="0.9"/>
				<circle class="st14" cx="216.9" cy="108.1" r="0.9"/>
				<circle class="st14" cx="219.8" cy="108.1" r="0.9"/>
			</g>
			<circle class="st14" cx="222.4" cy="108.1" r="0.9"/>
		</g>
	</g>
	<g>
		<g>
			<path class="st16" d="M173.7,115.2c5.3,0,10.6,0,16,0c0,2.7,0,5.5,0,8.2c-5.3,0-10.6,0-16,0C173.7,120.8,173.7,118.1,173.7,115.2
				z"/>
			<path class="st15" d="M231.8,115.2c-2.4,0-4.9,0-7.1,0c0,2.7,0,5.5,0,8.2c2.4,0,4.9,0,7.1,0C231.8,120.8,231.8,118.1,231.8,115.2
				z"/>
			<path class="st15" d="M240,115.2c-2.4,0-4.9,0-7.1,0c0,2.7,0,5.5,0,8.2c2.4,0,4.9,0,7.1,0C240,120.8,240,118.1,240,115.2z"/>
			<circle class="st14" cx="191.4" cy="122.8" r="0.9"/>
			<circle class="st14" cx="194.3" cy="122.8" r="0.9"/>
			<circle class="st14" cx="197.2" cy="122.8" r="0.9"/>
			<circle class="st14" cx="200.1" cy="122.8" r="0.9"/>
			<circle class="st14" cx="202.7" cy="122.8" r="0.9"/>
			<circle class="st14" cx="205.6" cy="122.8" r="0.9"/>
			<circle class="st14" cx="208.5" cy="122.8" r="0.9"/>
			<circle class="st14" cx="211.4" cy="122.8" r="0.9"/>
			<circle class="st14" cx="214" cy="122.8" r="0.9"/>
			<circle class="st14" cx="216.9" cy="122.8" r="0.9"/>
			<circle class="st14" cx="219.8" cy="122.8" r="0.9"/>
			<circle class="st14" cx="222.4" cy="122.8" r="0.9"/>
		</g>
		<g>
			<path class="st17" d="M173.7,129.9c5.3,0,10.6,0,16,0c0,2.7,0,5.5,0,8.2c-5.3,0-10.6,0-16,0C173.7,135.4,173.7,132.5,173.7,129.9
				z"/>
			<path class="st15" d="M231.8,129.9c-2.4,0-4.9,0-7.1,0c0,2.7,0,5.5,0,8.2c2.4,0,4.9,0,7.1,0C231.8,135.4,231.8,132.5,231.8,129.9
				z"/>
			<path class="st15" d="M240,129.9c-2.4,0-4.9,0-7.1,0c0,2.7,0,5.5,0,8.2c2.4,0,4.9,0,7.1,0C240,135.4,240,132.5,240,129.9z"/>
			<circle class="st14" cx="191.4" cy="137.4" r="0.9"/>
			<circle class="st14" cx="194.3" cy="137.4" r="0.9"/>
			<circle class="st14" cx="197.2" cy="137.4" r="0.9"/>
			<circle class="st14" cx="200.1" cy="137.4" r="0.9"/>
			<circle class="st14" cx="202.7" cy="137.4" r="0.9"/>
			<circle class="st14" cx="205.6" cy="137.4" r="0.9"/>
			<circle class="st14" cx="208.5" cy="137.4" r="0.9"/>
			<circle class="st14" cx="211.4" cy="137.4" r="0.9"/>
			<circle class="st14" cx="214" cy="137.4" r="0.9"/>
			<circle class="st14" cx="216.9" cy="137.4" r="0.9"/>
			<circle class="st14" cx="219.8" cy="137.4" r="0.9"/>
			<circle class="st14" cx="222.4" cy="137.4" r="0.9"/>
		</g>
		<g>
			<path class="st14" d="M173.7,144.5c5.3,0,10.6,0,16,0c0,2.7,0,5.5,0,8.2c-5.3,0-10.6,0-16,0C173.7,150,173.7,147.2,173.7,144.5z"
				/>
			<path class="st15" d="M231.8,144.5c-2.4,0-4.9,0-7.1,0c0,2.7,0,5.5,0,8.2c2.4,0,4.9,0,7.1,0C231.8,150,231.8,147.2,231.8,144.5z"
				/>
			<path class="st15" d="M240,144.5c-2.4,0-4.9,0-7.1,0c0,2.7,0,5.5,0,8.2c2.4,0,4.9,0,7.1,0C240,150,240,147.2,240,144.5z"/>
			<circle class="st14" cx="191.4" cy="152" r="0.9"/>
			<circle class="st14" cx="194.3" cy="152" r="0.9"/>
			<circle class="st14" cx="197.2" cy="152" r="0.9"/>
			<circle class="st14" cx="200.1" cy="152" r="0.9"/>
			<circle class="st14" cx="202.7" cy="152" r="0.9"/>
			<circle class="st14" cx="205.6" cy="152" r="0.9"/>
			<circle class="st14" cx="208.5" cy="152" r="0.9"/>
			<circle class="st14" cx="211.4" cy="152" r="0.9"/>
			<circle class="st14" cx="214" cy="152" r="0.9"/>
			<circle class="st14" cx="216.9" cy="152" r="0.9"/>
			<circle class="st14" cx="219.8" cy="152" r="0.9"/>
			<circle class="st14" cx="222.4" cy="152" r="0.9"/>
		</g>
		<g>
			<path class="st18" d="M173.7,159.1c5.3,0,10.6,0,16,0c0,2.7,0,5.5,0,8.2c-5.3,0-10.6,0-16,0C173.7,164.5,173.7,161.8,173.7,159.1
				z"/>
			<path class="st15" d="M231.8,159.1c-2.4,0-4.9,0-7.1,0c0,2.7,0,5.5,0,8.2c2.4,0,4.9,0,7.1,0C231.8,164.5,231.8,161.8,231.8,159.1
				z"/>
			<path class="st15" d="M240,159.1c-2.4,0-4.9,0-7.1,0c0,2.7,0,5.5,0,8.2c2.4,0,4.9,0,7.1,0C240,164.5,240,161.8,240,159.1z"/>
			<circle class="st14" cx="191.4" cy="166.5" r="0.9"/>
			<circle class="st14" cx="194.3" cy="166.5" r="0.9"/>
			<circle class="st14" cx="197.2" cy="166.5" r="0.9"/>
			<circle class="st14" cx="200.1" cy="166.5" r="0.9"/>
			<circle class="st14" cx="202.7" cy="166.5" r="0.9"/>
			<circle class="st14" cx="205.6" cy="166.5" r="0.9"/>
			<circle class="st14" cx="208.5" cy="166.5" r="0.9"/>
			<circle class="st14" cx="211.4" cy="166.5" r="0.9"/>
			<circle class="st14" cx="214" cy="166.5" r="0.9"/>
			<circle class="st14" cx="216.9" cy="166.5" r="0.9"/>
			<circle class="st14" cx="219.8" cy="166.5" r="0.9"/>
			<circle class="st14" cx="222.4" cy="166.5" r="0.9"/>
		</g>
	</g>
	<g>
		<rect x="173.7" y="173.6" class="st19" width="16" height="8.2"/>
		<rect x="224.7" y="173.6" class="st15" width="7.1" height="8.2"/>
		<rect x="232.9" y="173.6" class="st15" width="7.1" height="8.2"/>
		<g>
			<circle class="st14" cx="191.4" cy="181.1" r="0.9"/>
			<g>
				<circle class="st14" cx="194.3" cy="181.1" r="0.9"/>
				<circle class="st14" cx="197.2" cy="181.1" r="0.9"/>
				<circle class="st14" cx="200.1" cy="181.1" r="0.9"/>
				<circle class="st14" cx="202.7" cy="181.1" r="0.9"/>
				<circle class="st14" cx="205.6" cy="181.1" r="0.9"/>
				<circle class="st14" cx="208.5" cy="181.1" r="0.9"/>
				<circle class="st14" cx="211.4" cy="181.1" r="0.9"/>
				<circle class="st14" cx="214" cy="181.1" r="0.9"/>
				<circle class="st14" cx="216.9" cy="181.1" r="0.9"/>
				<circle class="st14" cx="219.8" cy="181.1" r="0.9"/>
			</g>
			<circle class="st14" cx="222.4" cy="181.1" r="0.9"/>
		</g>
	</g>
</g>
<g>
	<polygon class="st20" points="48.4,167.3 91.7,143.4 93.9,142.2 95.9,143.7 109.6,153.7 146.5,122.8 149.2,120.5 151.7,123 
		172.3,142.4 214.1,106.8 216.3,104.8 218.8,106.3 241.9,121.3 264,104.1 269,110 244.6,128.9 242.4,130.6 240.2,129.1 217.1,114.4 
		174.5,150.5 172.1,152.7 169.6,150.3 149,130.9 112.3,161.6 110.1,163.6 107.7,161.8 93.2,151.3 52.1,173.9 	"/>
	<path class="st20" d="M50.1,179.8c4.9,0,9.1-3.9,9.1-9.1c0-4.9-3.9-9.1-9.1-9.1c-4.9,0-9.1,3.9-9.1,9.1S45.2,179.8,50.1,179.8z"/>
	<path class="st21" d="M50.1,175.4c2.7,0,4.7-2.2,4.7-4.7c0-2.7-2.2-4.7-4.7-4.7s-4.7,2.2-4.7,4.7C45.5,173.4,47.4,175.4,50.1,175.4
		z"/>
	<path class="st20" d="M92.4,154c3.7,0,6.6-3,6.6-6.6s-3-6.6-6.6-6.6c-3.7,0-6.6,3-6.6,6.6S88.7,154,92.4,154z"/>
	<circle class="st21" cx="92.4" cy="147.1" r="3.4"/>
	<path class="st20" d="M109.6,164.8c3.7,0,6.6-3,6.6-6.6c0-3.7-3-6.6-6.6-6.6s-6.6,3-6.6,6.6C103,161.8,105.9,164.8,109.6,164.8z"/>
	<circle class="st21" cx="109.6" cy="158.2" r="3.4"/>
	<path class="st20" d="M149,132.8c3.7,0,6.6-3,6.6-6.6c0-3.7-3-6.6-6.6-6.6s-6.6,3-6.6,6.6C142.3,129.9,145.3,132.8,149,132.8z"/>
	<circle class="st21" cx="149" cy="126.2" r="3.4"/>
	<path class="st20" d="M172.1,153.5c3.7,0,6.6-3,6.6-6.6s-3-6.6-6.6-6.6s-6.6,3-6.6,6.6C165.4,150.3,168.4,153.5,172.1,153.5z"/>
	<circle class="st21" cx="172.1" cy="146.6" r="3.4"/>
	<path class="st20" d="M216.6,117.3c3.7,0,6.6-3,6.6-6.6s-3-6.6-6.6-6.6s-6.6,3-6.6,6.6C209.7,114.4,212.9,117.3,216.6,117.3z"/>
	<circle class="st21" cx="216.6" cy="110.7" r="3.4"/>
	<path class="st20" d="M242.4,131.8c3.7,0,6.6-3,6.6-6.6c0-3.7-3-6.6-6.6-6.6s-6.6,3-6.6,6.6C235.8,128.9,238.7,131.8,242.4,131.8z"
		/>
	<circle class="st21" cx="242.4" cy="125.2" r="3.4"/>
	<path class="st20" d="M265.3,116.6c4.9,0,9.1-3.9,9.1-9.1c0-4.9-3.9-9.1-9.1-9.1c-5.2,0-9.1,3.9-9.1,9.1
		C256.2,112.7,260.3,116.6,265.3,116.6z"/>
	<path class="st21" d="M265.3,112.4c2.7,0,4.7-2.2,4.7-4.7c0-2.7-2.2-4.7-4.7-4.7c-2.7,0-4.7,2.2-4.7,4.7
		C260.6,110.2,262.6,112.4,265.3,112.4z"/>
</g>
</svg>
