<?xml version="1.0" encoding="utf-8"?>
<!-- Generator: Adobe Illustrator 19.1.1, SVG Export Plug-In . SVG Version: 6.00 Build 0)  -->
<svg version="1.1" id="Layer_1" xmlns="http://www.w3.org/2000/svg" xmlns:xlink="http://www.w3.org/1999/xlink" x="0px" y="0px"
	 viewBox="0 0 300 200" style="enable-background:new 0 0 300 200;" xml:space="preserve">
<style type="text/css">
	.st0{fill:#338EBF;}
	.st1{fill:#5EA2C7;}
	.st2{fill:#7EB5D2;}
	.st3{fill:#FEFEFE;}
	.st4{fill:#26527B;}
	.st5{opacity:0.5;fill:#26527B;enable-background:new    ;}
	.st6{fill:#FFFFFF;}
	.st7{fill:#F7F7F7;}
	.st8{fill:#3DC5C4;}
	.st9{font-family:'Arvo-Bold';}
	.st10{font-size:12.8744px;}
	.st11{fill:#F19134;}
	.st12{font-size:7.6099px;}
	.st13{fill:#F0E08A;}
	.st14{fill:#B7DD71;}
	.st15{font-size:13.0637px;}
	.st16{fill:#EAEAEA;}
	.st17{fill:#BFBFBF;}
	.st18{fill:#BCE0E8;}
	.st19{fill:#3A3B42;}
	.st20{fill:#2C5771;}
	.st21{fill:#FBDD57;}
	.st22{fill:#F95F1E;}
</style>
<g>
	<path class="st0" d="M150,188.9c49,0,88.9-39.9,88.9-88.9S199,11.1,150,11.1S61.1,51,61.1,100S101,188.9,150,188.9z"/>
	<path class="st1" d="M147,167.1c40.5,0,73.1-32.6,73.1-73.1S187.5,20.8,147,20.8c-40.5,0-73.1,32.6-73.1,73.1
		S106.5,167.1,147,167.1z"/>
	<path class="st2" d="M134.9,100.6c18.7,0,34.5-15.1,34.5-34.5s-15.1-34.5-34.5-34.5c-18.7,0-34.5,15.1-34.5,34.5
		S116.1,100.6,134.9,100.6z"/>
	<g>
		<path class="st3" d="M150,8.7L150,8.7L150,8.7c25.4,0,48.4,10.3,64.7,26.6c16.3,16.3,26.6,39.3,26.6,64.7l0,0l0,0l0,0l0,0
			c0,25.4-10.3,48.4-26.6,64.7s-39.3,26.6-64.7,26.6l0,0l0,0l0,0l0,0c-25.4,0-48.4-10.3-64.7-26.6S58.7,125.4,58.7,100l0,0l0,0l0,0
			l0,0c0-25.4,10.3-48.4,26.6-64.7C102.2,19,124.6,8.7,150,8.7L150,8.7L150,8.7L150,8.7z M150,14.2L150,14.2L150,14.2L150,14.2
			L150,14.2c-23.6,0-45.3,9.7-61.1,25.4c-15.7,15.7-25.4,36.9-25.4,61.1l0,0l0,0l0,0l0,0c0,23.6,9.7,45.3,25.4,61.1
			S125.8,187,150,187l0,0l0,0l0,0l0,0c23.6,0,45.3-9.7,61.1-25.4s25.4-36.9,25.4-61.1l0,0l0,0l0,0l0,0c0-23.6-9.7-45.3-25.4-61.1
			C195.3,23.8,173.6,14.2,150,14.2z"/>
		<path class="st3" d="M150,8.7L150,8.7L150,8.7c14.5,0,27.2,10.3,36.3,27.2c9.1,16.3,14.5,39.3,14.5,64.1l0,0l0,0l0,0l0,0
			c0,24.8-5.4,47.8-14.5,64.1c-9.1,16.9-22.4,27.2-36.3,27.2l0,0l0,0l0,0l0,0c-14.5,0-27.2-10.3-36.3-27.2
			c-9.1-16.3-14.5-39.3-14.5-64.1l0,0l0,0l0,0l0,0c0-24.8,5.4-47.8,14.5-64.1C122.8,19,135.5,8.7,150,8.7L150,8.7L150,8.7L150,8.7z
			 M150,14.2L150,14.2L150,14.2L150,14.2L150,14.2c-12.1,0-23.6,9.7-32,24.8c-8.5,15.7-13.9,37.5-13.9,61.7l0,0l0,0l0,0l0,0
			c0,24.2,5.4,45.9,13.9,61.7c8.5,15.1,19.3,24.8,32,24.8l0,0l0,0l0,0l0,0c12.1,0,23.6-9.7,32-24.8c8.5-15.7,13.9-37.5,13.9-61.7
			l0,0l0,0l0,0l0,0c0-24.2-5.4-45.9-13.9-61.7S162.1,14.2,150,14.2z"/>
		<rect x="147.6" y="12.3" class="st3" width="5.4" height="175.9"/>
		<rect x="62.3" y="97.6" class="st3" width="175.9" height="5.4"/>
		<path class="st3" d="M216.5,41.4L216.5,41.4L216.5,41.4c-2.4,1.2-4.8,2.4-7.3,3.6c-2.4,1.2-5.4,2.4-7.9,3.6
			c-14.5,5.4-32,8.5-50.8,8.5l0,0l0,0c-13.3,0-25.4-1.2-36.9-4.2c-1.8-0.6-3.6-1.2-5.4-1.2c-9.1-2.4-17.5-6-24.2-10.3l2.4-4.8
			c6.6,3.6,14.5,7.3,23,9.7c1.8,0.6,3.6,1.2,5.4,1.2c10.9,2.4,23,4.2,35.7,4.2l0,0l0,0c18.1,0,35.1-3,49-7.9c2.4-1.2,5.4-1.8,7.9-3
			c2.4-1.2,4.8-2.4,7.3-3.6l0,0l0,0L216.5,41.4z"/>
		<path class="st3" d="M213.5,163.5L213.5,163.5L213.5,163.5c-2.4-1.2-4.2-2.4-7.3-3.6c-2.4-1.2-4.8-2.4-7.9-3
			c-13.9-4.8-30.8-7.9-49-7.9l0,0l0,0c-12.7,0-24.8,1.2-35.7,4.2c-1.8,0.6-3.6,0.6-5.4,1.2c-8.5,2.4-16.3,5.4-23,9.7l-2.4-4.8
			C90.2,155,98,152,107.1,149c1.8-0.6,3.6-1.2,5.4-1.2c11.5-2.4,23.6-4.2,36.9-4.2l0,0l0,0c18.7,0,36.3,3,50.8,8.5
			c3,1.2,5.4,2.4,7.9,3.6s4.8,2.4,7.3,3.6l0,0l0,0L213.5,163.5z"/>
	</g>
</g>
<g>
	<g>
		<circle class="st4" cx="211.8" cy="78.5" r="55.3"/>
	</g>
	<path class="st5" d="M213,47.2c18.8,0,37.2,6,52.4,16.9c-6.4-23.6-28-40.9-53.6-40.9c-26.4,0-48.4,18.4-54,43.1
		C173.4,54,193,47.2,213,47.2z"/>
	<g>
		<circle class="st6" cx="211.8" cy="78.5" r="50.5"/>
	</g>
	<path class="st7" d="M213.1,43.9c15.3,0,30.3,4,43.5,11.3C248.2,39.1,231.2,28,211.8,28c-20.4,0-37.9,12-45.9,29.3
		C179.9,48.7,196.3,43.9,213.1,43.9z"/>
	<text transform="matrix(1 0 0 1 205.5136 41.9672)" class="st8 st9 st10">12</text>
	<text transform="matrix(1 0 0 1 191.9892 49.0151)" class="st11 st9 st12">11</text>
	<text transform="matrix(1 0 0 1 176.4306 62.5639)" class="st13 st9 st12">10</text>
	<text transform="matrix(1 0 0 1 241.4335 62.5639)" class="st13 st9 st12">2</text>
	<text transform="matrix(1 0 0 1 178.1611 101.1322)" class="st8 st9 st12">8</text>
	<text transform="matrix(1 0 0 1 241.3329 101.1322)" class="st8 st9 st12">4</text>
	<text transform="matrix(1 0 0 1 228.0029 49.0151)" class="st14 st9 st12">1</text>
	<text transform="matrix(1 0 0 1 192.8066 113.894)" class="st11 st9 st12">7</text>
	<text transform="matrix(1 0 0 1 227.2763 113.894)" class="st14 st9 st12">5</text>
	<text transform="matrix(1 0 0 1 208.0673 125.7123)" class="st13 st9 st15">6</text>
	<text transform="matrix(1 0 0 1 164.287 82.2944)" class="st14 st9 st10">9</text>
	<text transform="matrix(1 0 0 1 252.12 83.1127)" class="st11 st9 st10">3</text>
	<circle class="st11" cx="189.2" cy="39.5" r="2.3"/>
	<circle class="st13" cx="172.7" cy="56" r="2.3"/>
	<circle class="st8" cx="172.7" cy="101.1" r="2.3"/>
	<circle class="st11" cx="189.2" cy="117.6" r="2.3"/>
	<circle class="st14" cx="234.3" cy="117.6" r="2.3"/>
	<circle class="st8" cx="250.8" cy="101.1" r="2.3"/>
	<circle class="st13" cx="250.8" cy="56" r="2.3"/>
	<circle class="st14" cx="234.3" cy="39.5" r="2.3"/>
	<g>
		<g>
			<path class="st4" d="M212.2,76.4c1.2,0.1,2,1.3,1.9,2.5l0,0c-0.1,1.2-1.3,2-2.5,1.9l-34.9-4.9c-1.2-0.1-2-1.3-1.9-2.5l0,0
				c0.1-1.2,1.3-2,2.5-1.9L212.2,76.4z"/>
		</g>
	</g>
	<g>
		<g>
			<path class="st4" d="M210.2,80.1c-0.9-0.9-0.8-2.4,0-3.2l0,0c0.9-0.9,2.4-0.8,3.2,0l17.9,18.5c0.9,0.9,0.8,2.4,0,3.2l0,0
				c-0.9,0.9-2.4,0.8-3.2,0L210.2,80.1z"/>
		</g>
	</g>
	<g>
		<g>
			<circle class="st8" cx="211.8" cy="78.5" r="3.7"/>
		</g>
	</g>
	<g>
		<g>
			<circle class="st11" cx="211.8" cy="78.5" r="2.4"/>
		</g>
	</g>
</g>
<g>
	<g>
		<g>
			<g>
				<g>
					<g>
						<polygon class="st16" points="77.8,182 78.9,173 88.7,170 88.7,169.9 88.9,170 89.2,169.9 89.2,170 99.1,173 100.1,182 
							103.8,182.9 103.8,185.9 89.2,185.9 88.7,185.9 74.2,185.9 74.2,182.9 						"/>
						<polygon class="st17" points="78.1,179 99.5,177.5 99.4,175.1 78.6,175.1 						"/>
						<polygon class="st17" points="103.8,184 103.8,185.9 74.2,185.9 74.2,185.5 103.8,182.9 						"/>
						<path class="st16" d="M37,173c0,1.6,1.3,2.9,2.9,2.9h98.3c1.6,0,2.9-1.3,2.9-2.9v-69.4c0-1.6-1.3-2.9-2.9-2.9H39.8
							c-1.6,0-2.9,1.3-2.9,2.9V173z"/>
					</g>
					<g>
						<g>
							<path class="st18" d="M139.7,161.5v-58.4c0-0.9-0.5-1.6-1.3-1.6H40c-0.7,0-1.3,0.7-1.3,1.6v58.5h101V161.5z"/>
							<path class="st19" d="M40,103h98c0,0,0,0,0,0.1V160H40V103C40,103.2,40,103.2,40,103 M39.8,100c-1.6,0-2.9,1.3-2.9,3.1v59.9
								h104.3v-59.9c0-1.7-1.3-3.1-2.9-3.1H39.8L39.8,100z"/>
						</g>
					</g>
				</g>
			</g>
		</g>
	</g>
	<g>
		<g>
			<rect x="45.1" y="120.1" class="st20" width="20" height="1.4"/>
			<rect x="45.1" y="123.8" class="st20" width="20" height="1.4"/>
			<rect x="45.1" y="127.7" class="st20" width="20" height="1.4"/>
			<rect x="45.1" y="131.5" class="st20" width="20" height="1.4"/>
			<rect x="45.1" y="135.4" class="st20" width="20" height="1.4"/>
			<rect x="45.1" y="139.1" class="st20" width="20" height="1.4"/>
			<rect x="45.1" y="143" class="st20" width="20" height="1.4"/>
			<rect x="45.1" y="146.8" class="st20" width="20" height="1.4"/>
			<rect x="45.1" y="150.6" class="st20" width="20" height="1.4"/>
			<rect x="45.1" y="154.3" class="st20" width="20" height="1.4"/>
		</g>
		<g>
			<path class="st20" d="M101.2,108.5c-5,0-9,4-9,9c0,5,4,9,9,9c5,0,9-4,9-9h-9C101.2,117.5,101.2,108.5,101.2,108.5z"/>
			<path class="st21" d="M110.9,116.9c0-5-4-9-9-9v9H110.9z"/>
		</g>
		<g>
			<rect x="76.7" y="142.5" class="st21" width="3.7" height="13.6"/>
			<rect x="81.7" y="135.4" class="st22" width="3.7" height="20.5"/>
			<rect x="86.8" y="141.4" class="st20" width="3.7" height="14.5"/>
			<rect x="92.1" y="144.3" class="st21" width="3.7" height="11.6"/>
			<rect x="97.1" y="139.9" class="st22" width="3.7" height="16.1"/>
			<rect x="102.2" y="138.2" class="st20" width="3.7" height="17.9"/>
			<rect x="107.5" y="142.5" class="st21" width="3.7" height="13.6"/>
			<rect x="112.5" y="143.8" class="st22" width="3.7" height="12.1"/>
			<rect x="117.6" y="136.7" class="st20" width="3.7" height="19.2"/>
			<rect x="122.7" y="140.8" class="st21" width="3.7" height="15.1"/>
		</g>
		<path class="st22" d="M54.9,113.1c0.1,0,1.2-0.1,1.2-0.1s0.1-0.1,0.1-0.3s0-0.4,0-0.4s0-0.3,0-0.4c0-0.1-0.1-0.3-0.1-0.3
			s-1-0.1-1.2-0.1c0,0-0.1,0-0.3-0.1c-0.1-0.3-0.1-0.5-0.4-0.8c0-0.1,0-0.1,0.1-0.3c0.1-0.1,0.8-0.8,0.8-0.8s0-0.1-0.1-0.3
			c-0.1-0.1-0.3-0.3-0.3-0.3s-0.1-0.1-0.3-0.3c-0.1-0.1-0.3-0.1-0.3-0.1s-0.8,0.5-0.9,0.5c0,0-0.1,0-0.3,0c-0.3-0.1-0.4-0.4-0.7-0.4
			c0-0.1-0.1-0.1-0.1-0.3s0-1.2,0-1.2s-0.1-0.1-0.3-0.1c-0.1,0-0.4,0-0.4,0s-0.3,0-0.4,0s-0.3,0.1-0.3,0.1s-0.3,0.9-0.4,1
			c0,0-0.1,0.1-0.1,0.3c-0.3,0-0.5,0.1-0.8,0.1c-0.1,0-0.1-0.1-0.3-0.1c-0.1-0.1-0.7-0.9-0.7-0.9s-0.1,0-0.3,0
			c-0.1,0.1-0.4,0.3-0.4,0.3s-0.1,0.1-0.4,0.3c-0.1,0.1-0.1,0.3-0.1,0.3s0.4,0.9,0.4,1c0,0,0,0.1,0,0.3c-0.3,0.3-0.4,0.4-0.5,0.7
			c-0.1,0-0.1,0-0.3,0c-0.1,0-1.2-0.3-1.2-0.3s-0.1,0-0.3,0.3c0,0.1-0.1,0.4-0.1,0.4s-0.1,0.3-0.1,0.4c0,0.1,0,0.3,0,0.3
			s0.9,0.4,1,0.4l0.1,0.1c0,0.3,0,0.5,0,0.8c0,0.1-0.1,0.1-0.1,0.1c-0.1,0-1,0.5-1,0.5s-0.1,0.1,0,0.3c0,0.1,0.1,0.4,0.1,0.4
			s0.1,0.3,0.1,0.4c0,0.1,0.3,0.3,0.3,0.3s1-0.3,1.2-0.3c0,0,0.1,0,0.3,0c0.1,0.3,0.4,0.4,0.5,0.5c0,0.1,0,0.1,0,0.3s-0.4,1-0.4,1
			s0,0.1,0.1,0.3c0.1,0.1,0.4,0.1,0.4,0.1s0.1,0.1,0.4,0.1c0.1,0.1,0.3,0,0.3,0s0.5-0.8,0.7-0.9c0,0,0.1-0.1,0.3-0.1
			c0.1,0,0.3,0.1,0.4,0.1c0.1,0,0.3,0,0.4,0c0.1,0,0.1,0.1,0.1,0.1c0,0.1,0.4,1,0.4,1s0.1,0.1,0.3,0c0.1,0,0.4-0.1,0.4-0.1
			s0.3,0,0.4-0.1c0.1,0,0.3-0.1,0.3-0.1s0.3-1,0.3-1.2c0,0,0-0.1,0.1-0.3c0.3-0.1,0.4-0.3,0.7-0.4c0.1,0,0.3,0,0.3,0
			c0.1,0.1,0.9,0.5,0.9,0.5s0.1,0,0.3-0.1c0.1-0.1,0.3-0.3,0.3-0.3s0.1-0.1,0.3-0.3c0.1-0.1,0.1-0.3,0.1-0.3s-0.7-0.7-0.8-0.8
			c0,0-0.1-0.1-0.1-0.3c0.1-0.3,0.3-0.4,0.3-0.8C54.7,113.1,54.9,113.1,54.9,113.1z M53.7,112.8c-0.3,1.3-1.4,2.2-2.7,2
			c-1.3-0.3-2.2-1.4-2-2.7s1.4-2.2,2.7-2C52.9,110.4,53.8,111.4,53.7,112.8z"/>
	</g>
</g>
</svg>
