<?xml version="1.0" encoding="utf-8"?>
<!-- Generator: Adobe Illustrator 19.1.1, SVG Export Plug-In . SVG Version: 6.00 Build 0)  -->
<svg version="1.1" id="Layer_1" xmlns="http://www.w3.org/2000/svg" xmlns:xlink="http://www.w3.org/1999/xlink" x="0px" y="0px"
	 viewBox="0 0 300 200" style="enable-background:new 0 0 300 200;" xml:space="preserve">
<style type="text/css">
	.st0{fill:#CCCCCC;}
	.st1{fill:url(#SVGID_1_);}
	.st2{fill:url(#SVGID_2_);}
	.st3{fill:url(#SVGID_3_);}
	.st4{fill:url(#SVGID_4_);}
	.st5{fill:url(#SVGID_5_);}
	.st6{fill:url(#SVGID_6_);}
	.st7{fill:#F1F2F2;}
	.st8{fill:#0E303F;}
	.st9{fill:#FFFFFF;}
	.st10{fill:#636363;}
	.st11{fill:#01C5C5;}
	.st12{fill:#B8DE70;}
	.st13{fill:#F29232;}
	.st14{fill:#F1F1F1;}
	.st15{fill:#64BFEA;}
	.st16{fill:#FE537A;}
	.st17{clip-path:url(#SVGID_8_);fill:#ADADAD;}
	.st18{fill:#535353;}
	.st19{fill:#404040;}
	.st20{fill:#848484;}
</style>
<g>
	<path class="st0" d="M257.4,82.2c-7.6-1.6-15.1,3.1-16.7,10.7c-1.6,7.6,3.1,15.1,10.7,16.7c7.6,1.6,15.1-3.1,16.7-10.7
		C269.9,91.3,265,83.8,257.4,82.2z M252.7,104.9c-5-1-8.1-6-7-10.7c1-5,6-8.1,10.7-7c5,1,8.1,6,7,10.7
		C262.4,102.8,257.4,105.9,252.7,104.9z"/>
	
		<radialGradient id="SVGID_1_" cx="258.3376" cy="204.6493" r="120.3599" gradientTransform="matrix(0.9782 0.2079 0.2079 -0.9782 -49.4846 170.4082)" gradientUnits="userSpaceOnUse">
		<stop  offset="0" style="stop-color:#F6F7F9"/>
		<stop  offset="0.5276" style="stop-color:#DEE4E7"/>
		<stop  offset="0.6712" style="stop-color:#DAE1E4"/>
		<stop  offset="0.8089" style="stop-color:#CFD7DA"/>
		<stop  offset="0.9437" style="stop-color:#BBC6CB"/>
		<stop  offset="1" style="stop-color:#B1BDC2"/>
	</radialGradient>
	<path class="st1" d="M269.9,102l5-0.5l0.8-4.2l-4.4-2.3c0-0.5,0-1,0-1.3l4.2-2.9l-1.3-3.9l-5.2,0.3c-0.3-0.5-0.5-0.8-0.8-1l2.1-4.7
		l-3.1-2.9l-4.4,2.6c-0.5-0.3-0.8-0.3-1.3-0.5l-0.5-4.7l-4.4-1l-2.3,4.2c-0.5,0-1,0-1.6,0l-2.9-3.9l-3.9,1.3v5
		c-0.5,0.3-0.8,0.5-1.3,0.8l-4.2-1.6l-2.6,3.1l2.6,4.2c-0.3,0.5-0.5,0.8-0.8,1.3l-5,0.5l-0.8,4.2l4.7,2.3c0,0.5,0,1,0.3,1.3
		l-3.9,2.9l1.3,3.9l5.2-0.3c0.3,0.3,0.5,0.8,0.8,1l-2.1,4.7l3.1,2.9l4.4-2.6c0.5,0.3,0.8,0.5,1.3,0.5l0.5,5.2l4.2,0.8l2.6-4.7
		c0.5,0,0.8,0,1.3,0l3.1,4.2l3.9-1.3l-0.8-5.2c0.3-0.3,0.8-0.5,1-0.8l4.7,2.1l2.9-3.1l-2.9-4.7C269.7,102.8,269.7,102.3,269.9,102z
		 M251.6,108.6c-7-1.6-11.5-8.4-9.9-15.4c1.6-7,8.4-11.5,15.4-9.9c7,1.6,11.5,8.4,9.9,15.4C265.7,105.7,258.7,110.1,251.6,108.6z"/>
	
		<radialGradient id="SVGID_2_" cx="269.2188" cy="172.8752" r="64.5829" gradientTransform="matrix(0.9782 0.2079 0.2079 -0.9782 -49.4846 170.4082)" gradientUnits="userSpaceOnUse">
		<stop  offset="0" style="stop-color:#F6F7F9"/>
		<stop  offset="0.5276" style="stop-color:#DEE4E7"/>
		<stop  offset="0.6712" style="stop-color:#DAE1E4"/>
		<stop  offset="0.8089" style="stop-color:#CFD7DA"/>
		<stop  offset="0.9437" style="stop-color:#BBC6CB"/>
		<stop  offset="1" style="stop-color:#B1BDC2"/>
	</radialGradient>
	<path class="st2" d="M256.9,84.8c-6-1.3-12,2.6-13.3,8.6c-1.3,6,2.6,12,8.6,13.3c6,1.3,12-2.6,13.3-8.6
		C266.8,92.1,262.9,86.1,256.9,84.8z M253,103.1c-3.9-0.8-6.5-4.7-5.7-8.6c0.8-3.9,4.7-6.5,8.6-5.7c3.9,0.8,6.5,4.7,5.7,8.6
		C260.8,101.2,256.9,103.9,253,103.1z"/>
</g>
<g>
	<path class="st0" d="M239.9,118.5c-9.1-0.5-17.2,6.5-17.8,15.7c-0.5,9.1,6.5,17.2,15.7,17.8c9.1,0.5,17.2-6.5,17.8-15.7
		C256.1,127.1,249,119,239.9,118.5z M238.1,146.2c-6-0.3-10.4-5.5-10.2-11.5c0.3-6,5.5-10.4,11.5-10.2s10.4,5.5,10.2,11.5
		C249.3,142,244.1,146.4,238.1,146.2z"/>
	
		<radialGradient id="SVGID_3_" cx="153.8219" cy="107.0864" r="143.7779" gradientTransform="matrix(0.9895 -0.1448 -0.1448 -0.9895 62.6389 186.4932)" gradientUnits="userSpaceOnUse">
		<stop  offset="0" style="stop-color:#F6F7F9"/>
		<stop  offset="0.5276" style="stop-color:#DEE4E7"/>
		<stop  offset="0.6712" style="stop-color:#DAE1E4"/>
		<stop  offset="0.8089" style="stop-color:#CFD7DA"/>
		<stop  offset="0.9437" style="stop-color:#BBC6CB"/>
		<stop  offset="1" style="stop-color:#B1BDC2"/>
	</radialGradient>
	<path class="st3" d="M258.2,139.6l5.7-1.6l0.3-5l-5.7-2.1c0-0.5-0.3-1-0.3-1.6l4.2-4.2l-2.3-4.4l-6,1c-0.3-0.5-0.8-0.8-1-1.3
		l1.6-5.7l-4.2-2.6l-4.7,3.9c-0.5-0.3-1-0.3-1.6-0.5l-1.6-5.5l-5,0l-2.1,5.5c-0.5,0-1,0.3-1.8,0.3l-3.9-4.2l-4.4,2.3l1,5.7
		c-0.5,0.3-0.8,0.8-1.3,1.3l-5.7-1.6l-2.6,4.2l3.7,4.4c-0.3,0.5-0.5,1-0.5,1.6l-5.7,1.6l-0.3,5l5.7,2.1c0,0.5,0.3,1,0.5,1.6
		l-4.2,4.2l2.3,4.4l6-1c0.3,0.5,0.8,0.8,1,1.3l-1.6,5.7l4.2,2.6l4.7-3.9c0.5,0.3,1,0.3,1.6,0.5l1.6,6l5,0.3l2.1-6
		c0.5,0,1-0.3,1.6-0.3l4.4,4.4l4.4-2.3l-1-6.3c0.3-0.3,0.8-0.8,1-1l6,1.8l2.6-4.2l-4.2-5C257.9,140.7,257.9,140.1,258.2,139.6z
		 M237.8,150.6c-8.6-0.5-15.1-7.8-14.6-16.4c0.5-8.6,7.8-15.1,16.4-14.6c8.6,0.5,15.1,7.8,14.6,16.4
		C253.7,144.8,246.4,151.4,237.8,150.6z"/>
	
		<radialGradient id="SVGID_4_" cx="166.7506" cy="69.1106" r="77.053" gradientTransform="matrix(0.9895 -0.1448 -0.1448 -0.9895 62.6389 186.4932)" gradientUnits="userSpaceOnUse">
		<stop  offset="0" style="stop-color:#F6F7F9"/>
		<stop  offset="0.5276" style="stop-color:#DEE4E7"/>
		<stop  offset="0.6712" style="stop-color:#DAE1E4"/>
		<stop  offset="0.8089" style="stop-color:#CFD7DA"/>
		<stop  offset="0.9437" style="stop-color:#BBC6CB"/>
		<stop  offset="1" style="stop-color:#B1BDC2"/>
	</radialGradient>
	<path class="st4" d="M239.6,121.9c-7.3-0.5-13.8,5.2-14.4,12.5c-0.5,7.3,5.2,13.8,12.5,14.4s13.8-5.2,14.4-12.5
		C252.7,128.7,247.2,122.4,239.6,121.9z M238.3,144.1c-4.7-0.3-8.4-4.4-8.1-9.4c0.3-4.7,4.4-8.4,9.4-8.1c4.7,0.3,8.4,4.4,8.1,9.4
		C247.2,140.7,243,144.3,238.3,144.1z"/>
</g>
<g>
	<g>
		
			<linearGradient id="SVGID_5_" gradientUnits="userSpaceOnUse" x1="104.6551" y1="42.0972" x2="156.0897" y2="42.0972" gradientTransform="matrix(1 0 0 -1 0 200)">
			<stop  offset="0.5" style="stop-color:#58595B"/>
			<stop  offset="0.5" style="stop-color:#454547"/>
		</linearGradient>
		<path class="st5" d="M110.1,146.7c-1.8,7.6-3.7,15.1-5.5,22.5c17.2,0,34.2,0,51.4,0c-1.8-7.6-3.7-15.1-5.5-22.5
			C137,146.7,123.5,146.7,110.1,146.7z"/>
		
			<linearGradient id="SVGID_6_" gradientUnits="userSpaceOnUse" x1="98.7722" y1="29.0428" x2="161.8504" y2="29.0428" gradientTransform="matrix(1 0 0 -1 0 200)">
			<stop  offset="0.5" style="stop-color:#58595B"/>
			<stop  offset="0.5" style="stop-color:#454547"/>
		</linearGradient>
		<path class="st6" d="M159.2,168.9h-57.7c-1.6,0-2.6,1.3-2.6,3.1v1h62.9v-1C161.8,170.2,160.5,168.9,159.2,168.9z"/>
		<path class="st7" d="M43.6,138.1v12.5c0,2.3,1.8,4.4,4.4,4.4h165c2.3,0,4.4-1.8,4.4-4.4v-12.5H43.6z"/>
		<path class="st8" d="M217.2,138.1V32.8c0-2.3-1.8-4.4-4.4-4.4h-165c-2.3,0-4.4,1.8-4.4,4.4v105.2H217.2z"/>
		<rect x="50.6" y="35.2" class="st9" width="159.5" height="95.6"/>
	</g>
	<rect x="50.6" y="34.1" class="st10" width="159.5" height="18.5"/>
	<g>
		<path class="st11" d="M60.5,43.3c0,1.6-1.3,2.9-2.9,2.9c-1.6,0-2.9-1.3-2.9-2.9c0-1.6,1.3-2.9,2.9-2.9
			C59.2,40.4,60.5,41.7,60.5,43.3z"/>
		<circle class="st12" cx="65.5" cy="43.3" r="2.9"/>
		<path class="st13" d="M76.2,43.3c0,1.6-1.3,2.9-2.9,2.9c-1.6,0-2.9-1.3-2.9-2.9c0-1.6,1.3-2.9,2.9-2.9
			C74.9,40.4,76.2,41.7,76.2,43.3z"/>
	</g>
	<rect x="81.9" y="40.4" class="st9" width="118.5" height="5.7"/>
	<g>
		<rect x="60.8" y="64.4" class="st10" width="10.4" height="3.9"/>
		<rect x="73.1" y="64.4" class="st10" width="18.5" height="3.9"/>
	</g>
	<g>
		<rect x="160.5" y="64.4" class="st10" width="21.9" height="3.9"/>
		<rect x="184.3" y="64.4" class="st10" width="7" height="3.9"/>
	</g>
	<g>
		<rect x="60.8" y="74.4" class="st10" width="4.7" height="3.9"/>
		<rect x="67.3" y="74.4" class="st10" width="24.3" height="3.9"/>
	</g>
	<g>
		<rect x="160.5" y="74.4" class="st10" width="10.4" height="4.2"/>
		<rect x="172.8" y="74.4" class="st10" width="18.5" height="4.2"/>
	</g>
	<g>
		<g>
			<rect x="68.4" y="80.9" class="st14" width="11.2" height="10.4"/>
		</g>
		<g>
			<rect x="171.2" y="82.2" class="st14" width="11.2" height="10.4"/>
		</g>
		<g>
			<path class="st12" d="M176.7,91.3c-0.3,0-0.8,0-0.8-0.3l-2.9-2.6c-0.5-0.3-0.5-1,0-1.6c0.3-0.5,1-0.5,1.3,0l2.3,2.1l2.6-5
				c0.3-0.5,0.8-0.8,1.3-0.5c0.5,0.3,0.8,0.8,0.5,1.3l-3.1,5.7C177.8,90.8,177.2,91.1,176.7,91.3L176.7,91.3z"/>
		</g>
	</g>
	<g>
		<g>
			<g>
				<rect x="101.5" y="63.9" class="st15" width="45.4" height="10.4"/>
			</g>
			<g>
				<rect x="101.5" y="77" class="st15" width="11.2" height="10.4"/>
			</g>
			<g>
				<rect x="118.5" y="77" class="st15" width="11.2" height="10.4"/>
			</g>
			<g>
				<rect x="135.7" y="77" class="st15" width="11.2" height="10.4"/>
			</g>
			<g>
				<rect x="101.5" y="90.3" class="st15" width="45.4" height="10.4"/>
			</g>
		</g>
		<g>
			<rect x="101.5" y="103.6" class="st16" width="45.4" height="11.7"/>
			<g>
				<rect x="114.3" y="108" class="st9" width="6.8" height="2.6"/>
				<rect x="122.4" y="108" class="st9" width="12" height="2.6"/>
			</g>
		</g>
	</g>
</g>
<g>
	<path class="st9" d="M239.1,115.3l-5.7,8.9c-0.8,1-2.1,1.3-3.4,0.8l-24.5-16.7c-1-0.8-1.3-2.1-0.8-3.1l5.7-8.9
		c0.8-1,2.1-1.3,3.4-0.8l24.5,16.7C239.4,112.7,239.6,114.3,239.1,115.3z"/>
	<g>
		<g>
			<defs>
				<path id="SVGID_7_" d="M240.7,116.7l-5.7,8.9c-0.8,1-2.1,1.3-3.4,0.8L207,109.6c-1-0.8-1.3-2.1-0.8-3.1l5.7-8.9
					c0.8-1,2.1-1.3,3.4-0.8l24.5,16.7C241.2,114,241.5,115.6,240.7,116.7z"/>
			</defs>
			<clipPath id="SVGID_8_">
				<use xlink:href="#SVGID_7_"  style="overflow:visible;"/>
			</clipPath>
			<path class="st17" d="M146.7,59.5c-12.3,19.1-7,44.6,11.7,57.4s44.1,7.6,56.4-11.5c12.3-19.1,7-44.6-11.7-57.4
				S159.2,40.4,146.7,59.5z M205.2,98.9c-8.9,13.6-26.9,17.2-40.5,8.1s-17.2-27.4-8.4-41s26.9-17.2,40.5-8.1
				C210.4,66.8,214.1,85.3,205.2,98.9z"/>
		</g>
	</g>
	<polygon class="st18" points="267.6,127.4 255.3,146.4 233.9,131.8 246.2,113 	"/>
	<path class="st19" d="M266,153.5c1.3,0.8,2.9,0.5,3.7-0.8l9.4-14.4c0.8-1.3,0.5-2.9-0.8-3.7l-10.7-7.3l-12.3,18.8L266,153.5z"/>
	<path class="st19" d="M231.8,106.5l-9.4,14.4c-0.8,1.3-0.5,2.9,0.8,3.7l10.7,7l12.3-18.8l-10.7-7
		C234.4,104.9,232.6,105.4,231.8,106.5z"/>
	<polygon class="st20" points="246.4,113.3 234.2,132.1 233.9,131.8 246.2,113 	"/>
	<polygon class="st20" points="267.8,127.4 255.3,146.4 255,146.2 267.3,127.1 	"/>
	<path class="st18" d="M144.9,58.4c-12.3,19.1-7,44.6,11.7,57.4c18.8,12.8,44.1,7.6,56.4-11.5c12.3-19.1,7-44.6-11.7-57.4
		C182.5,34.1,157.4,39.4,144.9,58.4z M212.5,82.4c-0.8,18.5-16.2,32.9-34.7,32.4c-18.5-0.5-32.9-16.2-32.4-34.7
		c0.8-18.5,16.4-33.2,35-32.4C198.9,48.5,213.3,63.9,212.5,82.4z"/>
	<path class="st19" d="M207.3,100.5c-10.2,15.7-31.3,20.1-47,9.4c-15.7-10.4-19.8-31.9-9.7-47.5s31.3-20.1,47-9.4
		C213.3,63.1,217.4,84.5,207.3,100.5z M152.2,63.1c-9.7,15.1-5.5,35.5,9.1,45.4c14.9,9.9,35,6,44.6-9.1c9.7-15.1,5.5-35.5-9.1-45.4
		C181.9,44.1,161.8,48.2,152.2,63.1z"/>
</g>
</svg>
