<?xml version="1.0" encoding="utf-8"?>
<!-- Generator: Adobe Illustrator 19.1.1, SVG Export Plug-In . SVG Version: 6.00 Build 0)  -->
<svg version="1.1" id="Layer_1" xmlns="http://www.w3.org/2000/svg" xmlns:xlink="http://www.w3.org/1999/xlink" x="0px" y="0px"
	 viewBox="0 0 300 200" style="enable-background:new 0 0 300 200;" xml:space="preserve">
<style type="text/css">
	.st0{fill:#C9E25A;}
	.st1{opacity:0.4;}
	.st2{fill:#231F20;}
	.st3{fill:#BBBBBB;}
	.st4{fill:#777777;}
	.st5{opacity:0.4;fill:#231F20;enable-background:new    ;}
	.st6{fill:#0060AA;}
	.st7{fill:#D32626;}
	.st8{opacity:0.6;fill:#003055;enable-background:new    ;}
	.st9{fill:#7CBBE5;}
	.st10{fill:#2F7AAD;}
	.st11{opacity:0.3;}
	.st12{fill:#FFFFFF;}
</style>
<g>
	<path class="st0" d="M65.4,34.8c-1-1.4-1.4-3.3-1.4-5.1c0-2.1,0.2-4.1,1-5.8c1.8,2.7,4.9,2.5,7,4.9c1,1.2,1.4,2.9,1.6,4.3
		c0.2,1.6,0,3.3-0.4,4.9C70.2,38.8,67.3,37.7,65.4,34.8z M78.6,26.2c1-2.7,1.4-6,0-8.2c-1.6-2.5-4.3-2.7-5.5-5.1
		c-1.4,2.9-2.1,7-0.8,9.5C73.5,25,75.9,26.2,78.6,26.2z M77.4,101.6c-0.2,2.3,0,4.7,1,6.8c4.3-0.2,8.2-2.5,10.7-6.2
		c1.2-1.8,2.1-3.9,2.5-6.2c0.4-2.1,0.4-4.3,0-6c-3.3,2.9-7.6,2.5-11.3,5.5C78.6,97.3,77.8,99.4,77.4,101.6z M73.9,40
		c2.1,2.1,5.1,2.7,8.2,2.1c3.1-0.6,5.8-3.3,7.2-5.8c-3.1,0.2-5.1-2.1-8.4-2.1C77.8,34.4,75.1,37.1,73.9,40z M93,25.4
		c-2.9-0.2-4.1-2.5-7-2.9c-2.7-0.2-5.3,1.6-6.8,4.1c1.6,2.1,4.1,3.1,7,2.9C88.7,29.3,91.5,27.2,93,25.4z M213.2,36.7
		c1.2,1,2.7,1.8,4.1,2.3c3.1,0.6,6.2-0.2,8.2-2.3c-0.6-1.4-1.6-2.9-2.9-3.9c-1.2-1-2.7-1.6-4.3-1.6c-3.3,0-5.1,2.3-8.2,2.3
		C210.9,34.4,211.9,35.7,213.2,36.7z M213.8,20.3c-2.9,0.4-4.3,2.5-7,2.9c1.4,2.1,4.3,3.9,7,4.1c2.7,0.2,5.3-0.8,7-2.9
		C219.3,22.1,216.7,20.1,213.8,20.3z M225.5,118.5c-4.3-0.2-8.4,2.1-11.7,4.7c1.6-2.1,3.3-4.3,4.7-6.6c5.8-9,9.7-18.9,11.7-29
		c3.1,2.1,7,2.9,10.9,1c4.1-1.8,7.2-7.8,8-12.9c-3.9,2.3-7.4-0.4-11.5,1.4c-3.1,1.2-5.1,4.1-6.6,7.2c0.4-1.8,0.6-3.7,0.8-5.5
		c0.4-3.5,0.6-6.8,0.6-10.3c3.1,1.4,6.8,1.4,10.1-1c3.3-2.5,4.9-8.2,4.9-12.7c-3.3,2.7-6.6,1-10.1,3.3c-2.7,1.8-4.1,4.9-4.7,8.2
		c-0.2-4.5-0.6-8.6-1.2-12.7c3.1,0.8,6.4,0.2,9-2.3c2.7-2.7,3.5-8,2.7-11.9c-2.5,2.7-5.8,1.6-8.6,4.1c-2.3,2.1-3.1,5.1-3.3,8.4
		c-0.4-2.7-1-5.3-1.6-7.6c-2.7-9.9-6.4-17.7-9.2-22.8c-1-1.8-1.8-3.3-2.7-4.5c0,0,0,0,0.2,0c0.6-2.3,0.4-5.1-1.6-7.2
		c-2.1-2.3-4.5-1.8-6.4-3.9c-0.4,2.5,0.2,5.5,1.6,7.6c1.6,2.1,3.7,3.3,6,3.5c0.8,1.2,1.6,2.7,2.7,4.5c2.9,5.1,6.4,13.2,8.6,23
		c0.6,2.1,1,4.3,1.4,6.6c-1.2-2.5-3.1-4.5-5.8-4.9c-3.7-0.6-6.2,1.4-9.5,0.8c1,2.9,3.5,6.2,6.8,7.4c3.1,1.2,6.2,1,8.8-0.4
		c0.6,4.5,1,9.2,0.8,14c-0.2-1.6-0.8-3.1-1.6-4.5c-1-1.6-2.5-3.1-4.3-3.7c-3.9-1.2-7,0.6-10.5-0.6c0.6,3.3,2.9,7.2,6.2,9
		s7,2.3,10.3,0.8c0,3.1-0.2,6.4-0.6,9.7c-0.2,2.3-0.6,4.7-1.2,7c0-3.7-1.4-7.6-4.5-9.2c-3.9-2.1-7.6-0.8-11.1-2.9
		c0.2,3.5,1.6,8,4.7,10.9c3.1,2.7,7,3.9,10.7,3.3c-1.2,5.5-3.3,11.1-5.5,16.4c0.2-1.2,0.2-2.5,0.2-3.5c-0.2-2.3-1.2-4.3-2.9-6
		c-3.7-3.3-7.8-2.7-11.1-5.5c-0.6,3.7-0.2,8.6,2.3,12.3c2.5,3.5,6,5.8,10.1,6.2c-1.4,2.9-3.1,5.5-4.7,8c-2.5,2.1-4.1,4.1-5.8,6.2
		c1.8-3.7,2.1-8-0.2-11.3c-1.4-2.1-3.3-3.3-5.1-4.5c-1.8-1-3.7-2.3-5.1-4.3c-1.4,3.5-2.3,8.6-0.6,13.2c1.6,4.3,4.7,7.8,9,9.2
		c-2.1,2.3-4.1,4.5-6.6,6.4c-2.1,1.8-4.5,3.7-6.8,5.3c3.1-3.5,4.9-8,3.3-12.1c-1-2.7-2.7-4.3-4.3-6c-1.6-1.6-3.3-3.3-4.1-5.8
		c-0.6,0.8-1.2,1.6-1.6,2.7c-0.6,1-1,2.1-1.2,3.3c-0.4,1.2-0.6,2.3-0.8,3.5c0,0.6-0.2,1.2-0.2,1.8c0,0.6,0,1.4,0,2.1
		c0.2,5.1,2.9,9.5,7,12.1c-2.3,1.6-4.5,3.1-6.8,4.5c-2.7,1.8-5.3,3.5-8,5.1c0.8-1,1.6-2.1,2.3-3.3c1.4-2.5,2.1-5.3,1.6-8
		c-1-6-5.8-8.4-6.4-14.2c-2.1,1.8-4.1,4.1-5.5,6.8s-2.5,5.5-2.5,8.2c0,5.3,2.3,10.1,6,13.2c-6.2,3.5-12.3,6.6-17.9,9
		c-3.3,1.4-6.6,2.7-9.7,3.7c-1.8-0.6-3.9-1.4-5.8-2.3c-5.5-2.5-11.7-5.3-17.9-9c3.5-3.1,5.5-7.6,5.5-12.7c0-2.7-1-5.8-2.5-8.2
		c-1.4-2.7-3.5-4.9-5.5-6.8c-0.6,5.8-5.3,8.2-6.4,14.2c-0.4,2.9,0.2,5.5,1.6,8c0.4,0.6,0.8,1.4,1.2,2.1c-2.1-1.2-4.3-2.7-6.4-4.1
		c-2.3-1.4-4.5-3.1-6.6-4.5c4.1-2.5,6.6-6.8,7-11.9c0-0.6,0-1.4,0-2.1s0-1.2-0.2-1.8c-0.2-1.2-0.4-2.5-0.8-3.5
		c-0.4-1.2-0.8-2.3-1.2-3.3c-0.4-1-1-1.8-1.6-2.7c-1,2.3-2.7,3.9-4.1,5.8c-1.6,1.6-3.3,3.3-4.3,6c-1.4,3.9,0,8.4,2.9,11.7
		c-2.1-1.6-4.3-3.1-6.4-4.9c-2.5-2.1-4.7-4.3-6.8-6.8c4.3-1.4,7.4-4.9,9-9.2c1.6-4.5,1-9.7-0.4-12.9c-1.4,1.8-3.3,3.1-5.1,4.1
		c-1.8,1.2-3.7,2.3-5.3,4.3c-2.3,3.3-2.1,7.6-0.2,11.3c-1.6-1.8-3.1-3.9-4.5-6C77.2,108.4,73,98.8,71,89.1c3.7,0.6,7.4-0.6,10.3-3.3
		c3.1-2.9,4.5-7.4,4.7-10.7c-3.7,2.1-7.4,0.6-11.1,2.7c-2.9,1.6-4.3,4.7-4.5,8c-0.4-1.8-0.6-3.7-0.8-5.3c-0.4-3.3-0.6-6.8-0.6-10.1
		c3.1,1.2,6.8,0.8,10.1-1c3.3-1.8,5.5-6,6.2-9c-3.5,1.2-6.6-0.6-10.5,0.6c-2.9,1-4.7,3.7-5.5,6.8c0-4.3,0.4-8.4,1-12.3
		c2.7,1.6,6.2,1.8,9.2,0.6c3.3-1.2,5.8-4.5,6.8-7.4c-3.5,0.6-6-1.4-9.5-0.8c-2.9,0.6-5.1,3.1-6.2,6c0.4-2.7,1-5.3,1.6-7.6
		c2.5-9.9,6-17.7,8.6-22.8c1-1.8,1.8-3.3,2.7-4.5c0,0,0,0,0,0.2c2.3-0.4,4.7-1.6,6-3.9c1.2-2.5,0.6-4.7,2.1-7
		c-2.3,0.2-5.5,1.4-7,3.7c-1.4,2.3-1.6,4.9-1,7c-0.8,1.2-1.6,2.7-2.7,4.5c-2.9,5.1-6.6,12.9-9.2,22.8c-0.6,2.1-1,4.3-1.4,6.6
		c-0.2-2.7-1.2-5.3-3.1-7.2c-2.9-2.5-6.2-1.4-8.6-4.3c-0.8,4.1,0,9.5,2.7,11.9c2.5,2.5,5.8,3.1,8.6,2.3c-0.8,4.5-1.2,9.5-1.2,14.6
		c-0.2-1.6-0.6-3.5-1.4-5.1c-0.8-1.8-2.1-3.5-3.7-4.5c-3.5-2.3-7-0.6-10.1-3.3c-0.2,4.7,1.6,10.5,4.9,12.7c3.3,2.5,7,2.3,10.3,0.8
		c0,3.3,0.2,6.4,0.6,9.9c0.2,2.5,0.6,4.7,1,7.2c-1.4-3.5-3.7-7-7.2-8.4c-4.3-1.8-7.6,0.8-11.5-1.4c0.8,5.1,3.9,11.1,8,12.9
		c3.9,1.8,8,1,11.1-1.2c1.2,5.8,3.1,11.5,5.5,17.1c-0.8-1-1.8-2.1-2.9-2.9c-1.8-1.6-3.9-2.7-6.2-3.1c-4.9-0.8-7.8,2.7-12.5,1.2
		c1,2.7,2.9,5.5,4.9,7.6c2.1,2.3,4.5,3.7,7,4.3c4.5,0.8,8.4-1,11.1-4.1c1.4,2.9,2.9,5.8,4.7,8.4c1.4,2.3,3.1,4.5,4.7,6.6
		c-3.3-2.7-7.4-4.7-11.5-4.5c-2.7,0.2-4.5,1.2-6.6,2.5c-1.8,1-3.7,2.3-6.4,2.1c3.5,5.3,10.5,10.1,15.6,9.7c5.1-0.2,8.6-3.5,10.5-7.4
		c2.1,2.5,4.1,4.7,6.6,6.8c2.3,2.1,4.5,3.9,7,5.8c-1.8-0.8-3.7-1.6-5.5-2.1c-2.7-0.6-5.5-0.6-8,0.2c-2.7,0.8-4.5,2.5-6.2,4.1
		c-1.6,1.6-3.3,3.3-6.2,3.7c1.2,1,2.9,2.3,4.3,3.3c1.6,0.8,3.3,1.6,5.1,2.3c1.6,0.6,3.5,0.8,5.1,1c0.8,0,1.6,0,2.3,0
		c0.6-0.2,1.4-0.4,2.1-0.6c4.9-1.8,8.2-6,9-10.7c2.3,1.6,4.5,3.1,6.6,4.7c2.7,1.8,5.3,3.7,8,5.3c-1.2-0.4-2.7-0.6-4.1-0.8
		c-2.9-0.2-5.8,0.2-8.4,1.6c-5.3,2.9-5.8,8.4-11.1,10.9c2.7,1.6,6.2,2.7,9.5,3.3c3.3,0.6,6.8,0.4,9.5-0.8c5.1-2.3,8-6.6,8.6-11.5
		c6.2,3.7,12.3,7,18.1,9.5c0.6,0.4,1.4,0.6,2.1,1c-3.1,1-6,1.8-8.2,2.7c-5.8,1.4-9,2.5-9,2.5c-1,0.2-1.8,1.4-1.4,2.5
		c0.2,1.2,1.4,1.8,2.5,1.4l0,0c0,0,3.3-1,9-2.7c2.9-1,6.4-2.1,10.3-3.5c0.6-0.2,1.4-0.6,2.1-0.8c2.1,0.8,3.9,1.4,5.8,2.3
		c3.9,1.2,7.4,2.5,10.3,3.5c5.8,1.6,9,2.7,9,2.7c1,0.4,2.3-0.4,2.5-1.4s-0.4-2.3-1.4-2.5l0,0c0,0-3.3-0.8-9-2.5
		c-2.9-0.8-6.2-1.8-10.1-3.1c-0.6-0.2-1.2-0.4-1.8-0.6c1.8-0.8,3.9-1.6,5.8-2.5c5.8-2.5,11.9-5.8,18.1-9.5c0.8,4.5,3.7,8.8,8.6,10.9
		c2.7,1.2,6.2,1.4,9.5,0.8c3.5-0.6,6.8-1.8,9.5-3.3c-5.3-2.5-5.8-8-11.1-10.9c-2.5-1.4-5.3-1.8-8.2-1.6c-0.8,0-1.4,0.2-2.3,0.4
		c2.1-1.4,4.3-2.7,6.4-4.1c2.3-1.6,4.3-3.1,6.6-4.7c1,4.5,4.1,8.6,9,10.5c0.6,0.2,1.2,0.4,2.1,0.6c0.8,0,1.4,0,2.3,0
		c1.6-0.2,3.5-0.4,5.1-1c1.6-0.6,3.5-1.4,5.1-2.3c1.6-1,3.1-2.1,4.5-3.3c-2.9-0.4-4.5-2.1-6.2-3.7c-1.6-1.6-3.3-3.3-6.2-4.1
		c-4.3-1.2-9-0.2-13.2,1.6c2.3-1.6,4.5-3.5,6.6-5.3c2.5-2.3,4.7-4.5,7-7.2c1.8,3.9,5.5,7.2,10.7,7.4c5.3,0.2,12.1-4.5,15.6-9.9
		c-2.7,0.2-4.5-0.8-6.4-1.8C230,119.7,228.2,118.5,225.5,118.5z M234.3,98.8c-2.3,0.4-4.5,1.6-6.2,3.3c-1.8,1.6-3.3,3.7-4.7,5.5
		c2.7,3.3,6.8,5.5,11.5,4.5c2.5-0.4,4.7-2.3,7-4.3c2.1-2.3,3.9-5.1,4.9-7.8C242.1,101.4,239.3,97.9,234.3,98.8z M227.1,37.5
		c2.9,0.4,6-0.6,7.8-3.3c1.8-2.7,1.8-7.4,0.6-10.9c-1.8,2.7-4.9,2.3-7,4.9C226.5,30.7,226.5,34.4,227.1,37.5z M227.8,20.3
		c1.4-2.7,0.6-6.8-0.8-9.7c-1.2,2.7-4.1,2.7-5.5,5.1c-1.4,2.5-1,5.5,0,8.2C223.9,24.2,226.5,22.7,227.8,20.3z"/>
	<g>
		<path class="st0" d="M213.8,20.3c-2.9,0.4-4.3,2.5-7,2.9c1.4,2.1,4.3,3.9,7,4.1c2.7,0.2,5.3-0.8,7-2.9
			C219.3,22.1,216.7,20.1,213.8,20.3z"/>
		<path class="st0" d="M213.2,36.7c1.2,1,2.7,1.8,4.1,2.3c3.1,0.6,6.2-0.2,8.2-2.3c-0.6-1.4-1.6-2.9-2.9-3.9c-1.2-1-2.7-1.6-4.3-1.6
			c-3.3,0-5.1,2.3-8.2,2.3C210.9,34.4,211.9,35.7,213.2,36.7z"/>
		<path class="st0" d="M153.8,168.6c3.9,1.2,7.4,2.5,10.3,3.5c5.8,1.6,9,2.7,9,2.7c1,0.4,2.3-0.4,2.5-1.4s-0.4-2.3-1.4-2.5l0,0
			c0,0-3.3-0.8-9-2.5c-2.9-0.8-6.2-1.8-10.1-3.1c-0.6-0.2-1.2-0.4-1.8-0.6c1.8-0.8,3.9-1.6,5.8-2.5c5.8-2.5,11.9-5.8,18.1-9.5
			c0.8,4.5,3.7,8.8,8.6,10.9c2.7,1.2,6.2,1.4,9.5,0.8c3.5-0.6,6.8-1.8,9.5-3.3c-5.3-2.5-5.8-8-11.1-10.9c-2.5-1.4-5.3-1.8-8.2-1.6
			c-0.8,0-1.4,0.2-2.3,0.4c2.1-1.4,4.3-2.7,6.4-4.1c2.3-1.6,4.3-3.1,6.6-4.7c1,4.5,4.1,8.6,9,10.5c0.6,0.2,1.2,0.4,2.1,0.6
			c0.8,0,1.4,0,2.3,0c1.6-0.2,3.5-0.4,5.1-1c1.6-0.6,3.5-1.4,5.1-2.3c1.6-1,3.1-2.1,4.5-3.3c-2.9-0.4-4.5-2.1-6.2-3.7
			s-3.3-3.3-6.2-4.1c-4.3-1.2-9-0.2-13.2,1.6c2.3-1.6,4.5-3.5,6.6-5.3c2.5-2.3,4.7-4.5,7-7.2c1.8,3.9,5.5,7.2,10.7,7.4
			c5.3,0.2,12.1-4.5,15.6-9.9c-2.7,0.2-4.5-0.8-6.4-1.8c-1.8-1-3.7-2.3-6.6-2.5c-4.3-0.2-8.4,2.1-11.7,4.7c1.6-2.1,3.3-4.3,4.7-6.6
			c5.8-9,9.7-18.9,11.7-29c3.1,2.1,7,2.9,10.9,1c4.1-1.8,7.2-7.8,8-12.9c-3.9,2.3-7.4-0.4-11.5,1.4c-3.1,1.2-5.1,4.1-6.6,7.2
			c0.4-1.8,0.6-3.7,0.8-5.5c0.4-3.5,0.6-6.8,0.6-10.3c3.1,1.4,6.8,1.4,10.1-1s4.9-8.2,4.9-12.7c-3.3,2.7-6.6,1-10.1,3.3
			c-2.7,1.8-4.1,4.9-4.7,8.2c-0.2-4.5-0.6-8.6-1.2-12.7c3.1,0.8,6.4,0.2,9-2.3c2.7-2.7,3.5-8,2.7-11.9c-2.5,2.7-5.8,1.6-8.6,4.1
			c-2.3,2.1-3.1,5.1-3.3,8.4c-0.4-2.7-1-5.3-1.6-7.6c-2.7-9.9-6.4-17.7-9.2-22.8c-1-1.8-1.8-3.3-2.7-4.5c0,0,0,0,0.2,0
			c0.2-1,0.4-2.3,0.2-3.5L215,17c0.8,0.4,1.6,0.6,2.5,0.8c0.8,1.2,1.6,2.7,2.7,4.5c2.9,5.1,6.4,13.2,8.6,23c0.6,2.1,1,4.3,1.4,6.6
			c-1.2-2.5-3.1-4.5-5.8-4.9c-3.7-0.6-6.2,1.4-9.5,0.8c1,2.9,3.5,6.2,6.8,7.4c3.1,1.2,6.2,1,8.8-0.4c0.6,4.5,1,9.2,0.8,14
			c-0.2-1.6-0.8-3.1-1.6-4.5c-1-1.6-2.5-3.1-4.3-3.7c-3.9-1.2-7,0.6-10.5-0.6c0.6,3.3,2.9,7.2,6.2,9c3.3,1.8,7,2.3,10.3,0.8
			c0,3.1-0.2,6.4-0.6,9.7c-0.2,2.3-0.6,4.7-1.2,7c0-3.7-1.4-7.6-4.5-9.2c-3.9-2.1-7.6-0.8-11.1-2.9c0.2,3.5,1.6,8,4.7,10.9
			c3.1,2.7,7,3.9,10.7,3.3c-1.2,5.5-3.3,11.1-5.5,16.4c0.2-1.2,0.2-2.5,0.2-3.5c-0.2-2.3-1.2-4.3-2.9-6c-3.7-3.3-7.8-2.7-11.1-5.5
			c-0.6,3.7-0.2,8.6,2.3,12.3c2.5,3.5,6,5.8,10.1,6.2c-1.4,2.9-3.1,5.5-4.7,8c-2.5,1.2-4.1,3.3-5.8,5.3c1.8-3.7,2.1-8-0.2-11.3
			c-1.4-2.1-3.3-3.3-5.1-4.5c-1.8-1-3.7-2.3-5.1-4.3c-1.4,3.5-2.3,8.6-0.6,13.2c1.6,4.3,4.7,7.8,9,9.2c-2.1,2.3-4.1,4.5-6.6,6.4
			c-2.1,1.8-4.5,3.7-6.8,5.3c3.1-3.5,4.9-8,3.3-12.1c-1-2.7-2.7-4.3-4.3-6c-1.6-1.6-3.3-3.3-4.1-5.8c-0.6,0.8-1.2,1.6-1.6,2.7
			c-0.6,1-1,2.1-1.2,3.3c-0.4,1.2-0.6,2.3-0.8,3.5c0,0.6-0.2,1.2-0.2,1.8c0,0.6,0,1.4,0,2.1c0.2,5.1,2.9,9.5,7,12.1
			c-2.3,1.6-4.5,3.1-6.8,4.5c-2.7,1.8-5.3,3.5-8,5.1c0.8-1,1.6-2.1,2.3-3.3c1.4-2.5,2.1-5.3,1.6-8c-1-6-5.8-8.4-6.4-14.2
			c-2.1,1.8-4.1,4.1-5.5,6.8s-2.5,5.5-2.5,8.2c0,5.3,2.3,10.1,6,13.2c-6.2,3.5-12.3,6.6-17.9,9c-3.3,1.4-6.6,2.7-9.7,3.7
			c-1.8-0.6-3.9-1.4-5.8-2.3c-5.5-2.5-11.7-5.3-17.9-9c3.5-3.1,5.5-7.6,5.5-12.7c0-2.7-1-5.8-2.5-8.2c-1.4-2.7-3.5-4.9-5.5-6.8
			c-0.6,5.8-5.3,8.2-6.4,14.2c-0.4,2.9,0.2,5.5,1.6,8c0.4,0.6,0.8,1.4,1.2,2.1c-2.1-1.2-4.3-2.7-6.4-4.1c-2.3-1.4-4.5-3.1-6.6-4.5
			c4.1-2.5,6.6-6.8,7-11.9c0-0.6,0-1.4,0-2.1s0-1.2-0.2-1.8c-0.2-1.2-0.4-2.5-0.8-3.5c-0.4-1.2-0.8-2.3-1.2-3.3
			c-0.4-1-1-1.8-1.6-2.7c-1,2.3-2.7,3.9-4.1,5.8c-1.6,1.6-3.3,3.3-4.3,6c-1.4,3.9,0,8.4,2.9,11.7c-2.1-1.6-4.3-3.1-6.4-4.9
			c-1.8-1.6-3.7-3.5-5.3-5.3l-1.6,1.6c1.6,1.8,3.5,3.9,5.5,5.5c2.3,2.1,4.5,3.9,7,5.8c-1.8-0.8-3.7-1.6-5.5-2.1
			c-2.7-0.6-5.5-0.6-8,0.2c-2.7,0.8-4.5,2.5-6.2,4.1c-1.6,1.6-3.3,3.3-6.2,3.7c1.2,1,2.9,2.3,4.3,3.3c1.6,0.8,3.3,1.6,5.1,2.3
			c1.6,0.6,3.5,0.8,5.1,1c0.8,0,1.6,0,2.3,0c0.6-0.2,1.4-0.4,2.1-0.6c4.9-1.8,8.2-6,9-10.7c2.3,1.6,4.5,3.1,6.6,4.7
			c2.7,1.8,5.3,3.7,8,5.3c-1.2-0.4-2.7-0.6-4.1-0.8c-2.9-0.2-5.8,0.2-8.4,1.6c-5.3,2.9-5.8,8.4-11.1,10.9c2.7,1.6,6.2,2.7,9.5,3.3
			s6.8,0.4,9.5-0.8c5.1-2.3,8-6.6,8.6-11.5c6.2,3.7,12.3,7,18.1,9.5c0.6,0.4,1.4,0.6,2.1,1c-3.1,1-6,1.8-8.2,2.7
			c-5.8,1.4-9,2.5-9,2.5c-1,0.2-1.8,1.4-1.4,2.5c0.2,1.2,1.4,1.8,2.5,1.4l0,0c0,0,3.3-1,9-2.7c2.9-1,6.4-2.1,10.3-3.5
			c0.6-0.2,1.4-0.6,2.1-0.8C150.1,167.2,151.9,167.8,153.8,168.6z"/>
		<path class="st0" d="M235,34.2c1.8-2.7,1.8-7.4,0.6-10.9c-1.8,2.7-4.9,2.3-7,4.9c-2.1,2.5-2.1,6.2-1.4,9.2
			C230,37.9,233.1,36.9,235,34.2z"/>
		<path class="st0" d="M234.3,98.8c-2.3,0.4-4.5,1.6-6.2,3.3c-1.8,1.6-3.3,3.7-4.7,5.5c2.7,3.3,6.8,5.5,11.5,4.5
			c2.5-0.4,4.7-2.3,7-4.3c2.1-2.3,3.9-5.1,4.9-7.8C242.1,101.4,239.3,97.9,234.3,98.8z"/>
		<path class="st0" d="M226.9,10.6c-1.2,2.7-4.1,2.7-5.5,5.1c-1.4,2.5-1,5.5,0,8.2c2.7,0,5.1-1.2,6.4-3.9
			C229.2,17.6,228.4,13.5,226.9,10.6z"/>
	</g>
</g>
<g>
	<g class="st1">
		<polygon class="st2" points="114.7,100.4 74.4,175.2 101.3,176.8 136.2,111.9 		"/>
		<polygon class="st2" points="136.2,111.9 101.3,176.8 117.5,198.4 157.8,123.4 		"/>
	</g>
	<g class="st1">
		<polygon class="st2" points="181.8,100.4 221.9,175.2 195,176.8 160.3,111.9 		"/>
		<polygon class="st2" points="160.3,111.9 195,176.8 179,198.4 138.7,123.4 		"/>
	</g>
	<g>
		<polygon class="st3" points="117.7,98.8 77.5,173.8 104.4,175.2 139.3,110.3 		"/>
		<polygon class="st4" points="139.3,110.3 104.4,175.2 120.6,196.8 160.9,121.8 		"/>
	</g>
	<g>
		<polygon class="st3" points="184.9,98.8 225,173.8 198.1,175.2 163.4,110.3 		"/>
		<polygon class="st4" points="163.4,110.3 198.1,175.2 181.8,196.8 141.8,121.8 		"/>
	</g>
	<path class="st5" d="M220.9,53.8c1.2,3.9-5.3,9.7-4.7,13.6c0.6,4.1,8.4,7.6,8.4,11.7c-0.2,4.1-8.2,7.2-9,11.1s5.3,10.1,3.9,13.8
		c-1.4,3.7-10.3,3.9-12.3,7.4c-2.1,3.5,1.6,11.3-1.2,14.4c-2.9,3.1-11.1,0.2-14.4,2.7c-3.1,2.5-2.5,11.1-6,13.2
		c-3.5,1.8-10.3-3.7-14.2-2.3c-3.9,1.2-6.2,9.7-10.1,10.3c-4.1,0.6-8.6-7-12.5-7c-4.1-0.2-9,7-12.9,6.2s-5.5-9.5-9.5-10.9
		c-3.7-1.4-10.9,3.5-14.4,1.4s-2.1-10.7-5.1-13.4c-3.1-2.7-11.3-0.4-14-3.7c-2.5-3.1,1.8-10.7-0.2-14.4c-1.8-3.5-10.5-4.3-11.7-8.2
		s5.3-9.7,4.7-13.6c-0.6-4.1-8.4-7.6-8.4-11.7c0.2-4.1,8.2-7.2,9-11.1c0.8-3.9-5.3-10.1-3.9-13.8c1.4-3.7,10.3-3.9,12.3-7.4
		s-1.6-11.3,1-14.4c2.7-3.1,10.9-0.2,14.2-2.7c3.1-2.5,2.3-11.1,6-13.2c3.5-1.8,10.3,3.7,14.2,2.3c3.9-1.2,6.2-9.7,10.1-10.3
		c4.1-0.6,8.6,7,12.5,7c4.1,0.2,9-7,12.9-6.2c3.9,0.8,5.5,9.5,9.5,10.9c3.7,1.4,10.9-3.5,14.4-1.4c3.5,2.1,2.1,10.7,5.1,13.4
		c3.1,2.7,11.3,0.4,14,3.7c2.5,3.1-1.8,10.7,0.2,14.4C211,49,219.7,49.8,220.9,53.8z"/>
	<path class="st6" d="M221.9,51.9c1.2,3.9-5.3,9.7-4.7,13.6c0.6,4.1,8.4,7.6,8.4,11.7c-0.2,4.1-8.2,7.2-9,11.1s5.3,10.1,3.9,13.8
		c-1.4,3.7-10.3,3.9-12.3,7.4c-2.1,3.5,1.6,11.3-1.2,14.4c-2.7,3.1-10.9,0.2-14.2,2.7c-3.1,2.5-2.5,11.1-6,13.2
		c-3.5,1.8-10.3-3.7-14.2-2.3c-3.9,1.2-6.2,9.7-10.1,10.3c-4.1,0.6-8.6-7-12.5-7c-4.1-0.2-9,7-12.9,6.2c-3.9-0.8-5.5-9.5-9.5-10.9
		c-3.7-1.4-10.9,3.5-14.4,1.4c-3.5-2.1-2.1-10.7-5.1-13.4s-11.3-0.4-14-3.7c-2.5-3.1,1.8-10.7-0.2-14.4c-1.8-3.5-10.5-4.3-11.7-8.2
		c-1.2-3.9,5.3-9.7,4.7-13.6c-0.6-4.1-8.4-7.6-8.4-11.7c0.2-4.1,8.2-7.2,9-11.1s-5.3-10.1-3.9-13.8s10.3-3.9,12.3-7.4
		c2.1-3.5-1.6-11.3,1-14.4c2.7-3.1,10.9-0.2,14.2-2.7c3.1-2.5,2.3-11.1,6-13.2c3.5-1.8,10.3,3.7,14.2,2.3c3.9-1.2,6.2-9.7,10.1-10.3
		c4.1-0.6,8.6,7,12.5,7c4.1,0.2,9-7,12.9-6.2s5.5,9.5,9.5,10.9c3.7,1.4,10.9-3.5,14.4-1.4c3.5,2.1,2.1,10.7,5.1,13.4
		s11.3,0.4,14,3.7c2.5,3.1-1.8,10.7,0.2,14.4C211.8,47.2,220.7,48,221.9,51.9z"/>
	<polygon class="st7" points="247.6,92.1 292.3,84.8 270.3,72.1 287.1,52.7 242.3,60 	"/>
	<path class="st8" d="M109.5,55.4L86.3,101c2.9,1.4,6.4,2.5,7.6,4.5c1.8,3.7-2.3,11.3,0.2,14.4c2.5,3.3,10.9,1,14,3.7
		c3.1,2.7,1.6,11.3,5.1,13.4c3.5,2.1,10.5-2.9,14.4-1.2c3.7,1.4,5.3,10.1,9.5,10.9c3.9,0.8,8.8-6.4,12.9-6.2c4.1,0.2,8.4,7.6,12.5,7
		c3.9-0.6,6.2-9,10.1-10.3c0.2,0,0.2,0,0.4,0l19.7-39.2L109.5,55.4z"/>
	<path class="st9" d="M167.7,122.6c-26.5,8.6-55.1-6-63.7-32.3c-8.6-26.5,6-55.1,32.3-63.7c26.5-8.6,55.1,6,63.7,32.3
		C208.6,85.4,194,114,167.7,122.6z"/>
	<polygon class="st7" points="58,123 13.2,130.3 30.1,111.2 8,98.1 52.7,90.8 	"/>
	<g>
		<path class="st10" d="M171.8,32.6l-39.7,84.2c10.5,4.9,22.6,6,34.3,2.3c24.5-8,37.8-34.3,29.8-58.8
			C192.1,47.6,183.1,37.9,171.8,32.6z"/>
		<path class="st10" d="M137.5,30.3c-24.5,8-37.8,34.3-29.8,58.8c4.1,12.7,13.2,22.4,24.5,27.7l39.7-84.2
			C161.5,27.7,149.2,26.4,137.5,30.3z"/>
	</g>
	
		<rect x="24" y="58.5" transform="matrix(0.987 -0.1607 0.1607 0.987 -10.9381 24.7627)" class="st11" width="247.4" height="42.9"/>
	
		<rect x="25.7" y="57.1" transform="matrix(0.987 -0.1607 0.1607 0.987 -10.6499 24.6915)" class="st7" width="243.3" height="42.2"/>
	<g>
		<path class="st12" d="M45.4,95.4l1.4,8.8l6.1-1l0.4,2.6l-9.6,1.6l-4-24.5l9.6-1.6l0.4,2.6l-6.1,1l1.3,7.9l4.4-0.7l0.4,2.6
			L45.4,95.4z"/>
		<path class="st12" d="M57.6,105.1l-3.5,0.6l2.3-13.4l-6.3-11.1l3.5-0.6l5.1,9.1l1.9-10.2l3.5-0.6l-2.5,12.5l6.4,12.1l-3.5,0.6
			L59.4,94L57.6,105.1z"/>
		<path class="st12" d="M76.5,102.3c-5.3,0.9-7.3-2.7-8.2-7.9l-1.1-7c-0.9-5.3,0-9.2,5.3-10.1c4.9-0.8,7.1,2.1,7.9,7.1l-3.5,0.6
			c-0.5-3-1-5.2-3.9-4.8s-2.9,2.8-2.4,5.8l1.4,8.8c0.4,2.7,1.4,5.2,4.1,4.7c2.7-0.4,2.6-3.1,2.2-5.7l-0.1-0.9l3.5-0.6l0.1,0.9
			C82.5,98,81.4,101.5,76.5,102.3z"/>
		<path class="st12" d="M81.3,76.1l3.5-0.6l3.6,21.9l6.1-1L95,99l-9.6,1.6L81.3,76.1z"/>
		<path class="st12" d="M102.8,98c-5.4,0.9-7.6-2.5-8.5-7.9l-2.6-15.8l3.5-0.6l2.6,15.8c0.5,3.2,1.3,6.1,4.5,5.6
			c3.2-0.5,3-3.5,2.5-6.7l-2.6-15.8l3.5-0.6l2.6,15.8C109.2,93.3,108.2,97.1,102.8,98z"/>
		<path class="st12" d="M115,73.3c-1.7,0.3-2.5,1.4-2.2,3.1c0.2,1.5,1.2,2.6,2.3,3.2l5,2.8c2,1.2,4.1,3.1,4.6,6.2
			c0.6,3.6-1.5,6.1-5.2,6.7c-4.6,0.7-7.2-1.9-8.2-6.1l3.4-1.4c0.5,2.5,1.7,5.1,4.4,4.7c1.8-0.3,2.5-1.3,2.2-3.1
			c-0.4-2.2-1.9-3.1-3.3-4l-5-2.8c-1.7-0.9-3.2-2.7-3.6-5.3c-0.6-3.6,1.5-6.3,5.2-6.9c4.3-0.7,7.1,1.3,8,5.2l-3.4,1.4
			C118.7,74.8,117.5,72.9,115,73.3z"/>
		<path class="st12" d="M127.8,68.5l4,24.5l-3.5,0.6l-4-24.5L127.8,68.5z"/>
		<path class="st12" d="M140.5,66.4l3.5-0.6l-1.3,25.4l-3.5,0.6L130,68.1l3.5-0.6l4.7,12.7l1.9,6l-0.1-6.3L140.5,66.4z"/>
		<path class="st12" d="M151.6,78.1l1.4,8.8l6.1-1l0.4,2.6l-9.6,1.6l-4-24.5l9.6-1.6l0.4,2.6l-6.1,1l1.3,7.9l4.4-0.7l0.4,2.6
			L151.6,78.1z"/>
		<path class="st12" d="M174.2,86.3c-0.4,0.1-0.9,0.2-1.4,0.3c-5,0.8-7.3-2-8.1-7l-1.4-8.9c-0.8-5,0.4-8.3,5.5-9.1
			c5-0.8,7.3,2,8.1,6.9l1.4,8.9c0.5,3.4,0.1,6.1-1.8,7.7c0.7,0.7,2.1,1,2.9,0.9l0.5,2.9C177.8,89.1,175.3,87.7,174.2,86.3z
			 M169.2,64.4c-2.6,0.4-3,2.1-2.6,4.8l1.7,10.7c0.4,2.6,1.3,4.3,4,3.9c2.6-0.4,3-2.3,2.5-4.9l-1.7-10.7
			C172.8,65.5,171.9,64,169.2,64.4z"/>
		<path class="st12" d="M189.5,83.9c-5.4,0.9-7.6-2.5-8.5-7.9l-2.6-15.8l3.5-0.6l2.6,15.8c0.5,3.2,1.3,6.1,4.5,5.6
			c3.2-0.5,3-3.5,2.5-6.7L189,58.5l3.5-0.6l2.6,15.8C195.9,79.1,194.9,83,189.5,83.9z"/>
		<path class="st12" d="M201.2,81.7l-3.5,0.6l1.3-25.4l3.5-0.6l9.3,23.7l-3.5,0.6l-2.3-5.9l-4.4,0.7L201.2,81.7z M201.6,61.9l0,10.8
			l3.5-0.6L201.6,61.9z"/>
		<path class="st12" d="M209.6,55.2l3.5-0.6l3.6,21.9l6.1-1l0.4,2.6l-9.6,1.6L209.6,55.2z"/>
		<path class="st12" d="M224.5,52.8l4,24.5l-3.5,0.6l-4-24.5L224.5,52.8z"/>
		<path class="st12" d="M239.2,53.6l-4.4,0.7l3.5,21.4l-3.5,0.6l-3.5-21.4l-4.4,0.7l-0.5-3.1l12.3-2L239.2,53.6z"/>
		<path class="st12" d="M246.6,66.3l-8-15.8l3.5-0.6l5.5,11.7l1.5-12.8l3.5-0.6l-2.5,17.5l1.3,7.9l-3.5,0.6L246.6,66.3z"/>
	</g>
</g>
</svg>
