<?xml version="1.0" encoding="utf-8"?>
<!-- Generator: Adobe Illustrator 21.0.1, SVG Export Plug-In . SVG Version: 6.00 Build 0)  -->
<svg version="1.1" id="Layer_1" xmlns="http://www.w3.org/2000/svg" xmlns:xlink="http://www.w3.org/1999/xlink" x="0px" y="0px"
	 viewBox="0 0 232.4 260.8" style="enable-background:new 0 0 232.4 260.8;" xml:space="preserve">
<style type="text/css">
	.st0{fill:#455293;}
	.st1{fill:#38A7CE;}
</style>
<g>
	<g>
		<path class="st0" d="M75.3,57.4H45V37.1c0-5.9-0.3-9.6-1-11c-0.6-1.5-2.1-2.2-4.3-2.2c-2.5,0-4.1,0.9-4.8,2.7
			c-0.7,1.8-1,5.6-1,11.5v54.1c0,5.7,0.3,9.4,1,11.1c0.7,1.7,2.2,2.6,4.5,2.6c2.3,0,3.7-0.9,4.4-2.6c0.7-1.7,1-5.8,1-12.2V76.5h30.3
			V81c0,12.1-0.9,20.6-2.6,25.6c-1.7,5-5.5,9.5-11.3,13.3c-5.8,3.8-13,5.7-21.5,5.7c-8.9,0-16.2-1.6-21.9-4.8
			c-5.8-3.2-9.6-7.7-11.4-13.3S3.7,93.2,3.7,81.8v-34c0-8.4,0.3-14.7,0.9-18.9c0.6-4.2,2.3-8.2,5.1-12.1c2.9-3.9,6.8-6.9,11.9-9.2
			C26.7,5.3,32.5,4.2,39,4.2c8.9,0,16.3,1.7,22.1,5.2s9.6,7.7,11.4,12.9c1.8,5.1,2.7,13.2,2.7,24V57.4z"/>
		<path class="st0" d="M138.5,6.7l17.3,116.5h-31l-1.6-20.9h-10.8l-1.8,20.9H79.3L94.7,6.7H138.5z M122.5,81.6
			c-1.5-13.2-3.1-29.5-4.6-48.9c-3.1,22.3-5,38.6-5.8,48.9H122.5z"/>
		<path class="st0" d="M161,6.7h21.4c14.3,0,24,0.6,29,1.7c5.1,1.1,9.2,3.9,12.4,8.5c3.2,4.5,4.8,11.8,4.8,21.7
			c0,9.1-1.1,15.2-3.4,18.3c-2.3,3.1-6.7,5-13.3,5.6c6,1.5,10,3.5,12.1,6c2.1,2.5,3.3,4.8,3.8,6.9c0.5,2.1,0.8,7.8,0.8,17.2v30.7
			h-28.1V84.4c0-6.2-0.5-10.1-1.5-11.6c-1-1.5-3.6-2.2-7.7-2.2v52.5H161V6.7z M191.3,26.6v25.9c3.4,0,5.8-0.5,7.2-1.4
			c1.4-0.9,2.1-4,2.1-9.1v-6.4c0-3.7-0.7-6.1-2-7.3C197.2,27.2,194.8,26.6,191.3,26.6z"/>
	</g>
	<g>
		<path class="st1" d="M22.9,129.4v58.9h11.6V203H3.8v-73.6H22.9z"/>
		<path class="st1" d="M81.5,172.5c0,7.4-0.2,12.6-0.5,15.7c-0.3,3.1-1.4,5.9-3.3,8.4c-1.8,2.5-4.3,4.5-7.4,5.9
			c-3.1,1.4-6.8,2-10.9,2c-3.9,0-7.5-0.6-10.6-1.9c-3.1-1.3-5.7-3.2-7.6-5.8c-1.9-2.6-3-5.4-3.4-8.4c-0.4-3-0.5-8.3-0.5-15.9v-12.6
			c0-7.4,0.2-12.6,0.5-15.7c0.3-3.1,1.4-5.9,3.3-8.4c1.8-2.5,4.3-4.5,7.4-5.9c3.1-1.4,6.8-2,10.9-2c3.9,0,7.5,0.6,10.6,1.9
			c3.1,1.3,5.7,3.2,7.6,5.8c1.9,2.6,3,5.4,3.4,8.4c0.4,3,0.5,8.3,0.5,15.9V172.5z M62.4,148.3c0-3.4-0.2-5.6-0.6-6.6
			c-0.4-1-1.2-1.4-2.3-1.4c-1,0-1.8,0.4-2.3,1.2c-0.5,0.8-0.8,3.1-0.8,6.8v34.4c0,4.3,0.2,6.9,0.5,7.9c0.3,1,1.2,1.5,2.4,1.5
			c1.3,0,2.1-0.6,2.5-1.7c0.4-1.2,0.5-3.9,0.5-8.2V148.3z"/>
		<path class="st1" d="M121.7,129.4l10.9,73.6h-19.6l-1-13.2h-6.8l-1.2,13.2H84.3l9.8-73.6H121.7z M111.6,176.7
			c-1-8.3-1.9-18.6-2.9-30.9c-1.9,14.1-3.2,24.4-3.7,30.9H111.6z"/>
		<path class="st1" d="M178.7,129.4V203h-16.8l-10-33.5V203h-16v-73.6h16l10.7,33.1v-33.1H178.7z"/>
		<path class="st1" d="M226.9,151.7h-17.8v-5.5c0-2.5-0.2-4.2-0.7-4.9s-1.2-1-2.3-1c-1.2,0-2,0.5-2.6,1.4s-0.9,2.4-0.9,4.3
			c0,2.5,0.3,4.3,1,5.6c0.6,1.2,2.4,2.7,5.4,4.5c8.5,5.1,13.9,9.2,16.1,12.5s3.3,8.5,3.3,15.7c0,5.2-0.6,9.1-1.8,11.6
			c-1.2,2.5-3.6,4.6-7.1,6.3c-3.5,1.7-7.6,2.5-12.3,2.5c-5.1,0-9.5-1-13.1-2.9c-3.6-1.9-6-4.4-7.1-7.4c-1.1-3-1.7-7.3-1.7-12.8v-4.8
			h17.8v9c0,2.8,0.2,4.5,0.7,5.3c0.5,0.8,1.4,1.2,2.7,1.2c1.3,0,2.2-0.5,2.8-1.5c0.6-1,0.9-2.5,0.9-4.5c0-4.3-0.6-7.2-1.8-8.5
			c-1.2-1.3-4.2-3.6-9-6.7c-4.8-3.2-7.9-5.4-9.5-6.9c-1.5-1.4-2.8-3.4-3.8-5.9c-1-2.5-1.5-5.7-1.5-9.6c0-5.6,0.7-9.8,2.2-12.4
			c1.4-2.6,3.8-4.6,7-6.1c3.2-1.5,7.1-2.2,11.6-2.2c5,0,9.2,0.8,12.7,2.4c3.5,1.6,5.8,3.6,7,6.1c1.1,2.4,1.7,6.6,1.7,12.4V151.7z"/>
	</g>
	<g>
		<path class="st0" d="M41.6,219l-4.3,36.8h-12c-1.1-5.7-2.1-12.1-2.9-19.3c-0.4,3.1-1.3,9.5-2.7,19.3H7.9L3.6,219h9.3l1,12.8
			l1,12.4c0.4-6.4,1.2-14.8,2.6-25.3h9.9c0.1,1.1,0.5,5.1,1,12.1l1.1,14c0.5-8.9,1.4-17.6,2.7-26.2H41.6z"/>
		<path class="st0" d="M59.6,219l5.5,36.8h-9.8l-0.5-6.6h-3.4l-0.6,6.6h-9.9l4.9-36.8H59.6z M54.5,242.6c-0.5-4.2-1-9.3-1.5-15.5
			c-1,7-1.6,12.2-1.8,15.5H54.5z"/>
		<path class="st0" d="M66.7,219h6.8c4.5,0,7.6,0.2,9.2,0.5c1.6,0.4,2.9,1.2,3.9,2.7c1,1.4,1.5,3.7,1.5,6.9c0,2.9-0.4,4.8-1.1,5.8
			s-2.1,1.6-4.2,1.8c1.9,0.5,3.2,1.1,3.8,1.9c0.7,0.8,1.1,1.5,1.2,2.2c0.2,0.7,0.2,2.5,0.2,5.4v9.7h-8.9v-12.2c0-2-0.2-3.2-0.5-3.7
			c-0.3-0.5-1.1-0.7-2.4-0.7v16.6h-9.6V219z M76.2,225.3v8.2c1.1,0,1.8-0.1,2.3-0.4c0.4-0.3,0.6-1.3,0.6-2.9v-2
			c0-1.2-0.2-1.9-0.6-2.3C78.1,225.5,77.3,225.3,76.2,225.3z"/>
		<path class="st0" d="M91.7,219h16v7.4h-6.4v7h6v7h-6v8.1h7v7.4H91.7V219z"/>
		<path class="st0" d="M133.1,219v36.8h-9.6v-15.5h-2.9v15.5h-9.6V219h9.6v13.2h2.9V219H133.1z"/>
		<path class="st0" d="M158.8,240.5c0,3.7-0.1,6.3-0.3,7.9c-0.2,1.5-0.7,2.9-1.6,4.2c-0.9,1.3-2.2,2.3-3.7,2.9c-1.6,0.7-3.4,1-5.5,1
			c-2,0-3.7-0.3-5.3-1c-1.6-0.6-2.8-1.6-3.8-2.9c-1-1.3-1.5-2.7-1.7-4.2c-0.2-1.5-0.3-4.2-0.3-8v-6.3c0-3.7,0.1-6.3,0.3-7.9
			c0.2-1.5,0.7-2.9,1.6-4.2c0.9-1.3,2.2-2.3,3.7-2.9c1.6-0.7,3.4-1,5.5-1c2,0,3.7,0.3,5.3,1c1.6,0.6,2.8,1.6,3.8,2.9
			c1,1.3,1.5,2.7,1.7,4.2c0.2,1.5,0.3,4.2,0.3,8V240.5z M149.3,228.4c0-1.7-0.1-2.8-0.3-3.3c-0.2-0.5-0.6-0.7-1.2-0.7
			c-0.5,0-0.9,0.2-1.1,0.6c-0.3,0.4-0.4,1.5-0.4,3.4v17.2c0,2.1,0.1,3.5,0.3,4c0.2,0.5,0.6,0.8,1.2,0.8c0.7,0,1.1-0.3,1.3-0.9
			s0.3-1.9,0.3-4.1V228.4z"/>
		<path class="st0" d="M184.2,219v24.6c0,2.8-0.1,4.8-0.3,5.9c-0.2,1.1-0.7,2.3-1.6,3.5c-0.9,1.2-2.1,2.1-3.5,2.7
			c-1.5,0.6-3.2,0.9-5.2,0.9c-2.2,0-4.1-0.4-5.8-1.1c-1.7-0.7-2.9-1.7-3.8-2.8c-0.8-1.2-1.3-2.4-1.5-3.7c-0.2-1.3-0.2-4-0.2-8.2V219
			h9.6v27.6c0,1.6,0.1,2.6,0.3,3.1c0.2,0.4,0.5,0.7,1.1,0.7c0.6,0,1-0.2,1.2-0.7c0.2-0.5,0.3-1.7,0.3-3.5V219H184.2z"/>
		<path class="st0" d="M208.2,230.1h-8.9v-2.7c0-1.3-0.1-2.1-0.3-2.4c-0.2-0.3-0.6-0.5-1.1-0.5c-0.6,0-1,0.2-1.3,0.7
			c-0.3,0.5-0.4,1.2-0.4,2.1c0,1.2,0.2,2.2,0.5,2.8c0.3,0.6,1.2,1.4,2.7,2.3c4.3,2.5,6.9,4.6,8.1,6.2c1.1,1.6,1.7,4.2,1.7,7.8
			c0,2.6-0.3,4.6-0.9,5.8c-0.6,1.2-1.8,2.3-3.6,3.1c-1.8,0.8-3.8,1.3-6.1,1.3c-2.6,0-4.7-0.5-6.6-1.5c-1.8-1-3-2.2-3.6-3.7
			c-0.6-1.5-0.8-3.6-0.8-6.4v-2.4h8.9v4.5c0,1.4,0.1,2.3,0.4,2.7c0.2,0.4,0.7,0.6,1.3,0.6s1.1-0.3,1.4-0.8c0.3-0.5,0.5-1.2,0.5-2.2
			c0-2.2-0.3-3.6-0.9-4.3c-0.6-0.7-2.1-1.8-4.5-3.3c-2.4-1.6-4-2.7-4.7-3.4c-0.8-0.7-1.4-1.7-1.9-3c-0.5-1.3-0.8-2.9-0.8-4.8
			c0-2.8,0.4-4.9,1.1-6.2c0.7-1.3,1.9-2.3,3.5-3.1c1.6-0.7,3.5-1.1,5.8-1.1c2.5,0,4.6,0.4,6.4,1.2c1.8,0.8,2.9,1.8,3.5,3
			c0.6,1.2,0.9,3.3,0.9,6.2V230.1z"/>
		<path class="st0" d="M212,219h16v7.4h-6.4v7h6v7h-6v8.1h7v7.4H212V219z"/>
	</g>
	<g>
		<rect x="3.6" y="207.6" class="st1" width="225.2" height="5.2"/>
	</g>
</g>
</svg>
