<?xml version="1.0" encoding="utf-8"?>
<!-- Generator: Adobe Illustrator 24.0.2, SVG Export Plug-In . SVG Version: 6.00 Build 0)  -->
<svg version="1.1" id="Layer_1" xmlns="http://www.w3.org/2000/svg" xmlns:xlink="http://www.w3.org/1999/xlink" x="0px" y="0px"
	 viewBox="0 0 269.3 70.9" style="enable-background:new 0 0 269.3 70.9;" xml:space="preserve">
<style type="text/css">
	.st0{fill:#2B303B;}
	.st1{opacity:0.29;clip-path:url(#SVGID_2_);fill:none;stroke:#FFFFFF;stroke-width:0.5;stroke-miterlimit:10;}
	.st2{clip-path:url(#SVGID_2_);fill:#348CA5;}
	.st3{clip-path:url(#SVGID_2_);fill:#0F6599;}
	.st4{clip-path:url(#SVGID_2_);fill:#0C73A1;}
	.st5{clip-path:url(#SVGID_2_);fill:#0C83AE;}
	.st6{clip-path:url(#SVGID_2_);fill:#30A5BF;}
	.st7{clip-path:url(#SVGID_2_);fill:#35A8BB;}
	.st8{clip-path:url(#SVGID_2_);fill:#199BBA;}
	.st9{clip-path:url(#SVGID_2_);fill:#3EAEC3;}
	.st10{clip-path:url(#SVGID_2_);fill:#7CC0C6;}
	.st11{clip-path:url(#SVGID_2_);fill:#0D83A4;}
	.st12{clip-path:url(#SVGID_2_);fill:#188EB0;}
	.st13{clip-path:url(#SVGID_2_);fill:#1E90AD;}
	.st14{clip-path:url(#SVGID_2_);fill:#187CA0;}
	.st15{clip-path:url(#SVGID_2_);fill:#97CBC9;}
	.st16{clip-path:url(#SVGID_2_);fill:#50ADBD;}
	.st17{clip-path:url(#SVGID_2_);fill:#58AFBA;}
	.st18{clip-path:url(#SVGID_2_);fill:#ABD2CE;}
	.st19{clip-path:url(#SVGID_2_);fill:#7DC3CB;}
	.st20{clip-path:url(#SVGID_2_);fill:#C0DDD8;}
	.st21{clip-path:url(#SVGID_2_);fill:#A3D0CE;}
	.st22{clip-path:url(#SVGID_2_);fill:#7DC1C3;}
	.st23{clip-path:url(#SVGID_2_);fill:#90C9C7;}
</style>
<g>
	<g>
		<g>
			<path class="st0" d="M76.8,6c2.5-0.3,5-0.5,7.5-0.5s5,0.2,7.6,0.5v60.7c-2.6,0.3-5.1,0.5-7.5,0.5c-2.5,0-5-0.2-7.6-0.5V6z"/>
			<path class="st0" d="M98.8,6c2.1-0.3,4.1-0.5,6-0.5c2,0,4.2,0.2,6.3,0.5l28.5,38.7V6c2.5-0.3,4.8-0.5,7.1-0.5
				c2.1,0,4.2,0.2,6.1,0.5v60.7c-2.2,0.3-4.2,0.5-5.9,0.5c-1.9,0-4-0.2-6.2-0.5l-28.6-38.6v38.6c-2.2,0.3-4.4,0.5-6.7,0.5
				s-4.4-0.2-6.5-0.5V6H98.8z"/>
			<path class="st0" d="M195.1,56.2h-20.7v-16h21.3c0.4-1.7,0.6-3.5,0.6-5.3c0-1.7-0.2-3.4-0.6-5.2h-21.3V16.5h21.3L188.1,6h-28.7
				v60.7h28.2L195.1,56.2z"/>
		</g>
		<g>
			<path class="st0" d="M36.9,67.4c-5.8,0-10.9-0.8-15.2-2.5c-4.4-1.6-8-3.9-10.9-6.8C7.8,55.3,5.7,51.9,4.2,48
				c-1.4-3.9-2.1-8.1-2.1-12.7c0-4.6,0.7-8.8,2.1-12.7c1.4-3.9,3.6-7.3,6.5-10.2c2.9-2.9,6.5-5.1,10.9-6.8S31,3.1,36.9,3.1
				c5.8,0,10.9,0.8,15.2,2.5c4.4,1.7,8,4,10.9,6.8c2.9,2.9,5.1,6.3,6.5,10.2c1.4,3.9,2.1,8.1,2.1,12.7c0,4.6-0.7,8.8-2.1,12.7
				c-1.4,3.9-3.6,7.3-6.5,10.2c-2.9,2.9-6.5,5.1-10.9,6.8C47.7,66.6,42.7,67.4,36.9,67.4z M36.9,57.9c6.7,0,11.6-2,14.8-6
				c3.2-4,4.8-9.5,4.8-16.6c0-7.1-1.6-12.6-4.8-16.6c-3.2-4-8.1-5.9-14.8-5.9s-11.6,2-14.7,5.9c-3.1,4-4.7,9.5-4.7,16.6
				c0,7.1,1.6,12.7,4.7,16.6C25.3,55.9,30.2,57.9,36.9,57.9z"/>
		</g>
		<g>
			<path class="st0" d="M75.2,66.9c-3.5,0.3-5.3,0.5-8.5,0.5c-3.1,0-6.3-0.2-9.5-0.5L38.6,42.1L56,42.2L75.2,66.9z"/>
		</g>
	</g>
	<g>
		<defs>
			<path id="SVGID_1_" d="M214.1,45.7l8.9,11.9l-6.9,9.3H198L214.1,45.7z M223.3,11.3l-5.2-6.8L201,4.5l13.6,18.2L223.3,11.3z
				 M242.1,34.1l22-29.6l-18.6,0.1L223,34l0.3,0.3l0,0l24.2,32.5h19.6L242.1,34.1z"/>
		</defs>
		<clipPath id="SVGID_2_">
			<use xlink:href="#SVGID_1_"  style="overflow:visible;"/>
		</clipPath>
		<g transform="matrix(1 0 0 1 0 -7.629395e-06)" style="clip-path:url(#SVGID_2_);">
			
				<image style="overflow:visible;" width="841" height="853" xlink:href="2E484DD7.png"  transform="matrix(0.24 0 0 0.24 442.2879 -124.8718)">
			</image>
		</g>
		<path class="st1" d="M214.1,45.7l8.9,11.9l-6.9,9.3H198L214.1,45.7z M223.3,11.3l-5.2-6.8L201,4.5l13.6,18.2L223.3,11.3z
			 M242.1,34.1l22-29.6l-18.6,0.1L223,34l0.3,0.3l0,0l24.2,32.5h19.6L242.1,34.1z"/>
		<polygon class="st2" points="264.5,3.8 244.4,0.8 262,16.7 		"/>
		<polygon class="st3" points="244.4,0.8 262,16.7 241.1,23.2 		"/>
		<polygon class="st4" points="237.7,28 235.8,12.5 244.4,0.8 247.4,14.6 		"/>
		<polygon class="st5" points="226.4,2.4 215.7,22.9 235.8,12.5 		"/>
		<polygon class="st6" points="198.2,3.9 215.7,22.9 211.4,-4.4 		"/>
		<polygon class="st7" points="200.4,32.4 215.7,22.9 198.2,3.9 		"/>
		<polygon class="st8" points="226.4,2.4 211.4,-4.4 215.7,22.9 		"/>
		<polygon class="st9" points="210.1,46 215.7,22.9 200.4,32.4 		"/>
		<polygon class="st10" points="238.2,38.8 215.7,22.9 210.1,46 		"/>
		<polygon class="st11" points="237.7,28 215.7,22.9 235.8,12.5 		"/>
		<polygon class="st12" points="246.7,43.3 237.7,28 215.7,22.9 238.2,38.8 246.8,59.2 		"/>
		<polygon class="st13" points="268.4,37.8 258.7,53.1 246.8,59.3 246.7,43.3 		"/>
		<polygon class="st14" points="262,16.7 268.4,37.8 246.7,43.3 237.7,28 241.1,23.2 		"/>
		<polygon class="st15" points="233.9,68.5 238.2,38.8 210.1,46 214.6,64.7 		"/>
		<polygon class="st16" points="246.8,59.2 233.9,68.5 238.2,38.8 		"/>
		<polygon class="st17" points="268.4,67.5 246.8,59.2 258.7,53.1 		"/>
		<polygon class="st18" points="210.1,46 201.7,52.6 202.7,60.3 214.6,64.7 		"/>
		<polygon class="st19" points="205.6,74.9 202.7,60.3 214.6,64.7 		"/>
		<polygon class="st20" points="233.9,68.5 214.6,64.7 205.6,74.9 		"/>
		<polygon class="st21" points="201.7,52.6 187.5,67.6 205.6,74.9 		"/>
		<polygon class="st22" points="268.4,67.5 242.7,68.4 246.8,59.2 		"/>
		<polygon class="st23" points="233.9,68.5 242.7,68.4 246.8,59.2 		"/>
	</g>
</g>
</svg>
