<?xml version="1.0" encoding="utf-8"?>
<!-- Generator: Adobe Illustrator 19.1.1, SVG Export Plug-In . SVG Version: 6.00 Build 0)  -->
<svg version="1.1" id="Layer_1" xmlns="http://www.w3.org/2000/svg" xmlns:xlink="http://www.w3.org/1999/xlink" x="0px" y="0px"
	 viewBox="0 0 164.4 99.2" style="enable-background:new 0 0 164.4 99.2;" xml:space="preserve">
<style type="text/css">
	.st0{fill:#137DC1;}
</style>
<g>
	<path class="st0" d="M33.3,63.2l20.9,0l5.2,11.9h8l-22-48.9h-2.8L19.9,75.1h7.9L33.3,63.2z M43.9,39.7l7.3,16.6H36.3L43.9,39.7z"/>
	<path class="st0" d="M118.6,76c7.4,0,11.5-2,16-6.4c4.4-4.4,6.7-12.2,6.7-19.8h-20.2v6.9h12.2c-0.6,4.5-3.8,12.5-14.6,12.5
		c-12.5,0-17.7-10.8-17.7-18.6c0-11.5,9.2-18.2,17.7-18.2c9.3,0,12.5,5.1,15.2,7.8l5.2-5c-3.5-3.3-9.3-9.8-20.4-9.8
		c-13.1,0-25.2,11.1-25.2,25.4C93.5,61.2,101.2,76,118.6,76z"/>
	<rect x="75" y="26.2" class="st0" width="7.4" height="48.9"/>
	<path class="st0" d="M2.3,7.3v87h160.9v-87H2.3z M156.5,87.6H9V14h147.5V87.6z"/>
</g>
</svg>
