<?xml version="1.0" encoding="utf-8"?>
<!-- Generator: Adobe Illustrator 19.1.1, SVG Export Plug-In . SVG Version: 6.00 Build 0)  -->
<svg version="1.1" id="Layer_1" xmlns="http://www.w3.org/2000/svg" xmlns:xlink="http://www.w3.org/1999/xlink" x="0px" y="0px"
	 viewBox="0 0 226.8 56.7" style="enable-background:new 0 0 226.8 56.7;" xml:space="preserve">
<style type="text/css">
	.st0{fill:#0D72B9;}
	.st1{fill:#FDD301;}
	.st2{fill:#5FBB57;}
</style>
<g>
	<g>
		<path class="st0" d="M42.5,5H7.6v48c0,0,7.9-3.7,21.7-6.3c3.1-0.6,6.3-1,9.3-1.3L42.5,5z"/>
		<path class="st1" d="M42.5,5.1l-3.9,40.3c2.8-0.3,5.5-0.5,7.9-0.6L42.5,5.1z"/>
		<path class="st2" d="M42.5,5l4,39.7c5.6-0.3,9.5-0.3,9.5-0.3V5H42.5z"/>
	</g>
	<g>
		<path class="st0" d="M89.5,15h-13v1c0,0,1.6,0.3,2.1,0.9c0.6,0.7,0.1,1.7,0.1,1.7L67,44.8h6.1l3.7-8.1l13,0l3.2,8.1h8.2L89.5,15z
			 M78.4,33l5.3-11.7L88.3,33H78.4z"/>
		<path class="st0" d="M210,15h-13v1c0,0,1.6,0.3,2.1,0.9c0.6,0.7,0.1,1.7,0.1,1.7l-11.6,26.1h6.1l3.7-8.1l13,0l3.2,8.1h8.2L210,15z
			 M198.9,33l5.3-11.7l4.7,11.7H198.9z"/>
		<path class="st0" d="M133.8,15h-5.7L119,37l-8.8-22H99.3l0,0.9c0,0,1.8,0.4,2.5,1.2c0.8,0.8,1.2,2.4,1.2,2.4l10.1,25.3h8.4
			L133.8,15z"/>
		<path class="st0" d="M188.3,15h-5.7l-9.1,22l-8.8-22h-10.9l0,0.9c0,0,1.8,0.4,2.5,1.2c0.8,0.8,1.2,2.4,1.2,2.4l10.1,25.3h8.4
			L188.3,15z"/>
		<path class="st0" d="M141.2,44.8h7.7V15h-10.6v1c0,0,1.5,0.2,2.1,0.8c0.8,0.8,0.8,2.8,0.8,2.8V44.8z"/>
		<g>
			<path class="st0" d="M211.9,8.8V5.5h-1.4V5h3.4v0.4h-1.4v3.4H211.9z"/>
			<path class="st0" d="M214.5,8.8V5h0.9l1,2.7c0.1,0.3,0.2,0.4,0.2,0.6c0-0.1,0.1-0.3,0.2-0.6l1-2.6h0.8v3.8H218V5.7l-1.2,3.2h-0.5
				L215,5.6v3.2H214.5z"/>
		</g>
	</g>
</g>
</svg>
