<?xml version="1.0" encoding="utf-8"?>
<!-- Generator: Adobe Illustrator 22.1.0, SVG Export Plug-In . SVG Version: 6.00 Build 0)  -->
<svg version="1.1" id="Layer_1" xmlns="http://www.w3.org/2000/svg" xmlns:xlink="http://www.w3.org/1999/xlink" x="0px" y="0px"
	 viewBox="0 0 538.6 141.7" style="enable-background:new 0 0 538.6 141.7;" xml:space="preserve">
<style type="text/css">
	.st0{fill:#E2231A;}
	.st1{fill:#095585;}
</style>
<g>
	<g>
		<path class="st0" d="M75.1,70.9c0,0-1.4-6.4-10.5-7.2C55.5,62.9,50,68.5,50,68.5l4.6,14.9L68.5,94l6.6-1.4c0,0-11.5-2.1-11-13
			C64.6,69.6,75.1,70.9,75.1,70.9z M63.4,68.5c0-1.3,1.1-2.4,2.4-2.4c1.3,0,2.4,1.1,2.4,2.4s-1.1,2.4-2.4,2.4
			C64.5,70.9,63.4,69.8,63.4,68.5z"/>
		<path class="st0" d="M117.4,72.7c-0.2,4.2-1.1,8.5-2.6,12.7c-8.3,22.6-33.3,34.2-55.9,26c-22.6-8.3-34.2-33.3-26-55.9
			c8.3-22.6,33.3-34.2,55.9-26c15.2,5.5,25.4,18.6,28,33.5h1.4c-2.8-16.9-14.3-31.9-31.5-38.2C61.3,15.6,33.1,28.6,23.8,54
			c-9.3,25.4,3.8,53.6,29.2,62.8s53.6-3.8,62.8-29.2c1.8-4.9,2.8-10,2.9-15H117.4z"/>
		<path class="st0" d="M109.9,72.7c-0.2,3.5-0.9,7.1-2.2,10.5c-6.9,19-27.9,28.7-46.9,21.8c-19-6.9-28.7-27.9-21.8-46.9
			c6.9-19,27.9-28.7,46.9-21.8c12.3,4.5,20.7,14.8,23.2,26.7h1.6C108.1,49.2,98.4,37,84.2,31.8C62.6,23.9,38.7,35,30.8,56.6
			C22.9,78.2,34,102.1,55.6,110c21.6,7.9,45.5-3.2,53.4-24.8c1.5-4.1,2.3-8.3,2.5-12.4H109.9z"/>
		<path class="st0" d="M97.6,72.7c-0.2,1.8-0.6,3.6-1.2,5.3C92.1,89.5,79.5,95.4,68,91.2C56.6,87,50.7,74.3,54.9,62.9
			c4.2-11.4,16.9-17.3,28.3-13.1c6.4,2.3,11.1,7.3,13.2,13.3h1.4c-2.6-8-8.8-14.8-17.4-18C65.5,39.6,49,47.3,43.6,62.1
			C38.2,77,45.8,93.5,60.7,98.9c14.9,5.4,31.3-2.2,36.7-17.1c1.1-3,1.7-6.1,1.7-9.1H97.6z"/>
		<path class="st0" d="M103.8,72.7c-0.2,2.9-0.7,5.7-1.8,8.6c-5.6,15.5-22.8,23.4-38.2,17.8c-15.5-5.6-23.4-22.8-17.8-38.2
			c5.6-15.5,22.8-23.4,38.2-17.8c9.4,3.4,15.9,11,18.5,19.9h1.8c-2.8-10.9-10.7-20.3-22.1-24.5c-18.3-6.7-38.6,2.7-45.3,21
			c-6.7,18.3,2.7,38.6,21,45.3c18.3,6.7,38.6-2.7,45.3-21c1.3-3.7,2-7.4,2.1-11.1H103.8z"/>
	</g>
	<g>
		<path class="st1" d="M193.3,80.6l-1,1.2c-3.9,4.8-9,7.4-14.6,7.4c-11.6,0-16.9-10.2-16.9-19.7c0-11.5,6.8-19.3,16.8-19.3
			c5.6,0,9.9,2.4,13.8,7.4l1,1.4l5.3-2.8l-1-1.8c-3.6-6.5-11.2-10.7-19.3-10.7c-12.2,0-24.8,9.6-24.8,25.7
			c0,12.8,8.6,26.5,24.6,26.5c8.6,0,16.5-4.1,20.4-10.8l1.1-1.8L193.3,80.6z"/>
		<path class="st1" d="M218.8,55.4c-7,0-12.9,3.3-16.2,9l-0.9,1.6l5.3,3.5l1-1.9c0.1-0.2,3.1-5.7,9.7-5.7c4,0,6,2.1,6,6.4v3.8
			c-2.2-0.9-5.3-1.8-8.8-1.8c-8.5,0-14.4,5.3-14.4,12.9c0,8.7,7.2,12.6,14.3,12.6c3.7,0,6.7-1.1,8.9-2.1v1.5h8V68.5
			C231.7,60.1,227.1,55.4,218.8,55.4z M215.9,89.4c-3.6,0-7.4-1.6-7.4-6.2c0-4.6,4.1-6.3,7.8-6.3c1.5,0,4,0.3,7.3,1.8v8.2
			C222.3,87.8,219.3,89.4,215.9,89.4z"/>
		<path class="st1" d="M259,55.4c-4.2,0-8.1,1.2-11.1,3.4v-2.6h-8v39.1h8V66.9c2.7-3.3,5.9-5,9.6-5c4.2,0,6.5,2.2,6.5,6.1v27.2h8
			V67.9C272.1,60.1,267.2,55.4,259,55.4z"/>
		<path class="st1" d="M295.9,55.4c-7,0-12.9,3.3-16.2,9l-0.9,1.6l5.3,3.5l1-1.9c0.1-0.2,3.1-5.7,9.7-5.7c4,0,6,2.1,6,6.4v3.8
			c-2.2-0.9-5.3-1.8-8.8-1.8c-8.5,0-14.4,5.3-14.4,12.9c0,8.7,7.2,12.6,14.3,12.6c3.7,0,6.7-1.1,8.9-2.1v1.5h8V68.5
			C308.8,60.1,304.2,55.4,295.9,55.4z M293,89.4c-3.6,0-7.4-1.6-7.4-6.2c0-4.6,4.1-6.3,7.8-6.3c1.5,0,4,0.3,7.3,1.8v8.2
			C299.4,87.8,296.4,89.4,293,89.4z"/>
		<path class="st1" d="M341.8,41.3v17.5c-2.9-2.3-6-3.4-9.4-3.4c-10,0-17.6,8.7-17.6,20.2c0,11.5,7.5,20.2,17.6,20.2
			c3.4,0,6.4-1.1,9.4-3.4v2.7h8V41.3H341.8z M333.2,89.3c-5.8,0-10.3-6-10.3-13.7c0-7.5,4.6-13.6,10.2-13.6c3.6,0,6.6,2.7,8.6,5.1
			v17.1C339.8,86.7,336.8,89.3,333.2,89.3z"/>
		<path class="st1" d="M373.6,55.4c-7,0-12.9,3.3-16.2,9l-0.9,1.6l5.3,3.5l1-1.9c0.1-0.2,3.1-5.7,9.7-5.7c4,0,6,2.1,6,6.4v3.8
			c-2.2-0.9-5.3-1.8-8.8-1.8c-8.5,0-14.4,5.3-14.4,12.9c0,8.7,7.2,12.6,14.3,12.6c3.7,0,6.7-1.1,8.9-2.1v1.5h8V68.5
			C386.5,60.1,382,55.4,373.6,55.4z M370.8,89.4c-3.6,0-7.4-1.6-7.4-6.2c0-4.6,4.1-6.3,7.8-6.3c1.5,0,4,0.3,7.3,1.8v8.2
			C377.2,87.8,374.1,89.4,370.8,89.4z"/>
		<polygon class="st1" points="416.1,88.7 416.1,44.4 407.9,44.4 407.9,95.2 441.7,95.2 441.7,88.7 		"/>
		<g>
			<path class="st1" d="M450,53.7c2.5,0,4.4-2,4.4-4.5c0-2.5-2-4.5-4.4-4.5c-2.4,0-4.5,2.1-4.5,4.5C445.5,51.7,447.6,53.7,450,53.7z
				"/>
			<rect x="446.1" y="56.1" class="st1" width="8" height="39.1"/>
		</g>
		<path class="st1" d="M472.1,52.9c0-5.7,2.5-5.6,3.8-5.7c4.5-0.4,6.7,3.1,6.7,3.1l2.9-2.8l-0.8-1.4c-1.9-3.5-5.4-5.4-9.7-5.4
			c-6.6,0-11,4.6-11,11.5v3.9h-5v6.5h5v32.6h8V62.6h9.2v-6.5h-9.2V52.9z"/>
		<path class="st1" d="M517.7,75.4c0-11.5-7.4-19.9-17.6-19.9c-10.4,0-18.8,9.2-18.8,20.4c0,11.4,8.4,20,19.7,20
			c8.6,0,13.3-4.9,15.4-7.9l1.2-1.7l-5-3.3l-1.2,1.4c-2.9,3.5-5.8,4.9-9.7,4.9c-7.7,0-11.6-5.9-12.2-11.9h28.1V75.4z M490.2,70.9
			c1.7-5.1,5.7-8.9,10-8.9c4.7,0,8.3,4.3,9.2,8.9H490.2z"/>
	</g>
</g>
</svg>
