<?xml version="1.0" encoding="utf-8"?>
<!-- Generator: Adobe Illustrator 22.1.0, SVG Export Plug-In . SVG Version: 6.00 Build 0)  -->
<svg version="1.1" id="Layer_1" xmlns="http://www.w3.org/2000/svg" xmlns:xlink="http://www.w3.org/1999/xlink" x="0px" y="0px"
	 viewBox="0 0 283.5 283.5" style="enable-background:new 0 0 283.5 283.5;" xml:space="preserve">
<style type="text/css">
	.st0{fill:#FFF300;}
</style>
<g>
	<g>
		<path d="M276.6,274.7c-89.9,0-179.7,0-269.7,0c0-0.4,0-0.7,0-1c0-65.7,0-131.4,0-197.1c0-0.7,0.2-1,0.8-1.3
			c16.4-8.2,32.7-16.4,49.1-24.6c19.8-9.9,39.6-19.8,59.4-29.8C124.1,17,131.9,13,139.8,9c0.5-0.3,0.9-0.3,1.5,0
			c10.6,5.3,21.3,10.5,31.9,15.7c11.3,5.6,22.7,11.2,34,16.8c14.2,7,28.4,14,42.6,21c8.7,4.3,17.4,8.6,26.2,12.9
			c0.3,0.1,0.5,0.6,0.6,0.9c0.1,0.6,0,1.2,0,1.8c0,65.1,0,130.2,0,195.3C276.6,273.8,276.6,274.2,276.6,274.7z M15.1,266.4
			c84.5,0,168.8,0,253.3,0c0-0.4,0-0.7,0-1c0-61.1,0-122.3,0-183.4c0-0.9-0.3-1.3-1.1-1.7c-8.3-4.1-16.6-8.1-24.8-12.2
			c-16.6-8.2-33.3-16.4-49.9-24.6c-11-5.4-21.9-10.8-32.9-16.2c-6.1-3-12.3-6.1-18.5-9.1c-0.3-0.2-0.9-0.2-1.2,0
			c-8.1,4-16.2,8.1-24.4,12.2c-15.4,7.7-30.8,15.4-46.1,23.2c-17.7,8.9-35.4,17.8-53.2,26.6c-1,0.5-1.3,1.1-1.3,2.1
			c0,61.1,0,122.1,0,183.2C15.1,265.7,15.1,266,15.1,266.4z"/>
		<path class="st0" d="M15.1,266.4c0-0.4,0-0.7,0-1c0-61.1,0-122.1,0-183.2c0-1.1,0.3-1.7,1.3-2.1c17.7-8.8,35.4-17.7,53.2-26.6
			c15.4-7.7,30.8-15.4,46.1-23.2c8.1-4.1,16.2-8.1,24.4-12.2c0.3-0.2,0.9-0.1,1.2,0c6.2,3,12.3,6.1,18.5,9.1
			c11,5.4,21.9,10.8,32.9,16.2c16.6,8.2,33.3,16.4,49.9,24.6c8.3,4.1,16.6,8.2,24.8,12.2c0.8,0.4,1.1,0.8,1.1,1.7
			c0,61.1,0,122.3,0,183.4c0,0.3,0,0.6,0,1C184,266.4,99.6,266.4,15.1,266.4z M107.8,198.3c-0.2,0-0.3-0.1-0.5-0.1
			c-6.1,0-12.3,0-18.4,0c-0.6,0-0.7,0.2-0.7,0.7c0,1.5,0.1,2.9,0,4.4c0,0.8,0.2,1,1,1c1.5-0.1,2.9,0,4.4,0c0,7.2,0,14.2,0,21.3
			c-1.1,0-2.1,0-3.1,0c-2.3,0-2.3,0-2.3,2.3c0,1.1,0,2.1,0,3.4c-3.7-4.8-7.3-9.3-10.9-14c0.3-0.2,0.5-0.3,0.7-0.4s0.4-0.2,0.6-0.4
			c3.4-2,5.2-4.9,5.2-9c0-3.9-1.7-6.5-5.2-8.2c-2.1-1-4.4-1.2-6.7-1.2c-4.9-0.1-9.8,0-14.7,0c-0.3,0-0.7,0-1,0c0,11.2,0,22.3,0,33.4
			c2.9,0,5.7,0,8.6,0c0-4.1,0-8.1,0-12.2c1,0,1.9,0.1,2.8,0c0.8-0.1,1.3,0.2,1.7,0.9c2.6,3.6,5.3,7.1,7.9,10.7
			c0.4,0.5,0.7,0.7,1.4,0.7c9.4,0,18.8,0,28.2,0c0.3,0,0.6,0,0.9-0.1c0-2,0-4,0-6c-1.8,0-3.6,0-5.3,0c0-7.1,0-14.2,0-21.3
			c1.8,0,3.6,0,5.3,0C107.8,202.2,107.8,200.3,107.8,198.3z M113.3,169.4c0.1,0,0.1,0,0.2,0c0,0.1,0,0.3,0,0.4c0,6.7,0,13.5,0,20.2
			c0,0.8,0.2,1,1,1c2.3-0.1,4.6,0,6.8,0c0.6,0,0.9-0.1,0.9-0.8c0-10.6,0-21.2,0-31.8c0-0.7-0.2-0.8-0.9-0.8c-2.8,0-5.6,0-8.4,0
			c-0.6,0-0.9,0.2-1.1,0.7c-1.8,4.2-3.7,8.3-5.6,12.5c-0.5,1.1-1,2.1-1.5,3.3c-0.1-0.1-0.2-0.2-0.2-0.2c-2.3-5.2-4.6-10.3-6.9-15.5
			c-0.2-0.4-0.4-0.8-1-0.8c-2.9,0-5.8,0-8.7,0c-0.6,0-0.7,0.2-0.7,0.8c0,10.6,0,21.3,0,31.9c0,0.7,0.2,0.8,0.8,0.8
			c2.2,0,4.4,0,6.7,0c0.2,0,0.4-0.1,0.7-0.1c0-7.2,0-14.4,0-21.5c0.3,0.2,0.4,0.5,0.5,0.8c1.8,4.1,3.5,8.2,5.3,12.3
			c0.2,0.5,0.4,0.7,1,0.7c1.2,0,2.3-0.1,3.5,0c1.5,0.2,2.1-0.4,2.6-1.7C109.8,177.4,111.6,173.4,113.3,169.4z M138.8,198.3
			c0,11.2,0,22.3,0,33.4c2.4,0,4.6,0,6.9,0c0.8,0,1-0.2,1-1c0-6.8,0-13.6,0-20.3c0-0.3,0-0.7,0-1c0.4,0.3,0.6,0.6,0.7,0.9
			c4.3,6.9,8.6,13.9,12.9,20.8c0.3,0.4,0.6,0.7,1.1,0.7c2.3,0,4.6,0,6.8,0c0.6,0,0.8-0.2,0.8-0.8c0-10.6,0-21.3,0-31.9
			c0-0.6-0.2-0.8-0.8-0.8c-2.1,0-4.2,0.1-6.3,0c-0.8,0-1,0.2-1,1c0,5.6,0,11.2,0,16.8c0,0.3,0,0.5-0.1,1c-0.3-0.4-0.5-0.7-0.6-1
			c-3.6-5.7-7.2-11.4-10.9-17.1c-0.2-0.3-0.5-0.7-0.8-0.7C145.4,198.2,142.1,198.3,138.8,198.3z M173.9,231.6
			c0.2,0.1,0.2,0.1,0.3,0.1c5.7-0.1,11.4,0.4,17-0.4c3.1-0.4,6-1.5,8.5-3.6c4.4-3.8,6.1-8.8,5.7-14.5c-0.5-5.7-3.1-10.1-8.1-12.8
			c-3-1.6-6.3-2.1-9.6-2.1c-4.3-0.1-8.6,0-12.9,0c-0.3,0-0.6,0-0.9,0.1C173.9,209.5,173.9,220.5,173.9,231.6z M193.9,136
			c0.2-0.1,0.3-0.2,0.5-0.3c4.4-2.3,6.4-5.8,6-10.8c-0.2-2.4-1.3-4.2-3.1-5.6c-2.6-2-5.6-2.4-8.7-2.4c-4.9,0-9.8,0-14.7,0
			c-0.3,0-0.7,0-1,0c0,11.2,0,22.3,0,33.4c2.9,0,5.7,0,8.6,0c0-4.1,0-8.1,0-12.2c1,0,2,0.1,2.9,0c0.7-0.1,1.1,0.2,1.5,0.8
			c2.7,3.7,5.4,7.3,8.1,10.9c0.2,0.3,0.7,0.5,1.1,0.6c3.1,0,6.1,0,9.2,0c0.2,0,0.4-0.1,0.8-0.1C201.3,145.4,197.6,140.7,193.9,136z
			 M86.2,191c-0.1-0.4-0.1-0.6-0.2-0.8c-3.9-10.6-7.9-21.3-11.8-31.9c-0.2-0.5-0.4-0.7-1-0.7c-2.8,0-5.6,0-8.4,0
			c-0.7,0-1,0.3-1.3,0.9c-3.7,10.1-7.5,20.2-11.2,30.3c-0.2,0.7-0.5,1.4-0.7,2.1c0.2,0.1,0.3,0.1,0.4,0.1c2.6,0,5.2,0,7.7,0
			c0.5,0,0.7-0.2,0.8-0.6c0.6-1.8,1.2-3.6,1.9-5.4c0.1-0.3,0.5-0.6,0.7-0.6c3.9,0,7.7,0,11.7,0c0.1,0.3,0.2,0.5,0.3,0.8
			c0.6,1.8,1.2,3.6,1.9,5.4c0.1,0.2,0.4,0.5,0.6,0.5C80.4,191,83.2,191,86.2,191z M55.1,116.9c0.4,0.5,0.6,0.9,0.8,1.2
			c3.4,4.9,6.8,9.7,10.2,14.5c0.4,0.6,0.5,1,0,1.7c-3.2,4.5-6.3,8.9-9.5,13.4c-0.6,0.8-1.1,1.6-1.7,2.5c0.2,0.1,0.3,0.1,0.4,0.1
			c2.9,0,5.8,0,8.7,0c0.3,0,0.6-0.3,0.8-0.5c1.4-2,2.8-4.1,4.2-6.2c0.9-1.4,1.8-2.7,2.8-4.1c2.3,3.5,4.5,6.8,6.7,10.2
			c0.3,0.5,0.6,0.7,1.2,0.7c2.8,0,5.6,0,8.4,0c0.2,0,0.5,0,0.9-0.1c-0.2-0.4-0.4-0.6-0.5-0.8c-3.6-5.2-7.1-10.3-10.7-15.5
			c-0.4-0.6-0.4-1,0.1-1.6c3.5-4.8,7-9.6,10.4-14.5c0.2-0.3,0.4-0.6,0.6-1c-3.2,0-6.3,0-9.3,0c-0.2,0-0.6,0.3-0.7,0.5
			c-1.1,1.6-2.2,3.2-3.3,4.7c-1.1,1.7-2.3,3.3-3.4,5c-0.2-0.3-0.4-0.5-0.5-0.7c-2-2.9-3.9-5.9-5.9-8.8c-0.2-0.3-0.6-0.7-0.8-0.7
			C61.6,116.9,58.5,116.9,55.1,116.9z M170.7,117c-8.1,0-16.1,0-24.2,0c0,0.3,0,0.6,0,0.9c0,10.5,0,21,0,31.5c0,0.8,0.3,1,1,1
			c7.4,0,14.8,0,22.2,0c0.3,0,0.6,0,0.9,0c0-2.2,0-4.4,0-6.6c-5.2,0-10.2,0-15.3,0c0-2.7,0-5.3,0-8c4.8,0,9.5,0,14.3,0
			c0-2.2,0-4.3,0-6.6c-4.8,0-9.5,0-14.3,0c0-1.9,0-3.7,0-5.6c5.2,0,10.2,0,15.4,0C170.7,121.3,170.7,119.1,170.7,117z M30.2,150.2
			c0.2,0,0.2,0.1,0.3,0.1c7.7,0,15.5,0,23.2,0c0.5,0,0.7-0.2,0.7-0.7c0-1.7-0.1-3.3,0-5c0-0.8-0.3-1-1-1c-4.5,0-9.1,0-13.6,0
			c-0.3,0-0.6,0-1,0c0-2.4,0-4.8,0-7.1c0-0.7,0.2-1,0.9-0.9c4.2,0,8.5,0,12.7,0c0.2,0,0.5,0,0.9-0.1c0-1.9,0-3.8,0-5.7
			c0-0.7-0.2-0.9-0.9-0.9c-4.1,0-8.2,0-12.3,0c-0.4,0-0.8,0-1.3,0c0-1.9,0-3.7,0-5.6c0.4,0,0.7,0,1,0c4.5,0,9.1,0,13.6,0
			c0.7,0,1-0.2,1-0.9c-0.1-1.5-0.1-3.1,0-4.6c0-0.9-0.2-1.1-1.1-1.1c-7.4,0-14.7,0-22.1,0c-0.3,0-0.6,0-1,0
			C30.2,128.1,30.2,139.1,30.2,150.2z M135.3,225.1c-5.2,0-10.3,0-15.5,0c0-0.3-0.1-0.6-0.1-0.9c0-2.1,0-4.2,0-6.3
			c0-0.7,0.2-0.9,1-0.9c4.1,0,8.2,0,12.3,0c0.4,0,0.7,0,1.1,0c0-2.2,0-4.4,0-6.6c-0.4,0-0.7,0-1,0c-3.6,0-7.3,0-10.9,0
			c-2.4,0-2.4,0-2.4-2.4c0-1,0-2.1,0-3.2c0.5,0,0.9,0,1.2,0c4.4,0,8.8,0,13.2,0c0.9,0,1.2-0.3,1.1-1.2c-0.1-1.5-0.1-3,0-4.4
			c0-0.8-0.2-1-1-1c-7.5,0-14.9,0-22.4,0c-0.2,0-0.5,0-0.8,0.1c0,11.1,0,22.2,0,33.4c0.4,0,0.7,0,1,0c5.3,0,10.7,0,16,0
			c2.1,0,4.2,0,6.3,0c0.4,0,0.8,0.1,0.8-0.5C135.3,229.2,135.3,227.2,135.3,225.1z M90,150.2c0.2,0,0.3,0.1,0.4,0.1
			c7.7,0,15.3,0,23,0c0.6,0,0.7-0.2,0.7-0.7c0-1.6-0.1-3.3,0-4.9c0-0.8-0.2-1-1-1c-4.5,0-9,0-13.5,0c-0.3,0-0.6,0-1,0
			c0-0.4-0.1-0.7-0.1-1c0-2.1,0-4.1,0-6.2c0-0.8,0.3-0.9,1-0.9c4.1,0,8.2,0,12.3,0c0.3,0,0.7,0,1,0c0-2.3,0-4.4,0-6.6
			c-1.6,0-3,0-4.5,0c-3,0-6,0-9,0c-0.3,0-0.8-0.2-0.8-0.4c-0.1-1.7,0-3.4,0-5.1c0.3,0,0.5,0,0.7,0c4.6,0,9.2,0,13.9,0
			c0.7,0,1-0.2,1-0.9c-0.1-1.6-0.1-3.1,0-4.7c0-0.8-0.2-1-1-1c-7.4,0-14.9,0-22.3,0c-0.3,0-0.6,0-0.9,0.1
			C90,128.1,90,139.1,90,150.2z M52.9,176.8c0-2.3,0-4.4,0-6.6c-4.7,0-9.4,0-14.1,0c0-2,0-4,0-6c5.1,0,10.2,0,15.3,0
			c0-1.9,0-3.8,0-5.6c0-0.8-0.2-1-1-1c-7.3,0-14.6,0-21.9,0c-0.3,0-0.7,0-1,0c0,11.2,0,22.3,0,33.4c2.9,0,5.7,0,8.6,0
			c0-4.7,0-9.4,0-14.1C43.5,176.8,48.2,176.8,52.9,176.8z M52.9,210.9c-4.7,0-9.4,0-14.1,0c0-2.1,0-4,0-6.1c0.4,0,0.7,0,1,0
			c4.5,0,8.9,0,13.4,0c0.6,0,0.9-0.2,0.9-0.9c-0.1-0.8,0-1.5,0-2.3c0-1.1,0-2.2,0-3.4c-8.1,0-16,0-23.9,0c0,11.1,0,22.2,0,33.3
			c2.9,0,5.7,0,8.6,0c0-4.7,0-9.4,0-14.2c4.8,0,9.5,0,14.1,0C52.9,215.2,52.9,213.1,52.9,210.9z M164.4,157.6
			c0.2,0.4,0.3,0.7,0.5,0.9c3.8,6.4,7.7,12.8,11.5,19.2c0.2,0.4,0.4,1,0.4,1.5c0,3.6,0,7.2,0,10.8c0,0.7,0.2,1,1,0.9
			c1.8-0.1,3.7,0,5.5,0c0.7,0,1.5,0,2.3,0c0-0.4,0-0.8,0-1.1c0-3.7,0-7.3,0-11c0-0.5,0.2-1,0.4-1.5c3.8-6.4,7.6-12.7,11.5-19.1
			c0.1-0.2,0.2-0.4,0.4-0.8c-3.1,0-6.1,0-9,0c-0.3,0-0.7,0.3-0.8,0.6c-1.2,2.2-2.5,4.5-3.7,6.8c-0.9,1.7-1.9,3.5-2.9,5.3
			c-0.2-0.3-0.3-0.6-0.5-0.8c-2.1-3.7-4.2-7.4-6.2-11.2c-0.3-0.6-0.6-0.8-1.3-0.8c-2.7,0-5.3,0-8,0
			C165.1,157.6,164.8,157.6,164.4,157.6z M239.9,211c-0.2-0.4-0.4-0.6-0.5-0.9c-2.1-3.7-4.2-7.4-6.2-11.2c-0.3-0.5-0.6-0.7-1.2-0.7
			c-2.3,0-4.7,0-7,0c-0.6,0-1.3,0-2.1,0c0.2,0.4,0.3,0.7,0.5,0.9c3.8,6.4,7.7,12.8,11.5,19.2c0.3,0.5,0.5,1.1,0.5,1.7
			c0.1,3.1,0,6.2,0,9.3c0,0.7,0,1.5,0,2.2c2.9,0,5.7,0,8.7,0c0-0.5,0-0.9,0-1.4c0-3.6,0-7.1,0-10.7c0-0.4,0.1-1,0.3-1.4
			c3.7-6.2,7.5-12.5,11.2-18.7c0.2-0.4,0.4-0.8,0.7-1.3c-3,0-5.8,0-8.6,0c-0.7,0-1,0.2-1.4,0.8C244.2,203,242,206.9,239.9,211z
			 M115.6,123.5c3.5,0,6.9,0,10.4,0c0,9,0,17.9,0,26.8c3,0,5.8,0,8.7,0c0-8.9,0-17.8,0-26.8c0.4,0,0.7,0,1,0c2.8,0,5.7,0,8.5,0
			c0.3,0,0.8-0.2,0.8-0.4c0.1-2,0-4.1,0-6.1c-0.4,0-0.7-0.1-1-0.1c-9.2,0-18.3,0-27.4,0c-0.2,0-0.4-0.1-0.6,0
			c-0.2,0.1-0.4,0.3-0.4,0.5C115.6,119.4,115.6,121.3,115.6,123.5z M130.8,163.6c0,7.1,0,14.2,0,21.2c-0.1,0-0.2,0-0.2,0
			c-1.4,0-2.8,0.1-4.3,0c-0.7,0-0.9,0.2-0.9,0.9c0,1.3,0,2.7,0,4c0,1.2,0,1.2,1.1,1.2c5.8,0,11.7,0,17.5,0c0.3,0,0.6,0,0.9,0
			c0-2,0-4,0-6.1c-1.8,0-3.5,0-5.3,0c0-7.1,0-14.2,0-21.3c1.8,0,3.5,0,5.3,0c0-2,0-4,0-6c-0.2,0-0.3-0.1-0.5-0.1
			c-6.1,0-12.3,0-18.4,0c-0.6,0-0.7,0.2-0.7,0.7c0,1.5,0,3,0,4.5c0,0.7,0.3,0.8,0.9,0.8C127.8,163.6,129.2,163.6,130.8,163.6z
			 M157,184.4c0-0.5,0-0.8,0-1.1c0-8.2,0-16.5,0-24.7c0-0.8-0.2-1-1-1c-2.3,0.1-4.5,0.1-6.8,0c-0.8,0-1,0.3-1,1c0,10.5,0,21,0,31.5
			c0,0.8,0.2,1,1,1c7.4,0,14.9,0,22.3,0c0.3,0,0.6,0,0.9-0.1c0-1.9,0-3.7,0-5.6c0-0.8-0.2-1-1-1c-4.5,0-8.9,0-13.4,0
			C157.8,184.4,157.5,184.4,157,184.4z M216.9,198.3c-2.6,0-5.2,0-7.7,0c-0.9,0-1.1,0.3-1.1,1.1c0,6.7,0,13.5,0,20.2
			c0,3.8,0,7.5,0,11.3c0,0.5,0,0.9,0.7,0.9c7.6,0,15.2,0,22.7,0c0.5,0,0.7-0.2,0.7-0.7c0-1.7,0-3.3,0-5c0-0.8-0.2-0.9-1-0.9
			c-4.5,0-9,0-13.5,0c-0.3,0-0.6,0-1,0C216.9,216.1,216.9,207.3,216.9,198.3z"/>
		<path d="M107.8,198.3c0,2,0,3.9,0,6c-1.8,0-3.5,0-5.3,0c0,7.1,0,14.2,0,21.3c1.8,0,3.5,0,5.3,0c0,2.1,0,4,0,6
			c-0.3,0-0.6,0.1-0.9,0.1c-9.4,0-18.8,0-28.2,0c-0.6,0-1-0.2-1.4-0.7c-2.6-3.6-5.3-7.1-7.9-10.7c-0.5-0.6-1-0.9-1.7-0.9
			c-0.9,0.1-1.8,0-2.8,0c0,4.1,0,8.1,0,12.2c-2.9,0-5.7,0-8.6,0c0-11.1,0-22.2,0-33.4c0.4,0,0.7,0,1,0c4.9,0,9.8,0,14.7,0
			c2.3,0,4.5,0.2,6.7,1.2c3.4,1.7,5.2,4.3,5.2,8.2c0,4-1.8,6.9-5.2,9c-0.2,0.1-0.4,0.2-0.6,0.4c-0.2,0.1-0.4,0.2-0.7,0.4
			c3.6,4.6,7.1,9.2,10.9,14c0-1.3,0-2.4,0-3.4c0-2.3,0-2.3,2.3-2.3c1,0,2,0,3.1,0c0-7.1,0-14.1,0-21.3c-1.5,0-3-0.1-4.4,0
			c-0.8,0-1-0.2-1-1c0.1-1.5,0-2.9,0-4.4c0-0.5,0.1-0.7,0.7-0.7c6.1,0,12.3,0,18.4,0C107.4,198.3,107.6,198.3,107.8,198.3z
			 M64.9,213.3c1.4,0,2.8,0,4.1,0c0.8,0,1.7-0.1,2.5-0.3c2.1-0.5,3.4-2.2,3.4-4.4c0-2.1-1-3.5-3.1-3.8c-2.2-0.3-4.5-0.3-6.8-0.4
			C64.9,207.5,64.9,210.4,64.9,213.3z"/>
		<path d="M113.3,169.4c-1.7,4-3.5,8-5.1,12.1c-0.5,1.3-1.2,1.9-2.6,1.7c-1.1-0.1-2.3-0.1-3.5,0c-0.5,0-0.8-0.2-1-0.7
			c-1.7-4.1-3.5-8.2-5.3-12.3c-0.1-0.3-0.2-0.6-0.5-0.8c0,7.1,0,14.3,0,21.5c-0.3,0-0.5,0.1-0.7,0.1c-2.2,0-4.4,0-6.7,0
			c-0.6,0-0.8-0.1-0.8-0.8c0-10.6,0-21.3,0-31.9c0-0.6,0.2-0.8,0.7-0.8c2.9,0,5.8,0,8.7,0c0.6,0,0.8,0.4,1,0.8
			c2.3,5.2,4.6,10.3,6.9,15.5c0,0.1,0.1,0.1,0.2,0.2c0.5-1.1,1-2.2,1.5-3.3c1.9-4.2,3.7-8.3,5.6-12.5c0.2-0.5,0.5-0.7,1.1-0.7
			c2.8,0,5.6,0,8.4,0c0.6,0,0.9,0.1,0.9,0.8c0,10.6,0,21.2,0,31.8c0,0.7-0.2,0.8-0.9,0.8c-2.3,0-4.6,0-6.8,0c-0.8,0-1-0.2-1-1
			c0-6.7,0-13.5,0-20.2c0-0.1,0-0.3,0-0.4C113.4,169.4,113.4,169.4,113.3,169.4z"/>
		<path d="M138.8,198.3c3.4,0,6.6,0,9.9,0c0.3,0,0.6,0.4,0.8,0.7c3.6,5.7,7.3,11.4,10.9,17.1c0.2,0.3,0.4,0.6,0.6,1
			c0-0.4,0.1-0.7,0.1-1c0-5.6,0-11.2,0-16.8c0-0.8,0.2-1,1-1c2.1,0.1,4.2,0,6.3,0c0.6,0,0.8,0.2,0.8,0.8c0,10.6,0,21.3,0,31.9
			c0,0.6-0.2,0.8-0.8,0.8c-2.3,0-4.6,0-6.8,0c-0.6,0-0.8-0.2-1.1-0.7c-4.3-6.9-8.6-13.9-12.9-20.8c-0.2-0.3-0.4-0.6-0.7-0.9
			c0,0.3,0,0.7,0,1c0,6.8,0,13.6,0,20.3c0,0.8-0.2,1.1-1,1c-2.3-0.1-4.5,0-6.9,0C138.8,220.5,138.8,209.5,138.8,198.3z"/>
		<path d="M173.9,231.6c0-11.1,0-22.1,0-33.3c0.3,0,0.6-0.1,0.9-0.1c4.3,0,8.6-0.1,12.9,0c3.3,0.1,6.6,0.5,9.6,2.1
			c5,2.8,7.7,7.1,8.1,12.8c0.5,5.8-1.3,10.7-5.7,14.5c-2.4,2.1-5.3,3.2-8.5,3.6c-5.7,0.7-11.4,0.3-17,0.4
			C174.1,231.7,174.1,231.6,173.9,231.6z M182.6,225.2c0.3,0,0.5,0.1,0.7,0c1.7-0.1,3.4,0,5.1-0.2c3.6-0.3,6.5-2.8,7.5-6.3
			c0.6-2.1,0.6-4.1,0.3-6.2c-0.6-4.2-3.4-7.1-7.5-7.7c-2-0.3-3.9-0.1-5.9-0.2c0,0-0.1,0.1-0.2,0.1
			C182.6,211.6,182.6,218.4,182.6,225.2z"/>
		<path d="M193.9,136c3.7,4.7,7.3,9.4,11.1,14.2c-0.3,0.1-0.6,0.1-0.8,0.1c-3.1,0-6.1,0-9.2,0c-0.4,0-0.9-0.2-1.1-0.6
			c-2.7-3.6-5.4-7.2-8.1-10.9c-0.4-0.6-0.8-0.8-1.5-0.8c-0.9,0.1-1.9,0-2.9,0c0,4.1,0,8.1,0,12.2c-2.9,0-5.7,0-8.6,0
			c0-11.1,0-22.2,0-33.4c0.4,0,0.7,0,1,0c4.9,0,9.8,0,14.7,0c3.1,0,6.1,0.4,8.7,2.4c1.8,1.4,2.9,3.3,3.1,5.6c0.5,5-1.6,8.5-6,10.8
			C194.3,135.8,194.2,135.9,193.9,136z M181.5,131.8c1.9,0,3.7,0,5.5,0c0.4,0,0.8-0.1,1.1-0.2c2-0.5,3.3-2.2,3.4-4.3
			c0-2.1-0.9-3.5-3.1-3.8c-2.3-0.4-4.6-0.3-6.9-0.4C181.5,126.1,181.5,129,181.5,131.8z"/>
		<path d="M86.2,191c-2.9,0-5.7,0-8.5,0c-0.2,0-0.6-0.3-0.6-0.5c-0.7-1.8-1.3-3.6-1.9-5.4c-0.1-0.2-0.2-0.5-0.3-0.8
			c-3.9,0-7.8,0-11.7,0c-0.3,0-0.6,0.4-0.7,0.6c-0.7,1.8-1.3,3.6-1.9,5.4c-0.1,0.4-0.3,0.6-0.8,0.6c-2.6,0-5.2,0-7.7,0
			c-0.1,0-0.2,0-0.4-0.1c0.2-0.7,0.5-1.4,0.7-2.1c3.7-10.1,7.5-20.2,11.2-30.3c0.2-0.6,0.5-0.9,1.3-0.9c2.8,0.1,5.6,0,8.4,0
			c0.6,0,0.8,0.2,1,0.7c3.9,10.6,7.9,21.3,11.8,31.9C86,190.4,86,190.6,86.2,191z M68.8,166.4c-1.4,4-2.7,7.7-4,11.6
			c2.7,0,5.3,0,7.9,0C71.4,174.1,70.1,170.4,68.8,166.4z"/>
		<path d="M55.1,116.9c3.4,0,6.5,0,9.7,0c0.3,0,0.6,0.4,0.8,0.7c2,2.9,4,5.9,5.9,8.8c0.1,0.2,0.3,0.4,0.5,0.7c1.2-1.7,2.3-3.3,3.4-5
			c1.1-1.6,2.2-3.2,3.3-4.7c0.2-0.2,0.5-0.5,0.7-0.5c3,0,6,0,9.3,0c-0.3,0.4-0.4,0.7-0.6,1c-3.5,4.8-6.9,9.7-10.4,14.5
			c-0.4,0.6-0.5,1-0.1,1.6c3.6,5.1,7.1,10.3,10.7,15.5c0.2,0.2,0.3,0.5,0.5,0.8c-0.4,0-0.6,0.1-0.9,0.1c-2.8,0-5.6,0-8.4,0
			c-0.6,0-0.9-0.2-1.2-0.7c-2.2-3.4-4.4-6.7-6.7-10.2c-1,1.4-1.9,2.8-2.8,4.1c-1.4,2.1-2.8,4.1-4.2,6.2c-0.2,0.2-0.5,0.5-0.8,0.5
			c-2.9,0-5.8,0-8.7,0c-0.1,0-0.2,0-0.4-0.1c0.6-0.9,1.1-1.7,1.7-2.5c3.2-4.5,6.3-9,9.5-13.4c0.5-0.6,0.4-1.1,0-1.7
			c-3.4-4.8-6.8-9.7-10.2-14.5C55.7,117.7,55.4,117.4,55.1,116.9z"/>
		<path d="M170.7,117c0,2.2,0,4.3,0,6.5c-5.1,0-10.2,0-15.4,0c0,1.9,0,3.7,0,5.6c4.7,0,9.5,0,14.3,0c0,2.2,0,4.4,0,6.6
			c-4.8,0-9.5,0-14.3,0c0,2.7,0,5.3,0,8c5.1,0,10.2,0,15.3,0c0,2.2,0,4.4,0,6.6c-0.3,0-0.6,0-0.9,0c-7.4,0-14.8,0-22.2,0
			c-0.7,0-1-0.1-1-1c0-10.5,0-21,0-31.5c0-0.3,0-0.5,0-0.9C154.6,117,162.6,117,170.7,117z"/>
		<path d="M30.2,150.2c0-11.1,0-22.2,0-33.4c0.4,0,0.7,0,1,0c7.4,0,14.7,0,22.1,0c0.9,0,1.1,0.2,1.1,1.1c-0.1,1.5-0.1,3.1,0,4.6
			c0,0.8-0.3,0.9-1,0.9c-4.5,0-9.1,0-13.6,0c-0.3,0-0.6,0-1,0c0,1.9,0,3.7,0,5.6c0.4,0,0.9,0,1.3,0c4.1,0,8.2,0,12.3,0
			c0.7,0,0.9,0.2,0.9,0.9c-0.1,1.8,0,3.7,0,5.7c-0.3,0-0.6,0.1-0.9,0.1c-4.2,0-8.5,0-12.7,0c-0.7,0-1,0.2-0.9,0.9
			c0.1,2.3,0,4.7,0,7.1c0.4,0,0.7,0,1,0c4.5,0,9.1,0,13.6,0c0.7,0,1,0.1,1,1c-0.1,1.7,0,3.3,0,5c0,0.5-0.1,0.7-0.7,0.7
			c-7.7,0-15.5,0-23.2,0C30.4,150.3,30.3,150.3,30.2,150.2z"/>
		<path d="M135.3,225.1c0,2.1,0,4.1,0,6.1c0,0.6-0.4,0.5-0.8,0.5c-2.1,0-4.2,0-6.3,0c-5.3,0-10.7,0-16,0c-0.3,0-0.6,0-1,0
			c0-11.2,0-22.2,0-33.4c0.2,0,0.5-0.1,0.8-0.1c7.5,0,14.9,0,22.4,0c0.8,0,1,0.2,1,1c-0.1,1.5-0.1,3,0,4.4c0,0.9-0.2,1.2-1.1,1.2
			c-4.4-0.1-8.8,0-13.2,0c-0.4,0-0.7,0-1.2,0c0,1.1,0,2.2,0,3.2c0,2.4,0,2.4,2.4,2.4c3.6,0,7.3,0,10.9,0c0.3,0,0.6,0,1,0
			c0,2.2,0,4.3,0,6.6c-0.4,0-0.7,0-1.1,0c-4.1,0-8.2,0-12.3,0c-0.7,0-1,0.2-1,0.9c0,2.1,0,4.2,0,6.3c0,0.3,0,0.5,0.1,0.9
			C125,225.1,130.1,225.1,135.3,225.1z"/>
		<path d="M90,150.2c0-11.1,0-22.2,0-33.3c0.3,0,0.6-0.1,0.9-0.1c7.4,0,14.9,0,22.3,0c0.8,0,1,0.2,1,1c-0.1,1.6-0.1,3.1,0,4.7
			c0,0.7-0.2,0.9-1,0.9c-4.6,0-9.2,0-13.9,0c-0.2,0-0.4,0-0.7,0c0,1.7,0,3.4,0,5.1c0,0.1,0.5,0.4,0.8,0.4c3,0,6,0,9,0
			c1.5,0,2.9,0,4.5,0c0,2.2,0,4.3,0,6.6c-0.3,0-0.7,0-1,0c-4.1,0-8.2,0-12.3,0c-0.7,0-1,0.1-1,0.9c0.1,2.1,0,4.1,0,6.2
			c0,0.3,0,0.6,0.1,1c0.4,0,0.7,0,1,0c4.5,0,9,0,13.5,0c0.8,0,1,0.2,1,1c-0.1,1.6,0,3.3,0,4.9c0,0.5-0.2,0.7-0.7,0.7
			c-7.7,0-15.3,0-23,0C90.3,150.3,90.2,150.3,90,150.2z"/>
		<path d="M52.9,176.8c-4.7,0-9.4,0-14.1,0c0,4.7,0,9.4,0,14.1c-2.9,0-5.7,0-8.6,0c0-11.1,0-22.2,0-33.4c0.4,0,0.7,0,1,0
			c7.3,0,14.6,0,21.9,0c0.8,0,1,0.2,1,1c-0.1,1.8,0,3.7,0,5.6c-5.2,0-10.2,0-15.3,0c0,2,0,4,0,6c4.7,0,9.3,0,14.1,0
			C52.9,172.4,52.9,174.5,52.9,176.8z"/>
		<path d="M52.9,210.9c0,2.2,0,4.3,0,6.5c-4.7,0-9.3,0-14.1,0c0,4.8,0,9.5,0,14.2c-2.9,0-5.7,0-8.6,0c0-11.1,0-22.2,0-33.3
			c7.9,0,15.8,0,23.9,0c0,1.1,0,2.3,0,3.4c0,0.8,0,1.5,0,2.3c0,0.7-0.2,0.9-0.9,0.9c-4.5,0-8.9,0-13.4,0c-0.3,0-0.6,0-1,0
			c0,2,0,4,0,6.1C43.5,210.9,48.2,210.9,52.9,210.9z"/>
		<path d="M164.4,157.6c0.4,0,0.7-0.1,1-0.1c2.7,0,5.3,0,8,0c0.7,0,1,0.2,1.3,0.8c2,3.7,4.1,7.4,6.2,11.2c0.1,0.2,0.3,0.4,0.5,0.8
			c1-1.8,1.9-3.6,2.9-5.3c1.2-2.3,2.4-4.5,3.7-6.8c0.2-0.3,0.5-0.6,0.8-0.6c2.9-0.1,5.9,0,9,0c-0.1,0.3-0.2,0.6-0.4,0.8
			c-3.8,6.4-7.7,12.7-11.5,19.1c-0.2,0.4-0.4,1-0.4,1.5c0,3.7,0,7.3,0,11c0,0.3,0,0.6,0,1.1c-0.8,0-1.5,0-2.3,0c-1.8,0-3.7,0-5.5,0
			c-0.7,0-1-0.2-1-0.9c0-3.6,0-7.2,0-10.8c0-0.5-0.2-1-0.4-1.5c-3.8-6.4-7.6-12.8-11.5-19.2C164.7,158.3,164.6,158,164.4,157.6z"/>
		<path d="M239.9,211c2.2-4.1,4.3-8,6.4-11.9c0.3-0.6,0.7-0.8,1.4-0.8c2.8,0,5.6,0,8.6,0c-0.3,0.5-0.5,0.9-0.7,1.3
			c-3.7,6.2-7.5,12.5-11.2,18.7c-0.2,0.4-0.3,0.9-0.3,1.4c0,3.6,0,7.1,0,10.7c0,0.4,0,0.9,0,1.4c-2.9,0-5.8,0-8.7,0
			c0-0.8,0-1.5,0-2.2c0-3.1,0-6.2,0-9.3c0-0.6-0.2-1.2-0.5-1.7c-3.8-6.4-7.6-12.8-11.5-19.2c-0.1-0.2-0.3-0.5-0.5-0.9
			c0.8,0,1.4,0,2.1,0c2.3,0,4.7,0,7,0c0.6,0,0.9,0.2,1.2,0.7c2,3.7,4.1,7.4,6.2,11.2C239.5,210.3,239.6,210.6,239.9,211z"/>
		<path d="M115.6,123.5c0-2.1,0-4.1,0-6.1c0-0.2,0.3-0.4,0.5-0.5c0.2-0.1,0.4,0,0.6,0c9.2,0,18.3,0,27.4,0c0.3,0,0.6,0,1,0.1
			c0,2.1,0,4.1,0,6.1c0,0.1-0.5,0.4-0.8,0.4c-2.8,0-5.7,0-8.5,0c-0.3,0-0.6,0-1,0c0,9,0,17.8,0,26.8c-2.9,0-5.7,0-8.7,0
			c0-8.9,0-17.8,0-26.8C122.5,123.5,119.1,123.5,115.6,123.5z"/>
		<path d="M130.8,163.6c-1.6,0-3,0-4.5,0c-0.6,0-0.9-0.1-0.9-0.8c0-1.5,0-3,0-4.5c0-0.5,0.1-0.7,0.7-0.7c6.1,0,12.3,0,18.4,0
			c0.1,0,0.3,0.1,0.5,0.1c0,2,0,3.9,0,6c-1.8,0-3.5,0-5.3,0c0,7.1,0,14.2,0,21.3c1.7,0,3.5,0,5.3,0c0,2.1,0,4,0,6.1
			c-0.3,0-0.6,0-0.9,0c-5.8,0-11.7,0-17.5,0c-1.1,0-1.1,0-1.1-1.2c0-1.3,0-2.7,0-4c0-0.7,0.2-0.9,0.9-0.9c1.4,0.1,2.8,0,4.3,0
			c0.1,0,0.1,0,0.2,0C130.8,177.8,130.8,170.8,130.8,163.6z"/>
		<path d="M157,184.4c0.4,0,0.7,0,1.1,0c4.5,0,8.9,0,13.4,0c0.8,0,1,0.2,1,1c-0.1,1.8,0,3.7,0,5.6c-0.4,0-0.7,0.1-0.9,0.1
			c-7.4,0-14.9,0-22.3,0c-0.8,0-1-0.2-1-1c0-10.5,0-21,0-31.5c0-0.7,0.1-1,1-1c2.3,0.1,4.5,0.1,6.8,0c0.8,0,1,0.2,1,1
			c0,8.2,0,16.5,0,24.7C157,183.6,157,183.9,157,184.4z"/>
		<path d="M216.9,198.3c0,9,0,17.8,0,26.8c0.4,0,0.7,0,1,0c4.5,0,9,0,13.5,0c0.7,0,1,0.2,1,0.9c-0.1,1.7,0,3.3,0,5
			c0,0.5-0.2,0.7-0.7,0.7c-7.6,0-15.2,0-22.7,0c-0.7,0-0.7-0.4-0.7-0.9c0-3.8,0-7.5,0-11.3c0-6.7,0-13.5,0-20.2
			c0-0.8,0.2-1.1,1.1-1.1C211.8,198.3,214.3,198.3,216.9,198.3z"/>
		<path class="st0" d="M64.9,213.3c0-2.9,0-5.8,0-8.9c2.3,0.1,4.6,0.1,6.8,0.4c2.1,0.3,3.1,1.7,3.1,3.8c0,2.2-1.3,3.9-3.4,4.4
			c-0.8,0.2-1.6,0.3-2.5,0.3C67.7,213.3,66.3,213.3,64.9,213.3z"/>
		<path class="st0" d="M182.6,225.2c0-6.9,0-13.6,0-20.4c0.1-0.1,0.1-0.1,0.2-0.1c2,0,4-0.1,5.9,0.2c4.2,0.6,6.9,3.6,7.5,7.7
			c0.3,2.1,0.2,4.2-0.3,6.2c-1,3.5-3.8,5.9-7.5,6.3c-1.7,0.1-3.4,0.1-5.1,0.2C183.1,225.3,182.9,225.2,182.6,225.2z"/>
		<path class="st0" d="M181.5,131.8c0-2.8,0-5.7,0-8.8c2.3,0.1,4.7,0.1,6.9,0.4c2.1,0.3,3.1,1.7,3.1,3.8c0,2.2-1.3,3.8-3.4,4.3
			c-0.4,0.1-0.7,0.2-1.1,0.2C185.2,131.8,183.4,131.8,181.5,131.8z"/>
		<path class="st0" d="M68.8,166.4c1.4,4,2.6,7.7,4,11.6c-2.7,0-5.3,0-7.9,0C66.1,174.1,67.4,170.4,68.8,166.4z"/>
	</g>
</g>
</svg>
