<?xml version="1.0" encoding="utf-8"?>
<!-- Generator: Adobe Illustrator 19.1.1, SVG Export Plug-In . SVG Version: 6.00 Build 0)  -->
<svg version="1.1" id="Layer_1" xmlns="http://www.w3.org/2000/svg" xmlns:xlink="http://www.w3.org/1999/xlink" x="0px" y="0px"
	 viewBox="0 0 147.4 107.7" style="enable-background:new 0 0 147.4 107.7;" xml:space="preserve">
<style type="text/css">
	.st0{fill:#EC1E24;}
	.st1{fill:#068643;}
	.st2{fill:#029FC6;}
	.st3{fill:#F5EA14;}
</style>
<g>
	<path d="M16.8,52.9h-12v0.9L6.7,54h0c0.9,0,1.5,0.7,1.5,1.5v0v19.4l-3.6,0.8v0.9h20.1l0.6-6.8h-1.2l-0.8,2.4
		c-0.4,1-1.3,2.3-2.9,2.6L19.6,75l-4.4,0.1l-0.2,0c-0.9,0-1.6-0.8-1.7-1.7l0-0.1l0-18.9l3.4-0.5L16.8,52.9z"/>
	<path d="M111.8,74.3c-2.8-1.6-4.2-2.9-4.2-2.9s1.4-2.2,2.4-4.8c0.9-2.2,2.8-2,2.8-2v-1h-7.3l0,1l2.4,0.5c0,0-0.1,1.4-0.5,2.7
		c-0.4,1.3-1.3,2.6-1.3,2.6s-2.4-2-4-3.7c-1.7-1.7-3.3-3.9-3.3-3.9s5.3-2.1,5.7-4.8c0.6-3.5-2.4-6.3-5.5-5.7
		c-9.4,1.8-4.9,10.6-4.9,10.6s-2.3,0.9-3.8,3.1c-1.9,2.7-1.9,7.6,2.4,10.1c7.4,4.2,12.9-2.1,12.9-2.1s2.7,1.6,4.8,2.3
		c2.2,0.8,5.2,1.2,5.2,1.2v-1.3C115.8,76.2,114.6,75.9,111.8,74.3z M101.3,57c0.2,3-3.5,4.3-3.5,4.3s-1.5-2.3-1.5-4.5
		C96.4,54.2,101.1,52.3,101.3,57z M95,72.7c-3.5-4.5,0.4-7.9,0.4-7.9s2.5,3.2,3.8,4.4c1.3,1.2,4.9,3.8,4.9,3.8S98.5,77.2,95,72.7z"
		/>
	<path d="M81.8,73.9c-0.3-2.1,0-15.6,0-18.5c0-3.6-2-2.6-2-2.6L75,54V55c0,0,2.3-0.8,2.5,1.8c0.1,2.6,0,18.6,0,18.6
		s-2.2,0.2-3.5,0.3c-1.3,0.1-1.6-2.1-1.6-2.1v-7.1c0,0,0.9-3.8-2.3-5.2c-3.2-1.5-9,0.1-9,0.1v2c0,0,3.4-1.3,5.6-0.7
		c1.5,0.4,1.4,2.1,1.4,2.1v2.6c0,0-4.8-0.6-7.9,1c-3.1,1.6-2.7,4.3-2.7,4.3s0.3,3.3,3.7,4.2c4.4,1.2,7.1-1.9,7.1-1.9
		s0.4,1.3,1.6,1.7c1.2,0.4,4.2,0.2,4.2,0.2l11.4-0.2v-1.1C85.5,75.6,82.1,76,81.8,73.9z M67.9,71.9c0,0.9-1.1,4.4-4.7,2.9
		c-1.9-0.8-1.2-5,1.7-5.7c0.9-0.2,3.1-0.3,3.1-0.3S68,71,67.9,71.9z"/>
	<path d="M41.6,68.7v-2.1c0,0-0.4-5.7-7.3-5.7c-6.3,0-8.2,4.6-8.2,9c0,4.3,4.1,7.3,8.6,7.3s5.5-1,5.5-1l0-1.4c0,0-3.7,1.6-7-0.5
		c-3.3-2.1-2.5-5.5-2.5-5.5H41.6z M31.7,64.3c0.9-2.5,5-3,5.4,0.8c0.3,2.1-2.1,1.8-4.3,2.1c-1,0.1-1.9,0-1.9,0S31.3,65.2,31.7,64.3z
		"/>
	<path d="M55.9,96.4v-2.1c0,0-0.4-5.7-7.3-5.7c-6.3,0-8.2,4.6-8.2,9c0,4.3,4.1,7.3,8.6,7.3s5.5-1,5.5-1l0-1.4c0,0-3.7,1.6-7-0.5
		c-3.3-2.1-2.5-5.5-2.5-5.5H55.9z M45.9,92.1c0.9-2.5,5-3,5.4,0.8c0.3,2.1-2.1,1.8-4.3,2.1c-1,0.1-1.9,0-1.9,0S45.6,92.9,45.9,92.1z
		"/>
	<path d="M91.2,96.4v-2.1c0,0-0.4-5.7-7.3-5.7c-6.3,0-8.2,4.6-8.2,9c0,4.3,4.1,7.3,8.6,7.3s5.5-1,5.5-1l0-1.4c0,0-3.7,1.6-7-0.5
		c-3.3-2.1-2.5-5.5-2.5-5.5H91.2z M81.3,92.1c0.9-2.5,5-3,5.4,0.8c0.3,2.1-2.1,1.8-4.3,2.1c-1,0.1-1.9,0-1.9,0S81,92.9,81.3,92.1z"
		/>
	<path d="M127.9,101.7c-0.3-2.1,0-15.6,0-18.5c0-3.6-2-2.6-2-2.6l-4.8,1.3v1.1c0,0,2.3-0.8,2.5,1.8c0.1,2.6,0,18.6,0,18.6
		s-2.2,0.2-3.5,0.3c-1.3,0.1-1.6-2.1-1.6-2.1v-7.1c0,0,0.9-3.8-2.3-5.2c-3.2-1.5-9,0.1-9,0.1v2c0,0,3.4-1.3,5.6-0.7
		c1.5,0.4,1.4,2.1,1.4,2.1v2.6c0,0-4.8-0.6-7.9,1c-3.1,1.6-2.7,4.3-2.7,4.3s0.3,3.3,3.7,4.2c4.4,1.2,7.1-1.9,7.1-1.9
		s0.4,1.3,1.6,1.7c1.2,0.4,4.2,0.2,4.2,0.2l11.4-0.2v-1.1C131.5,103.4,128.1,103.8,127.9,101.7z M114,99.7c0,0.9-1.1,4.4-4.7,2.9
		c-1.9-0.8-1.2-5,1.7-5.7c0.9-0.2,3.1-0.3,3.1-0.3S114.1,98.8,114,99.7z"/>
	<path d="M35.9,88h1v-6.1c0,0-8.2-3.5-14.6,0c-3,1.6-6.5,6.3-6.5,10.8c0,6.5,3.8,9.6,6.5,11.1c5.1,2.9,14.6-0.6,14.6-0.6v-7v-0.4
		c0-1,0.6-1.5,1.5-1.5h0.4h1v-1.2H29.4v1.1l2.9,0.5v6.5c0,0-0.3,1.7-2.1,2.1c-0.8,0.2-2.9,0.2-4.3-0.4c-2-0.8-4.1-3.6-4.2-9.7
		c-0.1-4.7,1.9-9,4.2-10.3c2-1.2,3.7-1.3,5.6-0.8C35.2,83.1,35.9,88,35.9,88z"/>
	<path d="M55.9,90v0.9h1.3h0c0.6,0,1.2,0.5,1.2,1v0.5v10.7l-2.3,0.4v1h8.7v-0.9c0,0-0.8,0.1-1.5-0.4s-0.6-1.1-0.6-1.1v-9.6l2.4-1
		c0,0,1.7-0.8,3,0.1c1.1,0.8,1,2.6,1,2.6v9l-2.1,0.5v0.9h9.4v-1l-1.6-0.1c0,0-0.5,0.1-0.8-0.3c-0.4-0.6-0.4-0.9-0.4-0.9v-8.1
		c0,0,0.3-2.9-1.5-4.5c-2.1-1.9-4.9-0.6-4.9-0.6l-4.5,2.3v-1.4c0,0,0-0.9-0.5-1.1c-0.5-0.3-1.5,0.1-1.5,0.1L55.9,90z"/>
	<path d="M91.7,90v0.9H93h0c0.6,0,1.2,0.5,1.2,1v0.5v10.7l-2.3,0.4v1h8.7h1.2l0-0.9l-1.2,0c0,0-0.8,0.1-1.5-0.4s-0.6-1.1-0.6-1.1
		v-9.4l1.3-0.9c0,0,1.3-0.9,2.2-0.2c1,0.8,1,1.9,1,1.9s1,0,1.7-0.6c0.8-0.6,1.7-2.4,0.2-3.7c-2.2-1.8-4.5,0.2-4.5,0.2l-1.9,1.8v-1.4
		c0,0,0-0.9-0.5-1.1s-1.5,0.1-1.5,0.1L91.7,90z"/>
	<path d="M58.2,59c-2.8,0-3.7,1.8-4,2.8c-1.2-0.7-2.6-1.2-4.2-1.2c-3.8,0-6.9,2.6-6.9,5.8c0,2.2,1.4,4.1,3.5,5.1
		c-1.2,1-3.8,1.5-3.8,1.5s-0.3,0.8,0.2,2.1c0.4,1.1,1.1,1.7,1.1,1.7s-2.3,1.4-2.3,3.2c0,3.8,5.1,4.7,7.7,4.7c2.6,0,8-1.8,8-6.2
		c0-2.4-1.8-5.4-7.4-4.4c-2.9,0.5-3.8-0.7-3.8-0.7s1.1-0.7,1.7-1.4c0.7,0.2,1.4,0.3,2.1,0.3c3.8,0,6.9-2.6,6.9-5.8
		c0-1.5-0.7-2.9-1.9-4c0.3-0.5,0.9-1.2,1.6-1.2c1.2-0.1,2.5,1.2,2.5,1.2S61.4,59,58.2,59z M50.4,77.5c2.9-0.4,5.8,0.4,4.2,2.9
		c-0.6,0.9-2.1,1.8-5.2,1.7c-3.1-0.1-4.6-1-4.9-2.4c-0.3-1.4,0.7-2.4,0.7-2.4S47.9,77.9,50.4,77.5z M49.9,70.5c-1.6,0-2.9-1.8-2.9-4
		c0-2.2,0.8-4,2.9-4c1.6,0,2.9,1.8,2.9,4C52.8,68.7,52.4,70.5,49.9,70.5z"/>
	<path d="M133,62.4c0,0-0.6-0.2-1.3,0.2c-0.7,0.5-0.6,1-0.6,1l1.7,3.2c0,0,1.2,1.5-1.2,3c-3.2,1.9-4.6-0.9-4.6-0.9l-16.4-30.8
		c1.1-1.8,3.3-5,7.1-7.2c5.6-3.2,11.8-2.6,11.8-2.6s-0.5-6,3.8-10.4c3.5-3.5,10.7-5.3,10.7-5.3s-12-8.6-23.6-9.3
		C103,2.2,94.4,8,94.4,8s-0.1,0-0.2,0.1c-0.2-0.3-2.6-3.9-2.9-4.3c-0.3-0.5-0.9-0.3-0.6,0.4c0.2,0.6,1.5,3.8,1.9,4.7
		c-0.1,0.1-0.2,0.1-0.3,0.1c-3,1.9-11.3,6.6-17.2,16.9c-7.9,14-6.2,25.9-6.2,25.9s2.3-3.7,9.4-5c7.2-1.3,10.5,1.2,10.5,1.2
		s1.6-4.4,8.6-7.2c4.7-1.9,8.6-1.8,10.7-1.5l16.6,30.6c0,0,2.8,5.1,7.6,2.2c4.8-2.9,2.2-6.4,2.2-6.4L133,62.4z"/>
	<path class="st0" d="M92.3,9.9c0,0-4,2.2-8.4,6.7c-2.9,3-5.9,6.6-8.7,12.1c-5.8,11.7-4,18.7-4,18.7s2.6-2.2,7.1-2.9
		c4.5-0.7,8.3,0.5,8.3,0.5s-3.2-7.5-1.1-19.3c0.6-3.6,2-7.3,3.4-10.2C90.6,12.3,92.3,9.9,92.3,9.9z"/>
	<path class="st1" d="M95.5,8.4c0,0,4-2.2,10.2-3.4c4.1-0.7,8.9-1.3,15-0.3c10.6,1.7,17.8,7.4,17.8,7.4s-3.6,1-6.5,4.1
		c-3.1,3.3-4.2,7.1-4.2,7.1s-4.1-6.2-15.1-11.1c-3.3-1.5-7.4-2.8-10.6-3.2C98.4,8.5,95.5,8.4,95.5,8.4z"/>
	<path class="st2" d="M88.9,44.6c0.4,1.5-3.1-9.3-1.8-17.8c1.5-9.6,6.3-16.9,6.3-16.9l13.8,27.5c0,0-5.3-0.4-10.2,1.3
		C92.3,40.4,88.9,44.6,88.9,44.6z"/>
	<path class="st3" d="M126.5,26.1c1,1.2-5.7-8-13.3-11.9c-8.6-4.5-19.1-4.9-19.1-4.9l15.3,27.2c0,0,2.2-4,6.5-6.9
		C120,26.6,126.5,26.1,126.5,26.1z"/>
</g>
</svg>
