<?xml version="1.0" encoding="utf-8"?>
<!-- Generator: Adobe Illustrator 19.1.1, SVG Export Plug-In . SVG Version: 6.00 Build 0)  -->
<svg version="1.1" id="Layer_1" xmlns="http://www.w3.org/2000/svg" xmlns:xlink="http://www.w3.org/1999/xlink" x="0px" y="0px"
	 viewBox="0 0 167.2 53.9" style="enable-background:new 0 0 167.2 53.9;" xml:space="preserve">
<style type="text/css">
	.st0{fill:#A8CE38;}
</style>
<g>
	<g>
		<g>
			<polygon class="st0" points="21,4.4 2.4,4.4 2.4,48.9 47.6,48.9 47.6,31.6 21,31.6 			"/>
			<rect x="119.6" y="31.6" class="st0" width="45.3" height="17.3"/>
			<rect x="119.6" y="4.4" class="st0" width="45.3" height="17.3"/>
			<path class="st0" d="M108.1,6.2c-3.2-3.2-8.4-3.2-11.6,0L79.3,23.3L62.2,6.2C59,3,53.8,3,50.6,6.2l-1.4,1.4
				c-3.2,3.2-3.2,8.4,0,11.6l30.1,31l30.1-31c3.2-3.2,3.2-8.4,0-11.6L108.1,6.2z"/>
		</g>
	</g>
</g>
</svg>
