<?xml version="1.0" encoding="utf-8"?>
<!-- Generator: Adobe Illustrator 22.1.0, SVG Export Plug-In . SVG Version: 6.00 Build 0)  -->
<svg version="1.1" id="Layer_1" xmlns="http://www.w3.org/2000/svg" xmlns:xlink="http://www.w3.org/1999/xlink" x="0px" y="0px"
	 viewBox="0 0 283.5 198.4" style="enable-background:new 0 0 283.5 198.4;" xml:space="preserve">
<style type="text/css">
	.st0{fill:#231F20;}
	.st1{fill:url(#SVGID_1_);}
	.st2{fill:url(#SVGID_2_);}
</style>
<g>
	<g>
		<path class="st0" d="M55.2,164.1l0.9,0.2l-3.2,11.2h-29v-1.1h1.4c1.6,0,2.7-0.6,3.4-1.7c0.4-0.7,0.6-2.1,0.6-4.5v-26.5
			c0-2.6-0.3-4.2-0.8-4.8c-0.7-0.9-1.8-1.4-3.2-1.4h-1.4v-1.1h16.9v1.1c-2,0-3.4,0.2-4.2,0.6c-0.8,0.4-1.3,1-1.6,1.6
			c-0.3,0.7-0.4,2.2-0.4,4.6v25.8c0,1.7,0.1,2.8,0.4,3.5c0.2,0.4,0.6,0.7,1,0.9c0.5,0.2,1.9,0.3,4.3,0.3h2.7c2.9,0,4.9-0.2,6-0.7
			c1.2-0.5,2.2-1.3,3.2-2.5C53.3,168.5,54.2,166.7,55.2,164.1z"/>
		<path class="st0" d="M78,133.4c4.8,0,11.1,2,14.7,6.1c3.6,4.1,5.3,9.1,5.3,15.2c0,6.3-1.8,11.4-5.4,15.6c-3.6,4.1-10,6.2-15.1,6.2
			c-5.1,0-11.2-2-14.7-6c-3.5-4-5.3-9.2-5.3-15.6c0-6.5,2-11.9,6.1-16C67.2,135.2,73.1,133.4,78,133.4z M77.5,135.6
			c-3.4,0-7.8,1.4-9.8,4.1c-2.5,3.4-3.8,8.4-3.8,14.9c0,6.7,1.3,11.9,3.9,15.5c2,2.8,6.3,4.1,9.6,4.1c3.5,0,8.5-1.5,10.8-4.5
			c2.3-3,3.4-7.8,3.4-14.2c0-7.1-1.3-12.3-3.8-15.7C85.9,137,81,135.6,77.5,135.6z"/>
		<path class="st0" d="M97.4,134.4h10.2l22.9,30.9v-23.7c0-2.5-0.3-4.1-0.8-4.7c-0.7-0.9-0.7-1.3-2.2-1.3h-1.3v-1.1h11.3v1.1h-1.3
			c-1.6,0-2,0.5-2.7,1.6c-0.4,0.7-0.6,2.1-0.6,4.4v34.7h-1l-24.7-33.1v25.3c0,2.5,0.3,4.1,0.8,4.7c0.7,0.9,1.8,1.3,3.2,1.3h1.3v1.1
			h-13v-1.1h1.3c1.6,0,2.8-0.5,3.4-1.6c0.4-0.6,0.6-2.1,0.6-4.4v-28.6c-1.1-1.4-1.9-2.3-2.5-2.8c-0.6-0.4-1.4-0.9-2.5-1.3
			c-0.5-0.2-1.3-0.3-2.4-0.3V134.4z"/>
		<path class="st0" d="M138.5,175.5v-1.1h1.4c1.6,0,1.3-0.6,2-1.7c0.4-0.7,0.6-2.2,0.6-4.5v-26.6c0-2.6-0.3-4.2-0.8-4.8
			c-0.7-0.9-0.4-1.4-1.8-1.4h-1.4v-1.1h16.6c5.6,0,9.1,0.7,12,2.1c2.9,1.4,5.3,3.7,7,7c1.8,3.3,2.7,7,2.7,11.3
			c0,5.7-1.6,10.5-4.8,14.3c-3.5,4.3-8.3,6.4-15.5,6.4H138.5z M147.8,172.5c2.3,0.6,7,0.9,8.6,0.9c4.3,0,7.1-1.7,9.9-5
			c2.8-3.3,4.2-7.8,4.2-13.4c0-5.7-1.4-10.2-4.2-13.4c-2.8-3.3-5.7-4.9-10.1-4.9c-1.7,0-6.3,0.3-8.4,0.9V172.5z"/>
		<path class="st0" d="M219.8,134.4H230l22.9,30.9v-23.7c0-2.5-0.3-4.1-0.8-4.7c-0.7-0.9-1.7-1.3-3.2-1.3h-1.3v-1.1h13v1.1h-1.3
			c-1.6,0-2.7,0.5-3.4,1.6c-0.4,0.7-0.6,2.1-0.6,4.4v34.7h-1l-24.7-33.1v25.3c0,2.5,0.3,4.1,0.8,4.7c0.7,0.9,1.8,1.3,3.2,1.3h1.3
			v1.1h-13v-1.1h1.3c1.6,0,2.8-0.5,3.4-1.6c0.4-0.6,0.6-2.1,0.6-4.4v-28.6c-1.1-1.4-1.9-2.3-2.5-2.8c-0.6-0.4-1.4-0.9-2.5-1.3
			c-0.5-0.2-1.3-0.3-2.4-0.3V134.4z"/>
	</g>
	<g>
		<path class="st0" d="M130.5,128.5h-10l-12.7-19.2c-0.9,0-5.1,0-5.7,0c-0.2,0-0.5,0-0.8,0c-0.3,0-0.6,0-0.9,0v11.9
			c0,2.6,0.3,4.2,0.8,4.8c0.7,0.9,1.8,1.3,3.2,1.3h1.5v1.1h-16v-1.1h1.4c1.6,0,2.7-0.6,3.4-1.7c0.4-0.6,0.6-2.1,0.6-4.4V94.6
			c0-2.6-0.3-4.2-0.8-4.8c-0.7-0.9-1.8-1.4-3.2-1.4h-1.4v-1.1h13.6c4,0,8.6,0.3,10.5,1c1.9,0.6,3.5,1.8,4.8,3.5c1.3,1.7,2,3.7,2,6.1
			c0,2.5-0.7,4.7-2.2,6.6c-1.5,1.9-2.1,3.2-5.3,4l7.7,11.8c1.8,2.7,3.3,4.5,4.6,5.4s2.9,1.5,5,1.7V128.5z M100.5,107.3
			c0.3,0,0.6,0,0.9,0c0.3,0,0.5,0,0.6,0c3.6,0,8-0.9,9.8-2.6c1.8-1.7,2.7-3.9,2.7-6.5c0-2.6-0.7-4.6-2.2-6.3
			c-1.5-1.6-5.1-2.4-7.5-2.4c-1.1,0-2.5,0.2-4.3,0.6V107.3z"/>
		<path class="st0" d="M188.2,87.3h13v1.1h-0.7c-0.5,0-1.2,0.2-2.1,0.7c-0.9,0.5-1.8,1.1-2.5,2c-0.8,0.9-1.7,2.3-2.8,4.3l-9,15.6
			v10.3c0,2.5,0.3,4.1,0.8,4.7c0.7,0.9,1.8,1.3,3.3,1.3h1.2v1.1h-15.9v-1.1h1.3c1.6,0,2.7-0.5,3.4-1.6c0.4-0.6,0.6-2.1,0.6-4.4v-9.8
			l-10.2-17.2c-1.2-2-2.1-3.3-2.5-3.8c-0.4-0.5-1.3-1.1-2.7-1.8c-0.4-0.2-0.9-0.3-1.6-0.3v-1.1h16v1.1h-0.8c-0.9,0-1.7,0.2-2.4,0.7
			c-0.7,0.5-1.1,1.1-1.1,2c0,0.7,0.6,2,1.7,4l7.8,13.2l7.3-12.7c1.1-1.9,1.6-3.3,1.6-4.3c0-0.6-0.1-1.1-0.4-1.5
			c-0.3-0.5-0.6-0.8-1.1-1.1c-0.5-0.3-1.2-0.4-2.2-0.4V87.3z"/>
		<path class="st0" d="M215.2,114.7h-14.5l-2.5,6.5c-0.6,1.6-1,2.8-1,3.6c0,0.6,0.3,1.2,0.8,1.7c0.5,0.5,1.7,0.8,3.5,0.9v1.1h-11.8
			v-1.1c1.6-0.3,2.6-0.7,3-1.2c0.9-1,2-3,3.1-5.9l13.2-33.9h1l13,34.2c1,2.7,1.6,4.5,2.5,5.3c0.9,0.8,1.4,1.3,2.9,1.4v1.1h-13.7
			v-1.1c1.5-0.1,2.5-0.3,3-0.8c0.5-0.5,0.8-1,0.8-1.7c0-0.9-0.4-2.3-1.1-4.2L215.2,114.7z M214.4,112.5l-6.3-16.6l-6.5,16.6H214.4z"
			/>
		<path class="st0" d="M258.4,117.1l0.9,0.2l-3.2,11.2h-26.9v-1.1h1.4c1.1,0,1.6-1.1,1.8-1.7c0.2-0.9,0.1-2.2,0.1-4.5V94.6
			c0-2.6-0.3-4.2-0.8-4.8c-0.7-0.9-1.8-1.4-3.2-1.4h-1.4v-1.1h16.9v1.1c-2,0-3.4,0.2-4.2,0.6c-0.8,0.4-1.3,1-1.6,1.6
			c-0.3,0.7-0.4,2.2-0.4,4.6v25.8c0,1.7,0.1,2.8,0.4,3.5c0.2,0.4,0.6,0.7,1,0.9c0.5,0.2,1.9,0.3,4.3,0.3h2.7c2.9,0,4.9-0.2,6-0.7
			c1.2-0.5,2.2-1.3,3.2-2.5C256.5,121.5,257.5,119.7,258.4,117.1z"/>
	</g>
	<path class="st0" d="M200.8,133.4c4.8,0,11.1,2,14.7,6.1s5.3,9.1,5.3,15.2c0,6.3-1.8,11.4-5.4,15.6c-3.6,4.1-10,6.2-15.1,6.2
		c-5.1,0-11.2-2-14.7-6c-3.5-4-5.3-9.2-5.3-15.6c0-6.5,2-11.9,6.1-16C190,135.2,195.9,133.4,200.8,133.4z M200.3,135.6
		c-3.4,0-7.8,1.4-9.8,4.1c-2.5,3.4-3.8,8.4-3.8,14.9c0,6.7,1.3,11.9,3.9,15.5c2,2.8,6.3,4.1,9.6,4.1c3.5,0,8.5-1.5,10.8-4.5
		c2.3-3,3.4-7.8,3.4-14.2c0-7.1-1.3-12.3-3.8-15.7C208.7,137,203.8,135.6,200.3,135.6z"/>
	<path class="st0" d="M146.3,86.4c4.8,0,11.1,2,14.7,6.1s5.3,9.1,5.3,15.2c0,6.3-1.8,11.4-5.4,15.6c-3.6,4.1-10,6.2-15.1,6.2
		c-5.1,0-11.2-2-14.7-6c-3.5-4-5.3-9.2-5.3-15.6c0-6.5,2-11.9,6.1-16C135.5,88.2,141.4,86.4,146.3,86.4z M145.8,88.6
		c-3.4,0-7.8,1.4-9.8,4.1c-2.5,3.4-3.8,8.4-3.8,14.9c0,6.7,1.3,11.9,3.9,15.5c2,2.8,6.3,4.1,9.6,4.1c3.5,0,8.5-1.5,10.8-4.5
		c2.3-3,3.4-7.8,3.4-14.2c0-7.1-1.3-12.3-3.8-15.7C154.2,90,149.4,88.6,145.8,88.6z"/>
	<g>
		<linearGradient id="SVGID_1_" gradientUnits="userSpaceOnUse" x1="101.042" y1="93.6814" x2="57.0354" y2="132.4241">
			<stop  offset="0" style="stop-color:#652D90"/>
			<stop  offset="1" style="stop-color:#231F20"/>
		</linearGradient>
		<path class="st1" d="M73.3,126c-1.8,0-4.3,0-5.9-1.6c0,0-1.2-1.6-2.2-4.7c-1-3-1.3-5.8-1.3-5.8l-2.2,1.4c0.3,2.5,1.9,4.8,2.3,7.5
			c0.6,1.7,0.7,2.9-0.6,3.7c-0.5,0.5-1.4,0.9-2.6,1.2l-1.1,1h16.3C75.5,127.4,74.2,126.5,73.3,126z"/>
		<linearGradient id="SVGID_2_" gradientUnits="userSpaceOnUse" x1="71.2942" y1="59.8918" x2="27.2876" y2="98.6344">
			<stop  offset="0" style="stop-color:#652D90"/>
			<stop  offset="1" style="stop-color:#231F20"/>
		</linearGradient>
		<path class="st2" d="M93.3,71.5c-3.9-12-8.1-22.6-12.8-30.8c1.2-8.9-3.2-14-12.2-15.8c-2,0-3.7-0.9-4.8-2.8c0.1,2,0.6,3.9,2.2,5.4
			c-4.4,2.3-5.9,5.7-5.2,10c1.4,5.6,4,11.4,7.9,17.6c5.3,7.2,2.6,13-7.9,17.5c9.7-1,12.9,2.6,10.3,10.4c-2.1-5.6-6.7-5.8-13.4-1.4
			c-5.4,2.1-12.6,13.9-19.6,25c1.5-7.6,4.8-15.7,9.8-24.4c-5.3,6.3-9.6,13-12,20.3c-2.8,6.6-6.8,11-12.7,11.7
			c4.5,2.5,9.5,2.3,14.9,0c9.5-6,18.3-12.4,25.3-20c-3.4,6.7-11.7,13.1-23.2,20.8c7.2-0.7,7.8-3,17.9-2.3c1.5,0.4,2.1,0.3,1.8,1.5
			c4.3-2.8,7.9-6.2,8.9-11.4l2,2.8c9.6-12.8,15.5-25.9,12.3-39.9l6.8,7.1c2.1,1.8,3.8,3.4,3.2,4.9C94,76.7,94.2,74.8,93.3,71.5z
			 M77.2,37c0.8,0,1.4,0.6,1.4,1.4c0,0.8-0.6,1.4-1.4,1.4c-0.8,0-1.4-0.6-1.4-1.4C75.8,37.7,76.4,37,77.2,37z M81.7,62.7
			c-4.5-4.4-8.9-11-11.3-18.6c-4.4-0.9-5.3-3.8-4-7.8c-0.6,5.6,2.8,8.1,8.6,6.4l14.9,25.2L78.2,43.7l2-1.2c5.2,8.6,9.7,20,12.7,31.3
			L81.7,62.7z"/>
	</g>
</g>
</svg>
