<?xml version="1.0" encoding="utf-8"?>
<!-- Generator: Adobe Illustrator 20.1.0, SVG Export Plug-In . SVG Version: 6.00 Build 0)  -->
<svg version="1.1" id="Layer_1" xmlns="http://www.w3.org/2000/svg" xmlns:xlink="http://www.w3.org/1999/xlink" x="0px" y="0px"
	 viewBox="0 0 100 100" style="enable-background:new 0 0 100 100;" xml:space="preserve">
<style type="text/css">
	.st0{fill:#BCBEC0;}
</style>
<g>
	<g>
		<path class="st0" d="M82.5,80.3c-1.9,0.7-3.8,1.8-5.9,3.5c-1.1,0.9-3,2.8-4.6,4.6c-0.9,1-1.8,2.1-2.9,3.3c-0.2,0.2,0,0.6,0.3,0.4
			c5.4-2.4,10.2-5.9,14.2-10.1C84.4,81.2,83.5,79.9,82.5,80.3z"/>
		<g>
			<path class="st0" d="M41.6,72.9c-0.7,0-1.2,0.6-1.2,1.2v1.6c0,0.1,0.1,0.2,0.1,0.3c0.1,0,0.1,0.1,0.2,0.1c0,0,0.1,0,0.1,0
				l1.9-0.4c0.1,0,0.2-0.2,0.2-0.3v-1.2C42.9,73.4,42.3,72.9,41.6,72.9z"/>
			<path class="st0" d="M44.5,63c-0.7,0-1.2,0.6-1.2,1.2v1.5c0,0.1,0,0.2,0.1,0.2c0.1,0,0.1,0.1,0.2,0.1c0,0,0.1,0,0.1,0l1.9-0.3
				c0.1,0,0.2-0.2,0.2-0.3v-1.2C45.7,63.5,45.1,63,44.5,63z"/>
			<path class="st0" d="M41.6,53.6c-0.7,0-1.2,0.6-1.2,1.2v1.9c0,0.1,0.1,0.2,0.2,0.3c0,0,0.1,0,0.2,0c0,0,0.1,0,0.1,0l1.9-0.6
				c0.1-0.1,0.2-0.2,0.2-0.3v-1.3C42.9,54.2,42.3,53.6,41.6,53.6z"/>
			<path class="st0" d="M59.6,3.2C43.3,0.1,27.4,5,16.2,16.3c-0.8,0.8-1.6,1.7-2.4,2.6c-0.1,0.2-0.1,0.3-0.1,0.5
				c0.1,0.3,0.4,0.4,0.6,0.5l0.2,0l0,0l23.2,4.7c0,0,0,0.3,0-0.5c0-1.3,0.1-1.3,4.5-2.7c0.7-0.2,3.1-1.1,4.2-1.4
				c0.5-0.1,1.1,0,1.1,0.7l0,10.3c0,0.3-0.4,0.6-0.6,0.7C46,31.9,44.3,32,44.2,32c-0.5,0-1-0.2-1.3-0.5c-0.5-0.5-0.8-1.5-0.8-2.8
				c0-0.3-0.2-0.5-0.4-0.5l-0.5-0.1l-27.4-2.5l-2.3-0.2c-1.4-0.1-2.7,0.6-3.4,1.8C4.3,34.1,2.3,41.9,2.3,50
				c0.1,19.6,10.4,36.8,26.6,43.8l1.5,0.5c3.4,1.1,6.6,1.6,9.6,1.6c11.7,0,18.5-7.9,23.9-14.2c2-2.3,3.9-4.5,5.7-6
				c7.7-6.2,15.9-7.1,20.1-7.1c1.3,0,2.1,0.1,2.1,0.1l0.3,0c0.8,0.1,1.6-0.3,1.9-1l0.9-1.9c1.5-4.2,2.4-8.3,2.6-12.7
				C99,29.3,82.9,7.7,59.6,3.2z M46.5,36.7c0.4,0,1.7-0.1,2.5-0.1c0.1,0,0.1,0.1,0.1,0.1V38c0,0.1-0.1,0.2-0.1,0.2
				c-0.7,0-1.5,0-2.5,0.1c-0.1,0-0.1-0.1-0.1-0.1v-1.3C46.4,36.7,46.4,36.7,46.5,36.7z M42.8,37c0.6-0.1,1.2-0.1,1.9-0.2
				c0.1,0,0.2,0.1,0.2,0.2v1.2c0,0.1-0.1,0.2-0.2,0.2c-0.6,0-1.3,0.1-1.9,0.2c-0.1,0-0.1-0.1-0.1-0.1v-1.2
				C42.7,37.1,42.8,37,42.8,37z M41,38.7c-0.4,0.1-0.9,0.1-1.3,0.2c-0.1,0-0.1,0-0.1-0.1l0-1.2c0-0.1,0-0.1,0.1-0.1
				c0.4-0.1,0.9-0.2,1.3-0.2c0.1,0,0.1,0,0.1,0.1c0,0.3,0,0.9,0,1.2C41.2,38.6,41.2,38.7,41,38.7z M9.3,30.3l1.1-2.3
				c0.1-0.2,0.3-0.3,0.5-0.3l29.5,1.7c0.1,0,0.3,0.1,0.3,0.3l0,0.5c0,0.3-0.2,0.5-0.5,0.5L9.6,30.8C9.4,30.8,9.2,30.5,9.3,30.3z
				 M35,88.8c-0.1,1.2-1.2,1.9-2.3,1.6c-0.3-0.1-0.6-0.2-0.9-0.3l-1.3-0.4C16,83.5,6.7,67.9,6.6,50c0-3,0.5-7,1.1-9.9
				c0.3-1.4,1.5-2.5,2.9-2.8l23.1-2.5c0.8-0.1,1.5,0.3,1.8,1.1c0.1,0.1,0.1,0.2,0.2,0.3c0.3,0.4,0.8,0.7,1.4,0.9h0
				c0.2,0.1,0.4,0.2,0.6,0.3c0.2,0.2,0.4,0.4,0.4,0.6v1.3c-2.4,0.5-4.2,1.3-4.2,2.5v1.9c0,0.2,0.1,0.4,0.2,0.5l0.6,0.6
				C35.1,53.8,35.6,77.5,35,88.8z M49.2,42.2L49,42.3c-0.5,0.5-0.8,1.2-0.8,1.9V87c0,1-0.6,1.9-1.5,2.3c-1.3,0.6-4,0.9-4.8,0.9
				c-0.8,0-1.6,0-2.2-0.1c-1.2-0.2-2.2-1.3-2.1-2.6c0.6-24.3,0-40-0.1-42.9l0-0.4l-0.6-0.9c0-0.5,0-0.8,0-0.8c1.9-0.9,3.9-1.3,9-1.5
				c1,0,3.3-0.1,3.4,0C49.3,41.1,49.2,41.8,49.2,42.2z M91,64.1l-0.1,0.2c-0.3,0-0.7,0-1.1,0c-4.7,0-13.9,1.6-23.2,8.5
				c-0.1,0.1-0.2-22.5-0.1-28l0.5-0.4c0.2-0.1,0.3-0.3,0.3-0.6v-2.3c0-0.1,0-0.2-0.1-0.3c-0.2-0.4-0.7-0.8-1.3-1.1L65.4,40l0.1-0.5
				c0,0-0.1-0.8,1.1-0.3c0.1,0.1,0.3,0.1,0.4,0.2c0,0,0,0,0,0v0c0,0,0,0,0.1,0c0,0,0,0,0,0c0.1-0.2,0-0.4-0.1-0.6l0-2.7l0.3-0.4
				c0-0.1,0.1-0.2,0.1-0.3c0-0.5-0.5-0.7-1-0.9l-0.2-0.1c-0.1-0.1-0.2-0.1-0.3-0.2c-0.1,0-0.1-0.1-0.2-0.1c0-1,0-4.3,0-9.8l0-1
				c0-0.5,0.5-1.7,0.8-2.3c0.1-0.1,0.1-0.3,0-0.4c-0.1-0.1-0.2-0.2-0.3-0.3l-14.7-5c0.1-0.3,0.3-0.6,0.6-0.8
				c0.1-0.1,0.1-0.1,0.1-0.2v-0.3c0-0.2-0.2-0.3-0.3-0.3h-0.3c0.1-0.2,0.2-0.5,0.2-0.7c0-0.8-0.7-1.5-1.5-1.5
				c-0.8,0-1.5,0.7-1.5,1.5c0,0.3,0.1,0.5,0.2,0.7h-0.3c-0.2,0-0.4,0.1-0.4,0.3v0.4c0,0.1,0,0.2,0.1,0.2c0.3,0.2,0.5,0.5,0.6,0.7
				l-14.6,5.2c-0.1,0.1-0.3,0.2-0.3,0.3c-0.1,0.1,0,0.3,0,0.4c0,0,0.3,0.5,0.4,1.2l-15.3-3C30.7,7.9,47.2,3.6,63.7,8.6
				C81,13.9,92.7,30.1,93.4,48.2C93.6,54,92.8,59.1,91,64.1z"/>
		</g>
		<path class="st0" d="M51.2,97.7c-0.2,0-0.3,0-0.4-0.1c-0.2-0.2-0.1-0.5,0.1-0.6c0.1-0.1,0.4-0.2,0.4-0.2c6.6-3,11.4-8.5,15.2-13
			c1.9-2.2,3.7-4.3,5.3-5.6c6.9-5.5,14.1-6.4,17.8-6.4c0.5,0,1.1,0,1.5,0.1c0,0,0.3,0,0.4,0.2c0.1,0.2,0.1,0.5,0,0.6
			c-0.2,0.4-1.2,2-1.5,2.6c-0.1,0.1-0.1,0.2-0.2,0.3c-0.1,0.1-0.3,0.1-0.3,0.1c-3.2,0-9.5,0.7-15.5,5.5c-1.3,1.1-3,3-4.8,5.1
			c-2.9,3.3-6.4,7.5-11,10.7C56.1,97.4,53.6,97.6,51.2,97.7z"/>
	</g>
</g>
</svg>
