<?xml version="1.0" encoding="utf-8"?>
<!-- Generator: Adobe Illustrator 19.1.1, SVG Export Plug-In . SVG Version: 6.00 Build 0)  -->
<svg version="1.1" id="Layer_1" xmlns="http://www.w3.org/2000/svg" xmlns:xlink="http://www.w3.org/1999/xlink" x="0px" y="0px"
	 viewBox="0 0 158.7 99.2" style="enable-background:new 0 0 158.7 99.2;" xml:space="preserve">
<style type="text/css">
	.st0{fill:#EC1762;}
	.st1{fill:#84868B;}
</style>
<g>
	<g>
		<g>
			<path class="st0" d="M49.2,4.2c0,0-4.9-2.2-11.9,3.2C30.3,12.8,24,23.7,24,23.7s-4.8,8.6-7,14.9s-4.6,12.8-5.1,14.4
				c-0.5,1.6-1,0.1-1.1-0.6c0-0.4-1.3-10.7-1.5-15.3c-0.2-4.6,0-15.8,0-15.8s0.4-2.4-1.7-4.2S3,16.2,3,16.2s-1.5,9-0.7,23.1
				S5,64.4,5,64.4s0.4,2,1.3,2.6c0.9,0.7,1.2,0.6,1.2,0.6s2.4,0.1,4.3,0s3.9-0.6,3.9-0.6s0.8-0.2,1.2-0.9c0.4-0.6,0.7-2.2,0.7-2.2
				s4.9-21.8,11.1-34.8C39.2,7.9,49.2,4.2,49.2,4.2z"/>
			<path class="st0" d="M31.9,40c0,0-4.3,6.1-5.5,11.1s-1.8,12.8-1.8,12.8s0.4,1.7,1.5,2.7c1.1,1,2.8,1,2.8,1s2.2-0.1,3.7-1.7
				c1.6-1.6,1.4-3.5,1.4-3.5s-0.8-0.3-0.9-0.8c-0.2-0.5,0.1-1.4,0.1-1.4l3.3-14c0,0,0.1-2.8-0.9-4.2C34.5,40.7,31.9,40,31.9,40z"/>
			<path class="st0" d="M113.9,65.1c-2.4,0.5-2.8-4-2.8-4s-0.6-9.9-0.7-13.2c-0.1-4.1-6.7-3.8-8.7-1.1c-2.1,2.9-3.8,6.3-7.6,10.9
				s-4.5,3.6-4.9,1c-0.3-1.9-0.4-6.8,2-15c2.8-9.9,6.7-19.5,8.4-22.5c1.7-3,0.4-3.5-0.4-4.3c-0.8-0.8-4.8-1.9-4.8-1.9
				s-6.8,11.9-10,26c-2.4,10.8-2.2,21.3-2.2,21.3s-3.6,1.4-5.4,0.8c-1.8-0.6-1-2.9-1-2.9l2.4-7c0,0,0.8-1.4-1.2-3.3
				c-1.2-1.2-2.7-2.3-2.7-2.3s-0.3-0.5-0.9-0.4c-0.7,0.1-1.2,0.8-1.2,0.8L61.2,60.7c0,0-1.3,1-2,0.3s-0.4-2.6-0.4-2.6s0.4-4.5,3.6-8
				c3.2-3.5,9.5-6.3,9.5-6.3l2.4-2.2c0,0,1.3-1,0.4-1.9c-0.8-0.9-2.3-1.2-3.1-1.5c-0.8-0.3-19-1.5-19-1.5s5.3-17.6,6.4-20
				c1.1-2.3-0.9-4-0.9-4l-3.8-1.8c0,0-4.9,10.2-6.4,13.5C46.6,28.2,43.3,37,43.3,37s-4.4,1.8-3.4,3.4c1,1.6,2.3,3.8,2.3,3.8
				s-1.5,7.9-1.7,10.5C40.4,57.5,40.7,68,40.7,68s1.7-0.1,3.1-1.4c1.5-1.2,2.6-3.3,2.6-3.3s0.6-1.5,1-3.5c0.4-2,3.3-15.7,3.3-15.7
				l11.9-0.8c0,0-11.6,8.6-11,18.2c0.4,5.5,5,7.8,10.1,5.2c2.6-1.3,4.3-3.3,5.4-4.3s1.5-0.5,1.6,0.5c0.1,0.5,1.3,4.8,5,4.8
				c4.2,0,9-3.3,9-3.3s3.2,4.9,7.6,3c5.7-2.5,11.3-12.2,11.3-12.2s0.9-2,1.6,0.1s0.5,4.7,1.5,8.6c1.4,5,5.7,3.8,5.7,3.8
				s2.4-0.5,3.6-0.8C115.4,66.7,115.6,64.8,113.9,65.1z"/>
			<path class="st0" d="M40.6,32.5c-0.8-1.2-1.7-3.7-3.6-5.4c-1.8-1.7-5.1-0.7-5.1,2.4s1.7,6.7,5.5,6.7S41.4,33.7,40.6,32.5z"/>
			<path class="st0" d="M107.9,40.3c3.7,0,3.9-2.4,3.1-3.6c-0.8-1.2-1.7-3.7-3.6-5.4c-1.8-1.7-5.1-0.7-5.1,2.4
				S104.1,40.3,107.9,40.3z"/>
			<path class="st0" d="M152.9,42.1c-0.8,0.1-1.3,0.8-1.3,0.8s-5.5,10.8-10.3,15.7c-5.2,5.3-7.5,2.9-6.9-1.1c0.6-4,2.6-12.2,3-13.5
				s-1.3-2-1.3-2l-0.9,1.1l-8.3-2.1c0,0,4.5-13.9,6-17.7c1.5-3.8-3.7-6.2-5-5.8c-1.2,0.4-8.6,20.8-8.8,22.2c-0.1,1.4-1,2.4-2.6,2.2
				c-1.8-0.1-2.8,1.7-2.8,2.3s2.9,2.3,3.5,2.7s0.4,1.7,0.4,1.7s-1,4.1-1.4,8.8C116,62,116.7,68,116.7,68l4.2-3.9
				c0,0,0.8-1.7,0.7-3.4c-0.1-1.7,3-12.4,3.6-13.2c1.6,0.2,7.5-0.4,7.5-0.4s-5.8,11.3-4.1,16.4c1.7,5.2,7.5,4.6,10.4,3.7
				c2.9-0.9,6.6-3.7,8.2-5.7c1.6-2,1.2,0.5,1.2,0.5s-3.1,10.1-7.8,16.6c-5.3,7.5-13.5,9.7-13.5,9.7s-0.5,0.4,0.3,0.7
				c0.8,0.3,3,0,3,0s12.7-0.8,21-18.3c5.9-12.5,5.9-25.7,5.9-25.7S153.7,41.9,152.9,42.1z"/>
		</g>
	</g>
	<g>
		<path class="st1" d="M29.4,71.7c0,0-1.8,8-2.3,9.7c-0.5,1.8-2.6,2.2-2.6,2.2l-2.7,0c-0.5,0-0.9-0.5-0.8-1c0.4-1.9,1.3-6.1,1.6-6.7
			c0.9-1.8-0.5-2.2-0.5-2.2l-1.9-0.4l-4.1,23c0,0,2.8,0.1,3.1-2.3c0.1-1.3,0-2.7,0.6-5.2c0.6-2.4,2.5-2.5,2.5-2.5l3-0.1
			c0.4,0,0.7,0.3,0.6,0.7l-1.3,9.4c0,0,2.3-0.4,2.7-2.2c0.4-1.8,3.9-18.1,4.3-20.1C31.7,72.2,29.4,71.7,29.4,71.7z"/>
		<path class="st1" d="M102.4,84.9c-2,1.4-2.4,7.9-2.4,7.9s-6.3,2-6.6-1.5c-0.3-3.5,2.7-14,4.2-16.3c2-3.1-2.4-3-2.4-3
			s-2.1,4.2-3.5,8.9c-1.4,4.8-2,10.1-2,11.4c0,2.8,0.7,4.6,4.6,3.7c3.9-0.9,5.8-1.3,5.8-1.3s0.3,1.1,0.6,1.5
			c0.6,0.6,1.6,0.3,1.9-1.5c0.5-3,1.3-7.8,1.3-7.8S103.5,84.2,102.4,84.9z"/>
		<path class="st1" d="M85,82.6c-0.7-0.6-1.8-0.2-1.8,0.9s0.6,2.4,2,2.4s1.4-0.9,1.1-1.3C86,84.1,85.6,83.2,85,82.6z"/>
		<path class="st1" d="M105,81.5c-0.3-0.5-0.7-1.5-1.4-2.2c-0.7-0.7-2-0.3-2,1c0,1.2,0.7,2.7,2.2,2.7C105.2,83,105.3,82,105,81.5z"
			/>
		<path class="st1" d="M113.9,86l1.1-1.4c0.2-0.3-0.3-0.3-0.7-0.3c-1-0.2-2.9-0.5-3.7-0.8c-0.7-0.2,0.8-4.6,1.8-6.5
			c1.4-2.9,2.8-1.9,3.4-1.2c0.2,0.2,0.4,0.5,0.6,0.4l0.3-0.1c0.2-0.1,0-0.6-0.2-0.8c-0.9-1.3-4.3-5.4-7.1,0.4
			c-1.7,3.5-2.3,6.7-2.4,7.7c0,0.2-0.1,0.3-0.3,0.4c-0.4,0.2-1.3,0-1.7,0.5c-0.1,0.2-0.1,1,0,1.1c0.5,0.6,1.1,1,1.4,1.2
			c0.2,0.1,0.2,0.3,0.2,0.4c-0.2,1.5-0.8,8.3-0.6,9.1c0.2,0.9,2.1-1,2.6-1.5c0.1-0.1,0.1-0.2,0.1-0.3c0.1-0.7,0.4-3.4,0.6-4.7
			c0.2-1.1,0.6-2.3,0.8-2.9c0.1-0.2,0.2-0.3,0.4-0.3l2.9-0.2C113.7,86.2,113.9,86.1,113.9,86z"/>
		<path class="st1" d="M121.9,91.6c-1.2,0.9-4.5,3-6.2,2.5c-1.2-0.3-1.4-1.9-1.3-2.1c0,0,0,0,0,0c0.4-0.2,5.2-2.6,6.4-3.5
			c1.2-0.8,2.1-4.1-1.5-3.9c-4.1,0.2-8.7,4.4-8.1,8.5c0.5,3.1,2.9,3.3,5.7,2.9c2.2-0.3,3.8-1.8,5.4-4.1
			C122.3,91.8,122,91.5,121.9,91.6z M117.7,86.8c2.2-0.9,2.2,0.3,1.4,1.1c-0.7,0.6-3,1.5-3.7,1.8c-0.1,0-0.2,0-0.1-0.1
			C115.4,89,115.9,87.5,117.7,86.8z"/>
		<path class="st1" d="M77.7,94.8c-0.4-0.5-0.3-1.4-0.3-1.4v-5.9c0,0,0.2-1.6-1.2-2.4c-0.6-0.3-2.2,0.8-2.2,0.8l-3.3,2.7
			c0,0,0.5-2.5,1.3-4.8c0.8-2.3,2.4-5.9,2.4-5.9s0.6-1.1-0.4-2c-0.8-0.7-2.1-0.8-2.1-0.8l-3.3,9.4L65.3,84l2.8-7.5
			c0,0,0.6-0.8-0.3-1.5c-1.2-0.9-2-0.8-2-0.8L61.5,84c0,0-2.1,0.3-2.2,1.3C60,86.7,60.9,87,61,87l-0.7,5.6c0,0-0.8,1.3-3.1,1.5
			c-2.8,0.3-2.7-2.6-2.7-2.6s0.8-4.6,1.6-7.6c0.8-3,2.4-6.3,3-8.6c0.7-2.3-2.9-1.9-2.9-1.9s-2.3,4.9-3.6,11.5
			c-0.9,4.5-0.9,9.6-0.9,9.6s-3.2,1-2.5-1.3c0.4-1.4,1-3,1-3s-1.5-2.3-2.1-2.2c-0.7,0.1-3.3,3.5-4.7,5c-1.2,1.2-1.9-0.8-0.4-2.8
			c3.5-4.4,5.7-3.7,5.7-3.7s1.1-0.9-0.4-1.6c-1.4-0.6-4.3-0.2-8.2,5.1c-2.7,3.6-5.5,4-7.1,3.6c-0.6-0.1-1-0.4-1.2-0.7
			c-0.3-0.3-0.2-0.8,0.2-1c1.6-0.7,5.7-2.6,6.7-4.2c1.3-2-1.2-3.5-3.4-2.8c-2.2,0.7-8.8,4.3-6.4,9.5c2.1,4.4,7.7,0.6,9.4-0.6
			c0.2-0.2,0.5-0.1,0.6,0.2c0.2,0.8,0.8,2.3,2.1,2.4c1.9,0.3,3.5-1.3,4.1-2c0.1-0.1,0.3-0.1,0.4,0c0.3,0.5,0.9,1.5,1.9,1.7
			c1,0.2,3.2-0.4,4-0.7c0.2-0.1,0.5,0,0.7,0.1c0.6,0.4,1.8,1,3.3,0.8c2-0.2,4-1.9,4.4-2c0.4-0.1,0.2,1.4,0.2,1.4s0,0.8,0.5,0.7
			c0.5-0.1,1.5-1.2,1.5-1.2s0.6-2.6,1.1-4.3c0.3-1.2,1-2.7,1.2-3.5c0.1-0.4,0.4-0.6,0.8-0.7l2.7-0.2c0,0-0.8,2.1-1.1,4.4
			c-0.3,2.2-0.2,5.5-0.2,5.5s0.8-0.1,1.7-0.4c1-0.3,1.1-1.1,1.1-1.1s1.1-2.7,3-4.7c2-2,2.1-0.1,2.1-0.1s0,4.6,1.2,5.8
			c1.1,1,3.2,0.3,3.8,0c0.1,0,0.2-0.1,0.2-0.2l0.2-0.6C80.1,95.1,78.3,95.6,77.7,94.8z M35.6,86.5c1.5-0.7,2.3,0.6,0.8,1.5
			c-1.5,0.9-3.7,1.5-3.7,1.5S34.1,87.1,35.6,86.5z"/>
	</g>
</g>
</svg>
