<?xml version="1.0" encoding="utf-8"?>
<!-- Generator: Adobe Illustrator 19.1.1, SVG Export Plug-In . SVG Version: 6.00 Build 0)  -->
<svg version="1.1" id="Layer_1" xmlns="http://www.w3.org/2000/svg" xmlns:xlink="http://www.w3.org/1999/xlink" x="0px" y="0px"
	 viewBox="0 0 136.1 90.7" style="enable-background:new 0 0 136.1 90.7;" xml:space="preserve">
<style type="text/css">
	.st0{fill-rule:evenodd;clip-rule:evenodd;fill:#364B98;}
</style>
<g>
	<path class="st0" d="M94.5,24.5c0,13.4-10.9,24.3-24.3,24.3c-7.1,0-13.4-3-17.8-7.8c3.3-2.3,13-1.8,15.6-0.9
		c16.3,5,18.5-9.3,18.5-9.3h-1.5c-3,9.8-18,5.8-20.2,5.8c-2.2,0-3.6,0.5-3.6,0.5L81.6,10H56.3l-2.2,7.1l1.6,0.7
		c1.9-5.2,8.6-5.1,8.6-5.1h7L50.9,39.1C47.8,35.1,46,30,46,24.5C46,11.2,56.8,0.3,70.2,0.3C83.6,0.3,94.5,11.2,94.5,24.5L94.5,24.5z
		 M10.9,69h5.3L1.4,89.6h20.2l2.9-5.6c-2.7,2.5-9.4,2.5-9.4,2.5H9.4l14.6-20.9H5.4l-2.3,5.1C6,69,10.9,69,10.9,69L10.9,69z
		 M27.3,65.7c0,0,1.4,1,1.4,3.6v14.5c0,0,0.6,6.9,10.3,6.9c9.6,0,9.8-7.7,9.8-7.7V67.8c0,0,0-2,1.4-2.1h-7c0,0,1.4,0,1.4,2.2v14.2
		c0,0-0.3,5.2-5.5,5.2c-5.1,0-5.8-4.8-5.8-4.8V69.1c0,0,0-3.4,1.1-3.4H27.3L27.3,65.7z M75.6,89.6c-5.8,1.9-9.4-3-9.4-3l-5.2-6.9
		h-0.6v7c0.1,2.7,1.4,2.9,1.4,2.9h-7.9c1.6,0,2-2.9,2-2.9V69.2c0-2.4-1.4-3.5-1.4-3.5h9.1c0,0,8.5,0.1,8.5,6.7
		c0,5.3-6.2,6.7-6.2,6.7C73.4,88.7,75.6,89.6,75.6,89.6L75.6,89.6z M67.2,72.5c0-4.4-6.8-3.8-6.8-3.8v8.7
		C60.4,77.5,67.2,78.1,67.2,72.5L67.2,72.5z M78,65.7c0,0,1.4,0.1,1.4,3.8v16.7c0,0,0,3.5-1.7,3.5h7.1c0,0-1.2,0-1.2-3.8V69.5
		c0,0,0-3.8,1.5-3.8H78L78,65.7z M108.9,70.6v-4.4c0,0-2.5-1.1-5.8-1.1c-4.8,0-14.4,2-14.4,13.2c0,11.2,10.9,12.4,12.8,12.4
		c1.9,0,5.6-0.7,7.1-1.7v-4.7c0,0-1.7,2.7-6.5,2.7c-4.8,0-8.6-4.2-8.6-8.9c0-4.7,3.8-9.5,9.1-9.5C106.7,68.7,108.9,70.6,108.9,70.6
		L108.9,70.6z M133.6,85.9V69.5c0,0,0-3.8,1.5-3.8H128c0,0,1.4,0.1,1.4,3.8v6.2h-10.8v-6.2c0,0,0-3.8,1.5-3.8H113
		c0,0,1.4,0.1,1.4,3.8v16.7c0,0,0,3.5-1.7,3.5h7.1c0,0-1.2,0-1.2-3.8v-7h10.8v7.3c0,0,0,3.5-1.7,3.5h7.1
		C134.8,89.6,133.6,89.6,133.6,85.9L133.6,85.9z"/>
</g>
</svg>
